<svg id="_.1" data-name=".1" xmlns="http://www.w3.org/2000/svg" width="780.328" height="633.83" viewBox="0 0 780.328 633.83">
  <path id="_.1-2" data-name=".1" d="M3919.35,3655.593v-2.831h-8.33v-2.832h-8.332V3647.1h-8.331v-2.831h-8.33v-2.832H3877.7V3638.6h-8.331v-2.831h-8.33v-2.832H3852.7v-2.831h-8.331v-2.831h-8.331v-2.831h-8.33v-2.832h-8.331v-2.831h-8.331v-2.831h-6.467V3196.141H3585.358l-.148.222a277.494,277.494,0,0,1-73.121,74.419c-29.008,20.111-63.52,35.837-102.576,46.742l-.521.146,65.2,178.22.181.492.483-.2q2.576-1.083,5.1-2.209l1.716,4.69.181.492.483-.2q2.576-1.083,5.094-2.21l1.717,4.693.181.492.484-.2c1.717-.723,3.411-1.464,5.094-2.214l1.718,4.695.181.492.483-.2c1.718-.722,3.411-1.465,5.093-2.215l1.719,4.7.18.492.484-.2q2.577-1.084,5.093-2.219l1.719,4.7.181.492.483-.2q2.578-1.084,5.093-2.22l1.72,4.7.18.492.484-.2q2.578-1.084,5.09-2.222l1.721,4.7.181.492.483-.2c1.722-.724,3.409-1.475,5.088-2.233l1.725,4.715.181.492.483-.2c1.722-.725,3.411-1.474,5.088-2.233l1.724,4.714.181.492.484-.2c1.721-.724,3.412-1.471,5.086-2.232l1.725,4.715.181.492.483-.2q2.583-1.087,5.088-2.234l1.725,4.715.18.492.484-.2q2.583-1.086,5.086-2.236l1.726,4.718.181.492.483-.2q2.586-1.088,5.083-2.245l1.729,4.726.18.492.484-.2c.318-.134.625-.277.941-.413v78.506h-6.356v2.831h-9.626v2.832h-9.626v2.831h-1.154a43.48,43.48,0,0,0-9.343-12.186h0c-9.49-8.714-21.7-13.133-36.282-13.133a61.749,61.749,0,0,0-13.873,1.518c-.342,0-.678-.019-1.022-.019a66.941,66.941,0,0,0-14.415,1.508c-.161,0-.319-.009-.48-.009a72.174,72.174,0,0,0-14.951,1.5,77.341,77.341,0,0,0-15.426,1.509,82.158,82.158,0,0,0-15.428,1.51,86.975,86.975,0,0,0-15.426,1.509,91.962,91.962,0,0,0-15.427,1.509,96.742,96.742,0,0,0-15.42,1.509,101.632,101.632,0,0,0-15.433,1.509,106.771,106.771,0,0,0-15.426,1.509,111.392,111.392,0,0,0-15.425,1.51,116.325,116.325,0,0,0-15.427,1.509,121.334,121.334,0,0,0-15.379,1.508,126.147,126.147,0,0,0-15.352,1.512,131.072,131.072,0,0,0-15.375,1.515,136.073,136.073,0,0,0-15.516,1.523c-29.9,1.324-55.239,11.357-75.38,29.884-21.677,19.945-32.668,45.588-32.668,76.221s10.991,56.276,32.668,76.221,49.344,30.04,82.261,30.04c29.158,0,54.083-7.822,74.255-23.26a103.219,103.219,0,0,0,12.418-8.177,99.635,99.635,0,0,0,12.484-8.214,95.971,95.971,0,0,0,12.483-8.215,92.187,92.187,0,0,0,12.483-8.213,88.38,88.38,0,0,0,12.541-8.26,84.656,84.656,0,0,0,12.556-8.272c.374-.2.743-.4,1.113-.608v64.55h515.066V3655.593Zm-1-1.831v1.831h-7.33v-1.831Zm-495.109,95.974q.413-.323.821-.65a77.207,77.207,0,0,0,7.8-4.717v59.763H3911.02V3656.593h7.33v155.124H3423.241Zm-101.379-137.283h.047c-1.1.316-2.189.647-3.267,1-1.546-.132-3.109-.231-4.684-.309,1.053-.211,2.107-.421,3.177-.6C3318.7,3612.489,3320.271,3612.453,3321.862,3612.453Zm14.9-1.5c.234,0,.462.012.7.013q-1.7.5-3.356,1.07-2.43-.228-4.913-.363,1.674-.346,3.378-.639C3333.95,3610.99,3335.344,3610.954,3336.757,3610.954Zm14.9-1.5c.454,0,.9.021,1.347.026-1.163.354-2.31.737-3.447,1.138q-2.526-.259-5.111-.414c1.168-.251,2.354-.47,3.545-.679C3349.2,3609.49,3350.418,3609.455,3351.652,3609.455Zm14.9-1.5c.685,0,1.355.027,2.033.039q-1.8.565-3.549,1.209c-1.729-.2-3.483-.346-5.255-.464,1.2-.266,2.412-.5,3.636-.723C3364.453,3607.989,3365.491,3607.956,3366.547,3607.956Zm14.894-1.5c.941,0,1.865.031,2.792.053q-1.861.606-3.673,1.3-2.685-.336-5.444-.538,1.842-.423,3.728-.768C3379.708,3606.487,3380.567,3606.457,3381.441,3606.457Zm14.9-1.5c1.2,0,2.374.029,3.548.068q-1.959.657-3.86,1.421c-1.845-.255-3.709-.475-5.609-.629q1.9-.454,3.848-.82C3394.955,3604.986,3395.639,3604.959,3396.337,3604.959Zm14.894-1.5c1.441,0,2.862.036,4.271.095-1.354.473-2.691.975-4,1.53q-2.881-.439-5.86-.706c1.329-.332,2.68-.625,4.047-.889C3410.205,3603.482,3410.712,3603.46,3411.231,3603.46Zm14.9-1.5c1.671,0,3.311.058,4.936.142-1.365.5-2.7,1.058-4.009,1.647-2.013-.342-4.07-.6-6.159-.808,1.383-.364,2.794-.678,4.221-.962C3425.455,3601.977,3425.787,3601.961,3426.127,3601.961Zm14.894-1.5c1.939,0,3.837.075,5.71.2-1.429.547-2.834,1.137-4.2,1.791q-3.081-.579-6.29-.935c1.411-.39,2.844-.742,4.3-1.042C3440.7,3600.47,3440.86,3600.462,3441.021,3600.462Zm14.948-1.5q3.282,0,6.431.248-2.2.885-4.295,1.956-3.192-.673-6.536-1.081C3453.01,3599.667,3454.472,3599.283,3455.969,3598.964Zm15.437-1.489q3.375.025,6.595.332a48.771,48.771,0,0,0-4.387,2.143q-3.313-.786-6.8-1.26C3468.306,3598.222,3469.842,3597.823,3471.406,3597.475Zm15.436-1.488c14.966.225,27.52,4.882,37.316,13.876a46.081,46.081,0,0,1,9.283,11.753h-5.312v2.832h-5.213a50.559,50.559,0,0,0-10.128-12.793h0a56.993,56.993,0,0,0-30.629-14.347Q3484.442,3596.545,3486.842,3595.987Zm312.71,17.135h-3.031V3222.576H3592.559l-.149.223a258.089,258.089,0,0,1-68,69.211c-26.977,18.7-59.074,33.329-95.4,43.471l-.521.146,56.659,154.869q-2.289,1.077-4.621,2.122l-60.475-165.3c37.585-10.549,70.811-25.721,98.768-45.1a268.758,268.758,0,0,0,70.676-71.86h210.058Zm2.168,2.832h-1.168v-1.832h1.168Zm-368.853,127.7q1.911-1.36,3.748-2.838,2.495-1.3,4.879-2.783v57.513h461.194V3656.593h7.332v146.539H3432.867Zm-19.252,8.95v-1.522c.774-.984,1.528-1.98,2.25-2.993,1.859-.379,3.682-.821,5.476-1.312-1.4,1.562-2.882,3.072-4.426,4.549C3415.828,3751.774,3414.73,3752.2,3413.615,3752.6Zm1.312.57c-.433.389-.872.769-1.312,1.148v-.663C3414.056,3753.5,3414.491,3753.339,3414.927,3753.175Zm-60.093,35.726q2.1-2.632,4-5.381c1.925-.364,3.827-.77,5.7-1.235q-2.088,2.508-4.379,4.9C3358.407,3787.806,3356.63,3788.37,3354.834,3788.9Zm-47.867,13.407c-29.223,0-53.782-8.964-73-26.642s-28.94-40.39-28.94-67.536,9.737-49.869,28.94-67.535a97.473,97.473,0,0,1,38.414-21.813q3.432.225,6.778.606a94.312,94.312,0,0,0-28.113,17.926c-18.663,17.171-28.127,39.25-28.127,65.623s9.464,48.451,28.127,65.623,42.478,25.86,70.814,25.86a119,119,0,0,0,30.146-3.679q-2.078,2.432-4.337,4.759A117.121,117.121,0,0,1,3306.967,3802.308Zm-27.777-185.319q2.981.039,5.9.194-2.006.676-3.966,1.434-2.948-.375-5.96-.63C3276.491,3617.627,3277.836,3617.3,3279.19,3616.989Zm15.437-1.489q3.045.052,6.02.23-2.064.72-4.077,1.529-3.006-.413-6.084-.7Q3292.535,3615.991,3294.627,3615.5Zm15.436-1.489q3.108.067,6.142.268-2.112.759-4.17,1.614-3.063-.452-6.206-.758Q3307.922,3614.529,3310.063,3614.011Zm238.319,8.6h8.626v1.832h-8.372c-.085-.249-.165-.5-.254-.747Zm243.108-12.325h-3.03V3249.012h-188.7l-.149.222a238.645,238.645,0,0,1-62.885,64c-24.949,17.3-54.631,30.822-88.223,40.2l-.521.146,48.1,131.461q-2.249,1.188-4.54,2.344l-51.992-142.112c34.852-9.786,65.665-23.858,91.591-41.832a249.367,249.367,0,0,0,65.558-66.651h194.8Zm1.9,2.831h-.9v-1.831h.9Zm-350.9,124.271a73.845,73.845,0,0,0,6.679-4.85c.654-.337,1.3-.68,1.947-1.037v55.457h443.237v-130.37h7.331v137.954H3442.494Zm-9.627,4.145v-.608q1.389-1.494,2.682-3.042c1.561-.441,3.1-.919,4.608-1.451-.115.107-.221.219-.337.326-1.216,1.117-2.469,2.174-3.741,3.2Q3434.495,3740.789,3432.867,3741.538Zm-8.591,3.329q2.108-2.571,3.963-5.283,1.836-.338,3.628-.752v1.705q-1.179,1.255-2.428,2.472Q3426.907,3744.022,3424.276,3744.867Zm-10.661,2.625v-6.443c1.934-.044,3.847-.128,5.722-.28q-1.87,3.294-4.057,6.412C3414.728,3747.291,3414.172,3747.393,3413.615,3747.492Zm.793.87c-.26.355-.526.7-.793,1.055v-.906C3413.881,3748.464,3414.144,3748.412,3414.408,3748.362Zm41.771-132.008a42.336,42.336,0,0,0-3.793,7.807,74.464,74.464,0,0,0-10.8-8.191,49.408,49.408,0,0,1,4.773-5.235A69.021,69.021,0,0,1,3456.179,3616.354Zm327.25-6.063H3780.4V3275.447H3606.959l-.148.223a219.225,219.225,0,0,1-57.768,58.794c-22.919,15.89-50.188,28.314-81.047,36.931l-.52.145,39.327,107.495q-2.2,1.308-4.452,2.585l-43.312-118.387c32.117-9.02,60.516-21.993,84.415-38.56a229.959,229.959,0,0,0,60.441-61.444h179.534ZM3432.867,3737.57v-5.609q3.267-.231,6.405-.7a71.691,71.691,0,0,1-4.291,5.743C3434.281,3737.2,3433.578,3737.394,3432.867,3737.57Zm.971.8q-.478.55-.971,1.094v-.867C3433.189,3738.52,3433.518,3738.454,3433.838,3738.371Zm-10.6.985v-4.042c.476-1.035.938-2.077,1.369-3.136.507.008,1.006.029,1.517.029,1.872,0,3.706-.07,5.521-.174a74.11,74.11,0,0,1-4.007,6.645C3426.193,3738.937,3424.729,3739.168,3423.241,3739.356Zm3.62.486c-1.133,1.609-2.351,3.17-3.62,4.7v-4.178Q3425.071,3740.14,3426.861,3739.842Zm-86.129-114.706a99.711,99.711,0,0,1,9.468,4.847,63.714,63.714,0,0,0-4.359,6.235,103.434,103.434,0,0,0-9.929-6.249c1.448-1.59,2.971-3.141,4.6-4.637C3340.582,3625.265,3340.658,3625.2,3340.732,3625.136Zm15.754-.629a94.84,94.84,0,0,1,9.694,5.429,59.273,59.273,0,0,0-4.148,6.864,100.021,100.021,0,0,0-10.3-7.1A67.609,67.609,0,0,1,3356.486,3624.507Zm217.5-123.716v-5.006c.673-.521,1.364-1.031,2.023-1.56.252-.2.492-.423.743-.628l.259.707v6.049c-.824.614-1.676,1.213-2.521,1.815Zm201.377,109.5h-3.031V3301.883H3614.16l-.148.222a199.8,199.8,0,0,1-52.652,53.586c-20.888,14.483-45.742,25.807-73.869,33.661l-.52.145,30.332,82.909q-2.151,1.441-4.355,2.851l-34.414-94.067c29.389-8.259,55.372-20.131,77.237-35.29a210.538,210.538,0,0,0,55.324-56.235h164.272ZM3481,3712.109a63.349,63.349,0,0,0,5.726-4.321q1.474-.725,2.9-1.528v46.363h371.41v-96.03h7.33v103.615H3481Zm-28.878,16.154c.211-.07.422-.14.632-.212-.213.2-.416.41-.632.611Zm0-1.056v-3.371c.292-.447.587-.891.867-1.344q3.01-.422,5.9-1.06c-1.373,1.7-2.83,3.348-4.392,4.937C3453.71,3726.663,3452.918,3726.939,3452.12,3727.207Zm-9.626,2.5v-1.69c.919-1.57,1.8-3.161,2.6-4.8q3.072-.136,6.031-.479v.785c-1.147,1.74-2.362,3.44-3.678,5.085C3445.825,3729.034,3444.17,3729.39,3442.494,3729.709Zm3.867.192c-1.227,1.461-2.5,2.894-3.867,4.277v-3.451Q3444.453,3730.359,3446.361,3729.9Zm-23.12,1.25v-9.721c1.206.269,2.425.516,3.662.727a80.62,80.62,0,0,1-2.975,9.008C3423.7,3731.159,3423.469,3731.158,3423.241,3731.151Zm.3,1.006c-.1.242-.2.485-.3.726v-.732C3423.341,3732.154,3423.443,3732.154,3423.542,3732.157Zm-9.927-1.824v-11.8c1.33.51,2.674.994,4.05,1.423a89.546,89.546,0,0,1-2.41,10.609C3414.7,3730.5,3414.162,3730.411,3413.615,3730.333Zm1.338,1.2q-.624,2.023-1.338,4v-4.191C3414.062,3731.407,3414.5,3731.482,3414.953,3731.537Zm-56.688-10.771c-13.929-12.815-20.992-29.3-20.992-48.989a68.691,68.691,0,0,1,4.6-25.381c.521.462,1.042.924,1.557,1.4a100.85,100.85,0,0,1,11.965,13.088c-.142,1.872-.231,3.767-.231,5.7,0,18.707,6.65,34.4,19.744,46.656q.428,5.128.435,10.47,0,4.348-.283,8.554A70.572,70.572,0,0,1,3358.265,3720.766Zm16.712,12.579a113.165,113.165,0,0,1-1.712,12.883,74.874,74.874,0,0,1-32.756-17.62c-14.684-13.506-22.128-30.88-22.128-51.637,0-15.058,3.938-28.325,11.695-39.638a107.555,107.555,0,0,1,11,8.361,69.576,69.576,0,0,0-4.8,26.083c0,19.984,7.171,36.713,21.314,49.725A71.573,71.573,0,0,0,3374.977,3733.345Zm-32.71-87.939a61,61,0,0,1,3.876-7.744,104.145,104.145,0,0,1,9.336,7.6c.787.723,1.552,1.457,2.309,2.2a65.15,65.15,0,0,0-2.275,11.929,102.181,102.181,0,0,0-11.405-12.334h0Q3343.2,3646.218,3342.267,3645.406Zm14.048,16.7c10.466,14.189,16.646,30.789,18.46,49.613-12.337-11.945-18.609-27.114-18.609-45.134C3356.166,3665.068,3356.227,3663.58,3356.315,3662.1Zm19.677,52.122a68.167,68.167,0,0,0,10.232,7.614,114.956,114.956,0,0,1-1.267,14.39,72.409,72.409,0,0,1-8.928-3.5q.312-4.431.316-9.019Q3376.345,3718.88,3375.992,3714.227Zm.029-1.3c-.049-.046-.094-.093-.143-.139-1.72-19.911-8.234-37.388-19.456-52.217a64.8,64.8,0,0,1,2.182-12.3,92.879,92.879,0,0,1,15.931,21.185,57.09,57.09,0,0,0,9.413,25.775,113.326,113.326,0,0,1,2.324,23.286c0,.724-.011,1.442-.023,2.16A67.356,67.356,0,0,1,3376.021,3712.923Zm19.631-71.275a81.451,81.451,0,0,1,16.963,26.127v30.408c-.36-.316-.726-.621-1.08-.947-1.163-1.07-2.253-2.179-3.3-3.31a88.172,88.172,0,0,0-14.264-38.6A60.13,60.13,0,0,1,3395.652,3641.648Zm95.676.788c.232.606.459,1.215.672,1.832h-1.375v-1.832Zm-.7-1v-.806c.111.265.207.539.314.806Zm276.681-31.145h-3.032V3328.319H3621.36l-.148.223a180.394,180.394,0,0,1-47.534,48.377c-18.859,13.074-41.3,23.3-66.692,30.39l-.52.145,21.083,57.63q-2.09,1.593-4.246,3.148l-25.275-69.085c26.653-7.5,50.223-18.267,70.062-32.02a191.108,191.108,0,0,0,50.2-51.025h149.011Zm-267.055,88.731a54.882,54.882,0,0,0,8.626-5.4v41.833h335.5v-78.86h7.331v86.445H3500.251Zm-26.451,12.352a62,62,0,0,0,3.815-6.129c.8-.07,1.6-.143,2.383-.238v4.108c-.186.206-.379.407-.569.61Q3476.684,3710.67,3473.8,3711.374Zm-6.869,6.705c-1.688.608-3.421,1.14-5.185,1.617v-.354q1.92-2.64,3.551-5.441c1.725-.2,3.413-.46,5.075-.77v1.066Q3468.743,3716.19,3466.931,3718.079Zm3.441-2.326v.965c-.43.183-.865.358-1.3.532C3469.517,3716.758,3469.945,3716.256,3470.372,3715.753Zm-5.026,3.913c-.474.461-.938.929-1.429,1.381-.711.653-1.439,1.279-2.171,1.9v-2.209C3462.965,3720.412,3464.163,3720.051,3465.346,3719.666Zm-13.226,1.939v-7.265c1.253.056,2.515.092,3.8.092.081,0,.159,0,.24,0a67.152,67.152,0,0,1-3.788,7.143Zm-9.626.686v-8.98c1.712.3,3.459.526,5.234.7a71.918,71.918,0,0,1-3.3,8.239C3443.789,3722.278,3443.139,3722.281,3442.494,3722.291Zm1.442.973c-.463.933-.939,1.858-1.442,2.769v-2.742C3442.976,3723.284,3443.458,3723.279,3443.936,3723.264Zm-11.069-1.337V3710.9q2.888.957,5.919,1.655a79.169,79.169,0,0,1-2.745,9.606Q3434.439,3722.074,3432.867,3721.927Zm2.793,1.217c-.837,2.233-1.756,4.421-2.793,6.547v-6.759C3433.79,3723.018,3434.722,3723.087,3435.66,3723.144Zm-22.045-22.795a60.114,60.114,0,0,0,5.412,3.937,103.024,103.024,0,0,1-1.2,14.669c-1.433-.45-2.832-.958-4.214-1.5Zm-1,16.716c-1.26-.517-2.5-1.067-3.717-1.66q.227-3.58.231-7.275a111.785,111.785,0,0,0-.688-12.518c.779.8,1.58,1.591,2.416,2.361.576.529,1.167,1.036,1.758,1.54Zm7.4-12.144c.732.454,1.477.886,2.228,1.308v13.936q-1.745-.423-3.444-.926A103.73,103.73,0,0,0,3420.013,3704.921Zm3.228,1.864a60.465,60.465,0,0,0,6.044,2.808,89.285,89.285,0,0,1-2.119,11.595c-1.329-.225-2.633-.494-3.925-.787ZM3481,3645.268h8.627v1.831h-8.059c-.177-.494-.379-.973-.568-1.46Zm97.017-161.554q1.536-1.457,3.023-2.974v7.81q-1.49,1.366-3.023,2.675Zm-1,7.679-1.843-5.036c.626-.557,1.228-1.143,1.843-1.713Zm-3.025-22.44q1.537-1.66,3.025-3.383v8.388q-1.491,1.572-3.025,3.088Zm185.254,141.338h-3.031V3354.755H3628.561l-.149.223A160.98,160.98,0,0,1,3586,3398.146c-16.829,11.667-36.853,20.792-59.516,27.119l-.52.145,11.536,31.532c-1.35,1.2-2.726,2.363-4.113,3.513l-15.86-43.351c23.924-6.735,45.08-16.406,62.884-28.75a171.642,171.642,0,0,0,45.088-45.817h133.749Zm-239.741,76.48a52.145,52.145,0,0,0,4.775-3.791q1.975-.9,3.851-1.966v37.269h299.583v-61.69h7.33v69.275H3519.5Zm-28.878,15.015v-5.3q2.908-.195,5.688-.618a56.068,56.068,0,0,1-4.387,5.506C3491.494,3701.513,3491.063,3701.655,3490.625,3701.786Zm-9.627,2.069v-5.933c.18-.466.373-.925.543-1.4,1.371.078,2.755.13,4.166.13q1.518,0,3-.06a57.523,57.523,0,0,1-4,6.644Q3482.881,3703.6,3481,3703.855Zm2.848.565q-1.348,1.827-2.848,3.568v-3.122Q3482.438,3704.671,3483.846,3704.42Zm-22.1,8.8v-8.208c2.154.258,4.362.415,6.617.484a64.153,64.153,0,0,1-3.671,7.46C3463.72,3713.062,3462.739,3713.152,3461.746,3713.221Zm2.313.8c-.732,1.219-1.5,2.419-2.313,3.592v-3.4C3462.524,3714.169,3463.293,3714.1,3464.059,3714.025Zm-31.192-20.343a55.9,55.9,0,0,0,7.842,4.955,89.408,89.408,0,0,1-1.712,12.942q-3.144-.725-6.13-1.734Zm-1,15.825c-.5-.18-1-.373-1.5-.566a103.2,103.2,0,0,0,.619-11.2c0-1.923-.066-3.814-.166-5.687.344.286.7.555,1.048.832Zm1-54.088c.029.058.056.116.084.174h-.084Zm0,1.174h.537a76.824,76.824,0,0,1,5.084,14.578,45.312,45.312,0,0,1-5.621-14.267ZM3573.99,3437.1q1.428-2.083,2.807-4.219l.218-.1v9.64q-1.2,1.731-2.436,3.424c-.2.079-.392.156-.589.233Zm-1,9.371q-4.095,1.588-8.369,3,4.378-5.238,8.369-10.915Zm-29.88,5.24-6.092-16.653a207.626,207.626,0,0,0,28.4-10.216,174,174,0,0,1-12.377,16.268q-3.482,1.106-7.064,2.109l-.521.145,1.593,4.355C3545.753,3449.075,3544.445,3450.411,3543.11,3451.714Zm3.655-7.675c1.7-.478,3.37-.981,5.033-1.5q-1.956,2.226-3.982,4.37Zm6.848-2.06q5.16-1.647,10.091-3.525a162.612,162.612,0,0,1-13.353,15.389l-2.151-5.881Q3550.969,3445.045,3553.613,3441.979Zm1.25-1.461a176,176,0,0,0,12.261-16.439q2.982-1.368,5.866-2.825V3425q-3.864,6.2-8.152,11.94Q3559.968,3438.845,3554.863,3440.518Zm18.127-20.378c-1.584.8-3.2,1.58-4.824,2.344q2.45-3.8,4.746-7.754h.078Zm178.193,190.151h-3.032v-229.1h-112.39l-.149.223a141.534,141.534,0,0,1-37.3,37.96,151.3,151.3,0,0,1-16.276,9.788v-4.2h-1.6l-.144.25q-1.119,1.942-2.283,3.837v-9.7h-1.34a162.075,162.075,0,0,0,16.051-9.766,152.268,152.268,0,0,0,39.969-40.609h118.488Zm53.4,43.471h5.467v1.831h-5.467Zm5.467,2.831v43.521H3548.382v-42.577c.113-.311.213-.629.319-.944h8.307v35.936H3802.72v-38.767h.863v2.831ZM3500.6,3686.769c-.119,0-.233-.007-.351-.007v-30.169h6.059c.1,1.576.172,3.169.172,4.8a62.144,62.144,0,0,1-5.048,25.362C3501.155,3686.756,3500.882,3686.769,3500.6,3686.769Zm.375.992q-.353.756-.726,1.5v-1.5c.118,0,.232.007.351.007S3500.851,3687.762,3500.977,3687.761Zm-11.729,7.8c-1.167.055-2.344.093-3.541.093-1.3,0-2.574-.046-3.837-.113a67.184,67.184,0,0,0,2.549-9.878q2.54.7,5.206,1.175v7.913C3489.5,3695.022,3489.378,3695.295,3489.248,3695.563Zm-20.5,8.941c-2.389-.062-4.728-.219-7-.5V3700.9a79.492,79.492,0,0,0,1.4-8.2,56.09,56.09,0,0,0,7.23,2.229v4.982C3469.886,3701.472,3469.341,3703,3468.749,3704.5Zm1.623-1.407v1.438c-.186,0-.37-.008-.555-.01C3470,3704.048,3470.2,3703.579,3470.372,3703.1Zm-28.878-19.752c-.236-2.557-.587-5.056-1.024-7.51.334.435.673.868,1.024,1.294Zm1-5.032a51.72,51.72,0,0,0,3.876,3.974,53.662,53.662,0,0,0,4.75,3.878V3698.9c-.117.934-.253,1.859-.4,2.778a56.884,56.884,0,0,1-8.227-3.253Zm9.626,20.648a93.591,93.591,0,0,0,.721-11.588,52.113,52.113,0,0,0,7.905,4.337v9.077c-.227,1-.479,1.989-.745,2.97a63.343,63.343,0,0,1-7.881-1.679Zm19.252-45.2H3480v1.831h-8.124c-.163-.578-.326-1.156-.5-1.727Zm57.757-8.494h8.626v1.831h-8.545c-.024-.4-.05-.8-.081-1.2Zm69.006-5.664v-2.831h4.023v-2.832h4.025v-2.831h4.024v-2.831h4.023v-2.831h4.025v-2.832h4.024v-2.831h4.024v-2.831h4.024v-2.832h4.024v-2.831h4.024V3503.6H3637.2l-.144.25c-.86,1.493-1.772,2.931-2.709,4.344v-10.211h-1.2l-.144.25c-.853,1.481-1.755,2.912-2.678,4.32v-10.187H3629.1l-.145.25c-.847,1.47-1.737,2.9-2.648,4.3v-10.165h-1.262l-.145.25c-.839,1.458-1.717,2.877-2.617,4.274v-10.141h-1.293l-.144.25q-1.25,2.169-2.587,4.251V3475.52h-1.322l-.145.25q-1.239,2.151-2.558,4.224V3469.9h-1.352l-.145.25c-.816,1.418-1.662,2.8-2.526,4.173v-10.04h-1.384l-.144.25c-.807,1.4-1.646,2.768-2.5,4.124v-9.991h-1.413l-.145.25c-.8,1.384-1.629,2.732-2.467,4.074v-9.941h-1.443l-.145.25c-.79,1.372-1.606,2.719-2.435,4.053v-8.02a131.056,131.056,0,0,0,13.067-7.911,123.166,123.166,0,0,0,32.294-32.8h95.594v202.665h4.031v2.831h4.03v2.832h4.032v2.831h4.03v2.831h4.031v2.832h4.03v2.831h4.032v2.831h4.03v2.831h4.031v2.832h4.031v2.831h4.031v2.832h4.031v2.832h4.03v2.831h1.9v34.845H3567.634v-26.351h6.356v-2.831h4.025v-2.832h4.023V3648.1h4.025v-2.831h4.023v-2.832h4.024V3639.6Zm-4.025-1v-1.831h3.025v1.831Zm4.025-2.831v-1.832h3.023v1.832Zm4.023-2.832v-1.831h3.025v1.831Zm-24.143-190.212q1.542-2.234,3.023-4.532v4.914q-1.5.673-3.023,1.321Zm-1,2.122c-.234.1-.467.2-.7.294.234-.326.47-.648.7-.975Zm1-13.9c1.023-1.64,2.029-3.3,3.006-4.985h.017v3.717q-1.5.768-3.023,1.509Zm3.023-.14v5.516q-1.478,2.352-3.023,4.632v-8.648Q3579.541,3431.572,3581.038,3430.81Zm166.113,179.481h-3.03V3394.408H3639.36l-.148.223a131.837,131.837,0,0,1-34.739,35.356,140.408,140.408,0,0,1-14.387,8.714v-2.5h-1.534l-.145.25c-.764,1.326-1.549,2.631-2.344,3.925v-9.792H3584.5l-.144.25c-.755,1.311-1.53,2.6-2.315,3.882v-4.424a152.546,152.546,0,0,0,16.847-10.095,142.562,142.562,0,0,0,37.411-38.005h110.855Zm-3.03,1h3.03v1.831h-3.03Zm-101.16-203.665-.148.223a122.133,122.133,0,0,1-32.181,32.752,129.807,129.807,0,0,1-12.5,7.633v-.8h-1.475l-.144.25c-.392.68-.794,1.351-1.2,2.023-.4.2-.807.4-1.211.6v-8.491H3592.6l-.144.25c-.773,1.342-1.569,2.661-2.375,3.968v-6.206a141.8,141.8,0,0,0,14.957-9.018,132.876,132.876,0,0,0,34.853-35.4h103.225v214.883h-3.031V3407.626Zm-46.928,42.837c.374-.191.731-.4,1.1-.592v9.075q-1.474,2.3-3.025,4.525v-9.886Q3595.089,3452.041,3596.033,3450.463Zm-1.923,1.231v-.3c.087-.042.175-.083.262-.126Zm2.9-2.866c.042-.073.087-.144.129-.217v.15Zm-3.9,1.973q-1.5.729-3.024,1.432v-4.306q1.549-2.454,3.024-4.985Zm-4.024-11.579c-.553.287-1.1.574-1.664.855q.843-1.391,1.664-2.8Zm-4.023,2.022q-1.5.723-3.025,1.42v-6.054c1.03-1.646,2.043-3.31,3.025-5.006Zm1.362.443q1.341-.658,2.661-1.335v7.294c-.982,1.55-1.994,3.069-3.023,4.569v-9.947C3586.184,3442.075,3586.3,3441.881,3586.425,3441.687Zm-5.387,2.518v3.845c-.986,1.411-2,2.794-3.023,4.162v-6.7Q3579.539,3444.872,3581.038,3444.205Zm1-.445q1.363-.618,2.7-1.258c-.88,1.383-1.785,2.741-2.7,4.085Zm3.025.083v9.818c-.259.367-.523.729-.784,1.093-.741.3-1.49.6-2.241.894v-7.292Q3583.583,3446.135,3585.063,3443.843Zm1,10.137q1.547-2.206,3.023-4.491v3.2q-1.5.673-3.023,1.321Zm3.023-.217v5.505q-1.482,2.083-3.023,4.1v-8.3Q3587.587,3454.431,3589.086,3453.763Zm1-.433c1.025-.467,2.019-.962,3.024-1.447v1.417q-1.473,2.313-3.024,4.544Zm3.024,1.8v9.738q-1.479,2.061-3.024,4.053v-9.331Q3591.635,3457.4,3593.11,3455.134Zm0,11.4v9.15q-1.482,1.833-3.024,3.6v-8.771Q3591.632,3468.561,3593.11,3466.534Zm1-1.353c1.035-1.45,2.039-2.932,3.025-4.434v9.689q-1.481,2.042-3.025,4.01Zm7.048-.6q-1.474,2.289-3.023,4.5v-9.84q1.552-2.435,3.023-4.953Zm4.025,5.639q-1.472,2.269-3.025,4.452v-9.77q1.557-2.427,3.025-4.948Zm4.024,5.639q-1.469,2.25-3.024,4.407v-9.724q1.557-2.414,3.024-4.92Zm4.023,5.641q-1.466,2.229-3.023,4.359v-9.679c1.038-1.6,2.051-3.222,3.023-4.888Zm4.025,5.639q-1.465,2.208-3.025,4.315v-9.634c1.04-1.588,2.055-3.2,3.025-4.859Zm4.024,5.64q-1.464,2.186-3.024,4.269v-9.593c1.04-1.576,2.057-3.176,3.024-4.827Zm4.024,5.641c-.977,1.441-1.978,2.856-3.024,4.222v-9.551c1.041-1.564,2.059-3.151,3.024-4.793Zm4.024,5.639q-1.459,2.125-3.024,4.135v-9.468c1.043-1.55,2.061-3.127,3.024-4.76Zm4.024,5.641c-.967,1.387-1.982,2.723-3.024,4.027v-9.369c1.046-1.535,2.063-3.1,3.024-4.724Zm0,100.594h-3.024v-94.98c1.041-1.261,2.054-2.553,3.024-3.893Zm1-100.3c1.049-1.519,2.066-3.074,3.024-4.688v104.993h-3.024Zm-24.144,114.462v-1.832h3.023v1.832Zm3.023,1v1.831h-3.023v-1.831Zm-3.023-117.641q1.547-1.531,3.023-3.146v8.028q-1.479,1.4-3.023,2.724Zm0-1.427v-8.287q1.548-1.785,3.023-3.655v8.724Q3611.754,3504.813,3610.207,3506.38Zm15.1,103.911h-3.024v-86.636c1.035-.912,2.038-1.863,3.024-2.837Zm1-90.489c1.033-1.062,2.048-2.149,3.024-3.281v93.77H3626.3Zm-12.073,96.152v-1.832h3.025v1.832Zm3.025,1v1.831h-3.025v-1.831Zm0-89.248v82.585h-3.025v-80.422Q3615.779,3528.81,3617.255,3527.706Zm-3.025.938v-6.767c.041-.033.085-.064.126-.1.986-.792,1.951-1.614,2.9-2.457v7.121Q3615.778,3527.564,3614.23,3528.644Zm4.025-1.709c.528-.405,1.065-.805,1.579-1.218.491-.4.965-.811,1.445-1.219v85.793h-3.024Zm-1,84.356v1.831h-3.025v-1.831Zm1,2.831h3.024v1.832h-3.024Zm0-1v-1.831h3.024v1.831Zm4.024-1.831h3.024v1.831h-3.024Zm0-88.99v-7.862c1.04-1.1,2.041-2.256,3.024-3.429v8.382Q3623.827,3520.892,3622.279,3522.3Zm-1,.886c-.683.594-1.368,1.185-2.072,1.751-.31.249-.637.488-.952.734V3518.4q1.548-1.425,3.024-2.94Zm-3.024-6.158v-8.035q1.554-1.7,3.024-3.506v8.533Q3619.806,3515.573,3618.255,3517.029Zm-1,.931q-1.482,1.35-3.025,2.618v-7.449q1.545-1.477,3.025-3.036Zm-3.025-6.209v-8.207q1.551-1.746,3.025-3.581v8.656C3616.269,3509.69,3615.264,3510.738,3614.23,3511.751Zm-1,2.306v7.329q-1.474,1.17-3.023,2.3v-6.96Q3611.749,3515.43,3613.23,3514.057Zm0,8.592v6.68q-1.479,1-3.023,1.963v-6.381Q3611.754,3523.8,3613.23,3522.649Zm0,7.878v79.764h-3.023v-77.827Q3611.749,3531.515,3613.23,3530.527Zm0,80.764v1.831h-3.023v-1.831Zm0,2.831v1.832h-3.023v-1.832Zm0,2.832v1.831h-3.023v-1.831Zm0,2.831v1.831h-3.023v-1.831Zm1,2.831h3.025v1.832h-3.025Zm0-1v-1.831h3.025v1.831Zm4.025-1.831h3.024v1.831h-3.024Zm0-1v-1.831h3.024v1.831Zm4.024-1.831h3.024v1.831h-3.024Zm0-1v-1.832h3.024v1.832Zm4.024-1.832h3.024v1.832H3626.3Zm0-1v-1.831h3.024v1.831Zm4.024-1.831h3.024v1.831h-3.024Zm-1-96.329q-1.465,1.757-3.024,3.405v-8.577c1.038-1.289,2.053-2.6,3.024-3.968Zm-4.024-5.533c-.98,1.206-1.985,2.384-3.024,3.52v-8.684q1.562-1.98,3.024-4.071Zm-4.024-5.532q-1.469,1.848-3.024,3.595v-8.779c1.042-1.346,2.045-2.736,3.024-4.151Zm-4.024-5.532q-1.47,1.884-3.025,3.671v-8.907q1.56-2.049,3.025-4.2Zm-4.025-5.552c-.982,1.282-1.988,2.54-3.023,3.762v-9.034q1.555-2.076,3.023-4.245Zm-4.023,4.891q-1.479,1.693-3.024,3.306v-8.389q1.548-1.826,3.024-3.733Zm0-10.486q-1.474,1.954-3.024,3.825v-9.09q1.552-2.1,3.024-4.294Zm-4.024,5.029q-1.482,1.733-3.025,3.393V3487.1q1.547-1.859,3.025-3.794Zm0-10.623q-1.476,1.984-3.025,3.887v-9.147q1.553-2.127,3.025-4.341Zm-4.025-5.593q-1.476,2.013-3.023,3.947v-9.205q1.551-2.151,3.023-4.386Zm-4.023-3.906v9.091q-1.481,1.8-3.025,3.523v-8.7Q3595.657,3474.12,3597.135,3472.125Zm0,10.673v8.5q-1.485,1.584-3.025,3.1v-8.153C3595.136,3485.114,3596.148,3483.972,3597.135,3482.8Zm1-1.23q1.545-1.89,3.023-3.854v9.035c-.985,1.176-2,2.321-3.023,3.447Zm3.023,6.739v8.358q-1.485,1.545-3.023,3.022v-7.994Q3599.677,3490.037,3601.158,3488.307Zm0,9.791v7.794c-.989.889-2,1.748-3.023,2.592v-7.428Q3599.674,3499.612,3601.158,3498.1Zm1-1.02q1.545-1.62,3.025-3.319v8.276q-1.484,1.5-3.025,2.925Zm3.025,6.385v7.631c-.8.688-1.59,1.376-2.409,2.034-.2.161-.413.315-.616.476v-7.278Q3603.7,3504.93,3605.183,3503.463Zm1-1.019q1.543-1.577,3.024-3.233v8.194q-1.482,1.452-3.024,2.827Zm3.024,6.344v7.47c-.321.266-.631.546-.955.806-.674.542-1.374,1.068-2.069,1.6v-7.1Q3607.723,3510.211,3609.207,3508.788Zm-.328,9.056c.111-.09.217-.187.328-.277v6.829q-1.482,1.053-3.024,2.068v-6.54C3607.1,3519.239,3608,3518.549,3608.879,3517.844Zm.328,7.778v6.28q-1.485.9-3.024,1.77v-6.012Q3607.723,3526.659,3609.207,3525.622Zm0,7.449v77.22h-3.024v-75.473Q3607.72,3533.962,3609.207,3533.071Zm0,78.22v1.831h-3.024v-1.831Zm0,2.831v1.832h-3.024v-1.832Zm0,2.832v1.831h-3.024v-1.831Zm0,2.831v1.831h-3.024v-1.831Zm0,2.831v1.832h-3.024v-1.832Zm0,2.832v1.831h-3.024v-1.831Zm0,2.831v1.831h-3.024v-1.831Zm138.944-14.157h3.032v1.832h-3.032Zm4.032,2.832h3.03v1.831h-3.03Zm4.03,2.831h3.031v1.831h-3.031Zm4.031,2.831h3.03v1.832h-3.03Zm4.03,2.832h3.032v1.831h-3.032Zm4.032,2.831h3.03v1.831h-3.03Zm4.03,2.831h3.031v1.831h-3.031Zm4.031,2.831h3.031v1.832h-3.031Zm4.031,2.832h3.031v1.831H3780.4Zm4.031,2.831h3.031v1.832h-3.031Zm4.031,2.832h3.03v1.832h-3.03Zm4.03,2.832h.9v1.831h-.9Zm-234.482,11.325h8.626v27.351h227.755V3648.1h1.132v2.831h4.031v2.832h2.168v37.767H3558.008Zm-39.611-1c0-.615-.02-1.225-.04-1.831h.146v1.831Zm-8.52,0v-1.831h7.48q.031.909.04,1.831Zm7.524,1c-.06,10.884-2.589,20.529-7.524,28.84v-28.84Zm-21.937-2.831h3.787v1.831h-3.486C3495.674,3654.977,3495.57,3654.369,3495.464,3653.762Zm-.714,1.831h-4.125v-1.831h3.824Q3494.611,3654.671,3494.75,3655.593Zm5.5-1.831h5.818c.065.607.125,1.216.174,1.831h-5.992Zm6.825,0h1.8v1.831h-1.632Q3507.173,3654.671,3507.076,3653.762Zm12.427,0h8.626v1.831H3519.5Zm65.56-9.494h-3.025v-1.832h3.025Zm1-1.832h3.023v1.832h-3.023Zm-1,2.832v1.831h-3.025v-1.831Zm-4.025,1.831h-3.023v-1.831h3.023Zm-13.4,5.663v-1.832h5.356v1.832Zm5.356,1v1.831h-5.356v-1.831Zm-34.142-1h-.093v-1.832h.29C3538.992,3651.547,3538.92,3652.155,3538.848,3652.762Zm1.2-1.832h7.334v1.832h-7.528C3539.926,3652.155,3540,3651.547,3540.048,3650.93Zm-2.293,1.832H3529.3c.015-.585.039-1.166.039-1.758,0-.025,0-.049,0-.074h8.419Zm-8.478,1h8.478v1.831h-8.591C3529.206,3654.985,3529.252,3654.378,3529.277,3653.762Zm10.463,0h7.642v1.831h-7.934C3539.552,3654.986,3539.656,3654.379,3539.74,3653.762Zm8.642,0h.13c-.043.16-.085.321-.13.481Zm0-1v-1.832h.8c-.125.615-.255,1.228-.4,1.832Zm1.829-1.832h6.8v1.832h-7.193C3549.96,3652.158,3550.089,3651.545,3550.211,3650.93Zm7.8,0h8.626v1.832h-8.626Zm8.626-1h-8.626V3648.1h8.626Zm1-1.831h5.356v1.831h-5.356Zm6.356,2.831h3.025v1.832h-3.025Zm0-1V3648.1h3.025v1.831Zm4.025-1.831h3.023v1.831h-3.023Zm-1-1h-3.025v-1.831h3.025Zm-4.025,0h-5.356v-1.831h5.356Zm-6.356,0h-8.626v-1.831h8.626Zm-9.626,0h-6.2c.072-.606.139-1.215.19-1.831h6.01Zm0,1v1.831H3550.4c.107-.607.213-1.214.3-1.831Zm-7.627,1.831h-1V3648.1h1.3C3549.594,3648.716,3549.49,3649.324,3549.381,3649.93Zm-2,0h-7.267c.041-.607.079-1.215.1-1.831h7.166Zm-8.269,0h-.358V3648.1h.461C3539.193,3648.715,3539.154,3649.323,3539.113,3649.93Zm-1.358,0h-8.441c-.009-.613-.014-1.227-.04-1.831h8.481Zm-9.661,6.663a50.087,50.087,0,0,1-8.591,24.556v-24.556Zm9.661,0v2.286a44.8,44.8,0,0,1-8.626,17.569v-19.855Zm1.524,0h8.1v.748a41.373,41.373,0,0,1-8.627,14v-12.328Q3539.046,3657.819,3539.279,3656.593Zm10.271-2.831h7.458v1.831h-7.978C3549.217,3654.99,3549.387,3654.378,3549.55,3653.762Zm8.458,0h8.626v1.831h-8.626Zm35.1-12.326h-3.024V3639.6h3.024Zm-4.024,0h-3.023V3639.6h3.023Zm-4.023,0h-3.025V3639.6h3.025Zm-4.025,0h-3.023V3639.6h3.023Zm0,1v1.832h-3.023v-1.832Zm-4.023,1.832h-3.025v-1.832h3.025Zm-4.025,0h-5.356v-1.832h5.356Zm-6.356,0h-8.626v-1.832h8.626Zm-9.626,0h-5.943c.039-.607.07-1.216.089-1.832h5.854Zm-6.945,0h-1.681v-1.832h1.773C3550.135,3643.052,3550.1,3643.662,3550.063,3644.268Zm-.067,1c-.052.617-.121,1.225-.2,1.831h-1.419v-1.831Zm-2.614,1.831h-7.144c.009-.43.029-.854.029-1.288,0-.184-.011-.361-.012-.543h7.127Zm-8.115-1.288c0,.434-.02.858-.029,1.288h-.483v-1.831h.5C3539.256,3645.45,3539.267,3645.627,3539.267,3645.811Zm-11.138,4.119H3519.5V3648.1h8.626Zm0,1v1.832H3519.5v-1.832Zm-9.626,1.832h-.18c-.03-.617-.078-1.224-.124-1.832h.3Zm-1.183,0h-7.443v-1.832h7.32C3517.244,3651.538,3517.29,3652.146,3517.32,3652.762Zm-8.443,0h-1.916c-.073-.614-.148-1.227-.238-1.832h2.154Zm-2.922,0h-5.7v-1.832h5.457C3505.8,3651.536,3505.88,3652.147,3505.955,3652.762Zm-6.7,0H3495.3c-.117-.618-.262-1.223-.4-1.832h4.348Zm-4.977,0h-3.649v-1.832h3.253C3494.014,3651.538,3494.154,3652.145,3494.274,3652.762Zm-4.649,0h-6.333c-.16-.614-.321-1.227-.5-1.832h6.83Zm0,1v1.831h-5.667c-.131-.611-.25-1.228-.4-1.831ZM3481,3683.535v-26.942h2.151a76.4,76.4,0,0,1,1.477,15.184,77.965,77.965,0,0,1-1.013,12.616C3482.73,3684.127,3481.856,3683.845,3481,3683.535Zm2.452,1.853a66.217,66.217,0,0,1-2.452,9.6v-10.392Q3482.207,3685.019,3483.45,3685.388Zm-9.822-5.252q-1.147-.65-2.256-1.365v-21.2a78.69,78.69,0,0,1,2.325,19.4C3473.7,3678.038,3473.665,3679.088,3473.628,3680.136Zm-1.483-23.543H3480v26.557a47.863,47.863,0,0,1-5.382-2.46c.051-1.228.081-2.466.081-3.719A79.309,79.309,0,0,0,3472.145,3656.593Zm13.481,15.184a77.628,77.628,0,0,0-1.452-15.184h5.451v29.229q-2.584-.462-5.043-1.152A78.922,78.922,0,0,0,3485.626,3671.777Zm-2.693-16.184H3481v-1.831h1.526C3482.673,3654.365,3482.8,3654.981,3482.933,3655.593Zm-12.561,22.534a48.336,48.336,0,0,1-5.567-4.419c-.551-.507-1.083-1.024-1.6-1.548a79.976,79.976,0,0,0-1.457-8.728v-6.839h8.626Zm0,1.191V3693.9a54.833,54.833,0,0,1-7.112-2.23,90.443,90.443,0,0,0,.51-9.507q0-4.317-.388-8.439c.25.239.489.484.745.719A49.256,49.256,0,0,0,3470.372,3679.318Zm-9.626-19.823c-.278-.979-.58-1.944-.9-2.9h.9Zm0,4.052v5.914a41.74,41.74,0,0,1-7.463-12.868h5.511A72.187,72.187,0,0,1,3460.746,3663.547Zm1,5.244c.111.715.218,1.432.311,2.157-.1-.112-.21-.22-.311-.332Zm.5,3.825a87.95,87.95,0,0,1,.049,18.676c-.184-.076-.368-.152-.551-.23V3672.08C3461.915,3672.258,3462.076,3672.439,3462.248,3672.616Zm-.069,19.706c-.125,1.084-.267,2.158-.433,3.221v-3.391C3461.889,3692.212,3462.035,3692.264,3462.179,3692.322Zm9.193,2.845c.095.021.187.046.282.067-.09.381-.186.759-.282,1.137Zm0-1.029v-14.176q1.091.681,2.214,1.306a77.62,77.62,0,0,1-1.72,12.987C3471.7,3694.219,3471.538,3694.175,3471.372,3694.138Zm3.182-12.355a48.925,48.925,0,0,0,5.444,2.443v11.206a63.455,63.455,0,0,1-7.148-.988A78.514,78.514,0,0,0,3474.554,3681.783Zm16.071,5.223c.632.1,1.266.195,1.909.275-.563,1.794-1.19,3.554-1.909,5.263Zm0-1.011v-29.4h4.273a75.058,75.058,0,0,1,.656,9.991,69.416,69.416,0,0,1-2.714,19.728C3492.094,3686.221,3491.357,3686.113,3490.625,3686Zm5.929-19.411a76.168,76.168,0,0,0-.649-9.991h3.346v30.149q-2.758-.054-5.4-.328A70.507,70.507,0,0,0,3496.554,3666.584Zm10.928-5.193c0-1.628-.068-3.221-.169-4.8h1.564v29.654a63.5,63.5,0,0,1-6.332.484A63.328,63.328,0,0,0,3507.482,3661.391Zm10.919-4.8h.1v25.939q-.8,1.065-1.654,2.095a54.208,54.208,0,0,1-6.134,1.359C3515.758,3677.514,3518.341,3667.684,3518.4,3656.593Zm1.1,26.274a49.425,49.425,0,0,0,8.626-19.6v14.376a48.4,48.4,0,0,1-3.97,4.117c-.138.126-.282.243-.42.368q-2.062.93-4.236,1.676Zm8.626-3.708v.7c-.465.272-.93.547-1.4.8C3527.208,3680.171,3527.671,3679.667,3528.129,3679.159Zm1-1.154a45.494,45.494,0,0,0,8.626-15.5v9.9c-.5.506-1.015,1.007-1.547,1.495a47.045,47.045,0,0,1-7.079,5.365Zm9.626-5.194a42.587,42.587,0,0,0,8.627-12.783v41.086H3811.05v-44.521h7.331V3708.7H3538.755Zm263.965-20.049v-1.832h.863v1.832Zm-1,0h-1.168v-1.832h1.168Zm-1.168-2.832V3648.1h1.168v1.831Zm-1,0h-3.031V3648.1h3.031Zm-3.031-2.831v-1.831h3.031v1.831Zm-1,0h-1.132v-1.831h1.132Zm-1.132-2.831v-1.832h1.132v1.832Zm-1,0h-.9v-1.832h.9Zm-.9-2.832V3639.6h.9v1.832Zm-1,0h-3.03V3639.6h3.03Zm-3.03-2.832v-1.831h3.03v1.831Zm-1,0h-3.031v-1.831h3.031Zm-3.031-2.831v-1.832h3.031v1.832Zm-1,0H3780.4v-1.832h3.031Zm-3.031-2.832v-1.831h3.031v1.831Zm-1,0h-3.031v-1.831h3.031Zm-3.031-2.831v-1.831h3.031v1.831Zm-1,0h-3.031v-1.831h3.031Zm-3.031-2.831v-1.831h3.031v1.831Zm-1,0h-3.03v-1.831h3.03Zm-3.03-2.831v-1.832h3.03v1.832Zm-1,0h-3.032v-1.832h3.032Zm-3.032-2.832v-1.831h3.032v1.831Zm-1,0h-3.03v-1.831h3.03Zm-3.03-2.831v-1.831h3.03v1.831Zm-1,0h-3.031v-1.831h3.031Zm-3.031-2.831v-1.832h3.031v1.832Zm-1,0h-3.03v-1.832h3.03Zm-3.03-2.832v-1.831h3.03v1.831Zm-1,0h-3.032v-1.831h3.032ZM3573.99,3420.751c.765-.39,1.52-.789,2.275-1.189l-.021.036q-1.105,1.919-2.254,3.8Zm-1,6.147v6.638q-3.14,1.4-6.386,2.711Q3569.925,3431.709,3572.99,3426.9Zm1-1.606c1.012-1.628,2.01-3.271,2.977-4.944h.048v10.316c-.3.481-.6.962-.9,1.438-.7.332-1.407.666-2.12.991Zm1.082,8.4c-.359.547-.718,1.094-1.082,1.636v-1.146C3574.351,3434.022,3574.713,3433.86,3575.072,3433.7Zm.146,12.972q.9-.361,1.8-.73v7.6q-1.484,1.93-3.025,3.8v-9.04C3574.4,3447.755,3574.813,3447.216,3575.218,3446.667Zm1.8,8.5v2.357q-1.309.465-2.636.914Q3575.717,3456.823,3577.015,3455.166Zm1-1.293q1.541-2.017,3.023-4.1v6.268q-1.5.576-3.023,1.129Zm3.023,3.21v2.014q-1.484,1.91-3.023,3.753v-4.628C3579.035,3457.855,3580.034,3457.466,3581.038,3457.083Zm1-.387c.386-.151.778-.3,1.162-.449-.384.519-.773,1.031-1.162,1.544Zm2.889-1.131c.046-.019.09-.04.136-.059v9.139c-.991,1.259-2,2.5-3.025,3.719v-8.916C3583.021,3458.177,3583.98,3456.877,3584.927,3455.565Zm.136,10.691v8.738q-1.486,1.686-3.025,3.307V3469.9Q3583.577,3468.107,3585.063,3466.256Zm1-1.262q1.542-1.971,3.023-4.013v9.211q-1.482,1.859-3.023,3.649Zm3.023,6.749v8.666q-1.485,1.655-3.023,3.244v-8.319Q3587.6,3473.573,3589.086,3471.743Zm0,10.168v8.137c-.988.973-2,1.911-3.023,2.843v-7.806C3587.085,3484.045,3588.1,3482.992,3589.086,3481.911Zm1-1.121q1.541-1.728,3.024-3.518v8.593c-.987,1.078-2,2.125-3.024,3.158Zm0,9.662c1.022-1.013,2.038-2.034,3.024-3.09v7.985c-1,.953-2,1.9-3.024,2.808Zm7.049,2.279v7.888q-1.488,1.383-3.025,2.7v-7.532C3595.139,3494.794,3596.142,3493.77,3597.135,3492.731Zm0,9.254v7.331q-1.481,1.185-3.025,2.335v-7.021Q3595.646,3503.339,3597.135,3501.985Zm1,7.808q1.536-1.243,3.023-2.551v7.133q-1.482,1.146-3.023,2.256Zm3.023,5.844v6.628q-1.486,1-3.023,1.973v-6.38Q3599.676,3516.764,3601.158,3515.637Zm1-.771c.412-.321.839-.634,1.243-.959.605-.486,1.189-1,1.782-1.5v7.029q-1.481,1.1-3.025,2.159Zm3.025,5.8v6.459q-1.485.953-3.025,1.869V3522.8C3603.188,3522.1,3604.192,3521.389,3605.183,3520.664Zm0,7.653v5.919q-1.488.816-3.025,1.6v-5.675C3603.182,3529.555,3604.194,3528.944,3605.183,3528.317Zm0,7.061v74.913h-3.025v-73.334Q3603.692,3536.183,3605.183,3535.378Zm0,75.913v1.831h-3.025v-1.831Zm0,2.831v1.832h-3.025v-1.832Zm0,2.832v1.831h-3.025v-1.831Zm0,2.831v1.831h-3.025v-1.831Zm0,2.831v1.832h-3.025v-1.832Zm0,2.832v1.831h-3.025v-1.831Zm0,2.831v1.831h-3.025v-1.831Zm-4.025,1.831h-3.023v-1.831h3.023Zm0,1v1.831h-3.023v-1.831Zm-4.023,1.831h-3.025v-1.831h3.025Zm0,1v1.832h-3.025v-1.832Zm-4.025,1.832h-3.024v-1.832h3.024Zm0,1v1.831h-3.024v-1.831Zm-4.024,1.831h-3.023v-1.831h3.023Zm-4.023,0h-3.025v-1.831h3.025Zm-4.025,0h-3.023v-1.831h3.023Zm-4.023,0h-3.025v-1.831h3.025Zm0,1v1.832h-3.025V3639.6Zm-4.025,1.832h-5.356V3639.6h5.356Zm-6.356,0h-8.626V3639.6h8.626Zm-9.626,0h-5.832c0-.274.018-.543.018-.819,0-.341-.016-.674-.022-1.013h5.836Zm-6.814-.819c0,.276-.014.545-.018.819h-1.794V3639.6h1.79C3550.178,3639.943,3550.194,3640.276,3550.194,3640.617Zm-2.812.819H3540.1c-.044-.615-.095-1.226-.158-1.832h7.442Zm0,1v1.832h-7.149c-.015-.615-.035-1.227-.068-1.832Zm-8.149,1.832h-.478v-1.832h.408C3539.2,3643.041,3539.217,3643.653,3539.233,3644.268Zm-1.478,0h-8.626v-1.832h8.626Zm-9.784,0H3519.5v-1.832h8.257C3527.844,3643.039,3527.905,3643.655,3527.971,3644.268Zm.113,1c.02.218.027.443.045.663v1.168H3519.5v-1.831Zm-9.581,1.831h-.7c-.083-.618-.189-1.224-.29-1.831h.986Zm0,1v1.831h-.371c-.056-.618-.137-1.222-.21-1.831Zm-1.378,1.831h-7.248V3648.1h7.038C3516.989,3648.707,3517.068,3649.313,3517.125,3649.93Zm-8.248,0h-2.318c-.1-.613-.2-1.228-.314-1.831h2.632Zm-3.333,0h-5.293V3648.1h4.969C3505.339,3648.7,3505.442,3649.316,3505.544,3649.93Zm-6.293,0h-4.564c-.146-.617-.311-1.224-.474-1.831h5.038Zm-5.589,0h-3.037V3648.1h2.549C3493.34,3648.707,3493.513,3649.312,3493.662,3649.93Zm-4.037,0H3482.5c-.19-.617-.4-1.224-.6-1.831h7.729Zm-8.184,0H3481v-1.352C3481.149,3649.027,3481.3,3649.476,3481.441,3649.93Zm.316,1c.178.6.334,1.219.5,1.832H3481v-1.832Zm-1.759,1.832h-8.626v-1.832H3480Zm-10.044,0h-8.208v-1.832h7.58C3469.547,3651.534,3469.75,3652.148,3469.954,3652.762Zm.328,1c.029.092.061.182.09.274v1.557h-8.626v-1.831Zm-9.536,1.831h-1.225c-.213-.616-.44-1.224-.669-1.831h1.894Zm-2.28,0h-5.518q-.3-.906-.563-1.831h5.39C3458.009,3654.37,3458.249,3654.976,3458.466,3655.593Zm-6.241,1a42.8,42.8,0,0,0,8.521,14.419v19.6a51.149,51.149,0,0,1-7.931-4.464,93.028,93.028,0,0,0-.695-10.391v-19.164Zm-1.1,12.975a76.265,76.265,0,0,0-3.819-12.975h3.819Zm0,6.251v9.115a52.712,52.712,0,0,1-4.072-3.383,50.146,50.146,0,0,1-4.554-4.789v-20.169h3.73A77.31,77.31,0,0,1,3451.12,3675.819Zm-9.626-.291q-.765-.981-1.47-1.994a78.54,78.54,0,0,0-5.518-16.941h6.988Zm-2.409-1.593a92.884,92.884,0,0,1,1.828,18.615c0,1.688-.05,3.352-.131,5a55.021,55.021,0,0,1-7.915-5.146v-31.412A45.735,45.735,0,0,0,3439.085,3673.935Zm2.409,27.823V3712.1c-.508-.1-1.02-.186-1.522-.294A88.523,88.523,0,0,0,3441.494,3701.758Zm1-2.214a57.909,57.909,0,0,0,8.064,3.129,77.779,77.779,0,0,1-2.511,10.369q-2.829-.276-5.553-.75Zm8.626,5.607v8.128c-.686-.039-1.374-.078-2.051-.134A77.841,77.841,0,0,0,3451.12,3705.151Zm1-2.031a64.352,64.352,0,0,0,7.618,1.609,69.62,69.62,0,0,1-3.124,8.689c-.234,0-.462.014-.7.014-1.282,0-2.545-.037-3.8-.094Zm8.617,1.753.009,0v8.4q-1.5.085-3.021.118A70.724,70.724,0,0,0,3460.737,3704.873Zm8.694.644c.314,0,.625.017.941.018v6.578c-1.455.276-2.928.517-4.432.705A65.137,65.137,0,0,0,3469.431,3705.517Zm1.941-5.436q.708-2.289,1.266-4.659a64.4,64.4,0,0,0,7.36,1.012v1.292a61.328,61.328,0,0,1-3.023,6.577c-1.83.145-3.7.217-5.6.23Zm8.626.286V3704c-.6.074-1.218.128-1.831.188C3478.818,3702.934,3479.432,3701.664,3480,3700.367Zm9.627-3.357v5.059c-1.156.326-2.327.625-3.52.886A58.55,58.55,0,0,0,3489.625,3697.01Zm1-1.528v-.506a59.831,59.831,0,0,0,2.929-7.587q2.784.3,5.7.353v3.439c-.675,1.215-1.414,2.394-2.182,3.556C3494.979,3695.089,3492.828,3695.333,3490.625,3695.482Zm8.626-2.333v1.181c-.265.054-.536.1-.8.15C3498.726,3694.042,3498.985,3693.594,3499.251,3693.149Zm1-1.717c.661-1.2,1.266-2.439,1.837-3.692a65.252,65.252,0,0,0,6.643-.462,52.067,52.067,0,0,1-4.342,5.744c-1.35.413-2.733.768-4.138,1.084Zm8.626-2.571v2.564c-.88.357-1.775.688-2.681,1Q3507.618,3690.69,3508.877,3688.861Zm-5.766,5.564c-.913.978-1.86,1.938-2.86,2.866v-2.157Q3501.7,3694.814,3503.111,3694.425Zm1.851-.53c1.2-.374,2.375-.8,3.533-1.247a53.992,53.992,0,0,1-6.406,4.255C3503.088,3695.924,3504.054,3694.926,3504.962,3693.9Zm4.915-2.89v-3.637c.06-.094.124-.185.184-.279a56.463,56.463,0,0,0,5.632-1.108c-1.122,1.253-2.312,2.466-3.582,3.633-.3.277-.612.535-.918.8Q3510.541,3690.72,3509.877,3691Zm7.54-5.5c.362-.1.728-.2,1.086-.315v1.063q-1.984,1.364-4.093,2.527Q3516,3687.2,3517.417,3685.507Zm2.086-.65c.57-.191,1.137-.388,1.7-.6q-.837.66-1.7,1.283Zm307.209,32.426H3529.129v-36.841a48,48,0,0,0,7.755-5.807c.3-.276.581-.562.871-.842V3709.7h281.626v-53.106h7.331Zm-7.331-61.69v-1.831h7.331v1.831Zm-1,0h-7.331v-1.831h7.331Zm-7.331-2.831v-1.832h7.331v1.832Zm-1,0h-5.467v-1.832h5.467Zm-5.467-2.832V3648.1h5.467v1.831Zm-1,0h-.863V3648.1h.863Zm-.863-2.831v-1.831h.863v1.831Zm-1,0h-1.168v-1.831h1.168Zm-1.168-2.831v-1.832h1.168v1.832Zm-1,0h-3.031v-1.832h3.031Zm-3.031-2.832V3639.6h3.031v1.832Zm-1,0h-1.132V3639.6h1.132Zm-1.132-2.832v-1.831h1.132v1.831Zm-1,0h-.9v-1.831h.9Zm-.9-2.831v-1.832h.9v1.832Zm-1,0h-3.03v-1.832h3.03Zm-3.03-2.832v-1.831h3.03v1.831Zm-1,0h-3.031v-1.831h3.031Zm-3.031-2.831v-1.831h3.031v1.831Zm-1,0H3780.4v-1.831h3.031Zm-3.031-2.831v-1.831h3.031v1.831Zm-1,0h-3.031v-1.831h3.031Zm-3.031-2.831v-1.832h3.031v1.832Zm-1,0h-3.031v-1.832h3.031Zm-3.031-2.832v-1.831h3.031v1.831Zm-1,0h-3.03v-1.831h3.03Zm-3.03-2.831v-1.831h3.03v1.831Zm-1,0h-3.032v-1.831h3.032Zm-3.032-2.831v-1.832h3.032v1.832Zm-1,0h-3.03v-1.832h3.03Zm-3.03-2.832v-1.831h3.03v1.831Zm-1,0h-3.031v-1.831h3.031Zm-231.973-187.04c22.555-6.352,42.5-15.473,59.295-27.114a161.964,161.964,0,0,0,42.53-43.213h126.117v254.536h-3.03V3367.973H3632.16l-.148.222a151.262,151.262,0,0,1-39.857,40.565,162.073,162.073,0,0,1-18.165,10.862v-5.892h-1.656l-.145.25q-2.751,4.779-5.744,9.31a205.73,205.73,0,0,1-30.217,10.953l-.521.146,6.614,18.078q-1.984,1.911-4.026,3.748Zm15.425,27.41,2.094,5.722q-2.009,1.846-4.075,3.616l-2.049-5.6Q3540.711,3455.4,3542.7,3453.492Zm.789-.753q2-1.946,3.945-3.97l2.142,5.854c-1.31,1.31-2.634,2.6-3.984,3.863Zm6.466,2.919,2.115,5.782c-1.326,1.267-2.666,2.515-4.033,3.728l-2.073-5.665C3547.312,3458.249,3548.639,3456.963,3549.951,3455.658Zm.779-.78a163.511,163.511,0,0,0,14.737-17.1q3.835-1.5,7.523-3.144v2.163a161.367,161.367,0,0,1-10.177,13.28q-3.49,1.121-7.09,2.127l-.521.146,1.6,4.369q-1.941,2.023-3.945,3.972Zm10.838-3.369q-1.962,2.242-4,4.4l-1.057-2.89C3558.218,3452.535,3559.9,3452.028,3561.568,3451.509Zm-4.384,6.253,2.138,5.846q-1.965,1.958-4,3.833l-2.1-5.729Q3555.24,3459.777,3557.184,3457.762Zm.769-.807q2.784-2.927,5.432-6.014,4.916-1.584,9.6-3.392v.414a150.441,150.441,0,0,1-12.888,14.865Zm15.037-7.335v8.927c-.133.158-.262.32-.4.478q-3.5,1.137-7.124,2.154l-.521.145,1.6,4.384q-1.941,2.019-3.952,3.951l-2.12-5.795A151.035,151.035,0,0,0,3572.99,3449.62ZM3566.26,3462c1.722-.486,3.41-1.009,5.092-1.538q-1.974,2.269-4.029,4.444Zm6.73-1.9v8.471c-1.028,1.1-2.078,2.182-3.138,3.247l-2.146-5.867Q3570.416,3463.1,3572.99,3460.1Zm1-.494q1.526-.507,3.025-1.038v5.478q-1.486,1.745-3.025,3.425Zm4.025,4.813c1.027-1.212,2.031-2.451,3.023-3.7v8.808q-1.488,1.719-3.023,3.383Zm3.023,6.628v8.306q-1.488,1.536-3.023,3.01v-8Q3579.551,3472.732,3581.038,3471.044Zm1,8.674q1.539-1.6,3.025-3.262v8.222q-1.488,1.5-3.025,2.941Zm3.025,6.388v7.716c-.99.881-2.007,1.725-3.025,2.568v-7.4C3583.059,3488.042,3584.072,3487.089,3585.063,3486.106Zm-4.025,16.284-1.107-3.025c.367-.286.745-.566,1.107-.854Zm1-4.691q1.533-1.248,3.025-2.553v7.16c-1,.778-1.995,1.555-3.025,2.314Zm4.025-3.444c1.022-.918,2.032-1.851,3.023-2.809V3499c-.907.783-1.812,1.569-2.744,2.318-.091.073-.188.143-.279.216Zm.906,7.843c.719-.578,1.413-1.19,2.117-1.787v7.053c-.989.75-2,1.487-3.023,2.216V3502.8C3586.361,3502.562,3586.674,3502.335,3586.969,3502.1Zm3.117-2.631c1.026-.894,2.03-1.816,3.024-2.751v7.448c-.432.36-.852.738-1.291,1.091-.564.453-1.156.891-1.733,1.338Zm2.36,6.567c.226-.181.44-.377.664-.56v6.91c-.994.727-2,1.45-3.024,2.156v-6.685C3590.877,3507.25,3591.678,3506.651,3592.446,3506.034Zm.664,7.578v6.446c-.99.638-2,1.262-3.024,1.88v-6.2C3591.115,3515.043,3592.116,3514.33,3593.11,3513.612Zm1-.712c1.031-.76,2.033-1.538,3.025-2.321v6.765q-1.485,1.044-3.025,2.055Zm3.025,5.67v6.278c-.994.61-2,1.213-3.025,1.8v-6.055C3595.134,3519.929,3596.146,3519.257,3597.135,3518.57Zm0,7.448v5.8c-1,.529-2,1.052-3.025,1.56V3527.8Q3595.647,3526.925,3597.135,3526.018Zm1-.607c1.027-.638,2.032-1.289,3.023-1.949v6.129q-1.488.867-3.023,1.7Zm3.023,5.33v5.6q-1.491.743-3.023,1.455v-5.368C3599.161,3531.881,3600.164,3531.314,3601.158,3530.741Zm0,6.719v72.831h-3.023V3538.9C3599.158,3538.433,3600.163,3537.95,3601.158,3537.46Zm0,73.831v1.831h-3.023v-1.831Zm0,2.831v1.832h-3.023v-1.832Zm0,2.832v1.831h-3.023v-1.831Zm0,2.831v1.831h-3.023v-1.831Zm0,2.831v1.832h-3.023v-1.832Zm0,2.832v1.831h-3.023v-1.831Zm-4.023,1.831h-3.025v-1.831h3.025Zm0,1v1.831h-3.025v-1.831Zm-4.025,1.831h-3.024v-1.831h3.024Zm0,1v1.831h-3.024v-1.831Zm-4.024,1.831h-3.023v-1.831h3.023Zm0,1v1.832h-3.023v-1.832Zm-4.023,1.832h-3.025v-1.832h3.025Zm-4.025,0h-3.023v-1.832h3.023Zm-4.023,0h-3.025v-1.832h3.025Zm-4.025,0h-5.356v-1.832h5.356Zm0,1v1.831h-5.356v-1.831Zm-6.356,1.831h-8.626v-1.831h8.626Zm-9.626,0h-5.858c-.021-.616-.057-1.224-.1-1.831h5.956Zm-6.858,0h-1.768v-1.831h1.668C3550.092,3637.379,3550.128,3637.988,3550.15,3638.6Zm-2.768,0h-7.557q-.112-.922-.256-1.831h7.813Zm-8.564,0h-.063v-.551C3538.78,3638.235,3538.795,3638.422,3538.818,3638.6Zm.115,1q.1.909.162,1.832h-.34V3639.6Zm-1.178,1.832h-8.626V3639.6h8.626Zm-10.159,0H3519.5V3639.6h7.786C3527.405,3640.208,3527.5,3640.822,3527.6,3641.436Zm-9.093,0h-1.746c-.146-.617-.31-1.225-.475-1.832h2.221Zm0,1v1.832h-1.151c-.113-.618-.247-1.225-.379-1.832Zm-2.165,1.832h-6.461v-1.832h6.071C3516.083,3643.044,3516.222,3643.65,3516.338,3644.268Zm.164,1c.1.608.213,1.213.3,1.831h-6.924v-1.831Zm-7.625,1.831h-2.849c-.129-.612-.25-1.229-.4-1.831h3.246Zm-3.874,0h-4.752v-1.831h4.342C3504.742,3645.871,3504.872,3646.486,3505,3647.1Zm-5.752,0h-5.309c-.176-.616-.364-1.225-.558-1.831h5.867Zm-6.347,0h-2.279v-1.831h1.7C3492.526,3645.875,3492.724,3646.482,3492.9,3647.1ZM3480,3649.93h-8.626V3648.1H3480Zm-9.626,0h-.358c-.232-.614-.463-1.227-.712-1.831h1.07Zm-1.435,0h-7.191V3648.1h6.479C3468.478,3648.7,3468.7,3649.318,3468.937,3649.93Zm-8.191,0h-3.477c-.274-.612-.539-1.229-.83-1.831h4.307Zm0,1v1.832h-2.283c-.243-.613-.482-1.228-.741-1.832Zm-3.36,1.832h-5.266v-1.832h4.5Q3457.016,3651.839,3457.386,3652.762Zm-6.319,0h-5.406c-.284-.614-.568-1.228-.869-1.832h5.866C3450.785,3651.545,3450.916,3652.158,3451.067,3652.762Zm.053,1v1.831h-4.208c-.254-.617-.527-1.223-.8-1.831Zm-5.285,1.831h-3.341v-1.831h2.518C3445.288,3654.371,3445.576,3654.974,3445.835,3655.593Zm-4.341,0h-7.441c-.294-.617-.606-1.223-.917-1.831h8.358Zm-9.9,0h-8.349v-1.831h8.042C3431.371,3654.379,3431.481,3654.985,3431.59,3655.593Zm.182,1c.029.144.065.285.095.429v34.588c-.385-.314-.764-.635-1.142-.961a86.269,86.269,0,0,0-7.484-30.469v-3.587Zm-9.531,1.461c-.244-.492-.507-.974-.761-1.461h.761Zm0,2.35v21.09a48.781,48.781,0,0,1-8.626-20.946v-3.955h6.734Q3421.346,3658.469,3422.241,3660.4Zm1,2.208a85.692,85.692,0,0,1,6.419,27.1c-.121-.11-.248-.212-.368-.322a53.414,53.414,0,0,1-6.051-6.581Zm5.373,27.518c.374.344.76.667,1.141,1,.137,2.175.23,4.371.23,6.614a102.4,102.4,0,0,1-.582,10.82,59.326,59.326,0,0,1-6.162-2.915v-21.219A54.984,54.984,0,0,0,3428.614,3690.13Zm1.634,19.841q.8.308,1.619.593v11.262q-1.874-.2-3.7-.483A90,90,0,0,0,3430.248,3709.971Zm9.513,2.817c.571.123,1.154.225,1.733.334v9.188c-.159,0-.313.009-.473.009-1.33,0-2.641-.036-3.941-.093A80.45,80.45,0,0,0,3439.761,3712.788Zm8.989,1.33c.782.068,1.575.117,2.37.163v7.458c-1.82.214-3.678.359-5.564.454A73.351,73.351,0,0,0,3448.75,3714.118Zm8.518.288q1.758-.027,3.478-.125v4.725c-.288.392-.579.781-.877,1.167q-3.042.734-6.227,1.216A68.456,68.456,0,0,0,3457.268,3714.406Zm14.1-2.48v-6.393q2.569-.018,5.053-.194a60.775,60.775,0,0,1-4.14,6.389C3471.981,3711.795,3471.678,3711.863,3471.372,3711.926Zm13.932-7.779c1.468-.3,2.907-.646,4.321-1.037v.663c-.53.524-1.057,1.049-1.611,1.558-.6.556-1.225,1.087-1.847,1.616q-2.289,1.114-4.7,2.032A60.288,60.288,0,0,0,3485.3,3704.147Zm5.321.05c.639-.64,1.254-1.294,1.856-1.955q1.682-.556,3.309-1.2a57.843,57.843,0,0,1-5.165,3.5Zm3.182-3.463a56.523,56.523,0,0,0,3.861-5.09c.531-.093,1.059-.19,1.583-.3v2.836q-.3.266-.6.527Q3496.293,3699.831,3493.807,3700.734Zm349.566,33.719h-333.5v-41.624q.942-.756,1.856-1.557a51.139,51.139,0,0,0,6.77-3.808v39.4h317.539v-70.275h7.331Zm-7.331-78.86v-1.831h7.331v1.831Zm-1,0h-7.33v-1.831h7.33Zm-7.33-2.831v-1.832h7.33v1.832Zm-1,0h-7.331v-1.832h7.331Zm-7.331-2.832V3648.1h7.331v1.831Zm-1,0h-7.331V3648.1h7.331Zm-7.331-2.831v-1.831h7.331v1.831Zm-1,0h-5.467v-1.831h5.467Zm-5.467-2.831v-1.832h5.467v1.832Zm-1,0h-.863v-1.832h.863Zm-.863-2.832V3639.6h.863v1.832Zm-1,0h-1.168V3639.6h1.168Zm-1.168-2.832v-1.831h1.168v1.831Zm-1,0h-3.031v-1.831h3.031Zm-3.031-2.831v-1.832h3.031v1.832Zm-1,0h-1.132v-1.832h1.132Zm-1.132-2.832v-1.831h1.132v1.831Zm-1,0h-.9v-1.831h.9Zm-.9-2.831v-1.831h.9v1.831Zm-1,0h-3.03v-1.831h3.03Zm-3.03-2.831v-1.831h3.03v1.831Zm-1,0h-3.031v-1.831h3.031Zm-3.031-2.831v-1.832h3.031v1.832Zm-1,0H3780.4v-1.832h3.031Zm-3.031-2.832v-1.831h3.031v1.831Zm-1,0h-3.031v-1.831h3.031Zm-3.031-2.831v-1.831h3.031v1.831Zm-1,0h-3.031v-1.831h3.031Zm-3.031-2.831v-1.832h3.031v1.832Zm-1,0h-3.03v-1.832h3.03Zm-3.03-2.832v-1.831h3.03v1.831Zm-1,0h-3.032v-1.831h3.032Zm-259.53-205c25.287-7.115,47.651-17.337,66.472-30.385a181.431,181.431,0,0,0,47.648-48.422h141.378v280.972h-3.03V3341.537H3624.96l-.148.223a170.684,170.684,0,0,1-44.975,45.772c-17.842,12.37-39.072,22.044-63.1,28.755l-.52.146,16.352,44.7c-.334.273-.663.554-1,.824q-1.569,1.262-3.182,2.5Zm24.416,54.606c.248-.2.491-.406.737-.607l1.989,5.437q-2.079,1.623-4.224,3.207l-1.951-5.333Q3530.489,3464.095,3532.192,3462.732Zm1.556-1.281q2.082-1.719,4.116-3.5l2.042,5.583q-1.418,1.2-2.863,2.36c-.428.343-.866.68-1.3,1.021Zm3.922,5.218q1.313-1.056,2.6-2.143l2.008,5.49q-2.064,1.653-4.205,3.26l-1.967-5.377C3536.628,3467.489,3537.155,3467.083,3537.67,3466.669Zm3.413-2.834q2.068-1.764,4.078-3.606l2.063,5.64q-2.033,1.779-4.124,3.48Zm6.509,3.039,2.03,5.55c-.54.448-1.078.9-1.624,1.339q-1.26,1.011-2.549,2.007l-1.985-5.426Q3545.56,3468.651,3547.592,3466.874Zm.808-.7q2.054-1.812,4.041-3.709l2.086,5.7q-2.015,1.83-4.087,3.583Zm6.5,3.007,2.054,5.615c-1.145.985-2.3,1.958-3.476,2.9-.22.176-.446.349-.667.525l-2-5.478Q3552.884,3471.006,3554.9,3469.181Zm.8-.726q2.034-1.865,4-3.811l2.111,5.769q-1.992,1.884-4.051,3.682Zm6.488,2.982,2.08,5.683q-2.021,1.807-4.109,3.524l-2.028-5.544Q3560.19,3473.31,3562.186,3471.437Zm.79-.753q2.013-1.923,3.96-3.929l2.137,5.84q-1.968,1.946-4.008,3.8Zm6.475,2.946,2.106,5.756q-2,1.866-4.067,3.636l-2.054-5.614Q3567.478,3475.562,3569.451,3473.63Zm.78-.779q1.4-1.4,2.759-2.832v8c-.213.206-.429.409-.644.614Zm2.759,6.55v.991l-.269-.735Zm1-.953q1.536-1.491,3.025-3.041v7.907q-1.095,1.031-2.212,2.032l-.813-2.22Zm.009,7.613-.009.007v-.031Zm.364.995,2.027,5.541c-.338.278-.663.574-1,.848-.455.365-.935.716-1.4,1.077v-7.151C3574.113,3487.264,3574.24,3487.163,3574.363,3487.056Zm3.652,5.479c1.019-.859,2.032-1.725,3.023-2.62v7.32c-.059.048-.115.1-.174.147-.421.338-.866.663-1.293,1l-1.556-4.254Zm.725,6.486c-.242.186-.481.374-.725.56v-2.544Zm.361.984,1.937,5.3v.031c-1,.72-2,1.441-3.023,2.143v-6.633C3578.382,3500.566,3578.738,3500.284,3579.1,3500Zm3.147,5.693c.957-.7,1.887-1.413,2.815-2.13v6.724c-.3.212-.594.431-.9.641Zm1.058,5.8c-.418.281-.845.556-1.268.834v-4.3Zm1.757.018v1.873l-.545-1.49C3584.7,3511.775,3584.879,3511.645,3585.063,3511.518Zm1-.712c1.02-.719,2.036-1.441,3.023-2.18v6.574c-.894.6-1.789,1.2-2.709,1.785l-.314-.861Zm3.023,5.591v6.15c-.186.11-.365.224-.552.333l-1.8-4.933C3587.53,3517.439,3588.3,3516.917,3589.086,3516.4Zm0,7.316v.675l-.2-.553Zm1-.607c1.02-.61,2.035-1.224,3.024-1.854v5.962c-.822.462-1.647.922-2.489,1.371l-.535-1.463Zm3.024,5.253v5.5c-.157.077-.316.152-.474.228l-1.667-4.556C3591.692,3529.15,3592.4,3528.754,3593.11,3528.359Zm0,6.614v.416l-.129-.354Zm1-.477c1.025-.5,2.029-1.022,3.025-1.545v5.3c-.848.384-1.7.768-2.563,1.137l-.462-1.263Zm0,6.169.368-.154c.9-.379,1.778-.773,2.657-1.167v70.947h-3.025Zm3.025,70.626v1.831h-3.025v-1.831Zm0,2.831v1.832h-3.025v-1.832Zm0,2.832v1.831h-3.025v-1.831Zm0,2.831v1.831h-3.025v-1.831Zm0,2.831v1.832h-3.025v-1.832Zm-4.025,1.832h-3.024v-1.832h3.024Zm0,1v1.831h-3.024v-1.831Zm-4.024,1.831h-3.023v-1.831h3.023Zm0,1v1.831h-3.023v-1.831Zm-4.023,1.831h-3.025v-1.831h3.025Zm0,1v1.831h-3.025v-1.831Zm-4.025,1.831h-3.023v-1.831h3.023Zm-4.023,0h-3.025v-1.831h3.025Zm-4.025,0h-5.356v-1.831h5.356Zm-6.356,0h-8.626v-1.831h8.626Zm0,1v1.832h-8.626v-1.832Zm-9.626,1.832h-6.023c-.054-.617-.125-1.225-.2-1.832h6.222Zm-7.026,0h-1.6v-1.832h1.4C3549.854,3634.548,3549.928,3635.156,3549.982,3635.773Zm-2.6,0h-7.977c-.109-.616-.232-1.226-.362-1.832h8.339Zm-9.627,2.831h-8.626v-1.831h8.626Zm-9.626,0h-.031c-.128-.613-.251-1.228-.4-1.831h.43Zm-1.056,0h-7.57v-1.831h7.158C3526.811,3637.377,3526.943,3637.99,3527.073,3638.6Zm-8.57,0h-2.492c-.18-.617-.38-1.224-.58-1.831h3.072Zm-3.531,0h-5.095v-1.831h4.5C3514.58,3637.381,3514.788,3637.986,3514.972,3638.6Zm.271,1c.169.608.34,1.214.489,1.832h-5.855V3639.6Zm-6.366,1.832h-4.333c-.194-.614-.388-1.228-.6-1.832h4.934Zm0,1v1.832h-3.517c-.16-.614-.317-1.229-.5-1.832Zm-4.555,1.832h-4.071v-1.832h3.566C3504,3643.039,3504.158,3643.654,3504.322,3644.268Zm-5.071,0h-6.2q-.312-.924-.651-1.832h6.846Zm-9.626,0H3481v-1.832h8.627Zm-9.627-1.074c-.111-.255-.229-.506-.344-.758H3480Zm0,2.642v1.263h-8.626v-1.831h8.405C3479.853,3645.456,3479.924,3645.647,3480,3645.836Zm-9.626,1.263h-1.5c-.266-.616-.545-1.225-.829-1.831h2.325Zm-2.6,0h-6.028v-1.831h5.2C3467.234,3645.871,3467.5,3646.485,3467.774,3647.1Zm-7.028,0h-4.818c-.31-.615-.626-1.227-.954-1.831h5.772Zm-5.95,0h-2.676v-1.831h1.723C3454.176,3645.87,3454.482,3646.487,3454.8,3647.1Zm.521,1c.3.6.57,1.218.85,1.831h-4.047V3648.1Zm-4.857,1.831h-6.189c-.316-.612-.619-1.23-.953-1.831h6.834C3450.241,3648.715,3450.349,3649.323,3450.46,3649.93Zm-7.32,0h-.646v-1.241C3442.719,3649.1,3442.923,3649.517,3443.14,3649.93Zm.52,1c.308.606.61,1.216.9,1.832h-2.066v-1.832Zm-2.166,1.832h-8.627v-1.832h8.627Zm-10.328,0h-8.925v2.831h-1.282a78.663,78.663,0,0,0-7.7-11.638,51.8,51.8,0,0,1,2.573-11.225,76.869,76.869,0,0,1,15.235,19.241C3431.1,3652.236,3431.133,3652.5,3431.166,3652.762Zm-11.338,2.831h-6.8c-.112-1.506-.184-3.031-.184-4.589q0-2.868.255-5.618A77.7,77.7,0,0,1,3419.828,3655.593Zm2.413,27.558v21.922c-.743-.427-1.478-.867-2.2-1.326,0-.272.018-.538.018-.81a94.454,94.454,0,0,0-6.442-35.357v-2.146A49.2,49.2,0,0,0,3422.241,3683.151Zm-3.184,19.786c0,.059,0,.116,0,.175a59.289,59.289,0,0,1-5.438-4.053v-28.711A94.616,94.616,0,0,1,3419.057,3702.937Zm-12.019-10.333c-8.481-9.744-12.867-21.628-13.067-35.423A87.1,87.1,0,0,1,3407.038,3692.6Zm.225,1.75a109.816,109.816,0,0,1,.866,13.776c0,2.293-.091,4.541-.223,6.768a62.391,62.391,0,0,1-9.8-6.186c-.869-22.953-8.282-42.618-22.092-58.647a57.693,57.693,0,0,1,2.825-10.5c.242.218.494.422.735.643a88.851,88.851,0,0,1,13.385,15.465c0,.177-.012.349-.012.526C3392.949,3671.191,3397.77,3684,3407.263,3694.354Zm-10.184,13.541c-1.123-.9-2.229-1.83-3.3-2.816a59.454,59.454,0,0,1-8.888-10.244,94.463,94.463,0,0,0-9.384-25.693,68.334,68.334,0,0,1-.448-7.751,67.24,67.24,0,0,1,.742-10.043C3388.942,3666.889,3396.082,3685.843,3397.079,3707.9Zm-13.766-15.5a55.9,55.9,0,0,1-7.405-20.317A93.352,93.352,0,0,1,3383.313,3692.391Zm-9.023-25.415a94.416,94.416,0,0,0-15.38-19.811,58.494,58.494,0,0,1,3.458-8.824c1.755,1.408,3.485,2.857,5.159,4.394a95.8,95.8,0,0,1,7.424,7.628,67.778,67.778,0,0,0-.893,11.028C3374.058,3663.288,3374.146,3665.145,3374.29,3666.976Zm11.08,30.264a61.171,61.171,0,0,0,7.731,8.575c1.3,1.2,2.649,2.318,4.024,3.393.046,1.362.076,2.731.076,4.115a115.374,115.374,0,0,1-.67,12.52,66.8,66.8,0,0,1-9.289-4.571q.03-1.371.03-2.755A115.7,115.7,0,0,0,3385.37,3697.24Zm12.782,12.772a63.369,63.369,0,0,0,9.681,5.974,101.318,101.318,0,0,1-1.7,12.917,71.275,71.275,0,0,1-8.631-2.68,116.408,116.408,0,0,0,.7-12.9C3398.2,3712.211,3398.181,3711.109,3398.152,3710.012Zm10.672,6.476c1.239.594,2.508,1.136,3.791,1.653v12.048q-2.8-.432-5.5-1.052A102.122,102.122,0,0,0,3408.824,3716.488Zm9.809,3.746q1.779.525,3.608.959v9.932c-2.029-.083-4.017-.243-5.976-.457A90.476,90.476,0,0,0,3418.633,3720.234Zm9.266,2.081c1.305.206,2.629.374,3.968.516v8.187c-1.885.114-3.792.189-5.74.189-.381,0-.752-.017-1.13-.022A81.807,81.807,0,0,0,3427.9,3722.315Zm8.813.891c1.421.068,2.853.113,4.309.113.16,0,.314-.008.473-.009v4.43c-.478.811-.963,1.616-1.474,2.408-2.177.343-4.4.608-6.668.783A75.2,75.2,0,0,0,3436.712,3723.206Zm4.782,6.5v.19l-.127.024C3441.411,3729.849,3441.45,3729.776,3441.494,3729.706Zm9.626-4.377v2.212c-.682.217-1.374.418-2.068.616Q3450.123,3726.764,3451.12,3725.329Zm9.331-4.264c.1-.024.2-.045.3-.069v2.651c-1.345.669-2.708,1.306-4.106,1.886C3457.982,3724.085,3459.258,3722.6,3460.451,3721.065Zm7.045-2.127q1.4-.508,2.759-1.074-2.49,1.823-5.129,3.4Q3466.345,3720.122,3467.5,3718.938Zm3.876-2.667v-1.71c.515-.637,1.007-1.288,1.495-1.94,1.725-.389,3.42-.828,5.073-1.341-.644.645-1.295,1.284-1.974,1.908-.745.685-1.505,1.344-2.274,1.99Q3472.546,3715.748,3471.372,3716.271Zm8.612-5.676.014,0v.971q-1.256.822-2.551,1.584Q3478.761,3711.9,3479.984,3710.595Zm1.014-.356q1.035-.381,2.049-.8-1.011.753-2.049,1.461Zm379.037,41.384h-369.41v-45.935a59.041,59.041,0,0,0,8.572-6.13l.054-.028v44.508H3852.7v-87.445h7.331Zm-7.331-96.03v-1.831h7.331v1.831Zm-1,0h-7.331v-1.831h7.331Zm-7.331-2.831v-1.832h7.331v1.832Zm-1,0h-7.331v-1.832h7.331Zm-7.331-2.832V3648.1h7.331v1.831Zm-1,0h-7.33V3648.1h7.33Zm-7.33-2.831v-1.831h7.33v1.831Zm-1,0h-7.331v-1.831h7.331Zm-7.331-2.831v-1.832h7.331v1.832Zm-1,0h-7.331v-1.832h7.331Zm-7.331-2.832V3639.6h7.331v1.832Zm-1,0h-5.467V3639.6h5.467Zm-5.467-2.832v-1.831h5.467v1.831Zm-1,0h-.863v-1.831h.863Zm-.863-2.831v-1.832h.863v1.832Zm-1,0h-1.168v-1.832h1.168Zm-1.168-2.832v-1.831h1.168v1.831Zm-1,0h-3.031v-1.831h3.031Zm-3.031-2.831v-1.831h3.031v1.831Zm-1,0h-1.132v-1.831h1.132Zm-1.132-2.831v-1.831h1.132v1.831Zm-1,0h-.9v-1.831h.9Zm-.9-2.831v-1.832h.9v1.832Zm-1,0h-3.03v-1.832h3.03Zm-3.03-2.832v-1.831h3.03v1.831Zm-1,0h-3.031v-1.831h3.031Zm-3.031-2.831v-1.831h3.031v1.831Zm-1,0H3780.4v-1.831h3.031Zm-3.031-2.831v-1.832h3.031v1.832Zm-1,0h-3.031v-1.832h3.031Zm-3.031-2.832v-1.831h3.031v1.831Zm-1,0h-3.031v-1.831h3.031Zm-287.086-222.953c28.021-7.878,52.8-19.2,73.65-33.655a200.832,200.832,0,0,0,52.764-53.631h156.641v307.408h-3.03V3315.1H3617.76l-.149.222a190.084,190.084,0,0,1-50.091,50.981c-19.876,13.779-43.522,24.553-70.282,32.025l-.52.146,25.744,70.367q-2.119,1.514-4.3,2.989Zm34.538,79.65,1.9,5.192q-2.141,1.459-4.344,2.88l-1.863-5.092C3519.965,3471.816,3521.406,3470.826,3522.819,3469.819Zm.842-.611q2.156-1.551,4.248-3.142l1.944,5.314q-2.112,1.541-4.285,3.043Zm6.549,3.149,1.914,5.231q-2.133,1.485-4.323,2.936l-1.877-5.13Q3528.1,3473.9,3530.21,3472.357Zm.841-.611q2.148-1.579,4.229-3.2l1.96,5.357q-2.1,1.564-4.268,3.089Zm6.548,3.143,1.929,5.271c-1.413,1.005-2.855,1.992-4.312,2.969l-1.889-5.162Q3535.495,3476.446,3537.6,3474.889Zm.834-.631q2.137-1.607,4.208-3.254l1.975,5.4q-2.086,1.6-4.246,3.148Zm6.543,3.128,1.943,5.314q-2.11,1.536-4.287,3.034l-1.905-5.206Q3542.888,3478.979,3544.976,3477.386Zm.834-.63q1.423-1.1,2.815-2.214c.458-.368.908-.748,1.362-1.122l1.995,5.455q-2.073,1.627-4.221,3.214Zm6.534,3.107,1.962,5.365q-2.1,1.563-4.27,3.08l-1.918-5.243Q3550.269,3481.487,3552.344,3479.863Zm.826-.651c.31-.245.625-.487.933-.733,1.086-.874,2.156-1.771,3.217-2.679l2.019,5.518c-.13.1-.256.213-.386.318-1.246,1-2.522,1.985-3.813,2.961Zm6.41,3.2.123-.1,1.97,5.386q-2.082,1.6-4.246,3.148l-1.927-5.269C3556.883,3484.537,3558.248,3483.485,3559.58,3482.415Zm.941-.775q2.09-1.711,4.115-3.506l2.044,5.585q-1.116.939-2.249,1.853c-.628.5-1.288.99-1.927,1.487Zm4.537,4.712c.668-.538,1.328-1.086,1.986-1.637l2,5.462q-2.067,1.637-4.217,3.227l-1.951-5.333Q3563.976,3487.216,3565.058,3486.352Zm2.8-2.326q2.072-1.764,4.074-3.619l1.059,2.9v3.631c-1.015.874-2.039,1.737-3.082,2.575l-.035.027Zm2.678,6.262c.834-.67,1.638-1.38,2.455-2.073v7.079c-.263.2-.523.407-.788.608l-1.969-5.381C3570.332,3490.442,3570.437,3490.367,3570.535,3490.288Zm2.455,6.268v1.5l-.428-1.17C3572.707,3496.778,3572.846,3496.666,3572.99,3496.556Zm4.025,5.045v6.534c-.09.06-.182.119-.273.179l-1.892-5.172C3575.573,3502.629,3576.307,3502.123,3577.015,3501.6Zm1,7.074c1.027-.694,2.027-1.4,3.023-2.115v6.433q-1.038.671-2.1,1.328l-.925-2.529Zm3.023,5.513v5.868l-1.747-4.777C3579.876,3514.917,3580.462,3514.556,3581.038,3514.188Zm1-.658c.543-.353,1.087-.706,1.621-1.065l1.4,3.837v1.492c-1,.619-2,1.236-3.025,1.836Zm5.613,9.848c-.525.3-1.056.6-1.588.9v-5.238Zm.349.953,1.086,2.968v2.086q-1.492.771-3.023,1.514v-5.482Q3587.038,3524.879,3588,3524.331Zm3.73,10.2q-.817.384-1.644.762v-5.256Zm.344.94,1.036,2.833v71.991h-3.024v-73.905Q3591.089,3535.934,3592.074,3535.467Zm1.036,75.824v1.831h-3.024v-1.831Zm0,2.831v1.832h-3.024v-1.832Zm0,2.832v1.831h-3.024v-1.831Zm0,2.831v1.831h-3.024v-1.831Zm-4.024,1.831h-3.023v-1.831h3.023Zm0,1v1.832h-3.023v-1.832Zm-4.023,1.832h-3.025v-1.832h3.025Zm0,1v1.831h-3.025v-1.831Zm-4.025,1.831h-3.023v-1.831h3.023Zm0,1v1.831h-3.023v-1.831Zm-4.023,1.831h-3.025v-1.831h3.025Zm-4.025,0h-5.356v-1.831h5.356Zm-6.356,0h-8.626v-1.831h8.626Zm-9.626,0h-6.84c-.125-.614-.252-1.228-.4-1.831h7.24Zm0,1v1.831h-6.344c-.088-.616-.192-1.225-.3-1.831Zm-7.359,1.831h-1.267v-1.831h.966C3549.46,3631.715,3549.559,3632.326,3549.649,3632.941Zm-2.267,0h-8.555c-.026-.11-.046-.224-.072-.334v-1.5h8.627Zm-9.627-.195v.195h-8.626v-1.831h8.183C3537.466,3631.652,3537.62,3632.194,3537.755,3632.746Zm0,1.195v1.832h-8.626v-1.832Zm-9.626,1.832h-.7c-.162-.614-.326-1.228-.51-1.832h1.211Zm-1.739,0H3519.5v-1.832h6.36C3526.051,3634.545,3526.223,3635.158,3526.39,3635.773Zm-7.887,0h-3.4c-.218-.618-.456-1.225-.7-1.832h4.1Zm-4.461,0h-4.165v-1.832h3.453C3513.574,3634.548,3513.82,3635.155,3514.042,3635.773Zm-5.165,0h-6.46c-.269-.614-.539-1.229-.83-1.832h7.29Zm0,1v1.831h-5.309c-.231-.614-.462-1.227-.713-1.831Zm-6.386,1.831h-2.24v-1.831h1.518C3502.024,3637.376,3502.256,3637.991,3502.491,3638.6Zm.389,1c.217.6.411,1.219.609,1.832h-3.238V3639.6Zm-3.629,1.832h-7.235c-.244-.615-.491-1.228-.754-1.832h7.989Zm-9.626,0H3481V3639.6h8.627Zm-9.627,0h-.8c-.292-.618-.6-1.225-.915-1.832H3480Zm-1.9,0h-6.728V3639.6h5.783C3477.475,3640.212,3477.8,3640.817,3478.1,3641.436Zm.453,1c.28.608.568,1.213.829,1.832h-8.01v-1.832Zm-8.181,1.832h-2.788c-.3-.619-.632-1.224-.955-1.832h3.743Zm-3.92,0h-4.706v-1.832h3.753Q3465.989,3643.344,3466.452,3644.268Zm-5.706-2.832v2.832h-6.32a68.119,68.119,0,0,0-3.749-5.926,46.554,46.554,0,0,1,2.159-12.369,66.4,66.4,0,0,1,12.119,15.463Zm-7.486,2.832h-2.14v2.831h-.082a51.3,51.3,0,0,1-.412-6.482c0-.179.01-.354.012-.532Q3452.026,3642.132,3453.26,3644.268Zm-3.23,2.831h-7.3a73.2,73.2,0,0,0-9.7-13.135,45.774,45.774,0,0,1,3.253-9.438c1.2.978,2.383,1.981,3.533,3.037a71.9,71.9,0,0,1,9.85,11.1c-.023.647-.044,1.295-.044,1.952A52.72,52.72,0,0,0,3450.03,3647.1Zm-8.466,0h-.07v2.831h-9.6c-.1-1.353-.162-2.722-.162-4.119a53.714,53.714,0,0,1,1.037-10.662A72.146,72.146,0,0,1,3441.564,3647.1Zm-10.83-1.288c0,1.3.057,2.583.14,3.849a78.291,78.291,0,0,0-14.475-17.776h0c-.062-.058-.127-.11-.19-.167a47.953,47.953,0,0,1,3.839-7.872,81.785,81.785,0,0,1,7.724,6.247c1.465,1.346,2.84,2.745,4.171,4.168A54.436,54.436,0,0,0,3430.734,3645.811Zm-18.354-2.909a85.047,85.047,0,0,0-8.029-8.489h0c-1.483-1.362-3.015-2.646-4.569-3.9a51.652,51.652,0,0,1,4.209-6.9,84.779,84.779,0,0,1,11.032,8.394A52.422,52.422,0,0,0,3412.38,3642.9Zm-8.707-7.753a83.872,83.872,0,0,1,8.546,9.119,61.511,61.511,0,0,0-.377,6.736,59.847,59.847,0,0,0,.773,9.634v4.542a82.646,82.646,0,0,0-16.655-24.668,52.022,52.022,0,0,1,3.367-9.078C3400.8,3632.627,3402.261,3633.853,3403.673,3635.149Zm-8.526,4.543c-.927-.929-1.866-1.851-2.844-2.751h0a94.3,94.3,0,0,0-8.69-7.047,56.387,56.387,0,0,1,4.468-6.183,87.75,87.75,0,0,1,10.437,7.082A53,53,0,0,0,3395.147,3639.692Zm-3.522-2.014q1.66,1.526,3.218,3.112a60.23,60.23,0,0,0-1.842,13.132,90.369,90.369,0,0,0-12.747-14.452h0c-.335-.307-.683-.591-1.021-.893a54.527,54.527,0,0,1,3.863-7.823A93.057,93.057,0,0,1,3391.625,3637.678Zm-13.2.2a97.027,97.027,0,0,0-10.826-8.217,61.858,61.858,0,0,1,4.652-5.636,91.1,91.1,0,0,1,10.02,6.147A55.546,55.546,0,0,0,3378.43,3637.876Zm-.391.986a58.277,58.277,0,0,0-2.872,10.22,97.11,97.11,0,0,0-6.962-7.083h0c-1.742-1.6-3.543-3.1-5.371-4.566a58.287,58.287,0,0,1,4.192-6.957A96.084,96.084,0,0,1,3378.039,3638.862Zm-16.48-1.162a59.365,59.365,0,0,0-3.453,8.667q-.958-.928-1.949-1.84h0a105.509,105.509,0,0,0-9.5-7.725,62.826,62.826,0,0,1,4.417-6.318A99.027,99.027,0,0,1,3361.559,3637.7Zm-16.235-.622a61.9,61.9,0,0,0-3.861,7.635,108.237,108.237,0,0,0-10.826-8.208,68.1,68.1,0,0,1,4.58-5.779A102.154,102.154,0,0,1,3345.324,3637.078Zm-15.524-1.124a107.041,107.041,0,0,0-9.637-5.577c.84-.846,1.7-1.682,2.589-2.5.757-.7,1.534-1.363,2.312-2.026q4.76,1.974,9.26,4.383A69.187,69.187,0,0,0,3329.8,3635.954Zm-7.726-8.814q-1.474,1.356-2.858,2.763-4.341-2.165-8.9-3.959,2.439-1.9,4.995-3.6c2.973.911,5.868,1.955,8.706,3.1C3323.363,3626,3322.709,3626.555,3322.074,3627.14Zm-3.574,3.527c-13.271,13.852-20.011,31.145-20.011,51.5,0,22.113,7.936,40.626,23.585,55.024,13.1,12.049,29.249,19.1,48.1,21.084q-1.4,4.341-3.19,8.477c-.148,0-.292.008-.44.008-24.642,0-45.352-7.558-61.552-22.463s-24.4-34.051-24.4-56.938,8.208-42.043,24.4-56.936c1.43-1.316,2.908-2.553,4.408-3.754Q3314.069,3628.467,3318.5,3630.667Zm4.252,105.784c-15.437-14.2-23.263-32.465-23.263-54.287,0-20.2,6.717-37.335,19.95-51.035a106.17,106.17,0,0,1,9.8,5.654c-7.865,11.473-11.858,24.924-11.858,40.188,0,21.048,7.554,38.669,22.45,52.374a75.878,75.878,0,0,0,33.235,17.865,101.944,101.944,0,0,1-2.584,10.088C3351.759,3755.367,3335.732,3748.393,3322.752,3736.451Zm51.29,10.989q3.963.954,8.122,1.546-1.308,4.53-3.033,8.838-3.885-.079-7.63-.424Q3373.005,3752.543,3374.042,3747.44Zm.2-.981a114.072,114.072,0,0,0,1.7-12.669,73.667,73.667,0,0,0,8.859,3.447,101.045,101.045,0,0,1-2.364,10.778Q3378.24,3747.423,3374.241,3746.459Zm11.531-8.931a80.052,80.052,0,0,0,8.32,2.014,92.287,92.287,0,0,1-2.868,9.3q-3.971-.192-7.782-.685A101.957,101.957,0,0,0,3385.772,3737.528Zm.152-1a115.415,115.415,0,0,0,1.282-14.124,67.7,67.7,0,0,0,9.209,4.468,100.848,100.848,0,0,1-2.08,11.7A79.005,79.005,0,0,1,3385.924,3736.53Zm11.452-9.279a72.32,72.32,0,0,0,8.541,2.631,90.424,90.424,0,0,1-2.674,9.889q-4.056-.333-7.923-1.016A101.783,101.783,0,0,0,3397.376,3727.251Zm9.541,2.867q2.8.639,5.7,1.082v6.907c-.267.663-.538,1.323-.821,1.977-.189,0-.373.011-.563.011-2.352,0-4.656-.094-6.925-.253A91.606,91.606,0,0,0,3406.917,3730.118Zm6.7,8.185c.87-2.175,1.665-4.39,2.358-6.659,2.054.228,4.139.4,6.268.483v2.964c-.723,1.563-1.485,3.1-2.309,4.613q-3.1.274-6.317.345Zm8.626-.863v2.035c-.369.042-.745.073-1.117.11C3421.5,3738.875,3421.883,3738.163,3422.241,3737.44Zm9.626-3.669v4.033q-1.411.331-2.848.616C3430.02,3736.9,3430.983,3735.357,3431.867,3733.771Zm8.738-2.7c.3-.049.592-.109.889-.161v3.959c-1.572.6-3.168,1.155-4.8,1.65C3438.095,3734.762,3439.385,3732.938,3440.6,3731.075Zm7.405-1.582q1.572-.417,3.11-.9v.962c-.816.73-1.641,1.444-2.483,2.133-1.431.735-2.887,1.428-4.376,2.067C3445.573,3732.373,3446.829,3730.955,3448.01,3729.493Zm7.027-2.261c.837-.317,1.669-.642,2.487-.989-1.535,1.11-3.1,2.169-4.719,3.147Q3453.95,3728.326,3455.037,3727.232Zm6.709-2.969a66.158,66.158,0,0,0,8.626-5.254v50.784H3877.7v-113.2h7.331v120.785H3461.746Zm414.95,44.53H3471.372v-50.5q1.466-1.1,2.878-2.278a62.282,62.282,0,0,0,5.748-3.268v48.459h389.367V3656.593h7.331Zm-7.331-113.2v-1.831h7.331v1.831Zm-1,0h-7.33v-1.831h7.33Zm-7.33-2.831v-1.832h7.33v1.832Zm-1,0H3852.7v-1.832h7.331Zm-7.331-2.832V3648.1h7.331v1.831Zm-1,0h-7.331V3648.1h7.331Zm-7.331-2.831v-1.831h7.331v1.831Zm-1,0h-7.331v-1.831h7.331Zm-7.331-2.831v-1.832h7.331v1.832Zm-1,0h-7.33v-1.832h7.33Zm-7.33-2.832V3639.6h7.33v1.832Zm-1,0h-7.331V3639.6h7.331Zm-7.331-2.832v-1.831h7.331v1.831Zm-1,0h-7.331v-1.831h7.331Zm-7.331-2.831v-1.832h7.331v1.832Zm-1,0h-5.467v-1.832h5.467Zm-5.467-2.832v-1.831h5.467v1.831Zm-1,0h-.863v-1.831h.863Zm-.863-2.831v-1.831h.863v1.831Zm-1,0h-1.168v-1.831h1.168Zm-1.168-2.831v-1.831h1.168v1.831Zm-1,0h-3.031v-1.831h3.031Zm-3.031-2.831v-1.832h3.031v1.832Zm-1,0h-1.132v-1.832h1.132Zm-1.132-2.832v-1.831h1.132v1.831Zm-1,0h-.9v-1.831h.9Zm-.9-2.831v-1.831h.9v1.831Zm-1,0h-3.03v-1.831h3.03Zm-3.03-2.831v-1.832h3.03v1.832Zm-1,0h-3.031v-1.832h3.031Zm-3.031-2.832v-1.831h3.031v1.831Zm-1,0H3780.4v-1.831h3.031Zm-314.643-240.91c30.753-8.641,57.944-21.063,80.827-36.926a220.208,220.208,0,0,0,57.881-58.839h171.9v333.844h-3.031V3288.665H3610.56l-.149.223a209.516,209.516,0,0,1-55.21,56.19c-21.9,15.185-47.962,27.06-77.457,35.3l-.52.146,34.861,95.289q-2.175,1.372-4.408,2.7Zm43.65,104.557,1.811,4.949q-2.195,1.32-4.444,2.6l-1.776-4.853Q3510.256,3478.135,3512.436,3476.769Zm.864-.55q2.208-1.4,4.356-2.846l1.857,5.074c-1.447.927-2.907,1.846-4.392,2.75Zm6.565,3.19,1.824,4.987q-2.187,1.335-4.435,2.63l-1.783-4.872C3516.957,3481.252,3518.417,3480.334,3519.865,3479.409Zm.862-.555c1.466-.948,2.919-1.9,4.346-2.876l1.866,5.1q-2.16,1.407-4.382,2.776Zm6.565,3.19,1.833,5.011c-1.456.9-2.925,1.8-4.421,2.671l-1.8-4.911Q3525.129,3483.449,3527.292,3482.044Zm.861-.555c1.466-.963,2.9-1.942,4.326-2.93l1.882,5.144q-2.153,1.427-4.368,2.814Zm6.561,3.18,1.846,5.046q-2.172,1.368-4.412,2.693l-1.8-4.932Q3532.56,3486.091,3534.714,3484.669Zm.856-.573q2.187-1.462,4.313-2.964l1.894,5.176q-2.145,1.449-4.352,2.859Zm6.56,3.179,1.86,5.081q-2.168,1.389-4.4,2.735l-1.816-4.963Q3539.989,3488.722,3542.13,3487.275Zm.856-.573q2.182-1.491,4.291-3.026l1.911,5.224q-2.131,1.473-4.337,2.9Zm6.557,3.169,1.865,5.1q-2.157,1.41-4.383,2.774l-1.822-4.979Q3547.407,3491.338,3549.543,3489.871Zm.848-.592q2.172-1.514,4.275-3.07l1.917,5.241q-2.121,1.5-4.317,2.953Zm6.556,3.166,1.882,5.144c-1.432.956-2.882,1.9-4.364,2.825l-1.837-5.021Q3554.826,3493.943,3556.947,3492.445Zm.846-.6q2.168-1.547,4.249-3.142l1.938,5.3q-2.109,1.53-4.293,3.017Zm6.544,3.131,1.913,5.229q-2.133,1.458-4.35,2.864l-1.86-5.083C3561.5,3497,3562.929,3496,3564.337,3494.98Zm.845-.6c1.438-1.054,2.84-2.129,4.221-3.216l1.968,5.381q-2.091,1.562-4.274,3.07Zm6.549,3.149,1.259,3.442v2.271c-1.2.832-2.428,1.646-3.668,2.454l-1.87-5.109C3568.905,3499.581,3570.336,3498.565,3571.731,3497.527Zm2.274,6.216,1.879,5.136c-.632.416-1.25.84-1.894,1.248v-6.373Zm2.232,6.1.778,2.126v3.524q-1.492.894-3.025,1.759V3511.3C3574.752,3510.826,3575.49,3510.332,3576.237,3509.843Zm1.778,4.86.054.148-.054.033Zm.4,1.105,1.778,4.859c-.727.409-1.442.827-2.182,1.228v-5.842Zm2.125,5.81.494,1.349v3.979c-.993.5-2.007.985-3.023,1.469v-5.388C3578.872,3522.567,3579.705,3522.09,3580.544,3521.618Zm1.494,4.082.223.61-.223.116Zm0-2.91v-2.01c1.026-.593,2.027-1.2,3.025-1.815v5.871c-.627.342-1.27.674-1.907,1.008Zm3.025,3.188v5.079l-1.561-4.265C3584.021,3526.52,3584.55,3526.255,3585.063,3525.978Zm1,6.03q1.53-.735,3.023-1.5v5.223c-.663.3-1.317.6-1.99.882l-1.033-2.824Zm.274,5.443.181.492.483-.2c.706-.3,1.391-.609,2.085-.915v73.466h-3.023V3536.7Zm2.749,73.84v1.831h-3.023v-1.831Zm0,2.831v1.832h-3.023v-1.832Zm0,2.832v1.831h-3.023v-1.831Zm-4.023,1.831h-3.025v-1.831h3.025Zm0,1v1.831h-3.025v-1.831Zm-4.025,1.831h-3.023v-1.831h3.023Zm0,1v1.832h-3.023v-1.832Zm-4.023,1.832h-3.025v-1.832h3.025Zm0,1v1.831h-3.025v-1.831Zm-4.025,1.831h-5.356v-1.831h5.356Zm-6.356,0h-8.626v-1.831h8.626Zm-9.626,0H3549.5q-.249-.924-.532-1.831h8.043Zm-8.55,0h-.076V3627C3548.408,3627.09,3548.433,3627.185,3548.458,3627.279Zm.271,1c.152.6.286,1.216.414,1.831h-.761v-1.831Zm-1.347,1.831h-8.627v-1.831h8.627Zm-9.627-.985c-.091-.282-.181-.566-.278-.846h.278Zm-.732.985h-7.894v-1.831h7.293C3536.635,3628.883,3536.833,3629.494,3537.023,3630.11Zm-8.894,0h-2.56c-.244-.616-.5-1.227-.766-1.831h3.326Zm0,1v1.831h-1.539c-.2-.615-.408-1.227-.632-1.831Zm-2.594,1.831H3519.5v-1.831h5.379Q3525.226,3632.016,3525.535,3632.941Zm-7.032,0h-4.485c-.259-.618-.541-1.224-.823-1.831h5.308Zm-5.58,0h-3.046v-1.831h2.217Q3512.525,3632.018,3512.923,3632.941Zm-4.046,0h-7.8c-.27-.532-.54-1.064-.827-1.587v-.244h8.626Zm-8.41,1c.3.6.574,1.218.849,1.832h-1.065v-1.832Zm-1.216,1.832h-8.626v-1.832h8.626Zm0,1v1.831h-8.442c-.061-.135-.121-.271-.184-.406v-1.425Zm-9.626,1.649v.182H3481v-1.831h7.813C3489.09,3637.319,3489.364,3637.867,3489.625,3638.422Zm-9.627-2.649v2.831h-2.233a64.052,64.052,0,0,0-13.171-16.833h0a71.118,71.118,0,0,0-7.064-5.682,43.591,43.591,0,0,1,4.591-5.87,65.631,65.631,0,0,1,13.846,9.759,59.651,59.651,0,0,1,12.325,15.795Zm-16.081-13.266a63.2,63.2,0,0,1,12.717,16.1h-6.262v2.832h-4.264a67.427,67.427,0,0,0-12.919-16.514,41.38,41.38,0,0,1,3.809-7.984A70.131,70.131,0,0,1,3463.917,3622.507Zm-12.05,2.528c.059.054.112.111.171.165a46.859,46.859,0,0,0-2.286,11.905,73.3,73.3,0,0,0-9.255-10.278h0c-1.224-1.124-2.486-2.188-3.766-3.225a45.081,45.081,0,0,1,4.251-6.832A73.54,73.54,0,0,1,3451.867,3625.035Zm-15.937-2.066a77.391,77.391,0,0,0-10.162-6.793c1.107-1.223,2.276-2.414,3.524-3.562.447-.411.907-.8,1.364-1.2a73.3,73.3,0,0,1,9.476,4.813A46.1,46.1,0,0,0,3435.93,3622.969Zm-.452.917a46.5,46.5,0,0,0-3.273,9.189c-1.206-1.266-2.445-2.514-3.757-3.72h0a82.586,82.586,0,0,0-7.884-6.369,50.093,50.093,0,0,1,4.527-6.045A76.561,76.561,0,0,1,3435.478,3623.886Zm-15.733-1.484a81.075,81.075,0,0,0-9.713-5.792c.494-.488.986-.977,1.5-1.453,1.113-1.023,2.265-1.984,3.436-2.911a78.012,78.012,0,0,1,9.234,4.192A50.923,50.923,0,0,0,3419.745,3622.4Zm-.517.86a48.751,48.751,0,0,0-3.821,7.755,85.8,85.8,0,0,0-10.811-8.2,55.386,55.386,0,0,1,4.683-5.463A79.875,79.875,0,0,1,3419.228,3623.262Zm-15.478-.99a85.177,85.177,0,0,0-9.4-5.073q2.4-2.16,4.974-4.042a83.224,83.224,0,0,1,9.024,3.722A56.417,56.417,0,0,0,3403.75,3622.272Zm-.607.8a52.726,52.726,0,0,0-4.163,6.813,88.654,88.654,0,0,0-10.243-6.951,61.4,61.4,0,0,1,4.8-5A84.2,84.2,0,0,1,3403.143,3623.072Zm-15.29-.644a89.768,89.768,0,0,0-9.149-4.521q2.421-2.007,4.993-3.764a87.69,87.69,0,0,1,8.857,3.35A62.757,62.757,0,0,0,3387.853,3622.428Zm-.656.778a57.331,57.331,0,0,0-4.4,6.1,92.215,92.215,0,0,0-9.824-6.049c.98-1.025,1.987-2.036,3.052-3.016.6-.555,1.224-1.084,1.843-1.614A88.7,88.7,0,0,1,3387.2,3623.206Zm-11.853-3.7c-1.157,1.064-2.246,2.164-3.3,3.281a94.239,94.239,0,0,0-8.958-4.045q2.442-1.884,5.027-3.531,4.467,1.3,8.7,3.008C3376.322,3618.648,3375.825,3619.066,3375.344,3619.509Zm-4.017,4.042a62.756,62.756,0,0,0-4.569,5.566,96.226,96.226,0,0,0-9.51-5.347c.341-.326.667-.66,1.017-.982,1.267-1.166,2.577-2.261,3.908-3.322A93.271,93.271,0,0,1,3371.327,3623.551Zm-13.74-1.5c-.443.407-.858.829-1.287,1.244q-4.271-2.029-8.774-3.663c1.623-1.17,3.279-2.285,4.984-3.315q4.4,1.183,8.583,2.728C3359.9,3620.011,3358.727,3621,3357.587,3622.052Zm-2.063,1.993a68.772,68.772,0,0,0-4.681,5.153,100.527,100.527,0,0,0-9.282-4.788c1.609-1.428,3.259-2.788,4.963-4.06Q3351.147,3621.99,3355.524,3624.045Zm-14.969-.084q-4.221-1.854-8.655-3.346c1.647-1.118,3.345-2.151,5.07-3.138q4.3,1.076,8.4,2.487C3343.72,3621.22,3342.118,3622.558,3340.555,3623.961Zm-.822.729c-1.668,1.54-3.234,3.134-4.716,4.772q-4.423-2.382-9.1-4.343c1.614-1.337,3.278-2.59,4.978-3.784Q3335.424,3622.826,3339.733,3624.69Zm-14.871.007q-4.139-1.687-8.465-3.055c1.625-1.042,3.274-2.044,4.969-2.968,2.842.659,5.633,1.407,8.358,2.269C3328.065,3622.132,3326.438,3623.372,3324.862,3624.7Zm-9.717-3.44c-2.579-.778-5.214-1.459-7.891-2.066,1.609-.8,3.237-1.568,4.9-2.27q3.957.593,7.782,1.419Q3317.493,3619.716,3315.145,3621.257Zm-1.122.723c-1.64,1.115-3.231,2.312-4.8,3.549q-4.107-1.562-8.39-2.822c1.642-1,3.33-1.923,5.038-2.811C3308.644,3620.5,3311.357,3621.2,3314.023,3621.98Zm-14.458.354q-3.813-1.077-7.762-1.915c1.6-.76,3.236-1.463,4.889-2.132,2.579.359,5.122.778,7.617,1.284C3302.7,3620.439,3301.118,3621.365,3299.565,3622.334Zm-1.134.73a87.8,87.8,0,0,0-11.869,9.164c-17.158,15.784-25.857,36.079-25.857,60.322s8.7,44.538,25.857,60.323,39.044,23.772,65.09,23.772c3.63,0,7.168-.17,10.63-.476q-1.884,3.3-4.04,6.443a117.66,117.66,0,0,1-21.485,1.92c-26.931,0-49.566-8.261-67.275-24.553s-26.669-37.22-26.669-62.236,8.972-45.955,26.669-62.236a89.691,89.691,0,0,1,20.862-14.363Q3294.462,3621.975,3298.431,3623.064Zm53.221,152.581c-25.787,0-47.459-7.91-64.413-23.508s-25.534-35.636-25.534-59.587,8.591-44,25.534-59.586a86.578,86.578,0,0,1,12.484-9.541q4.386,1.255,8.587,2.832c-1.356,1.1-2.694,2.234-3.993,3.429-16.4,15.09-24.719,34.495-24.719,57.672s8.317,42.582,24.719,57.674,37.329,22.727,62.23,22.727h0q-1.673,3.759-3.656,7.347C3359.236,3775.45,3355.5,3775.645,3351.652,3775.645Zm16-7.909q3.53-.033,6.949-.268-1.85,3.4-3.989,6.64c-2.134.36-4.311.643-6.517.876Q3366.025,3771.444,3367.651,3767.736Zm.44-1.009q1.735-4.077,3.1-8.352,3.7.349,7.533.442-1.614,3.9-3.573,7.617C3372.843,3766.606,3370.483,3766.7,3368.091,3766.727Zm11.712-7.89c.548.008,1.087.032,1.638.032,1.844,0,3.655-.058,5.451-.145q-1.8,3.5-3.908,6.821-3.264.494-6.64.789Q3378.24,3762.677,3379.8,3758.837Zm1.638-.968c-.416,0-.822-.019-1.236-.024q1.68-4.25,2.96-8.714,3.768.495,7.693.694-1.537,4.033-3.446,7.867C3385.447,3757.8,3383.464,3757.869,3381.441,3757.869Zm10.465-7.982q2.193.092,4.431.095c.947,0,1.878-.029,2.813-.053-1.166,2.413-2.462,4.754-3.853,7.043q-3.3.435-6.728.652Q3390.416,3753.853,3391.906,3749.887Zm4.431-.905q-2.052,0-4.064-.078a93.029,93.029,0,0,0,2.8-9.175q3.836.671,7.845,1.015a85.086,85.086,0,0,1-3.317,8.176C3398.523,3748.953,3397.438,3748.982,3396.337,3748.982Zm7.632-8.159c2.377.174,4.794.272,7.262.272l.106,0a80.393,80.393,0,0,1-3.718,7.268c-2.249.249-4.535.431-6.869.527A86.151,86.151,0,0,0,3403.969,3740.823Zm8.479.249.167,0v6.611q-1.853.309-3.748.543C3410.179,3745.9,3411.365,3743.516,3412.448,3741.072Zm8.124-.426c.558-.053,1.116-.1,1.669-.167v5c-1.822.529-3.675,1.007-5.567,1.416C3418.068,3744.867,3419.381,3742.79,3420.572,3740.646Zm20.922-4.112v.311c-.319.2-.632.414-.954.612C3440.868,3737.155,3441.173,3736.84,3441.494,3736.534Zm1-.966.017-.016c.772-.3,1.539-.612,2.295-.939-.762.544-1.531,1.078-2.312,1.592Zm450.863,50.395H3452.12v-55.029a69.958,69.958,0,0,0,8.626-5.884v53.328h425.281V3656.593h7.33Zm-7.33-130.37v-1.831h7.33v1.831Zm-1,0H3877.7v-1.831h7.331Zm-7.331-2.831v-1.832h7.331v1.832Zm-1,0h-7.331v-1.832h7.331Zm-7.331-2.832V3648.1h7.331v1.831Zm-1,0h-7.33V3648.1h7.33Zm-7.33-2.831v-1.831h7.33v1.831Zm-1,0H3852.7v-1.831h7.331Zm-7.331-2.831v-1.832h7.331v1.832Zm-1,0h-7.331v-1.832h7.331Zm-7.331-2.832V3639.6h7.331v1.832Zm-1,0h-7.331V3639.6h7.331Zm-7.331-2.832v-1.831h7.331v1.831Zm-1,0h-7.33v-1.831h7.33Zm-7.33-2.831v-1.832h7.33v1.832Zm-1,0h-7.331v-1.832h7.331Zm-7.331-2.832v-1.831h7.331v1.831Zm-1,0h-7.331v-1.831h7.331Zm-7.331-2.831v-1.831h7.331v1.831Zm-1,0h-5.467v-1.831h5.467Zm-5.467-2.831v-1.831h5.467v1.831Zm-1,0h-.863v-1.831h.863Zm-.863-2.831v-1.832h.863v1.832Zm-1,0h-1.168v-1.832h1.168Zm-1.168-2.832v-1.831h1.168v1.831Zm-1,0h-3.031v-1.831h3.031Zm-3.031-2.831v-1.831h3.031v1.831Zm-1,0h-1.132v-1.831h1.132Zm-1.132-2.831v-1.832h1.132v1.832Zm-1,0h-.9v-1.832h.9Zm-1.9-2.832h-3.03v-1.831h3.03Zm-342.2-258.866c33.486-9.4,63.091-22.927,88-40.2a239.659,239.659,0,0,0,63-64.048H3787.46v360.279h-3.031V3262.229h-181.07l-.148.223a228.937,228.937,0,0,1-60.327,61.4c-23.937,16.593-52.411,29.569-84.635,38.565l-.52.146,43.74,119.557q-2.224,1.245-4.5,2.454Zm52.525,128.815,1.723,4.709q-2.244,1.2-4.536,2.356l-1.688-4.614Q3499.589,3484.312,3501.817,3483.071Zm.882-.5q2.254-1.274,4.454-2.582l1.77,4.837q-2.222,1.257-4.491,2.481Zm6.572,3.207,1.732,4.736q-2.238,1.2-4.531,2.368l-1.692-4.625Q3507.051,3487.037,3509.271,3485.779Zm.88-.5q2.249-1.282,4.446-2.6l1.777,4.857q-2.217,1.267-4.481,2.5Zm6.571,3.208,1.741,4.76q-2.233,1.212-4.524,2.386l-1.7-4.647Q3514.508,3489.752,3516.722,3488.483Zm.881-.5q2.244-1.3,4.437-2.626l1.785,4.88q-2.208,1.281-4.475,2.522Zm6.571,3.208,1.747,4.776q-2.232,1.224-4.515,2.412l-1.709-4.671Q3521.962,3492.463,3524.174,3491.187Zm.879-.507q2.244-1.312,4.423-2.666l1.8,4.916q-2.2,1.293-4.467,2.544Zm6.571,3.2,1.755,4.8q-2.226,1.234-4.509,2.43l-1.715-4.688Q3529.417,3495.173,3531.624,3493.884Zm.874-.521q2.236-1.325,4.413-2.688l1.807,4.938q-2.2,1.31-4.453,2.581Zm6.57,3.205,1.759,4.81q-2.221,1.247-4.5,2.455l-1.714-4.687C3536.121,3498.3,3537.6,3497.44,3539.068,3496.568Zm.874-.52q2.234-1.344,4.4-2.729l1.812,4.953q-2.19,1.326-4.444,2.609Zm6.57,3.2,1.77,4.838c-1.477.841-2.968,1.673-4.489,2.484l-1.728-4.722Q3544.321,3500.574,3546.512,3499.252Zm.871-.53q2.227-1.362,4.386-2.768l1.825,4.99c-1.455.9-2.927,1.783-4.429,2.649Zm6.562,3.18,1.792,4.9c-1.473.851-2.959,1.694-4.478,2.513l-1.745-4.768C3551.017,3503.682,3552.488,3502.8,3553.945,3501.9Zm.871-.529c1.483-.923,2.933-1.865,4.366-2.819l1.852,5.063c-1.449.909-2.915,1.809-4.414,2.687Zm6.569,3.2,1.8,4.93c-1.465.86-2.96,1.7-4.473,2.527l-1.747-4.776C3558.468,3506.381,3559.935,3505.484,3561.385,3504.576Zm.867-.541q2.216-1.406,4.352-2.86l1.859,5.084q-2.16,1.384-4.4,2.717Zm6.563,3.186,1.814,4.957q-2.19,1.311-4.459,2.567l-1.761-4.814Q3566.649,3508.6,3568.815,3507.221Zm.859-.564c1.116-.724,2.232-1.448,3.316-2.192v6.276c-.491.306-.993.6-1.49.907Zm3.316,5.255v3.809l-1.14-3.117C3572.23,3512.374,3572.613,3512.145,3572.99,3511.912Zm1,6.487c1.019-.573,2.031-1.149,3.025-1.739v5.755c-.438.232-.882.46-1.324.689l-1.7-4.649Zm3.025,5.145v3.177l-.978-2.671C3576.363,3523.881,3576.691,3523.714,3577.015,3523.544Zm4.023,4.523v5.148c-.475.207-.938.424-1.418.628l-1.585-4.332C3579.044,3529.035,3580.052,3528.56,3581.038,3528.067Zm1-.517c.191-.1.379-.2.569-.3l1.65,4.511c-.731.342-1.475.674-2.219,1.006Zm2.563,5.156.462,1.262v76.323h-3.025v-76.425C3582.9,3533.484,3583.756,3533.1,3584.6,3532.706Zm.462,78.585v1.831h-3.025v-1.831Zm0,2.831v1.832h-3.025v-1.832Zm-4.025,1.832h-3.023v-1.832h3.023Zm0,1v1.831h-3.023v-1.831Zm-4.023,1.831h-3.025v-1.831h3.025Zm0,1v1.831h-3.025v-1.831Zm-4.025,1.831h-5.356v-1.831h5.356Zm0,1v1.832h-5.356v-1.832Zm-6.356,1.832h-8.626v-1.832h8.626Zm-19.252,2.831h-8.627v-1.831h8.627Zm-9.627,0h-.634c-.228-.615-.46-1.228-.712-1.831h1.346Zm-1.71,0h-6.916v-1.831h6.181C3535.569,3626.051,3535.811,3626.663,3536.045,3627.279Zm-7.916,0h-3.779c-.29-.618-.6-1.227-.913-1.831h4.692Zm-4.879,0H3519.5v-1.831h2.8C3522.631,3626.053,3522.951,3626.66,3523.25,3627.279Zm.452,1c.275.6.541,1.214.791,1.831h-4.99v-1.831Zm-5.2,1.831h-5.769c-.3-.618-.627-1.225-.954-1.831h6.723Zm-6.9,0h-1.726v-1.831h.772C3510.983,3628.881,3511.294,3629.5,3511.6,3630.11Zm-2.726-2.831v2.831h-9.345a57.638,57.638,0,0,0-10.842-13.4h0a62.8,62.8,0,0,0-20-12.4,47.291,47.291,0,0,1,5.08-3.3,58.856,58.856,0,0,1,26.291,13.906,53.206,53.206,0,0,1,10,12.358Zm-20.864-9.83a56.427,56.427,0,0,1,11.238,14.156v1.336h-9.626v2.832h-.2a60.57,60.57,0,0,0-12.779-16.532h0a66.721,66.721,0,0,0-13.809-9.783c.635-.655,1.287-1.3,1.972-1.932.958-.881,1.95-1.707,2.963-2.5A61.879,61.879,0,0,1,3488.013,3617.449Zm-23.886-10.659c-.776.714-1.51,1.45-2.224,2.2a68.133,68.133,0,0,0-8.766-3.739,50.994,50.994,0,0,1,5.1-3.021,68.138,68.138,0,0,1,8.438,2.391C3465.807,3605.314,3464.953,3606.03,3464.127,3606.79Zm-2.937,2.958a44.579,44.579,0,0,0-4.477,5.758,69.948,69.948,0,0,0-9.571-5.518,52.234,52.234,0,0,1,4.986-4.022A67.356,67.356,0,0,1,3461.19,3609.748Zm-14.82-.414c-.075.069-.144.142-.219.211a73.323,73.323,0,0,0-8.517-3.271,55.034,55.034,0,0,1,5.037-2.781,74.134,74.134,0,0,1,8.286,2.08A53.586,53.586,0,0,0,3446.37,3609.334Zm-1,.961a50.439,50.439,0,0,0-4.634,5.133,74.058,74.058,0,0,0-9.249-4.732,55.457,55.457,0,0,1,5.036-3.71A72.763,72.763,0,0,1,3445.375,3610.295Zm-14.914-.036a78.441,78.441,0,0,0-8.336-2.871q2.458-1.417,5.055-2.6a79.643,79.643,0,0,1,8.064,1.831A56.521,56.521,0,0,0,3430.461,3610.259Zm-.848.744c-.333.292-.672.574-1,.875q-1.989,1.83-3.739,3.787a78.811,78.811,0,0,0-9-4.14,58.772,58.772,0,0,1,5.033-3.44A78,78,0,0,1,3429.613,3611Zm-14.813.1a83.789,83.789,0,0,0-8.151-2.579q2.439-1.312,5-2.409,4.077.636,7.959,1.615Q3417.132,3609.294,3414.8,3611.1Zm-.909.722c-1.031.832-2.048,1.688-3.034,2.595-.608.56-1.191,1.133-1.769,1.71a83.506,83.506,0,0,0-8.757-3.693q2.446-1.719,5.04-3.192A83.538,83.538,0,0,1,3413.891,3611.826Zm-14.731.22q-3.892-1.323-7.984-2.3,2.432-1.228,4.971-2.268,3.987.561,7.8,1.436Q3401.485,3610.366,3399.16,3612.046Zm-1,.719q-2.483,1.863-4.809,3.985a88.621,88.621,0,0,0-8.579-3.3c1.634-1.07,3.307-2.075,5.029-3Q3394.085,3611.418,3398.155,3612.765Zm-14.6.272c-2.554-.8-5.174-1.477-7.846-2.066,1.622-.775,3.287-1.475,4.978-2.13,2.6.332,5.156.75,7.651,1.271Q3385.884,3611.475,3383.551,3613.037Zm-1.05.732c-1.659,1.16-3.275,2.391-4.84,3.709q-4.105-1.68-8.43-2.986c1.645-1.01,3.339-1.938,5.064-2.81Q3378.5,3612.553,3382.5,3613.769Zm-14.554.359c-2.5-.717-5.044-1.354-7.649-1.886,1.6-.722,3.219-1.4,4.878-2.019,2.554.3,5.052.69,7.508,1.158Q3370.262,3612.66,3367.947,3614.128Zm-1.123.723q-2.475,1.629-4.822,3.473-4.039-1.522-8.279-2.7c1.628-.942,3.281-1.84,4.981-2.658Q3362.853,3613.751,3366.824,3614.851Zm-14.446.388c-2.467-.655-4.99-1.211-7.554-1.7q2.382-1.028,4.847-1.907,3.776.4,7.422,1.025Q3354.688,3613.869,3352.378,3615.239Zm-1.183.719q-2.478,1.541-4.837,3.28c-2.653-.925-5.358-1.764-8.129-2.485,1.629-.892,3.3-1.713,5-2.49C3345.933,3614.738,3348.595,3615.295,3351.2,3615.958Zm-14.383.455q-3.638-.9-7.407-1.558c1.576-.649,3.183-1.243,4.811-1.8,2.453.235,4.874.527,7.247.905C3339.879,3614.72,3338.336,3615.55,3336.812,3616.413Zm-1.27.731q-2.458,1.452-4.813,3.079-3.917-1.269-7.993-2.257,2.453-1.277,5-2.394C3330.391,3616,3332.985,3616.541,3335.542,3617.144Zm-14.315.469c-2.359-.539-4.744-1.033-7.181-1.433q2.322-.916,4.715-1.708c2.412.21,4.783.494,7.121.836C3324.306,3616.034,3322.749,3616.793,3321.227,3617.613Zm-10.925-.956q-2.316,1.026-4.558,2.18c-2.348-.5-4.741-.921-7.162-1.292,1.553-.589,3.125-1.145,4.723-1.656C3305.676,3616.078,3308,3616.348,3310.3,3616.657Zm-15.58,1.349c-1.533.654-3.038,1.355-4.525,2.088q-3.464-.69-7.023-1.206,2.269-.828,4.6-1.549C3290.12,3617.508,3292.439,3617.725,3294.722,3618.006Zm27.14,175.414c-28.077,0-51.674-8.612-70.136-25.6s-27.805-38.8-27.805-64.886,9.354-47.913,27.805-64.886a93.3,93.3,0,0,1,29.526-18.408q3.81.493,7.507,1.186a90.741,90.741,0,0,0-19.954,13.942c-17.91,16.478-26.992,37.666-26.992,62.972s9.082,46.494,26.992,62.973,40.762,24.816,67.952,24.816a119.345,119.345,0,0,0,20.679-1.751q-2.025,2.863-4.283,5.595A117.023,117.023,0,0,1,3321.862,3793.42Zm37.777-11.069q2.064-3.079,3.87-6.3c2.142-.212,4.259-.471,6.335-.8q-2.009,2.94-4.258,5.743C3363.638,3781.5,3361.652,3781.95,3359.639,3782.351Zm11.579-7.338c1.967-.341,3.9-.743,5.8-1.191q-2.073,2.559-4.354,5-2.674.93-5.441,1.7Q3369.329,3777.829,3371.218,3775.013Zm.753-1.159q2.039-3.155,3.807-6.458c2.2-.176,4.353-.435,6.483-.737q-1.984,3.023-4.232,5.9C3376.045,3773.052,3374.023,3773.479,3371.971,3773.854Zm11.606-7.383q3.006-.468,5.915-1.106c-1.38,1.754-2.852,3.456-4.384,5.123-1.8.6-3.633,1.166-5.5,1.664Q3381.713,3769.378,3383.577,3766.471Zm.7-1.111q2.032-3.27,3.768-6.7c2.232-.131,4.436-.314,6.593-.58-1.3,2.071-2.723,4.076-4.213,6.042C3388.412,3764.588,3386.371,3765.016,3384.281,3765.36Zm11.65-7.467c2.034-.279,4.038-.609,6-1.008-1.365,1.793-2.8,3.548-4.328,5.249-1.843.6-3.717,1.141-5.627,1.621Q3394.084,3760.9,3395.931,3757.893Zm.677-1.107q1.992-3.351,3.663-6.879c2.281-.082,4.514-.251,6.715-.478q-1.92,3.205-4.141,6.244C3400.806,3756.114,3398.723,3756.478,3396.608,3756.786Zm11.616-7.481c1.481-.171,2.947-.369,4.391-.607v2.05c-.819,1.033-1.674,2.045-2.551,3.045-1.861.576-3.768,1.071-5.7,1.524C3405.75,3753.369,3407.021,3751.355,3408.224,3749.3Zm4.391,3v.63c-.244.085-.49.165-.735.247C3412.125,3752.894,3412.374,3752.6,3412.615,3752.309Zm9.626-5.031v1.609q-1.34.673-2.711,1.3Q3420.929,3748.756,3422.241,3747.278Zm1,1.1v-2.141c1.454-.437,2.89-.9,4.3-1.416-1.3,1.19-2.649,2.319-4.015,3.413C3423.432,3748.285,3423.335,3748.331,3423.241,3748.38Zm5.206-3.023c.529-.486,1.027-.99,1.538-1.486q.949-.383,1.882-.79v.059q-1.788,1.256-3.638,2.409C3428.3,3745.483,3428.376,3745.423,3428.447,3745.357Zm474.241-89.764v-1.831h7.332v1.831Zm-1,0h-7.331v-1.831h7.331Zm-7.331-2.831v-1.832h7.331v1.832Zm-1,0h-7.33v-1.832h7.33Zm-7.33-2.832V3648.1h7.33v1.831Zm-1,0H3877.7V3648.1h7.331Zm-7.331-2.831v-1.831h7.331v1.831Zm-1,0h-7.331v-1.831h7.331Zm-7.331-2.831v-1.832h7.331v1.832Zm-1,0h-7.33v-1.832h7.33Zm-7.33-2.832V3639.6h7.33v1.832Zm-1,0H3852.7V3639.6h7.331Zm-7.331-2.832v-1.831h7.331v1.831Zm-1,0h-7.331v-1.831h7.331Zm-7.331-2.831v-1.832h7.331v1.832Zm-1,0h-7.331v-1.832h7.331Zm-7.331-2.832v-1.831h7.331v1.831Zm-1,0h-7.33v-1.831h7.33Zm-7.33-2.831v-1.831h7.33v1.831Zm-1,0h-7.331v-1.831h7.331Zm-7.331-2.831v-1.831h7.331v1.831Zm-1,0h-7.331v-1.831h7.331Zm-7.331-2.831v-1.832h7.331v1.832Zm-1,0h-5.467v-1.832h5.467Zm-5.467-2.832v-1.831h5.467v1.831Zm-1,0h-.863v-1.831h.863Zm-.863-2.831v-1.831h.863v1.831Zm-1,0h-1.168v-1.831h1.168Zm-2.168-2.831h-3.031v-1.832h3.031ZM3429.8,3336.3c36.219-10.167,68.238-24.79,95.179-43.467a259.076,259.076,0,0,0,68.117-69.256h202.427v389.546h-1.132v-2.831h-1.9v-374.5H3596.159l-.148.223a248.358,248.358,0,0,1-65.446,66.606c-25.961,18-56.851,32.075-91.81,41.837l-.521.145,52.405,143.24q-2.268,1.131-4.584,2.225Zm61.186,152.49,1.636,4.47q-2.289,1.08-4.62,2.127l-1.6-4.371Q3488.712,3489.917,3490.984,3488.789Zm.9-.455q2.294-1.154,4.54-2.341l1.683,4.6q-2.266,1.136-4.577,2.24Zm6.568,3.2,1.642,4.486q-2.284,1.085-4.617,2.132l-1.6-4.376Q3496.188,3492.676,3498.451,3491.537Zm.9-.455q2.292-1.161,4.537-2.353l1.687,4.61q-2.265,1.144-4.573,2.257Zm6.569,3.2,1.648,4.5q-2.283,1.088-4.617,2.137l-1.6-4.386Q3503.659,3495.43,3505.919,3494.284Zm.9-.455q2.289-1.167,4.533-2.365l1.691,4.622q-2.262,1.151-4.569,2.266Zm6.57,3.2,1.652,4.517c-1.519.728-3.061,1.439-4.614,2.142l-1.609-4.4Q3511.128,3498.181,3513.388,3497.032Zm.9-.456q2.288-1.174,4.524-2.385l1.7,4.642q-2.256,1.155-4.564,2.274Zm6.568,3.2,1.656,4.527q-2.277,1.1-4.609,2.152l-1.612-4.408Q3518.6,3500.934,3520.854,3499.779Zm.9-.455c1.526-.79,3.027-1.6,4.516-2.412l1.707,4.667q-2.251,1.162-4.562,2.285Zm6.57,3.2,1.652,4.516c-1.52.737-3.045,1.469-4.6,2.178l-1.615-4.413Q3526.066,3503.686,3528.323,3502.527Zm.894-.467q2.284-1.193,4.51-2.427l1.706,4.664c-1.5.783-3.012,1.557-4.552,2.312Zm6.571,3.207,1.66,4.537c-1.518.74-3.042,1.475-4.6,2.187l-1.619-4.426Q3533.537,3506.436,3535.788,3505.267Zm.892-.472c1.52-.8,3.026-1.611,4.505-2.44l1.713,4.684c-1.5.789-3,1.571-4.544,2.331Zm6.565,3.192,1.675,4.578c-1.515.744-3.038,1.482-4.594,2.2l-1.625-4.444C3540.24,3509.558,3541.746,3508.776,3543.245,3507.987Zm.9-.463c1.521-.81,3.011-1.642,4.489-2.482l1.734,4.738c-1.5.8-3,1.585-4.538,2.35Zm6.57,3.206,1.682,4.595c-1.512.748-3.039,1.486-4.593,2.2l-1.627-4.45C3547.711,3512.314,3549.216,3511.525,3550.711,3510.73Zm.9-.463c1.52-.819,3.005-1.662,4.479-2.511l1.744,4.765q-2.234,1.2-4.536,2.358Zm6.571,3.2,1.687,4.613c-1.506.753-3.041,1.484-4.592,2.2l-1.634-4.468C3555.172,3515.052,3556.69,3514.273,3558.178,3513.472Zm.885-.492c1.513-.825,3.01-1.662,4.475-2.52l1.749,4.782q-2.226,1.217-4.527,2.378Zm6.571,3.209,1.7,4.639q-2.256,1.137-4.585,2.221l-1.641-4.486Q3563.4,3517.4,3565.634,3516.189Zm.884-.495q2.268-1.256,4.461-2.561l1.763,4.822q-2.22,1.23-4.517,2.408Zm6.472,3.265v5.52q-1.371.676-2.771,1.331l-1.648-4.5Q3570.817,3520.158,3572.99,3518.959Zm1,2.406.806,2.2c-.271.138-.533.282-.806.419Zm1.152,3.148,1.643,4.492c-.918.427-1.858.838-2.795,1.25v-5.146C3574.38,3524.915,3574.755,3524.71,3575.142,3524.513Zm3.719,10.167.181.492.483-.2c.512-.216,1.007-.445,1.513-.664v75.986h-3.023v-77.926Zm2.177,76.611v1.831h-3.023v-1.831Zm-4.023,1.831h-3.025v-1.831h3.025Zm0,1v1.832h-3.025v-1.832Zm-4.025,1.832h-5.356v-1.832h5.356Zm0,1v1.831h-5.356v-1.831Zm-6.356,1.831h-8.626v-1.831h8.626Zm0,1v1.831h-8.626v-1.831Zm-9.626,1.831h-8.626v-1.831h8.626Zm-10.124,1c.171.425.34.851.5,1.282v.55h-8.627v-1.832Zm-8.129-1v-1.831h6.863c.3.6.577,1.214.846,1.831Zm-1,2.832h-1.8c-.276-.617-.562-1.229-.865-1.832h2.662Zm-2.9,0h-5.728v-1.832h4.833Q3534.43,3623.521,3534.857,3624.448Zm-22.747-12.056a49.592,49.592,0,0,1,9.649,12.056H3518.5v2.831h-7.274a54.085,54.085,0,0,0-10.49-13.094h0a59.661,59.661,0,0,0-25.651-13.882,47.984,47.984,0,0,1,5.049-2.272C3492.681,3599.593,3503.408,3604.4,3512.11,3612.392Zm-39.765-11.711a48.551,48.551,0,0,0-4.748,3.2,68.621,68.621,0,0,0-7.982-2.362,52.3,52.3,0,0,1,5-2.091A71.145,71.145,0,0,1,3472.345,3600.681Zm-15.671,1.235a51.971,51.971,0,0,0-4.713,2.938,73.772,73.772,0,0,0-7.714-2.081q2.4-1.071,4.913-1.925Q3453.015,3601.208,3456.674,3601.916Zm-15.615,1.275q-2.412,1.241-4.693,2.709-3.691-1.086-7.58-1.827c1.6-.67,3.244-1.268,4.919-1.807Q3437.47,3602.572,3441.059,3603.191Zm-15.661,1.315q-2.368,1.149-4.618,2.5-3.59-.957-7.352-1.61c1.56-.615,3.146-1.185,4.772-1.685Q3421.876,3603.97,3425.4,3604.506Zm-15.6,1.347q-2.343,1.076-4.584,2.328c-2.344-.568-4.733-1.057-7.178-1.447,1.542-.575,3.117-1.092,4.717-1.563Q3406.344,3605.388,3409.8,3605.853Zm-15.58,1.349q-2.322,1.013-4.551,2.188-3.447-.763-7.033-1.282c1.531-.543,3.092-1.031,4.676-1.48C3389.65,3606.751,3391.96,3606.93,3394.218,3607.2Zm-15.66,1.4c-1.5.627-2.969,1.313-4.416,2.036-2.244-.457-4.533-.833-6.857-1.146q2.255-.764,4.579-1.4C3374.133,3608.189,3376.362,3608.365,3378.558,3608.6Zm-15.568,1.406c-1.495.6-2.971,1.227-4.414,1.914-2.182-.408-4.39-.769-6.643-1.048,1.473-.477,2.962-.926,4.479-1.326C3358.642,3609.631,3360.826,3609.8,3362.99,3610.006Zm-15.572,1.406q-2.193.844-4.317,1.809-3.245-.561-6.587-.944c1.452-.452,2.929-.861,4.422-1.243Q3344.222,3611.139,3347.418,3611.412Zm-15.6,1.418c-1.433.532-2.842,1.106-4.234,1.71-2.106-.336-4.249-.6-6.414-.833q2.136-.642,4.328-1.185C3327.632,3612.58,3329.744,3612.672,3331.82,3612.83Zm-25.543,1.136c-1.041.292-2.081.586-3.1.911-1.464-.114-2.949-.192-4.439-.26,1-.194,1.986-.4,3-.564C3303.23,3614,3304.749,3613.973,3306.277,3613.966Zm-15.639,1.513c-1,.274-2,.55-2.978.852-1.376-.1-2.756-.185-4.153-.243.959-.181,1.916-.368,2.888-.525C3287.795,3615.508,3289.216,3615.493,3290.638,3615.479Zm-15.64,1.513c-.916.247-1.822.51-2.725.78-1.326-.085-2.66-.159-4-.209.9-.166,1.8-.333,2.709-.479C3272.3,3617.029,3273.651,3617.012,3275,3616.992Zm-15.536,1.484a102.644,102.644,0,0,0-43.928,23.925c-20.17,18.559-30.4,42.42-30.4,70.922s10.227,52.364,30.4,70.922,45.912,27.95,76.538,27.95c17.391,0,33.16-3,47.188-8.926-1.075.892-2.167,1.756-3.271,2.6-16.854,9.428-36.534,14.212-58.812,14.212-31.513,0-58-9.667-78.721-28.731s-31.212-43.559-31.212-72.835,10.5-53.782,31.212-72.835c15.809-14.544,34.982-23.6,57.172-27.086Q3257.533,3618.514,3259.462,3618.476Zm32.61,192.719c-30.367,0-55.89-9.315-75.86-27.686s-30.075-41.975-30.075-70.186,10.118-51.825,30.075-70.185a102.145,102.145,0,0,1,47.6-24.674q2.9.027,5.75.16a98.3,98.3,0,0,0-36.271,21.234c-19.417,17.865-29.262,40.834-29.262,68.272s9.845,50.407,29.262,68.272,44.194,26.906,73.676,26.906a119.166,119.166,0,0,0,39.083-6.18c-.857.843-1.725,1.679-2.618,2.5-.5.459-1.007.908-1.514,1.357C3327.26,3807.76,3310.6,3811.2,3292.072,3811.2Zm53.011-11.75q1.615-1.523,3.153-3.091c1.215-.45,2.422-.911,3.611-1.405-1.13.946-2.283,1.855-3.446,2.749C3347.309,3798.3,3346.2,3798.88,3345.083,3799.445Zm4.792-4.8q2.005-2.15,3.854-4.388,2.478-.693,4.889-1.5c-1.02,1.021-2.062,2.03-3.138,3.019-.358.329-.732.633-1.094.957Q3352.163,3793.738,3349.875,3794.642Zm7.616-3.394q1.65-1.571,3.207-3.194c1.272-.458,2.522-.952,3.764-1.46q-1.758,1.493-3.577,2.889C3359.769,3790.1,3358.634,3790.678,3357.491,3791.248Zm4.79-4.879q2.022-2.2,3.88-4.5c1.7-.453,3.369-.955,5.019-1.492q-1.767,1.8-3.652,3.536c-.2.18-.4.344-.6.522Q3364.642,3785.46,3362.281,3786.369Zm10.937-6.675q1.954-.686,3.86-1.454-1.822,1.564-3.708,3.028c-1.141.621-2.3,1.209-3.471,1.783Q3371.612,3781.4,3373.218,3779.694Zm1.47-1.6q2.045-2.272,3.916-4.644,2.573-.649,5.071-1.428c-1.319,1.37-2.673,2.721-4.1,4.03-.033.03-.067.057-.1.087C3377.905,3776.833,3376.311,3777.489,3374.688,3778.1Zm11.025-6.755q2.018-.684,3.981-1.456-1.884,1.64-3.839,3.168c-1.175.633-2.37,1.234-3.576,1.815Q3384.055,3773.139,3385.713,3771.341Zm1.373-1.515q2.079-2.357,3.959-4.824c1.749-.416,3.476-.868,5.171-1.378-1.366,1.451-2.777,2.876-4.264,4.256C3390.354,3768.569,3388.739,3769.228,3387.086,3769.826Zm11.075-6.821q2.1-.687,4.149-1.474-1.913,1.688-3.9,3.252-1.864,1-3.783,1.9C3395.845,3765.483,3397.028,3764.258,3398.161,3763Zm1.32-1.5q2.08-2.411,3.946-4.942,2.722-.6,5.353-1.366-2.087,2.271-4.37,4.427C3402.8,3760.3,3401.15,3760.925,3399.481,3761.507Zm11.166-6.852c.663-.208,1.314-.437,1.968-.66v1.2c-.541.451-1.1.876-1.649,1.312q-1.911,1.014-3.883,1.923C3408.314,3757.2,3409.509,3755.943,3410.647,3754.655Zm5.751-1.439c.366-.336.706-.687,1.064-1.028.646-.267,1.278-.557,1.915-.84q-1.713,1.2-3.483,2.309C3416.06,3753.507,3416.233,3753.368,3416.4,3753.216ZM3910.02,3650.93v1.832h-7.332v-1.832Zm-8.332-2.831v1.831h-7.331V3648.1Zm-8.331-2.831v1.831h-7.33v-1.831Zm-8.33-2.832v1.832H3877.7v-1.832Zm-8.331-2.832v1.832h-7.331V3639.6Zm-8.331-2.831v1.831h-7.33v-1.831Zm-8.33-2.832v1.832H3852.7v-1.832Zm-8.331-2.831v1.831h-7.331v-1.831Zm-8.331-2.831v1.831h-7.331v-1.831Zm-8.331-2.831v1.831h-7.33v-1.831Zm-8.33-2.832v1.832h-7.331v-1.832Zm-8.331-2.831v1.831h-7.331v-1.831Zm-8.331-2.831v1.831h-5.467v-1.831Zm-335.1-121.9-64.65-176.711c38.949-10.93,73.385-26.654,102.356-46.738a278.491,278.491,0,0,0,73.235-74.463h217.689v418.813h-.863v-2.832h-2.168V3209.358H3588.959l-.148.223a267.773,267.773,0,0,1-70.563,71.815c-27.993,19.407-61.3,34.583-98.988,45.107l-.521.145,60.872,166.382Q3477.3,3494.056,3474.953,3495.053Zm7.477,2.77-1.56-4.263q2.331-1.044,4.621-2.12l1.594,4.358Q3484.776,3496.825,3482.43,3497.823Zm7.475,2.772-1.561-4.267q2.332-1.045,4.621-2.124l1.6,4.362C3493.022,3499.252,3491.474,3499.931,3489.905,3500.595Zm7.477,2.77-1.562-4.268q2.331-1.048,4.618-2.129l1.6,4.367Q3499.729,3502.365,3497.382,3503.365Zm7.475,2.771-1.562-4.27c1.553-.7,3.1-1.41,4.618-2.134l1.6,4.371C3507.974,3504.791,3506.427,3505.472,3504.857,3506.136Zm7.477,2.77-1.563-4.273q2.329-1.053,4.614-2.143l1.6,4.38Q3514.683,3507.905,3512.334,3508.906Zm7.477,2.771-1.564-4.275q2.329-1.058,4.608-2.154l1.6,4.378C3522.919,3510.318,3521.383,3511.011,3519.811,3511.677Zm7.475,2.771-1.565-4.277q2.331-1.062,4.606-2.166l1.606,4.391C3530.4,3513.09,3528.858,3513.782,3527.286,3514.448Zm7.477,2.771-1.566-4.281c1.556-.711,3.078-1.448,4.6-2.188l1.616,4.416C3537.875,3515.862,3536.335,3516.553,3534.763,3517.219Zm7.476,2.77-1.568-4.286c1.555-.713,3.08-1.448,4.6-2.191l1.619,4.425C3545.353,3518.634,3543.811,3519.323,3542.239,3519.989Zm7.476,2.772-1.572-4.3q2.329-1.073,4.6-2.192l1.622,4.434C3552.831,3521.406,3551.287,3522.094,3549.715,3522.761Zm7.476,2.77-1.575-4.3c1.551-.719,3.087-1.449,4.594-2.2l1.628,4.45Q3559.546,3524.528,3557.191,3525.531Zm7.477,2.771-1.578-4.314q2.327-1.083,4.585-2.218l1.638,4.475Q3567.026,3527.3,3564.668,3528.3Zm7.476,2.77-1.582-4.322c.815-.382,1.627-.766,2.428-1.158v5.106C3572.706,3530.82,3572.43,3530.951,3572.144,3531.072Zm1.846.274c1.016-.444,2.03-.888,3.025-1.348v80.293h-3.025Zm-6.356,79.945h5.356v1.831h-5.356Zm-9.626,2.831h8.626v1.832h-8.626Zm-9.626,2.832h8.626v1.831h-8.626Zm-1,2.831v1.425c-.209-.479-.42-.955-.646-1.425Zm-46.78-25.319c14.326,0,26.306,4.33,35.6,12.869a42.533,42.533,0,0,1,8.89,11.45h-7.342v2.831h-3.183a46.992,46.992,0,0,0-9.736-12.489h0c-9.035-8.3-20.358-12.976-33.709-13.96A63.335,63.335,0,0,1,3500.6,3594.466Zm-17.759,1.554c-.959.3-1.9.632-2.83.982-1.312-.158-2.651-.269-4-.357A66.812,66.812,0,0,1,3482.843,3596.02Zm-18.346,2.394q-1.778-.186-3.6-.291,3.039-.411,6.217-.563Q3465.788,3597.957,3464.5,3598.414Zm-15.456,1.417q-1.614-.146-3.26-.231c1.83-.235,3.7-.4,5.6-.5Q3450.2,3599.444,3449.041,3599.831Zm-15.456,1.418c-.962-.076-1.94-.125-2.919-.171,1.631-.2,3.3-.335,4.982-.438C3434.956,3600.835,3434.265,3601.032,3433.585,3601.249Zm-15.5,1.455c-.807-.055-1.616-.107-2.434-.142,1.4-.164,2.826-.286,4.264-.382C3419.3,3602.349,3418.688,3602.52,3418.084,3602.7Zm-15.446,1.458c-.664-.039-1.322-.089-1.993-.116,1.168-.129,2.345-.24,3.537-.326C3403.662,3603.86,3403.151,3604.013,3402.638,3604.162Zm-15.445,1.458c-.538-.027-1.071-.064-1.613-.084.951-.1,1.9-.2,2.869-.275C3388.026,3605.372,3387.613,3605.5,3387.193,3605.62Zm-15.446,1.458c-.427-.018-.857-.033-1.287-.047.778-.081,1.549-.173,2.335-.235C3372.444,3606.886,3372.1,3606.984,3371.747,3607.078Zm-15.474,1.465c-.3-.011-.618-.008-.924-.017.572-.057,1.138-.125,1.714-.173C3356.8,3608.419,3356.534,3608.475,3356.273,3608.543Zm-15.449,1.489c-.194-.006-.391-.006-.586-.011.368-.036.732-.079,1.1-.111C3341.169,3609.952,3340.994,3609.989,3340.824,3610.032Zm-15.436,1.489c-.087,0-.174,0-.261,0,.164-.016.327-.035.491-.05C3325.542,3611.485,3325.464,3611.5,3325.388,3611.521Zm-63.106,217.45c-32.658,0-60.106-10.019-81.583-29.777s-32.346-45.143-32.346-75.484,10.882-55.738,32.346-75.484c18.046-16.6,40.31-26.325,66.336-29.008a106.9,106.9,0,0,0-49.257,25.727c-20.924,19.251-31.534,44-31.534,73.572s10.61,54.32,31.534,73.571,47.627,29,79.4,29c19.751,0,37.49-3.721,53.045-11.088C3311.293,3822.594,3288.518,3828.971,3262.282,3828.971Zm79.806-26.8c.127-.111.251-.226.377-.338.165-.077.335-.146.5-.223C3342.676,3801.807,3342.378,3801.985,3342.088,3802.175Zm12.144-7.986c.231-.2.464-.4.694-.607.28-.127.564-.246.842-.376C3355.264,3793.546,3354.742,3793.859,3354.232,3794.189Zm12.332-8.106c.3-.265.608-.523.907-.793.345-.155.694-.3,1.036-.463C3367.869,3785.26,3367.212,3785.666,3366.564,3786.083Zm12.332-8.106c.372-.329.752-.644,1.119-.979.4-.178.808-.356,1.208-.54C3380.458,3776.981,3379.676,3777.478,3378.9,3777.977Zm12.333-8.107c.355-.317.721-.616,1.073-.938.073-.068.14-.139.213-.206.478-.208.953-.422,1.426-.638C3393.05,3768.7,3392.142,3769.29,3391.229,3769.87Zm12.333-8.106c.26-.234.53-.453.788-.69.214-.2.411-.4.622-.6.568-.24,1.125-.5,1.685-.753Q3405.133,3760.778,3403.562,3761.764Zm523.119,58.538H3413.615V3756.18a80.989,80.989,0,0,0,8.626-5.653v62.19H3919.35V3656.593h7.331Z" transform="translate(-3147.353 -3196.141)" fill="#91ffaf"/>
</svg>
