<svg id="_1" data-name="1" xmlns="http://www.w3.org/2000/svg" width="518.688" height="625.16" viewBox="0 0 518.688 625.16">
  <path id="_1-2" data-name="1" d="M3404.984,3065v-2.831h-8.632v-2.832h-8.634v-2.831h-8.633v-2.831h-8.633v-2.832h-8.633v-2.831h-8.632v-2.831h-8.634v-2.831h-8.633v-2.832h-8.633v-2.831h-8.633v-2.832h-8.633v-2.832h-8.632v-2.831h-8.634v-2.831h-2.235V2605.549H3071.295l-.149.222a277.455,277.455,0,0,1-73.121,74.418c-29,20.111-63.516,35.836-102.576,46.743l-.52.145,65.2,178.22.181.492.483-.2q2.442-1.028,4.836-2.093l1.674,4.574.18.493.484-.2q2.442-1.028,4.835-2.094l1.675,4.576.18.492.484-.2q2.442-1.028,4.834-2.1l1.675,4.579.181.493.483-.2q2.445-1.028,4.835-2.1l1.676,4.581.181.492.483-.2c1.63-.686,3.237-1.389,4.833-2.1l1.677,4.583.181.493.483-.2q2.445-1.028,4.832-2.1l1.678,4.586.18.492.484-.2c1.631-.686,3.237-1.391,4.831-2.106l1.679,4.587.18.493.484-.2c1.633-.687,3.232-1.4,4.827-2.118l1.682,4.6.181.492.484-.2c1.633-.687,3.233-1.4,4.826-2.119l1.683,4.6.181.493.483-.2c1.634-.687,3.236-1.4,4.827-2.118l1.683,4.6.181.492.483-.2c1.633-.687,3.238-1.4,4.827-2.118l1.683,4.6.181.493.483-.2q2.45-1.031,4.827-2.118l1.683,4.6.18.492.484-.2q2.451-1.032,4.826-2.123l1.685,4.6.18.493.484-.2q2.453-1.032,4.821-2.131l.049.132V3019.7h-11.193v2.831h-9.324v2.832h-9.323v2.831h-9.324v2.831h-9.325v2.832h-9.323v2.832h-9.324v2.831h-9.324v2.832h-9.324v2.831h-9.324v2.831H2954.5v2.831h-9.324v2.832h-9.323v2.831h-9.325v2.831H2917.2v2.832h-9.323V3065h-9.324v165.709h515.065V3065Zm-1-1.831V3065h-7.632v-1.831ZM2908.876,3066h8.323v147.539h479.153V3066h7.632v155.124H2908.876Zm376.311-40.639h-1.065v-2.832h-2.268V2631.984H3077.891l-.149.223a258.086,258.086,0,0,1-68,69.21c-26.974,18.7-59.071,33.328-95.4,43.472l-.521.145,56.748,155.112q-2.164,1.011-4.365,2l-60.517-165.414c37.586-10.549,70.813-25.722,98.767-45.1a268.773,268.773,0,0,0,70.676-71.858h210.059ZM3386.718,3065h-7.633v-1.831h7.633Zm1-1.831h7.634V3065h-7.634Zm-460.2,2.831h8.325v130.369h443.237V3066h7.633v137.954h-459.2Zm349-43.471h-1.032V3019.7h-2.3V2658.42h-188.7l-.148.223a238.652,238.652,0,0,1-62.886,64c-24.946,17.295-54.628,30.821-88.223,40.2l-.52.145,48.292,132q-2.127,1.111-4.293,2.2l-52.134-142.5c34.854-9.787,65.666-23.859,91.592-41.832a249.367,249.367,0,0,0,65.558-66.651h194.8Zm6.6,2.832h-1.268v-1.832h1.268Zm86.33,39.639h-7.633v-1.831h7.633Zm1-1.831h7.633V3065h-7.633ZM2946.171,3066h8.324v113.2h407.324V3066h7.633v120.785H2946.171Zm116.466-136-1.724-4.714c.578-.351,1.166-.7,1.735-1.054v5.761Zm-2.71-7.41v-3.85c.917-.609,1.827-1.222,2.721-1.845v6.165c-.681.431-1.39.846-2.085,1.27Zm207.927,97.108h-3.333V2684.855H3091.082l-.148.223a219.22,219.22,0,0,1-57.768,58.793c-22.917,15.889-50.185,28.314-81.047,36.931l-.52.145,39.651,108.382c-1.388.812-2.8,1.61-4.216,2.4l-43.569-119.089c32.12-9.022,60.517-22,84.414-38.561a229.96,229.96,0,0,0,60.44-61.442h179.535Zm6.635,2.831h-1.3V3020.7h1.3Zm77.7,42.471h-7.634v-1.831h7.634Zm1-1.831h7.632V3065h-7.632ZM2964.819,3066h8.324v96.03h371.41V3066h7.634v103.615H2964.819Zm106.273-129.73v-3.148c.923-.541,1.824-1.1,2.722-1.653v5.716c-.658.363-1.325.718-1.995,1.072Zm188.1,83.428h-3.333V2711.291H3097.678l-.149.223a199.805,199.805,0,0,1-52.65,53.585c-20.887,14.48-45.739,25.8-73.869,33.66l-.521.145,30.806,84.2q-2.037,1.335-4.13,2.638l-34.811-95.149c29.389-8.26,55.373-20.132,77.239-35.29a210.549,210.549,0,0,0,55.322-56.235h164.273Zm75.732,45.3h-7.633v-1.831h7.633Zm1-1.831h7.633V3065h-7.633ZM2983.467,3066h8.324v78.86h335.5V3066h7.633v86.445H2983.467Zm80.181-157.615c.349-.275.714-.54,1.059-.817.565-.454,1.107-.938,1.663-1.4v6.787q-1.338,1.016-2.722,2Zm-1,4.806-1.151-3.147c.388-.293.768-.592,1.151-.888ZM3250.521,3019.7h-3.333V2737.727H3104.274l-.148.222a180.4,180.4,0,0,1-47.534,48.377c-18.859,13.074-41.3,23.3-66.692,30.39l-.52.145,21.736,59.415c-1.324.978-2.673,1.943-4.034,2.9l-25.837-70.621c26.655-7.5,50.225-18.269,70.061-32.021a191.1,191.1,0,0,0,50.206-51.025h149.009Zm67.133,45.3h-7.633v-1.831h7.633Zm1-1.831h7.633V3065h-7.633ZM3002.115,3066h8.323v61.691h299.583V3066h7.633v69.275H3002.115Zm239.74-46.3h-3.333V2764.162H3110.87l-.148.223a160.99,160.99,0,0,1-42.416,43.169c-16.829,11.667-36.854,20.791-59.516,27.119l-.52.145,12.408,33.917q-1.574,1.333-3.176,2.625c-.245.2-.5.39-.745.587l-16.622-45.435c23.924-6.736,45.079-16.407,62.885-28.75a171.667,171.667,0,0,0,45.087-45.818h133.748Zm58.534,45.3h-7.634v-1.831h7.634Zm1-1.831h7.632V3065h-7.632ZM3020.763,3066h8.324v44.521h263.668V3066h7.634v52.106H3020.763Zm38.164-238.512q-1.515.817-3.061,1.609c1.013-1.634,2.013-3.282,2.983-4.959h.078Zm0,1.139v5.3q-3.237,5.227-6.776,10.138-4.713,2.02-9.66,3.82a177.415,177.415,0,0,0,12.355-17.147Q3056.908,2829.7,3058.927,2828.627ZM3233.189,3019.7h-3.333V2790.6h-112.39l-.149.222a141.526,141.526,0,0,1-37.3,37.96q-6.018,4.172-12.65,7.839v-2.247h-1.6l-.144.25q-.975,1.692-1.982,3.351v-9.218h-1.626l-.144.25q-.96,1.667-1.951,3.3v-4.228a161.342,161.342,0,0,0,14.8-9.092,152.257,152.257,0,0,0,39.971-40.609h118.486Zm49.933,39.639h-1.268v-1.831h1.268Zm1-1.831h1.065v1.831h-1.065ZM3039.41,3066h8.324v27.352h227.755v-38.677h1.032v2.831h4.333v2.831h2.268v40.6H3039.41Zm20.517,0v-2.831h3.721v-2.832h3.722v-2.831h3.722v-2.831h3.722v-2.832h3.722v-2.831h3.722v-2.831h3.721v-2.831h3.722v-2.832h3.722v-2.831h3.722v-2.832h3.721v-2.832h3.722v-2.831h3.723v-2.831h3.721v-2.832h3.722V3020.7h3.722V2913.013H3118.3l-.145.25c-.767,1.332-1.577,2.621-2.406,3.889V2907.4h-1.2l-.145.25c-.761,1.32-1.559,2.6-2.376,3.866v-9.734H3110.8l-.145.25c-.754,1.31-1.54,2.588-2.345,3.845v-9.712h-1.263l-.145.25q-1.121,1.949-2.315,3.823v-9.69H3103.3l-.145.25c-.738,1.282-1.5,2.538-2.285,3.775v-9.642h-1.322l-.145.25c-.728,1.265-1.486,2.5-2.254,3.725v-9.592h-1.353l-.145.25c-.718,1.248-1.469,2.464-2.224,3.674v-9.542h-1.383l-.144.25c-.709,1.231-1.452,2.429-2.2,3.625v-9.492h-1.414l-.144.25c-.7,1.214-1.433,2.392-2.164,3.574v-9.441h-1.444l-.144.25c-.7,1.205-1.409,2.39-2.133,3.565v-9.155q5.241-2.961,10.045-6.288a123.148,123.148,0,0,0,32.294-32.8h95.593V3020.7h4.333v2.831h4.333v2.832h4.333v2.831h4.333v2.831h4.333v2.832h4.333v2.832h4.333v2.831h4.334v2.832h4.333v2.831h4.333v2.831h4.333v2.831h4.334v2.832h2.3v37.677H3048.734V3066Zm-11.193-1v-1.831h10.193V3065Zm11.193-2.831v-1.832h2.721v1.832Zm3.721-2.832v-1.831h2.722v1.831Zm3.722-2.831v-1.831h2.722v1.831Zm3.722-2.831v-1.832h2.722v1.832Zm3.722-2.832v-1.831h2.722v1.831Zm3.722-2.831v-1.831h2.722v1.831Zm3.722-2.831v-1.831h2.721v1.831Zm3.721-2.831v-1.832h2.722v1.832Zm-22.331-191.094c.923-1.356,1.834-2.725,2.722-4.118v3.561c-.9.433-1.807.856-2.722,1.276Zm-3.721-17.043c.907-1.47,1.8-2.952,2.674-4.458h.047v9.384q-1.347.69-2.721,1.357Zm-1,6.775c-1.634.785-3.3,1.543-4.976,2.285q2.57-3.641,4.976-7.454Zm7.443-3.82c-.528.289-1.057.576-1.592.86.53-.88,1.058-1.762,1.575-2.656h.017Zm-4.33,3.4q-1.043,1.65-2.113,3.268v-2.22C3060.636,2841.27,3061.338,2840.919,3062.04,2840.567Zm1.724-.881c.875-.453,1.746-.909,2.606-1.374v6.934c-.891,1.429-1.794,2.845-2.722,4.235v-9.609C3063.687,2839.81,3063.726,2839.748,3063.764,2839.686ZM3228.856,3019.7h-3.333V2803.815H3120.764l-.149.223a131.89,131.89,0,0,1-34.739,35.357q-5.279,3.658-11.062,6.905v-.694h-1.535l-.144.25c-.39.678-.791,1.345-1.189,2.014-.283.15-.57.3-.854.445v-8.326h-1.565l-.144.25q-.988,1.716-2.013,3.4v-5.874a150.559,150.559,0,0,0,13.22-8.158A142.565,142.565,0,0,0,3118,2791.6h110.855Zm-3.333,1h3.333v1.831h-3.333Zm-101.461-203.665-.149.223a122.12,122.12,0,0,1-32.181,32.752,129.942,129.942,0,0,1-13.2,8v-6.787h-1.5l-.144.25q-1.016,1.761-2.073,3.479v-7.513q6.084-3.387,11.632-7.223a132.876,132.876,0,0,0,34.853-35.4h103.224V3019.7h-3.333V2817.033Zm-44.2,41.372q-.656,1.111-1.327,2.209v-1.5C3078.982,2858.883,3079.421,2858.643,3079.863,2858.405Zm-7.2-9.782c.388-.208.769-.421,1.153-.631v8.573q-1.33,2.118-2.722,4.174v-9.548Q3071.887,2849.918,3072.661,2848.623Zm1.153-1.773-.149.082c.049-.085.1-.167.149-.252Zm-3.722,1.987q-1.348.695-2.722,1.367v-4.672c.925-1.488,1.837-2.99,2.722-4.519Zm-3.722,2.965v4.771c-.892,1.3-1.8,2.581-2.722,3.841v-7.339Q3065.022,2852.449,3066.37,2851.8Zm1-.48q1.372-.669,2.722-1.355v.939q-1.334,2.13-2.722,4.2Zm2.722,1.467v9.346q-1.35.606-2.722,1.192v-6.445C3068.294,2855.535,3069.205,2854.174,3070.092,2852.789Zm3.722,5.645v1.97c-.623.3-1.255.6-1.887.889Q3072.884,2859.879,3073.814,2858.434Zm1-1.585c.927-1.48,1.839-2.975,2.722-4.5v6.183q-1.347.7-2.722,1.377Zm2.722,2.8v2.571q-1.329,2.1-2.722,4.141V2861C3075.725,2860.553,3076.643,2860.114,3077.536,2859.654Zm0,4.425v9.357q-1.332,1.887-2.722,3.712v-9.015Q3076.2,2866.136,3077.536,2864.079Zm1-1.572c.928-1.475,1.839-2.967,2.722-4.488v9.866q-1.328,2.09-2.722,4.108Zm2.722,7.2v9.315c-.892,1.251-1.791,2.495-2.722,3.705v-8.972C3079.467,2872.429,3080.368,2871.073,3081.258,2869.705Zm1-1.558c.926-1.466,1.842-2.945,2.721-4.459v9.843c-.883,1.384-1.794,2.739-2.721,4.077Zm2.721,7.2v9.272c-.89,1.235-1.791,2.457-2.721,3.648v-8.9C3083.189,2878.049,3084.09,2876.7,3084.979,2875.343Zm3.722,3.829c-.887,1.38-1.789,2.745-2.722,4.077v-9.439c.929-1.462,1.842-2.941,2.722-4.453Zm3.722,5.639c-.885,1.369-1.789,2.718-2.722,4.036v-9.374q1.4-2.185,2.722-4.446Zm3.722,5.641q-1.325,2.034-2.722,3.99v-9.307q1.4-2.178,2.722-4.439Zm3.721,5.64q-1.321,2.015-2.721,3.945v-9.261q1.4-2.164,2.721-4.411Zm3.722,5.64q-1.32,1.994-2.722,3.9v-9.217c.935-1.432,1.847-2.887,2.722-4.38Zm3.723,5.639q-1.32,1.972-2.723,3.854v-9.174c.935-1.422,1.85-2.865,2.723-4.351Zm3.721,5.639c-.879,1.3-1.782,2.573-2.721,3.807v-9.132c.936-1.408,1.851-2.839,2.721-4.315Zm3.722,5.641q-1.315,1.916-2.722,3.732v-9.064c.938-1.4,1.854-2.813,2.722-4.281Zm0,101.047h-2.722v-95.717c.934-1.159,1.847-2.342,2.722-3.567Zm1-100.747c.94-1.381,1.856-2.788,2.722-4.246V3019.7h-2.722Zm-22.331,114.9v-1.832h2.722v1.832Zm2.722,1v1.832h-2.722v-1.832Zm0-121.8v7.887q-1.333,1.315-2.722,2.561v-7.521Q3094.812,2914.555,3096.145,2913.057Zm-2.722,1.492v-8.109q1.391-1.651,2.722-3.372v8.48Q3094.812,2913.083,3093.423,2914.549Zm13.888,105.149h-2.723v-87.747q1.392-1.285,2.723-2.647Zm1-91.415c.934-.995,1.836-2.03,2.721-3.084v94.5h-2.721Zm-11.166,97.078v-1.832h2.721v1.832Zm2.721,1v1.831h-2.721v-1.831Zm0-91.675q-1.329,1.053-2.721,2.071v-6.738q1.386-1.17,2.721-2.409Zm0,1.262v83.75h-2.721v-81.713Q3098.536,2936.985,3099.866,2935.948Zm1-.771c.022-.018.046-.035.069-.053q1.353-1.089,2.653-2.247V3019.7h-2.722Zm-1,85.521v1.831h-2.721V3020.7Zm1,2.831h2.722v1.832h-2.722Zm0-1V3020.7h2.722v1.831Zm3.722-1.831h2.723v1.831h-2.723Zm0-90.115v-7.745q1.4-1.537,2.723-3.159v8.19Q3105.984,2929.269,3104.588,2930.583Zm-1,.931q-1.333,1.215-2.722,2.359v-7.189c.926-.891,1.836-1.8,2.722-2.742Zm-2.722-6.225v-7.9q1.393-1.578,2.722-3.233v8.3Q3102.257,2923.912,3100.866,2925.289Zm-1,.953q-1.333,1.267-2.721,2.466v-7.36q1.389-1.386,2.721-2.842Zm-2.721-6.323v-7.979q1.392-1.617,2.721-3.309V2917Q3098.536,2918.5,3097.145,2919.919Zm-1,2.424v7.21c-.34.282-.669.579-1.013.855-.557.447-1.137.881-1.709,1.32v-6.872Q3094.81,2923.634,3096.145,2922.343Zm-.386,8.845c.131-.106.255-.22.386-.326v6.608q-1.335.95-2.722,1.865v-6.345C3094.212,2932.4,3095,2931.8,3095.759,2931.188Zm.386,7.509v81h-2.722v-79.167Q3094.809,2939.629,3096.145,2938.7Zm0,82v1.831h-2.722V3020.7Zm0,2.831v1.832h-2.722v-1.832Zm0,2.832v1.831h-2.722v-1.831Zm0,2.831v1.831h-2.722v-1.831Zm1,2.831h2.721v1.832h-2.721Zm0-1v-1.831h2.721v1.831Zm3.721-1.831h2.722v1.831h-2.722Zm0-1v-1.831h2.722v1.831Zm3.722-1.831h2.723v1.831h-2.723Zm0-1v-1.832h2.723v1.832Zm3.723-1.832h2.721v1.832h-2.721Zm0-1V3020.7h2.721v1.831Zm3.721-1.831h2.722v1.831h-2.722Zm-1-97.077q-1.323,1.629-2.721,3.171v-8.334q1.406-1.786,2.721-3.672Zm-3.721-5.533q-1.325,1.668-2.723,3.248V2912.9c.936-1.215,1.84-2.465,2.723-3.739Zm-3.723-5.531q-1.324,1.7-2.722,3.322v-8.569q1.4-1.85,2.722-3.785Zm-3.722-5.565q-1.328,1.738-2.721,3.4v-8.671q1.4-1.875,2.721-3.832Zm-3.721-5.594q-1.328,1.768-2.722,3.463v-8.726q1.4-1.9,2.722-3.879Zm-3.722-5.595q-1.329,1.8-2.722,3.525v-8.783q1.4-1.924,2.722-3.926Zm-3.722-5.595q-1.332,1.827-2.722,3.587v-8.841c.931-1.3,1.835-2.627,2.722-3.972Zm-3.722-3.9v8.729q-1.333,1.637-2.721,3.208v-8.381Q3083.649,2888.115,3084.979,2886.3Zm0,10.313v8.208c-.887.956-1.8,1.88-2.721,2.8v-7.875C3083.18,2898.721,3084.091,2897.682,3084.979,2896.617Zm1-1.228q1.391-1.716,2.722-3.495v8.672c-.887,1.068-1.8,2.108-2.722,3.133Zm2.722,6.754v8.06c-.892.937-1.795,1.861-2.722,2.757V2905.2C3086.9,2904.2,3087.814,2903.185,3088.7,2902.143Zm1-1.228q1.391-1.685,2.722-3.433v8.609q-1.332,1.567-2.722,3.065Zm2.722,6.69v7.969q-1.335,1.36-2.722,2.658v-7.614C3090.628,2909.637,3091.532,2908.629,3092.423,2907.6Zm0,9.4v7.387c-.812.707-1.628,1.409-2.466,2.083-.083.067-.172.13-.256.2v-7.07Q3091.086,2918.33,3092.423,2917Zm-1.839,10.249c.624-.5,1.229-1.03,1.839-1.551v6.8q-1.332.993-2.722,1.952v-6.519C3089.992,2927.7,3090.3,2927.482,3090.584,2927.251Zm1.839,6.488v6.255q-1.337.858-2.722,1.685v-6C3090.628,2935.042,3091.531,2934.393,3092.423,2933.739Zm0,7.449v78.51H3089.7v-76.852C3090.622,2942.3,3091.533,2941.752,3092.423,2941.188Zm0,79.51v1.831H3089.7V3020.7Zm0,2.831v1.832H3089.7v-1.832Zm0,2.832v1.831H3089.7v-1.831Zm0,2.831v1.831H3089.7v-1.831Zm0,2.831v1.832H3089.7v-1.832Zm0,2.832v1.832H3089.7v-1.832Zm0,2.832v1.831H3089.7v-1.831Zm137.433-14.158h3.333v1.832h-3.333Zm4.333,2.832h3.333v1.831h-3.333Zm4.333,2.831h3.333v1.831h-3.333Zm4.333,2.831h3.333v1.832h-3.333Zm8.666,5.664h3.334v1.831h-3.334Zm0-1v-1.832h3.334v1.832Zm-1,0h-3.333v-1.832h3.333Zm9.667,6.663h3.333v1.831h-3.333Zm0-1v-1.832h3.333v1.832Zm-1,0h-3.333v-1.832h3.333Zm5.333,3.831h3.333v1.831h-3.333Zm4.333,2.831h3.334v1.831h-3.334Zm4.334,2.831h1.3v1.832h-1.3Zm8.666,4.663v-1.831h1.268v1.831Zm-1,0h-3.333v-1.831h3.333Zm-3.333-2.831v-1.832h3.333v1.832Zm-1,0h-1.032v-1.832h1.032Zm-1.032-2.832v-1.831h1.032v1.831Zm-1,0h-1.3v-1.831h1.3Zm-1.3-2.831v-1.831h1.3v1.831Zm-1,0h-3.334v-1.831h3.334Zm-3.334-2.831v-1.831h3.334v1.831Zm-1,0h-3.333v-1.831h3.333Zm-3.333-2.831v-1.832h3.333v1.832Zm0-2.832v-1.831h3.333v1.831Zm-1,0h-3.333v-1.831h3.333Zm-4.333,0h-3.333v-1.831h3.333Zm-3.333-2.831v-1.832h3.333v1.832Zm0-2.832v-1.832h3.333v1.832Zm-1,0h-3.334v-1.832h3.334Zm-4.334,0h-3.333v-1.832h3.333Zm-3.333-2.832v-1.831h3.333v1.831Zm-1,0h-3.333v-1.831h3.333Zm-3.333-2.831v-1.831h3.333v1.831Zm-1,0h-3.333v-1.831h3.333Zm-3.333-2.831v-1.832h3.333v1.832Zm-1,0h-3.333v-1.832h3.333Zm-3.333-2.832V3020.7h3.333v1.831Zm-1,0h-3.333V3020.7h3.333Zm-192.536-173.994q-6.312,2.225-12.973,4.094l-.521.145,2.742,7.5q-1.86,1.844-3.768,3.626l-7.108-19.427a202.973,202.973,0,0,0,34.068-12.863A175.44,175.44,0,0,1,3040.653,2848.535Zm-12.183,4.911q5.581-1.574,10.919-3.4-4.191,4.917-8.709,9.446Zm12.775-4.059q5-1.771,9.778-3.766a163.74,163.74,0,0,1-13.277,15.807c-.208.059-.413.121-.621.179l-.521.146.231.631q-1.839,1.894-3.735,3.718l-2.041-5.578Q3036.371,2855.22,3041.245,2849.387Zm-4.027,14.043,2.05,5.6q-1.86,1.839-3.776,3.608l-2.017-5.516C3034.739,2865.915,3035.991,2864.688,3037.218,2863.43Zm.77-.807.292-.306q5.2-1.477,10.176-3.2-4.04,4.762-8.408,9.132Zm1.667-1.747a165.811,165.811,0,0,0,13.145-16q3.115-1.341,6.127-2.782v3.225q-4.363,6.429-9.227,12.307Q3044.793,2859.367,3039.655,2860.876Zm19.272-13.789v6.958q-3.613,1.523-7.372,2.906Q3055.4,2852.2,3058.927,2847.087Zm1-1.458q1.386-2.049,2.721-4.15v9.466q-.735,1.077-1.483,2.139c-.413.181-.823.364-1.238.542Zm.1,9.036-.1.145v-.1Zm1.789-.776c.277-.122.553-.246.828-.369v8.223q-1.34,1.782-2.721,3.515V2856.5Q3060.885,2855.209,3061.82,2853.889Zm-2.893,12.6-.179.216q-4.891,1.76-10.039,3.26a153,153,0,0,0,10.218-12.14Zm3.721-3.088v1.845c-.681.265-1.369.523-2.058.78Q3061.631,2864.73,3062.648,2863.4Zm1-1.325c.922-1.231,1.833-2.474,2.722-3.74v5.407q-1.35.564-2.722,1.108Zm2.722,2.745v2.5q-1.34,1.761-2.722,3.474v-4.89C3064.559,2865.548,3065.474,2865.2,3066.37,2864.824Zm1-.433c.57-.241,1.133-.489,1.7-.735q-.838,1.177-1.7,2.337Zm2.722-.444v8.953c-.89,1.157-1.8,2.289-2.722,3.41v-8.654Q3068.754,2865.828,3070.092,2863.947Zm1-1.169c.922-.419,1.817-.862,2.722-1.3v6.347c-.887,1.269-1.8,2.513-2.722,3.743Zm2.722,6.771v8.9q-1.336,1.715-2.722,3.374v-8.592Q3072.48,2871.419,3073.814,2869.549Zm0,10.483v8.421c-.9,1.031-1.794,2.064-2.722,3.059v-8.127C3072.021,2882.292,3072.917,2881.161,3073.814,2880.032Zm1-1.232c.931-1.2,1.827-2.438,2.722-3.678v8.846c-.895,1.133-1.793,2.264-2.722,3.358Zm2.722,6.762v8.348c-.893,1.007-1.8,2-2.722,2.971v-8.042C3075.741,2887.768,3076.642,2886.669,3077.536,2885.562Zm1-1.231c.929-1.182,1.83-2.394,2.722-3.617v8.787c-.892,1.112-1.8,2.211-2.722,3.283Zm2.722,6.759v8.278c-.891.982-1.8,1.94-2.722,2.884v-7.959Q3079.922,2892.721,3081.258,2891.09Zm0,9.776v7.753q-1.338,1.3-2.722,2.534v-7.471C3079.456,2902.758,3080.369,2901.827,3081.258,2900.866Zm1,8.181c.924-.9,1.828-1.833,2.721-2.776v7.62c-.894.84-1.8,1.666-2.721,2.468Zm2.721,6.211v7.11c-.067.054-.13.113-.2.167-.822.66-1.672,1.3-2.523,1.948v-6.814Q3083.641,2916.492,3084.979,2915.258Zm1-.928q1.388-1.314,2.722-2.693v7.526q-1.336,1.212-2.722,2.36Zm0,8.5c.92-.753,1.832-1.516,2.722-2.307v6.915q-1.335,1.04-2.722,2.049Zm2.722,5.87v6.432c-.894.6-1.8,1.205-2.722,1.79v-6.207Q3087.367,2929.725,3088.7,2928.7Zm0,7.63v5.946q-1.339.781-2.722,1.535V2938.1C3086.9,2937.521,3087.807,2936.93,3088.7,2936.333Zm0,7.1V3019.7h-2.722v-74.742C3086.9,2944.458,3087.8,2943.946,3088.7,2943.43Zm0,77.268v1.831h-2.722V3020.7Zm0,2.831v1.832h-2.722v-1.832Zm0,2.832v1.831h-2.722v-1.831Zm0,2.831v1.831h-2.722v-1.831Zm0,2.831v1.832h-2.722v-1.832Zm0,2.832v1.832h-2.722v-1.832Zm0,2.832v1.831h-2.722v-1.831Zm-3.722,1.831h-2.721v-1.831h2.721Zm0,1v1.832h-2.721v-1.832Zm-3.721,1.832h-2.722v-1.832h2.722Zm0,1v1.831h-2.722v-1.831Zm-3.722,1.831h-2.722v-1.831h2.722Zm0,1v1.831h-2.722v-1.831Zm-3.722,1.831h-2.722v-1.831h2.722Zm0,1v1.831h-2.722v-1.831Zm-3.722,1.831h-2.722v-1.831h2.722Zm0,1v1.832h-2.722v-1.832Zm-3.722,1.832h-2.722v-1.832h2.722Zm0,1v1.831h-2.722v-1.831Zm-3.722,1.831h-2.721v-1.831h2.721Zm0,1v1.831h-2.721v-1.831Zm-3.721,1.831h-10.193v-1.831h10.193Zm0,1v1.832h-10.193v-1.832Zm-11.193,1.832h-8.324v-1.832h8.324Zm0,1V3065h-8.324v-1.831ZM3038.41,3065h-8.323v-1.831h8.323Zm0,1v35.937h245.712v-41.6h1.065v2.832h4.333V3066h2.235v43.521H3030.087V3066Zm247.777-5.663h3.333v1.832h-3.333Zm4.333,2.832h1.235V3065h-1.235Zm2.235-1v-1.832h7.634v1.832Zm-1,0h-1.235v-1.832h1.235Zm-1.235-2.832v-1.831h1.235v1.831Zm-1,0h-3.333v-1.831h3.333Zm-3.333-2.831v-1.831h3.333v1.831Zm-1,0h-1.065v-1.831h1.065Zm-1.065-2.831v-1.832h1.065v1.832Zm-1,0h-1.268v-1.832h1.268Zm-1.268-2.832v-1.831h1.268v1.831Zm-1,0h-3.333v-1.831h3.333Zm-3.333-2.831v-1.831h3.333v1.831Zm-1,0h-1.032v-1.831h1.032Zm-1.032-2.831v-1.831h1.032v1.831Zm-1,0h-1.3v-1.831h1.3Zm-1.3-2.831v-1.832h1.3v1.832Zm-1,0h-3.334v-1.832h3.334Zm-3.334-2.832v-1.831h3.334v1.831Zm0-2.831v-1.832h3.334v1.832Zm-1,0h-3.333v-1.832h3.333Zm-4.333,0h-3.333v-1.832h3.333Zm-3.333-2.832v-1.832h3.333v1.832Zm0-2.832v-1.831h3.333v1.831Zm-1,0h-3.333v-1.831h3.333Zm-4.333,0h-3.334v-1.831h3.334Zm-3.334-2.831v-1.831h3.334v1.831Zm-1,0h-3.333v-1.831h3.333Zm-3.333-2.831v-1.832h3.333v1.832Zm-1,0h-3.333v-1.832h3.333Zm-3.333-2.832V3020.7h3.333v1.831Zm-1,0h-3.333V3020.7h3.333ZM3009.58,2835.49c22.556-6.352,42.5-15.473,59.3-27.114a162,162,0,0,0,42.529-43.214h126.117V3019.7h-3.333V2777.38H3114.168l-.148.223a151.276,151.276,0,0,1-39.858,40.564,159.74,159.74,0,0,1-14.235,8.771v-3.8h-1.656l-.145.25q-1.929,3.35-3.977,6.578a201.139,201.139,0,0,1-35.914,13.684l-.52.146,7.618,20.825q-1.9,1.74-3.847,3.414Zm16.125,30.145,1.989,5.438q-1.919,1.683-3.89,3.3l-1.95-5.33Q3023.806,2867.371,3025.705,2865.635Zm.8-.726q1.914-1.77,3.776-3.6l2.03,5.55c-1.253,1.192-2.519,2.369-3.809,3.515Zm6.181,2.97,2.008,5.489q-1.9,1.73-3.853,3.394l-1.969-5.384Q3030.806,2869.665,3032.685,2867.879Zm2.379,6.5,1.983,5.419c-1.283,1.112-2.579,2.207-3.9,3.27l-1.941-5.306C3032.513,2876.663,3033.794,2875.53,3035.064,2874.382Zm.8-.726q1.919-1.76,3.783-3.587l2.028,5.544q-1.883,1.781-3.819,3.488Zm4.563-4.367q5.156-5.141,9.869-10.818,4.412-1.577,8.631-3.341v1.035a151.48,151.48,0,0,1-12.126,14.354l-.231.067-.52.145.152.417q-1.837,1.894-3.737,3.712Zm6.158,2.905,2.05,5.6q-1.859,1.833-3.782,3.589l-2.013-5.5C3044.106,2874.677,3045.358,2873.451,3046.585,2872.194Zm.775-.792c3.484-.983,6.863-2.076,10.179-3.232q-3.9,4.622-8.124,8.849Zm11.567-3.341v8.252q-3.426,3.8-7.1,7.306l-2.036-5.565Q3054.564,2873.3,3058.927,2868.061Zm1-.716c.921-.337,1.813-.7,2.721-1.052V2872q-1.341,1.619-2.721,3.191Zm2.721,6.227v8.176c-.9.977-1.8,1.943-2.721,2.888V2876.7Q3061.307,2875.162,3062.648,2873.572Zm1-1.205c.921-1.116,1.831-2.243,2.722-3.392v8.544q-1.338,1.59-2.722,3.129Zm2.722,6.7v8.11q-1.34,1.431-2.722,2.812v-7.849Q3065.03,2880.621,3066.37,2879.062Zm1-1.185q1.383-1.653,2.722-3.357v8.488q-1.338,1.564-2.722,3.075Zm2.722,6.63v8.03c-.9.94-1.8,1.882-2.722,2.789v-7.764C3068.3,2886.565,3069.2,2885.537,3070.092,2884.507Zm0,9.463v7.571c-.9.836-1.8,1.665-2.722,2.469v-7.3C3068.294,2895.816,3069.194,2894.894,3070.092,2893.97Zm1-1.022c.925-.975,1.826-1.978,2.722-2.988v7.946c-.9.916-1.8,1.822-2.722,2.7Zm2.722,6.388v7.476c-.892.807-1.8,1.589-2.722,2.363v-7.2Q3072.472,2900.682,3073.814,2899.336Zm1-1.021q1.383-1.423,2.722-2.9v7.862c-.891.889-1.8,1.752-2.722,2.605Zm2.722,6.388v7.336q-1.342,1.174-2.722,2.3v-7.091C3075.731,2906.411,3076.646,2905.573,3077.536,2904.7Zm-2.478,10.738c.841-.676,1.658-1.386,2.478-2.091v6.846q-1.338,1.028-2.722,2.027v-6.594C3074.894,2915.565,3074.979,2915.5,3075.058,2915.441Zm3.478-2.935c.925-.817,1.825-1.665,2.722-2.517v7.215c-.551.464-1.091.944-1.652,1.4-.348.28-.716.548-1.07.826Zm1.7,6.872c.348-.28.681-.58,1.025-.865v6.73c-.89.656-1.8,1.3-2.722,1.94v-6.5C3079.1,2920.25,3079.681,2919.822,3080.233,2919.378Zm1.025,7.093v6.259q-1.34.869-2.722,1.71v-6.032C3079.462,2927.774,3080.362,2927.124,3081.258,2926.471Zm1-.726q1.388-1.035,2.721-2.1v6.558q-1.337.948-2.721,1.868Zm2.721,5.685v6.1c-.9.552-1.8,1.1-2.721,1.634v-5.9Q3083.639,2932.362,3084.979,2931.43Zm0,7.275v5.64c-.9.477-1.8.949-2.721,1.408v-5.435C3083.18,2939.79,3084.084,2939.251,3084.979,2938.705Zm0,6.769V3019.7h-2.721v-72.83C3083.18,2946.414,3084.083,2945.946,3084.979,2945.474Zm0,75.224v1.831h-2.721V3020.7Zm0,2.831v1.832h-2.721v-1.832Zm0,2.832v1.831h-2.721v-1.831Zm0,2.831v1.831h-2.721v-1.831Zm0,2.831v1.832h-2.721v-1.832Zm0,2.832v1.832h-2.721v-1.832Zm-3.721,1.832h-2.722v-1.832h2.722Zm0,1v1.831h-2.722v-1.831Zm-3.722,1.831h-2.722v-1.831h2.722Zm0,1v1.832h-2.722v-1.832Zm-3.722,1.832h-2.722v-1.832h2.722Zm0,1v1.831h-2.722v-1.831Zm-3.722,1.831h-2.722v-1.831h2.722Zm0,1v1.831h-2.722v-1.831Zm-3.722,1.831h-2.722v-1.831h2.722Zm0,1v1.831h-2.722v-1.831Zm-3.722,1.831h-2.721v-1.831h2.721Zm0,1v1.832h-2.721v-1.832Zm-3.721,1.832h-10.193v-1.832h10.193Zm0,1v1.831h-10.193v-1.831Zm-11.193,1.831h-8.324v-1.831h8.324Zm0,1v1.831h-8.324v-1.831Zm-9.324,1.831h-8.323v-1.831h8.323Zm0,1v1.832h-8.323v-1.832Zm-9.323,1.832h-8.324v-1.832h8.324Zm0,1V3065h-8.324v-1.831Zm-9.324,1.831h-8.325v-1.831h8.325Zm0,1v53.106h281.626V3066h7.632v60.691H3011.438V3066Zm290.258-3.831v-1.832h7.633v1.832Zm-1,0h-7.632v-1.832h7.632Zm-7.632-2.832v-1.831h7.632v1.831Zm-1,0h-7.634v-1.831h7.634Zm-7.634-2.831v-1.831h7.634v1.831Zm-1,0h-1.235v-1.831h1.235Zm-1.235-2.831v-1.832h1.235v1.832Zm-1,0h-3.333v-1.832h3.333Zm-3.333-2.832v-1.831h3.333v1.831Zm-1,0h-1.065v-1.831h1.065Zm-1.065-2.831v-1.831h1.065v1.831Zm-1,0h-1.268v-1.831h1.268Zm-1.268-2.831v-1.831h1.268v1.831Zm-1,0h-3.333v-1.831h3.333Zm-3.333-2.831v-1.832h3.333v1.832Zm-1,0h-1.032v-1.832h1.032Zm-1.032-2.832v-1.831h1.032v1.831Zm-1,0h-1.3v-1.831h1.3Zm-1.3-2.831v-1.832h1.3v1.832Zm0-2.832v-1.832h1.3v1.832Zm-1,0h-3.334v-1.832h3.334Zm-4.334,0h-3.333v-1.832h3.333Zm-3.333-2.832v-1.831h3.333v1.831Zm0-2.831v-1.831h3.333v1.831Zm-1,0h-3.333v-1.831h3.333Zm-4.333,0h-3.333v-1.831h3.333Zm-3.333-2.831v-1.832h3.333v1.832Zm-1,0h-3.334v-1.832h3.334Zm-3.334-2.832V3020.7h3.334v1.831Zm-1,0h-3.333V3020.7h3.333Zm-259.831-205c25.288-7.115,47.651-17.337,66.472-30.385a181.442,181.442,0,0,0,47.648-48.421h141.378V3019.7h-3.333V2750.944H3107.572l-.148.223a170.67,170.67,0,0,1-44.975,45.772c-17.843,12.371-39.074,22.044-63.1,28.755l-.521.146,17.106,46.757q-1.96,1.544-3.977,3.054Zm25.6,56.053,1.9,5.194q-1.978,1.494-4.012,2.958l-1.868-5.1Q3014.334,2875.127,3016.292,2873.586Zm.827-.651c.335-.266.677-.528,1.01-.8q1.472-1.183,2.915-2.4l1.942,5.306c-.1.084-.205.171-.308.254q-1.8,1.443-3.652,2.852Zm6.186,3.141.045-.037,1.914,5.232q-1.965,1.521-4,3l-1.882-5.144C3020.709,2878.123,3022.021,2877.107,3023.3,2876.076Zm.863-.711q1.972-1.609,3.894-3.287l1.963,5.365c-.721.6-1.442,1.2-2.172,1.79-.581.467-1.173.926-1.762,1.387Zm4.311,4.648c.643-.517,1.276-1.046,1.91-1.574l1.934,5.286q-1.953,1.552-3.974,3.068l-1.9-5.185C3027.131,2881.078,3027.812,2880.549,3028.479,2880.013Zm5.176,3.936c1.272-1.022,2.521-2.076,3.76-3.143l1.953,5.34c-.389.32-.773.645-1.165.96q-1.371,1.1-2.78,2.184l-1.912-5.227Zm4.568-3.843q1.941-1.7,3.827-3.469l2,5.478q-1.905,1.716-3.867,3.357Zm6.2,3.022,1.975,5.4c-1,.852-2,1.694-3.021,2.514-.295.237-.6.47-.9.706l-1.932-5.281Q3042.516,2884.834,3044.425,2883.128Zm.8-.726q1.923-1.749,3.79-3.569l2.026,5.54q-1.883,1.768-3.831,3.456Zm6.191,2.994,2,5.465q-1.908,1.7-3.883,3.313l-1.954-5.341Q3049.524,2887.151,3051.415,2885.4Zm.79-.752q3.468-3.29,6.722-6.844v7.839q-2.306,2.313-4.714,4.5Zm6.722,2.409v7.425q-1.17,1.056-2.364,2.079l-1.979-5.408Q3056.8,2889.156,3058.927,2887.053Zm1-1q1.377-1.392,2.721-2.823v7.752q-1.341,1.317-2.721,2.585Zm2.721,6.311v7.324c-.894.784-1.8,1.545-2.721,2.3V2894.9C3060.843,2894.063,3061.756,2893.228,3062.648,2892.366Zm1-.982q1.383-1.365,2.722-2.782v7.667c-.9.858-1.8,1.707-2.722,2.534Zm2.722,6.252v7.218c-.761.648-1.512,1.31-2.29,1.935-.141.113-.29.221-.432.333v-6.966C3064.573,2899.339,3065.469,2898.485,3066.37,2897.636Zm1,7.684q1.38-1.182,2.722-2.413v7.113c-.282.231-.552.477-.836.706-.614.493-1.258.969-1.886,1.455Zm2.513,6.185c.071-.057.138-.119.209-.176v6.647q-1.341.983-2.722,1.94v-6.473C3068.212,2912.8,3069.065,2912.162,3069.883,2911.5Zm1.209-1.021c.915-.759,1.832-1.516,2.722-2.308v6.962q-1.34,1.062-2.722,2.1Zm2.722,5.916v6.536q-1.341.948-2.722,1.872v-6.316C3072.02,2917.807,3072.916,2917.1,3073.814,2916.4Zm0,7.762v6.134q-1.343.842-2.722,1.659V2926C3072.011,2925.4,3072.922,2924.785,3073.814,2924.162Zm1-.712q1.382-.984,2.722-1.992v6.413q-1.339.91-2.722,1.794Zm2.722,5.62v5.98c-.893.533-1.8,1.055-2.722,1.572v-5.764C3075.74,2930.273,3076.638,2929.672,3077.536,2929.07Zm0,7.147v5.533q-1.344.7-2.722,1.375v-5.357C3075.731,2937.257,3076.644,2936.744,3077.536,2936.217Zm1-.607c.919-.554,1.83-1.113,2.722-1.685v5.807c-.9.507-1.8,1.008-2.722,1.5Zm2.722,5.269v5.356c-.9.436-1.8.867-2.722,1.287v-5.164C3079.457,2941.874,3080.362,2941.38,3081.258,2940.879Zm0,6.466V3019.7h-2.722V2948.62C3079.456,2948.2,3080.36,2947.777,3081.258,2947.345Zm0,73.353v1.831h-2.722V3020.7Zm0,2.831v1.832h-2.722v-1.832Zm0,2.832v1.831h-2.722v-1.831Zm0,2.831v1.831h-2.722v-1.831Zm0,2.831v1.832h-2.722v-1.832Zm-3.722,1.832h-2.722v-1.832h2.722Zm0,1v1.832h-2.722v-1.832Zm-3.722,1.832h-2.722v-1.832h2.722Zm0,1v1.831h-2.722v-1.831Zm-3.722,1.831h-2.722v-1.831h2.722Zm0,1v1.832h-2.722v-1.832Zm-3.722,1.832h-2.722v-1.832h2.722Zm0,1v1.831h-2.722v-1.831Zm-3.722,1.831h-2.721v-1.831h2.721Zm0,1v1.831h-2.721v-1.831Zm-3.721,1.831h-10.193v-1.831h10.193Zm0,1v1.831h-10.193v-1.831Zm-11.193,1.831h-8.324v-1.831h8.324Zm0,1v1.832h-8.324v-1.832Zm-9.324,1.832h-8.323v-1.832h8.323Zm0,1v1.831h-8.323v-1.831Zm-9.323,1.831h-8.324v-1.831h8.324Zm0,1v1.831h-8.324v-1.831Zm-9.324,1.831h-8.325v-1.831h8.325Zm0,1v1.832h-8.325v-1.832Zm-9.325,1.832h-8.323v-1.832h8.323Zm0,1V3065h-8.323v-1.831Zm-9.323,1.831h-8.324v-1.831h8.324Zm0,1v70.275h317.539V3066h7.633v77.86h-333.5V3066Zm326.172-3.831v-1.832h7.633v1.832Zm-1,0h-7.633v-1.832h7.633Zm-7.633-2.832v-1.831h7.633v1.831Zm-1,0h-7.633v-1.831h7.633Zm-7.633-2.831v-1.831h7.633v1.831Zm-1,0h-7.632v-1.831h7.632Zm-7.632-2.831v-1.832h7.632v1.832Zm-1,0h-7.634v-1.832h7.634Zm-7.634-2.832v-1.831h7.634v1.831Zm-1,0h-1.235v-1.831h1.235Zm-1.235-2.831v-1.831h1.235v1.831Zm-1,0h-3.333v-1.831h3.333Zm-3.333-2.831v-1.831h3.333v1.831Zm-1,0h-1.065v-1.831h1.065Zm-1.065-2.831v-1.832h1.065v1.832Zm-1,0h-1.268v-1.832h1.268Zm-1.268-2.832v-1.831h1.268v1.831Zm-1,0h-3.333v-1.831h3.333Zm-3.333-2.831v-1.832h3.333v1.832Zm-1,0h-1.032v-1.832h1.032Zm-1.032-2.832v-1.832h1.032v1.832Zm0-2.832v-1.831h1.032v1.831Zm-1,0h-1.3v-1.831h1.3Zm-2.3,0h-3.334v-1.831h3.334Zm-3.334-2.831v-1.831h3.334v1.831Zm0-2.831v-1.832h3.334v1.832Zm-1,0h-3.333v-1.832h3.333Zm-4.333,0h-3.333v-1.832h3.333Zm-3.333-2.832V3020.7h3.333v1.831Zm-1,0h-3.333V3020.7h3.333ZM2971.8,2799.576c28.022-7.879,52.8-19.2,73.649-33.655a200.808,200.808,0,0,0,52.764-53.63h156.642V3019.7h-3.334V2724.509H3100.977l-.149.222a190.09,190.09,0,0,1-50.093,50.981c-19.872,13.778-43.518,24.553-70.28,32.025l-.52.146,26.3,71.885q-2.016,1.4-4.081,2.774Zm34.789,81.164,1.823,4.981q-2.034,1.356-4.115,2.682l-1.791-4.9Q3004.576,2882.141,3006.589,2880.74Zm.849-.593q2.043-1.431,4.036-2.894l1.861,5.088q-2,1.422-4.068,2.806Zm6.253,3.166,1.834,5.013q-2.023,1.373-4.1,2.711l-1.8-4.923Q3011.681,2884.729,3013.691,2883.313Zm.846-.6q2.038-1.458,4.014-2.952l1.875,5.124c-1.332.964-2.677,1.921-4.048,2.862Zm6.246,3.148,1.848,5.051q-2.015,1.4-4.086,2.758l-1.812-4.953C3018.1,2887.779,3019.45,2886.824,3020.783,2885.862Zm.842-.611c1.351-.987,2.69-1.981,4-2.992l1.89,5.164c-1.322.98-2.672,1.943-4.036,2.9Zm6.247,3.149,1.86,5.085q-2,1.419-4.072,2.8l-1.825-4.99C3025.2,2890.339,3026.549,2889.377,3027.872,2888.4Zm.836-.626q2.022-1.51,3.977-3.061l1.9,5.207q-1.974,1.5-4.011,2.965Zm6.241,3.128,1.876,5.13q-1.993,1.446-4.052,2.855l-1.838-5.027Q3032.976,2892.4,3034.949,2890.9Zm.834-.63q1.542-1.184,3.047-2.386c.3-.244.6-.5.9-.744l1.923,5.257q-1.959,1.531-3.989,3.022Zm6.235,3.115,1.893,5.175c-1.318.98-2.674,1.937-4.038,2.889l-1.849-5.053Q3040.055,2894.911,3042.018,2893.387Zm.826-.65c.387-.305.779-.607,1.162-.915q1.4-1.124,2.762-2.288l1.944,5.315c-.053.043-.1.088-.158.13-1.242,1-2.525,1.971-3.813,2.942Zm6.232,3.1,1.9,5.2q-1.968,1.506-4.01,2.967l-1.863-5.091Q3047.125,2897.4,3049.076,2895.841Zm.819-.671q1.974-1.611,3.889-3.3l1.967,5.377q-1,.843-2.022,1.666c-.625.5-1.283.987-1.921,1.483Zm4.461,4.525c.595-.477,1.164-.987,1.75-1.477l1.938,5.3c-1.3,1.03-2.624,2.048-3.981,3.046l-1.9-5.18C3052.9,2900.82,3053.644,2900.268,3054.356,2899.7Zm2.563-2.164c.669-.569,1.351-1.121,2.008-1.705v7.008l-.022.019-.03.023Zm3.008,5.768c.921-.748,1.822-1.522,2.721-2.3v6.894c-.5.391-1,.78-1.511,1.166l-1.21-3.309Zm.38,6.4c-.129.1-.251.2-.38.293v-1.331Zm.36.984,1.856,5.073q-1.282.9-2.6,1.785v-6.318C3060.173,2911.044,3060.423,2910.866,3060.667,2910.685Zm3.057,5.445c.89-.634,1.78-1.268,2.646-1.916v6.394c-.266.182-.544.356-.812.536Zm.976,5.579c-.351.23-.7.464-1.052.692v-3.566Zm1.67.1v1.558l-.459-1.256C3066.063,2922.007,3066.219,2921.908,3066.37,2921.806Zm1-.665c.926-.635,1.823-1.287,2.722-1.937v6.262c-.79.517-1.582,1.031-2.391,1.535l-.331-.9Zm2.722,5.521v5.879c-.1.058-.2.113-.3.17l-1.738-4.751C3068.74,2927.532,3069.417,2927.1,3070.092,2926.662Zm3.722,11.667v5.277l-.033.016-1.615-4.416C3072.718,2938.915,3073.271,2938.625,3073.814,2938.329Zm1,5.907q1.378-.668,2.722-1.36v5.089c-.62.276-1.233.559-1.863.827l-.859-2.346Zm.1,5.393.181.492.483-.2c.663-.279,1.306-.572,1.958-.859V3019.7h-2.722v-70.341Zm2.622,71.069v1.831h-2.722V3020.7Zm0,2.831v1.832h-2.722v-1.832Zm0,2.832v1.831h-2.722v-1.831Zm0,2.831v1.831h-2.722v-1.831Zm-3.722,1.831h-2.722v-1.831h2.722Zm0,1v1.832h-2.722v-1.832Zm-3.722,1.832h-2.722v-1.832h2.722Zm0,1v1.832h-2.722v-1.832Zm-3.722,1.832h-2.722v-1.832h2.722Zm0,1v1.831h-2.722v-1.831Zm-3.722,1.831h-2.721v-1.831h2.721Zm0,1v1.832h-2.721v-1.832Zm-3.721,1.832h-10.193v-1.832h10.193Zm0,1v1.831h-10.193v-1.831Zm-11.193,1.831h-8.324v-1.831h8.324Zm0,1v1.831h-8.324v-1.831Zm-9.324,1.831h-8.323v-1.831h8.323Zm0,1v1.831h-8.323v-1.831Zm-9.323,1.831h-8.324v-1.831h8.324Zm0,1v1.832h-8.324v-1.832Zm-9.324,1.832h-8.325v-1.832h8.325Zm0,1v1.831h-8.325v-1.831Zm-9.325,1.831h-8.323v-1.831h8.323Zm0,1v1.831h-8.323v-1.831Zm-9.323,1.831h-8.324v-1.831h8.324Zm0,1v1.832h-8.324v-1.832Zm-9.324,1.832h-8.324v-1.832h8.324Zm0,1V3065h-8.324v-1.831Zm-9.324,1.831h-8.324v-1.831h8.324Zm0,1v87.445H3335.92V3066h7.633v95.03h-369.41V3066Zm362.086-3.831v-1.832h7.634v1.832Zm-1,0h-7.633v-1.832h7.633Zm-7.633-2.832v-1.831h7.633v1.831Zm-1,0h-7.633v-1.831h7.633Zm-7.633-2.831v-1.831h7.633v1.831Zm-1,0h-7.633v-1.831h7.633Zm-7.633-2.831v-1.832h7.633v1.832Zm-1,0h-7.633v-1.832h7.633Zm-7.633-2.832v-1.831h7.633v1.831Zm-1,0h-7.632v-1.831h7.632Zm-7.632-2.831v-1.831h7.632v1.831Zm-1,0h-7.634v-1.831h7.634Zm-7.634-2.831v-1.831h7.634v1.831Zm-1,0h-1.235v-1.831h1.235Zm-1.235-2.831v-1.832h1.235v1.832Zm-1,0h-3.333v-1.832h3.333Zm-3.333-2.832v-1.831h3.333v1.831Zm-1,0h-1.065v-1.831h1.065Zm-1.065-2.831v-1.832h1.065v1.832Zm-1,0h-1.268v-1.832h1.268Zm-1.268-2.832v-1.832h1.268v1.832Zm-1,0h-3.333v-1.832h3.333Zm-3.333-2.832v-1.831h3.333v1.831Zm0-2.831v-1.831h3.333v1.831Zm-1,0h-1.032v-1.831h1.032Zm-2.032,0h-1.3v-1.831h1.3Zm-1.3-2.831v-1.832h1.3v1.832Zm-1-2.832h-3.334V3020.7h3.334Zm-4.334,0h-3.333V3020.7h3.333Zm-314.945-240.91c30.755-8.64,57.947-21.063,80.827-36.926a220.2,220.2,0,0,0,57.881-58.838h171.9V3019.7h-3.333V2698.073H3094.38l-.149.223a209.545,209.545,0,0,1-55.209,56.189c-21.9,15.185-47.963,27.06-77.458,35.295l-.52.146,35.253,96.359q-2.062,1.277-4.172,2.524Zm43.739,105.625,1.745,4.769c-1.388.821-2.786,1.634-4.205,2.434l-1.714-4.684Q2994.586,2888.52,2996.648,2887.244Zm.868-.538q2.089-1.3,4.132-2.633l1.783,4.872q-2.056,1.29-4.164,2.547Zm6.266,3.2,1.752,4.791q-2.073,1.242-4.2,2.453l-1.72-4.7Q3001.723,2891.192,3003.782,2889.905Zm.867-.541q2.087-1.32,4.116-2.677l1.8,4.906q-2.05,1.307-4.151,2.581Zm6.262,3.19,1.766,4.825c-1.378.837-2.779,1.659-4.191,2.474l-1.727-4.722Q3008.862,2893.859,3010.911,2892.554Zm.862-.555q2.079-1.337,4.106-2.706l1.805,4.934q-2.043,1.325-4.139,2.615Zm6.263,3.19,1.774,4.85c-1.375.849-2.763,1.69-4.175,2.516l-1.74-4.756Q3015.993,2896.512,3018.036,2895.189Zm.862-.555q2.075-1.356,4.088-2.75l1.819,4.972q-2.032,1.341-4.127,2.645Zm6.261,3.188,1.784,4.877q-2.054,1.29-4.166,2.54l-1.748-4.779Q3023.12,2899.158,3025.159,2897.822Zm.855-.574q2.067-1.377,4.074-2.791l1.831,5q-2.026,1.365-4.11,2.694Zm6.258,3.18,1.8,4.91c-1.361.87-2.756,1.719-4.158,2.564l-1.75-4.785Q3030.249,2901.792,3032.272,2900.428Zm.855-.574q2.063-1.4,4.056-2.845l1.845,5.044c-1.34.923-2.717,1.823-4.1,2.72Zm6.258,3.174,1.8,4.93q-2.035,1.329-4.139,2.616l-1.764-4.822Q3037.366,2904.408,3039.385,2903.028Zm.848-.592q2.051-1.426,4.038-2.89l1.852,5.063q-2,1.415-4.076,2.784Zm6.246,3.146,1.828,5c-1.352.9-2.72,1.794-4.119,2.667l-1.789-4.889Q3044.474,2906.991,3046.479,2905.582Zm.845-.6q2.043-1.458,4.014-2.957l1.88,5.141c-1.328.963-2.674,1.916-4.053,2.848Zm6.251,3.158,1.851,5.06c-1.342.917-2.715,1.817-4.106,2.7l-1.8-4.924C3050.9,2910.049,3052.245,2909.1,3053.575,2908.139Zm.845-.6c1.357-1,2.681-2.009,3.985-3.036l.522,1.428v4.779q-1.312.955-2.655,1.892Zm4.507,4.4v6.266c-.163.107-.325.215-.488.321l-1.811-4.95C3057.406,2913.034,3058.166,2912.485,3058.927,2911.936Zm0,7.461v.46l-.136-.37Zm4.721,4.2c.475-.3.936-.615,1.4-.923l1.318,3.6v1.537c-.9.545-1.8,1.087-2.722,1.618Zm5.259,9.613c-.511.29-1.019.582-1.537.866v-5.066Zm.348.952.837,2.288v2.708c-.9.456-1.806.9-2.722,1.342v-5.281C3068.007,2934.871,3068.629,2934.514,3069.255,2934.16Zm2.015,5.509,1.606,4.389c-.589.275-1.186.545-1.784.814v-5.111Zm1.949,5.328.595,1.626V3019.7h-2.722v-73.73Q3072.164,2945.488,3073.219,2945Zm.595,75.7v1.831h-2.722V3020.7Zm0,2.831v1.832h-2.722v-1.832Zm0,2.832v1.831h-2.722v-1.831Zm-3.722,1.831h-2.722v-1.831h2.722Zm0,1v1.831h-2.722v-1.831Zm-3.722,1.831h-2.722v-1.831h2.722Zm0,1v1.832h-2.722v-1.832Zm-3.722,1.832h-2.721v-1.832h2.721Zm0,1v1.832h-2.721v-1.832Zm-3.721,1.832h-10.193v-1.832h10.193Zm0,1v1.831h-10.193v-1.831Zm-11.193,1.831h-8.324v-1.831h8.324Zm0,1v1.832h-8.324v-1.832Zm-9.324,1.832h-8.323v-1.832h8.323Zm0,1v1.831h-8.323v-1.831Zm-9.323,1.831h-8.324v-1.831h8.324Zm0,1v1.831h-8.324v-1.831Zm-9.324,1.831h-8.325v-1.831h8.325Zm0,1v1.831h-8.325v-1.831Zm-9.325,1.831h-8.323v-1.831h8.323Zm0,1v1.832h-8.323v-1.832Zm-9.323,1.832h-8.324v-1.832h8.324Zm0,1v1.831h-8.324v-1.831Zm-9.324,1.831h-8.324v-1.831h8.324Zm0,1v1.831h-8.324v-1.831Zm-9.324,1.831h-8.324v-1.831h8.324Zm0,1v1.832h-8.324v-1.832Zm-9.324,1.832h-8.324v-1.832h8.324Zm0,1V3065h-8.324v-1.831Zm-9.324,1.831H2955.5v-1.831h8.324Zm0,1v104.615h389.368V3066h7.632v112.2H2955.5V3066Zm398-3.831v-1.832h7.633v1.832Zm-1,0h-7.632v-1.832h7.632Zm-7.632-2.832v-1.831h7.632v1.831Zm-1,0h-7.634v-1.831h7.634Zm-7.634-2.831v-1.831h7.634v1.831Zm-1,0h-7.633v-1.831h7.633Zm-7.633-2.831v-1.832h7.633v1.832Zm-1,0h-7.633v-1.832h7.633Zm-7.633-2.832v-1.831h7.633v1.831Zm-1,0h-7.633v-1.831h7.633Zm-7.633-2.831v-1.831h7.633v1.831Zm-1,0h-7.633v-1.831h7.633Zm-7.633-2.831v-1.831h7.633v1.831Zm-1,0h-7.632v-1.831h7.632Zm-7.632-2.831v-1.832h7.632v1.832Zm-1,0h-7.634v-1.832h7.634Zm-7.634-2.832v-1.831h7.634v1.831Zm-1,0h-1.235v-1.831h1.235Zm-1.235-2.831v-1.832h1.235v1.832Zm-1,0h-3.333v-1.832h3.333Zm-3.333-2.832v-1.832h3.333v1.832Zm-1,0h-1.065v-1.832h1.065Zm-1.065-2.832v-1.831h1.065v1.831Zm-1,0h-1.268v-1.831h1.268Zm-1.268-2.831v-1.831h1.268v1.831Zm-1-2.831h-3.333v-1.832h3.333Zm-4.333,0h-1.032v-1.832h1.032Zm-342.5-261.7c33.489-9.4,63.092-22.926,88-40.2a239.642,239.642,0,0,0,63-64.046h187.167V3019.7h-3.334v-348.06h-181.07l-.148.222a228.954,228.954,0,0,1-60.327,61.4c-23.933,16.593-52.408,29.568-84.634,38.565l-.521.146,43.994,120.25q-2.106,1.164-4.255,2.3Zm52.476,129.507,1.666,4.555q-2.124,1.117-4.287,2.208l-1.635-4.468Q2984.39,2894.331,2986.5,2893.169Zm.887-.487q2.128-1.185,4.217-2.4l1.7,4.655q-2.1,1.173-4.249,2.312Zm6.268,3.209,1.671,4.567q-2.12,1.125-4.282,2.22l-1.639-4.479Q2991.548,2897.059,2993.651,2895.891Zm.885-.494q2.129-1.2,4.206-2.429l1.715,4.686q-2.1,1.182-4.243,2.332Zm6.268,3.207,1.679,4.589q-2.115,1.134-4.278,2.233l-1.643-4.491Q2998.705,2899.786,3000.8,2898.6Zm.881-.5q2.124-1.209,4.2-2.45l1.722,4.706q-2.094,1.2-4.232,2.36Zm6.269,3.208,1.689,4.616q-2.11,1.141-4.273,2.247l-1.65-4.507Q3005.863,2902.5,3007.954,2901.309Zm.881-.5q2.118-1.219,4.192-2.469l1.728,4.724q-2.086,1.206-4.226,2.376Zm6.269,3.208,1.694,4.632q-2.108,1.154-4.263,2.273l-1.659-4.532Q3013.015,2905.216,3015.1,2904.013Zm.88-.5c1.413-.824,2.8-1.665,4.177-2.512l1.742,4.762c-1.386.812-2.8,1.609-4.219,2.4Zm6.268,3.2,1.7,4.635q-2.1,1.164-4.259,2.287l-1.657-4.529Q3020.167,2907.927,3022.252,2906.714Zm.875-.52q2.11-1.25,4.167-2.535l1.746,4.773c-1.381.821-2.79,1.624-4.209,2.42Zm6.267,3.2,1.706,4.663q-2.1,1.176-4.248,2.316l-1.664-4.549C3026.611,2911.032,3028.009,2910.22,3029.394,2909.4Zm.875-.52q2.108-1.266,4.154-2.571l1.755,4.8q-2.067,1.251-4.2,2.46Zm6.259,3.183,1.724,4.712c-1.4.794-2.8,1.58-4.237,2.346l-1.684-4.6Q3034.461,2913.308,3036.528,2912.061Zm.872-.53q2.1-1.284,4.141-2.609l1.776,4.854c-1.375.846-2.763,1.683-4.182,2.5Zm6.267,3.2,1.739,4.752c-1.391.8-2.794,1.6-4.228,2.375l-1.694-4.63C3040.9,2916.414,3042.292,2915.578,3043.667,2914.733Zm.872-.529c1.4-.871,2.768-1.761,4.121-2.661l1.794,4.905c-1.368.859-2.752,1.708-4.166,2.537Zm6.266,3.2,1.749,4.78c-1.382.813-2.793,1.606-4.221,2.388l-1.7-4.637Q3048.759,2918.7,3050.8,2917.407Zm.867-.542q2.089-1.328,4.107-2.7l1.8,4.923q-2.04,1.31-4.156,2.569Zm6.261,3.186.994,2.717v2.558c-1.128.667-2.281,1.317-3.442,1.962l-1.711-4.676Q3055.889,2921.353,3057.933,2920.051Zm2.109,5.764,1.712,4.682c-.608.338-1.21.68-1.827,1.011v-5.623Zm2.06,5.631.546,1.495v3.619c-.892.447-1.81.875-2.721,1.308v-5.229C3060.661,2932.248,3061.38,2931.846,3062.1,2931.446Zm1.546,4.228.113.307-.113.059Zm0-2.911v-2.184c.92-.525,1.825-1.059,2.722-1.6v5.643c-.563.3-1.143.594-1.714.892Zm2.722,2.992v4.447l-1.368-3.74C3065.457,2936.226,3065.92,2936,3066.37,2935.755Zm1,5.851c.915-.437,1.827-.876,2.722-1.327v5.036c-.532.235-1.054.477-1.593.706l-1.129-3.085Zm.37,5.252.181.493.483-.2c.571-.24,1.124-.494,1.688-.74V3019.7h-2.722v-73.851Zm2.352,73.84v1.831h-2.722V3020.7Zm0,2.831v1.832h-2.722v-1.832Zm-3.722,1.832h-2.722v-1.832h2.722Zm0,1v1.831h-2.722v-1.831Zm-3.722,1.831h-2.721v-1.831h2.721Zm0,1v1.831h-2.721v-1.831Zm-3.721,1.831h-10.193v-1.831h10.193Zm0,1v1.832h-10.193v-1.832Zm-11.193,1.832h-8.324v-1.832h8.324Zm0,1v1.832h-8.324v-1.832Zm-9.324,1.832h-8.323v-1.832h8.323Zm0,1v1.831h-8.323v-1.831Zm-9.323,1.831h-8.324v-1.831h8.324Zm0,1v1.832h-8.324v-1.832Zm-9.324,1.832h-8.325v-1.832h8.325Zm0,1v1.831h-8.325v-1.831Zm-9.325,1.831h-8.323v-1.831h8.323Zm0,1v1.831h-8.323v-1.831Zm-9.323,1.831h-8.324v-1.831h8.324Zm0,1v1.831h-8.324v-1.831Zm-9.324,1.831h-8.324v-1.831h8.324Zm0,1v1.832h-8.324v-1.832Zm-9.324,1.832h-8.324v-1.832h8.324Zm0,1v1.831h-8.324v-1.831Zm-9.324,1.831h-8.324v-1.831h8.324Zm0,1v1.831h-8.324v-1.831Zm-9.324,1.831H2955.5v-1.831h8.324Zm0,1v1.832H2955.5v-1.832Zm-9.324,1.832h-8.324v-1.832h8.324Zm0,1V3065h-8.324v-1.831Zm-9.324,1.831h-8.323v-1.831h8.323Zm0,1v121.785h425.281V3066h7.633v129.369H2936.848V3066Zm433.914-3.831v-1.832h7.633v1.832Zm-1,0h-7.633v-1.832h7.633Zm-7.633-2.832v-1.831h7.633v1.831Zm-1,0h-7.633v-1.831h7.633Zm-7.633-2.831v-1.831h7.633v1.831Zm-1,0h-7.632v-1.831h7.632Zm-7.632-2.831v-1.832h7.632v1.832Zm-1,0h-7.634v-1.832h7.634Zm-7.634-2.832v-1.831h7.634v1.831Zm-1,0h-7.633v-1.831h7.633Zm-7.633-2.831v-1.831h7.633v1.831Zm-1,0h-7.633v-1.831h7.633Zm-7.633-2.831v-1.831h7.633v1.831Zm-1,0h-7.633v-1.831h7.633Zm-7.633-2.831v-1.832h7.633v1.832Zm-1,0h-7.633v-1.832h7.633Zm-7.633-2.832v-1.831h7.633v1.831Zm-1,0h-7.632v-1.831h7.632Zm-7.632-2.831v-1.832h7.632v1.832Zm-1,0h-7.634v-1.832h7.634Zm-7.634-2.832v-1.832h7.634v1.832Zm-1,0h-1.235v-1.832h1.235Zm-1.235-2.832v-1.831h1.235v1.831Zm-1,0h-3.333v-1.831h3.333Zm-3.333-2.831v-1.831h3.333v1.831Zm-1,0h-1.065v-1.831h1.065ZM2915.13,2745.706c36.221-10.167,68.24-24.79,95.179-43.467a259.073,259.073,0,0,0,68.117-69.255h202.428v389.545h-3.333V2645.2H3081.188l-.148.223a248.345,248.345,0,0,1-65.444,66.6c-25.962,18-56.853,32.075-91.812,41.837l-.52.146,52.542,143.616q-2.145,1.059-4.33,2.09Zm61.022,152.869,1.586,4.334q-2.163,1.016-4.363,2l-1.554-4.248Q2974.005,2899.633,2976.152,2898.575Zm.9-.446q2.169-1.081,4.293-2.194l1.628,4.45q-2.142,1.065-4.329,2.1Zm6.268,3.2,1.587,4.341q-2.16,1.018-4.362,2.006l-1.555-4.251Q2981.176,2902.394,2983.322,2901.331Zm.9-.455q2.166-1.088,4.288-2.206l1.634,4.465q-2.141,1.071-4.324,2.11Zm6.267,3.2,1.594,4.357q-2.158,1.021-4.36,2.011l-1.557-4.257Q2988.348,2905.151,2990.487,2904.079Zm.9-.456q2.164-1.092,4.284-2.217l1.638,4.477q-2.139,1.077-4.317,2.126Zm6.267,3.2,1.6,4.372q-2.156,1.026-4.357,2.016l-1.561-4.264Q2995.518,2907.907,2997.652,2906.827Zm.9-.455q2.161-1.1,4.279-2.23l1.642,4.487q-2.136,1.085-4.314,2.137Zm6.267,3.2,1.6,4.387c-1.435.686-2.891,1.357-4.356,2.021l-1.564-4.275Q3002.686,2910.66,3004.818,2909.575Zm.9-.456q2.16-1.107,4.274-2.246l1.647,4.5q-2.131,1.092-4.31,2.147Zm6.267,3.2,1.6,4.376c-1.437.691-2.878,1.378-4.347,2.046l-1.565-4.279Q3009.851,2913.41,3011.983,2912.322Zm.9-.455c1.44-.744,2.857-1.5,4.264-2.273l1.648,4.507q-2.128,1.1-4.3,2.162Zm6.267,3.2,1.6,4.388c-1.435.7-2.874,1.386-4.343,2.055l-1.57-4.291Q3017.017,2916.163,3019.149,2915.07Zm.894-.466q2.157-1.125,4.258-2.289l1.656,4.527c-1.417.738-2.844,1.469-4.3,2.181Zm6.261,3.185,1.62,4.429c-1.433.7-2.871,1.393-4.34,2.065l-1.577-4.313C3023.46,2919.258,3024.886,2918.527,3026.3,2917.789Zm.9-.463q2.156-1.135,4.249-2.314l1.672,4.571c-1.414.745-2.837,1.483-4.29,2.2Zm6.268,3.206,1.627,4.447c-1.43.7-2.868,1.4-4.336,2.074l-1.581-4.321C3030.63,2922.015,3032.052,2921.276,3033.467,2920.532Zm.9-.464c1.436-.765,2.842-1.55,4.238-2.343l1.682,4.6c-1.411.752-2.831,1.5-4.283,2.219Zm6.268,3.207,1.633,4.464c-1.427.707-2.868,1.4-4.334,2.08l-1.584-4.328C3037.8,2924.769,3039.219,2924.025,3040.631,2923.275Zm.895-.465c1.434-.774,2.837-1.569,4.229-2.371l1.692,4.626q-2.108,1.137-4.282,2.227Zm6.269,3.207,1.64,4.482c-1.422.71-2.871,1.4-4.335,2.081l-1.59-4.346C3044.957,2927.508,3046.391,2926.773,3047.795,2926.017Zm.884-.494c1.428-.78,2.841-1.571,4.224-2.382l1.7,4.644q-2.1,1.149-4.272,2.248Zm6.269,3.209,1.65,4.508q-2.128,1.076-4.327,2.1l-1.6-4.363Q3052.844,2929.877,3054.948,2928.732Zm.884-.495c1.04-.576,2.081-1.152,3.095-1.745v5.536q-.714.376-1.435.747Zm3.095,4.919v3.539l-1.089-2.976Q3058.384,2933.44,3058.927,2933.156Zm1,5.818c.912-.429,1.828-.855,2.721-1.3v4.989c-.443.193-.875.4-1.323.586l-1.4-3.822Zm3.721-1.811c.155-.078.3-.159.458-.237l1.6,4.371c-.677.315-1.37.618-2.058.925Zm2.4,5.073.321.877V3019.7h-2.722v-76.382C3064.454,2942.959,3065.258,2942.6,3066.049,2942.236Zm.321,78.462v1.831h-2.722V3020.7Zm-3.722,1.831h-2.721V3020.7h2.721Zm0,1v1.832h-2.721v-1.832Zm-3.721,1.832h-10.193v-1.832h10.193Zm0,1v1.831h-10.193v-1.831Zm-11.193,1.831h-8.324v-1.831h8.324Zm0,1v1.831h-8.324v-1.831Zm-9.324,1.831h-8.323v-1.831h8.323Zm0,1v1.832h-8.323v-1.832Zm-9.323,1.832h-8.324v-1.832h8.324Zm0,1v1.832h-8.324v-1.832Zm-9.324,1.832h-8.325v-1.832h8.325Zm0,1v1.831h-8.325v-1.831Zm-9.325,1.831h-8.323v-1.831h8.323Zm0,1v1.832h-8.323v-1.832Zm-9.323,1.832h-8.324v-1.832h8.324Zm0,1v1.831h-8.324v-1.831Zm-9.324,1.831h-8.324v-1.831h8.324Zm0,1v1.831h-8.324v-1.831Zm-9.324,1.831h-8.324v-1.831h8.324Zm0,1v1.831h-8.324v-1.831Zm-9.324,1.831h-8.324v-1.831h8.324Zm0,1v1.832h-8.324v-1.832Zm-9.324,1.832H2955.5v-1.832h8.324Zm0,1v1.831H2955.5v-1.831Zm-9.324,1.831h-8.324v-1.831h8.324Zm0,1v1.831h-8.324v-1.831Zm-9.324,1.831h-8.323v-1.831h8.323Zm0,1v1.832h-8.323v-1.832Zm-9.323,1.832h-8.325v-1.832h8.325Zm0,1V3065h-8.325v-1.831Zm-9.325,1.831H2918.2v-1.831h8.324Zm0,1v138.954h461.2V3066h7.634v146.539H2918.2V3066Zm468.829-5.663v1.832h-7.634v-1.832Zm-8.634-2.831v1.831h-7.633v-1.831Zm-8.633-2.831v1.831h-7.633v-1.831Zm-8.633-2.832v1.832h-7.633v-1.832Zm-8.633-2.831v1.831h-7.632v-1.831Zm-8.632-2.831v1.831h-7.634v-1.831Zm-8.634-2.831v1.831h-7.633v-1.831Zm-8.633-2.832v1.832h-7.633v-1.832Zm-8.633-2.831v1.831h-7.633v-1.831Zm-8.633-2.832v1.832h-7.633v-1.832Zm-8.633-2.832v1.832h-7.632v-1.832Zm-8.632-2.831v1.831h-7.634v-1.831Zm-8.634-2.831v1.831h-1.235v-1.831Zm-330.865-121.9-64.651-176.711c38.952-10.931,73.389-26.654,102.357-46.737a278.505,278.505,0,0,0,73.234-74.463h217.69v418.812h-3.333V2618.767H3074.593l-.149.222a267.752,267.752,0,0,1-70.562,71.814c-27.99,19.406-61.3,34.582-98.987,45.107l-.521.146,60.914,166.5Q2963.105,2903.52,2960.89,2904.46Zm7.173,2.77-1.517-4.147q2.2-.983,4.366-2l1.548,4.234Q2970.279,2906.29,2968.063,2907.23Zm7.174,2.771-1.518-4.149q2.2-.985,4.364-2l1.55,4.238Q2977.452,2909.059,2975.237,2910Zm7.174,2.771-1.519-4.152q2.2-.989,4.363-2.005l1.552,4.244Q2984.628,2911.83,2982.411,2912.772Zm7.175,2.771-1.52-4.154q2.2-.99,4.361-2.009l1.553,4.247Q2991.8,2914.6,2989.586,2915.543Zm7.174,2.77-1.521-4.156q2.2-.991,4.359-2.013l1.555,4.251C2999.7,2917.044,2998.24,2917.687,2996.76,2918.313Zm7.174,2.772-1.522-4.159q2.2-.995,4.356-2.021l1.552,4.243C3006.867,2919.8,3005.418,2920.457,3003.934,2921.085Zm7.173,2.77-1.522-4.16q2.2-1,4.352-2.033l1.557,4.256C3014.042,2922.572,3012.592,2923.227,3011.107,2923.855Zm7.174,2.771-1.524-4.166c1.47-.669,2.907-1.363,4.343-2.057l1.568,4.285C3021.217,2925.343,3019.765,2926,3018.281,2926.626Zm7.174,2.77-1.524-4.166c1.469-.671,2.905-1.368,4.339-2.066l1.571,4.294C3028.393,2928.115,3026.939,2928.768,3025.455,2929.4Zm7.174,2.771L3031.1,2928c1.467-.674,2.907-1.368,4.337-2.069l1.575,4.3C3035.568,2930.886,3034.113,2931.538,3032.629,2932.167Zm7.174,2.771-1.53-4.182q2.2-1.013,4.338-2.069l1.577,4.312C3042.744,2933.659,3041.287,2934.309,3039.8,2934.938Zm7.174,2.771-1.534-4.191c1.465-.678,2.914-1.368,4.336-2.078l1.584,4.328Q3049.2,2936.762,3046.977,2937.709Zm7.174,2.77-1.536-4.2q2.2-1.025,4.328-2.1l1.592,4.353Q3056.376,2939.533,3054.151,2940.479Zm5.776,1.861.639,1.748.181.492.483-.2c.48-.2.944-.417,1.418-.623V3019.7h-2.721Zm-11.193,78.358h10.193v1.831h-10.193Zm-9.324,2.831h8.324v1.832h-8.324Zm-9.323,2.832h8.323v1.831h-8.323Zm-9.324,2.831h8.324v1.831h-8.324Zm-9.325,2.831h8.325v1.832h-8.325Zm-9.323,2.832h8.323v1.832h-8.323Zm-9.324,2.832h8.324v1.831h-8.324Zm-9.324,2.831h8.324v1.832h-8.324Zm-9.324,2.832h8.324v1.831h-8.324Zm-9.324,2.831h8.324v1.831h-8.324Zm-9.324,2.831h8.324v1.831H2955.5Zm-9.324,2.831h8.324v1.832h-8.324Zm-9.323,2.832h8.323v1.831h-8.323Zm-9.325,2.831h8.325v1.831h-8.325Zm-9.324,2.831h8.324v1.832H2918.2Zm-9.323,2.832h8.323V3065h-8.323Zm503.741,166.54H2899.552V3066h8.324v156.124h497.108V3066h7.633Z" transform="translate(-2894.929 -2605.549)" fill="#ebb4ff"/>
</svg>
