<svg id="C" xmlns="http://www.w3.org/2000/svg" width="736.166" height="665.037" viewBox="0 0 736.166 665.037">
  <path id="C-2" data-name="C" d="M3498.489,714.313l0-.054-22.781-2.7.005-.053-22.783-2.7,0-.054-22.782-2.7.005-.055-22.781-2.7,0-.055-22.783-2.7,0-.055-22.782-2.7.005-.053-22.782-2.7,0-.054-22.782-2.7.005-.054-22.782-2.7,0-.053-22.782-2.7.005-.055-22.782-2.7.005-.055-22.782-2.7,0-.055-22.783-2.7.006-.054-22.782-2.7,0-.053-22.782-2.7.005-.054L3059.611,661.4l-.483-.057-.07.481a59.517,59.517,0,0,1-10.616,26.926,56.379,56.379,0,0,1-21.388,17.611,179.011,179.011,0,0,1-4.286-40.05c0-20.422,2.545-39.2,7.558-56.088a69.85,69.85,0,0,1,8.854,22.339l.11.493,12.936-3.014c.167.678.341,1.346.495,2.036l.11.493,12.937-3.013c.165.678.34,1.346.494,2.036l.11.493,12.938-3.014c.164.679.34,1.345.494,2.036l.11.493,12.937-3.014c.163.68.34,1.346.494,2.036l.11.493,12.936-3.013c.164.68.341,1.345.495,2.036l.11.493,12.936-3.013c.163.68.341,1.345.5,2.035l.11.494,12.937-3.014c.162.681.34,1.346.494,2.036l.11.493,12.938-3.013c.161.681.34,1.345.494,2.035l.11.493,12.956-3.018c.161.678.322,1.354.475,2.04l.11.493,12.956-3.017c.16.678.322,1.354.475,2.04l.11.493,12.956-3.018c.16.679.322,1.355.475,2.041l.11.493L3201.2,624.7c.16.679.322,1.354.475,2.04l.11.493,12.956-3.017c.159.679.322,1.354.475,2.04l.11.493,12.957-3.018c.159.679.322,1.354.475,2.039l.11.494,12.956-3.018c.159.679.322,1.354.475,2.04l.11.493,12.956-3.018c.159.68.322,1.355.475,2.041l.11.493L3472.3,574.9l.451-.1-.07-.457c-7.5-48.989-26.348-91.8-56.026-127.246s-68.541-63.487-115.483-83.36-100.831-29.947-160.137-29.947c-71.406,0-134.772,13.58-188.339,40.363-53.592,26.8-95.371,65.8-124.174,115.928-28.806,50.105-43.413,109.4-43.413,176.227s15.483,126.129,46.019,176.239c30.533,50.128,74.354,89.129,130.244,115.921,55.859,26.78,121.847,40.359,196.134,40.359,67.358,0,128.237-11.534,180.944-34.283s95.511-55.91,127.2-98.554,50.393-92.609,55.578-148.489l.044-.485Zm-468.51-106.426c-.934-1.346-1.91-2.644-2.951-3.865q1.725-4.888,3.753-9.535,1.581,1.177,3.065,2.484Q3031.734,602.288,3029.979,607.887Zm-2.664-16.923q1.608-3.249,3.38-6.337,1.59.591,3.1,1.28-1.809,3.42-3.427,7.027C3029.378,592.238,3028.356,591.587,3027.315,590.964ZM3015.284,727.18c.456.833.93,1.648,1.4,2.465q-1.446-.174-2.864-.39c-.847-1.329-1.659-2.691-2.454-4.07q1.464.105,2.953.165C3014.643,725.96,3014.954,726.577,3015.284,727.18Zm6.156,3.913c.768,1.393,1.566,2.758,2.381,4.107q-1.4-.2-2.783-.445-1.271-1.917-2.473-3.9Q3019.99,730.994,3021.44,731.093Zm15.579-162.946c-.846,0-1.689.018-2.526.047q1.3-1.258,2.651-2.461,1.217-.138,2.446-.243Q3038.281,566.794,3037.019,568.147Zm-27.706,155.445c.081.149.168.292.25.44q-1.467-.135-2.905-.318c-.838-1.374-1.658-2.764-2.439-4.192-.014-.025-.027-.052-.041-.078q1.5.065,3.034.081C3007.888,720.9,3008.582,722.259,3009.313,723.592ZM3167.22,534.541c2.417,2.886,4.685,5.874,6.836,8.939a95.655,95.655,0,0,0-31.32-9.737c-1.355-1.418-2.752-2.8-4.17-4.168a122.907,122.907,0,0,1,27.806,3.985C3166.652,533.889,3166.942,534.209,3167.22,534.541Zm-43.725,7.233a124.38,124.38,0,0,0-19.027-1.4c-2.336,0-4.645.075-6.932.207-.669-.589-1.352-1.166-2.036-1.741a118.48,118.48,0,0,1,18.542-1.433c1.751,0,3.473.042,5.18.1C3120.678,538.9,3122.111,540.319,3123.5,541.774Zm-17.6,8.345a111.479,111.479,0,0,0-20.574-1.813,106.019,106.019,0,0,0-15.619,1.144c.728-.568,1.467-1.123,2.211-1.673a106.855,106.855,0,0,1,22.983-2.438q3.3,0,6.491.16Q3103.707,547.754,3105.893,550.119Zm-88.368,25.967q-1.258.013-2.5.066,1.289-1.216,2.628-2.378,1.2-.16,2.423-.281Q3018.775,574.762,3017.525,576.086ZM3003.342,720c.658,1.2,1.343,2.382,2.041,3.547-.94-.133-1.868-.285-2.789-.448-.854-1.284-1.686-2.588-2.484-3.925.962.086,1.931.161,2.911.215C3003.13,719.594,3003.231,719.8,3003.342,720Zm16.792,22.532c-.209-.113-.423-.22-.63-.335-.386-.329-.774-.655-1.154-.989.288.125.572.256.862.379C3019.519,741.905,3019.823,742.224,3020.134,742.535Zm131.462,58.67a173.206,173.206,0,0,1-29.249-2.385c1.842-.985,3.664-1.991,5.451-3.032q6.631.5,13.557.513a159.666,159.666,0,0,0,19.6-1.194q-4.263,3.165-8.773,6.091C3151.988,801.2,3151.793,801.205,3151.6,801.205Zm-145.842-221.1q-1.183.05-2.353.138,1.235-1.083,2.515-2.114,1.113-.2,2.242-.354C3007.339,578.536,3006.54,579.316,3005.754,580.109Zm27.975,171.757c.247.247.5.487.75.73-.143-.079-.281-.163-.423-.244-.285-.239-.571-.477-.853-.719C3033.377,751.712,3033.553,751.788,3033.729,751.866ZM3180.9,677.224l14.126,1.675c-2.631,17.533-8.741,32.95-18.173,45.822a95.782,95.782,0,0,1-24.717,23.465c.307-.4.624-.8.926-1.2a135.136,135.136,0,0,0,23.384-51.1A109.951,109.951,0,0,0,3180.9,677.224Zm-2.308,7.021q.522-3.588.888-7.245l.43.051Q3179.36,680.716,3178.593,684.245ZM3086.92,537.37q-3.963,1.65-7.788,3.6-3.968,1.644-7.792,3.6-3.968,1.639-7.788,3.6c-2.648,1.09-5.249,2.283-7.792,3.6-2.646,1.085-5.246,2.275-7.784,3.6-2.63,1.073-5.209,2.256-7.727,3.572q-3.948,1.6-7.725,3.572a82.279,82.279,0,0,0-7.724,3.571,78.555,78.555,0,0,0-7.722,3.57,74.532,74.532,0,0,0-7.738,3.578,70.665,70.665,0,0,0-7.788,3.606,66.724,66.724,0,0,0-7.784,3.6,62.585,62.585,0,0,0-7.789,3.607,58.674,58.674,0,0,0-7.783,3.6,54.618,54.618,0,0,0-7.787,3.606,50.716,50.716,0,0,0-9.2,4.448,48.37,48.37,0,0,0-18.933,22.019c-4.214,9.455-6.352,20.588-6.352,33.089,0,12.782,2.594,23.991,7.71,33.316a54.382,54.382,0,0,0,20.562,21.172,59.459,59.459,0,0,0,7.026,4.914,63.748,63.748,0,0,0,7.527,5.258,68.078,68.078,0,0,0,7.307,5.087,72.5,72.5,0,0,0,7.272,5.06,76.95,76.95,0,0,0,7.269,5.057,81.173,81.173,0,0,0,7.282,5.065,85.321,85.321,0,0,0,7.261,5.052q3.492,2.7,7.284,5.067,3.492,2.685,7.271,5.058,3.495,2.676,7.264,5.053,3.5,2.674,7.272,5.06,3.513,2.67,7.279,5.064,3.513,2.663,7.271,5.057,3.531,2.67,7.3,5.078,3.557,2.679,7.344,5.105c.366.275.743.538,1.112.809-22.914,9.7-49.3,14.622-78.464,14.622-32.658,0-61.661-5.966-86.2-17.733-24.525-11.755-43.752-28.867-57.146-50.857s-20.194-48.017-20.194-77.364,6.41-55.385,19.054-77.376,30.961-39.095,54.471-50.85c23.527-11.764,51.37-17.728,82.754-17.728,26.062,0,49.733,4.425,70.355,13.152a142.231,142.231,0,0,1,30.955,17.795C3089.045,536.3,3087.98,536.831,3086.92,537.37Zm-88.889,46.655q-1.239.021-2.461.085c.848-.775,1.721-1.523,2.609-2.255q1.163-.183,2.342-.324Q2999.248,582.747,2998.031,584.025Zm-47.55,103.2c-5.436-9.909-8.192-21.837-8.192-35.456,0-13.344,2.276-25.216,6.767-35.285a51.164,51.164,0,0,1,20.025-23.3c.574-.354,1.154-.694,1.738-1.025.295-.107.589-.214.886-.315a56.572,56.572,0,0,0-17.7,22.6c-4.878,10.943-7.352,23.827-7.352,38.3,0,14.792,3,27.765,8.921,38.556a64.443,64.443,0,0,0,9.924,13.612c-.248-.139-.481-.294-.725-.436A58.009,58.009,0,0,1,2950.481,687.228Zm8.871,13.681a53.589,53.589,0,0,1-14.841-17.269c-5.034-9.177-7.587-20.225-7.587-32.836,0-12.36,2.108-23.356,6.266-32.682a47.388,47.388,0,0,1,18.542-21.574c1.114-.686,2.253-1.321,3.411-1.914a52.651,52.651,0,0,0-17,21.446c-4.547,10.2-6.853,22.206-6.853,35.692,0,13.789,2.8,25.879,8.315,35.936A59.858,59.858,0,0,0,2959.352,700.909Zm34.186,23.545c.087.086.175.17.263.256-.137-.107-.275-.213-.41-.321Zm-3.205-2.656c-.544-.486-1.084-.977-1.613-1.479.463.179.932.348,1.4.517.474.534.953,1.064,1.441,1.585Q2990.942,722.115,2990.333,721.8Zm-3.491-3.325q-1.077-1.1-2.106-2.244,1.017.313,2.052.6.96,1.234,1.962,2.428Q2987.787,718.875,2986.842,718.473Zm-30.39-27.657c-5.838-10.642-8.8-23.453-8.8-38.075,0-14.328,2.445-27.076,7.266-37.889a55.177,55.177,0,0,1,19.825-23.945q.883-.242,1.781-.455a60.917,60.917,0,0,0-16.655,22.358c-5.21,11.686-7.851,25.448-7.851,40.9,0,15.8,3.205,29.65,9.526,41.174a69.349,69.349,0,0,0,8.593,12.346q-.847-.375-1.676-.775A62.9,62.9,0,0,1,2956.452,690.816Zm5.971,3.588c-6.239-11.375-9.4-25.065-9.4-40.693,0-15.313,2.612-28.937,7.765-40.494a59.582,59.582,0,0,1,17.909-23.227c.736-.141,1.479-.265,2.227-.377a65.555,65.555,0,0,0-15.186,21.561c-5.541,12.43-8.35,27.067-8.35,43.506,0,16.8,3.409,31.536,10.132,43.794a74.461,74.461,0,0,0,6.911,10.452c-.72-.251-1.43-.517-2.133-.793A67.892,67.892,0,0,1,2962.423,694.4Zm21.708-107.566q-.956.773-1.878,1.581-.9.111-1.782.249,1.005-.719,2.044-1.393Q2983.318,587.046,2984.131,586.838Zm7.608-3.614c-.595.467-1.178.948-1.755,1.436-.538.077-1.075.16-1.608.251q.942-.649,1.91-1.268C2990.769,583.5,2991.251,583.355,2991.739,583.224Zm-3.16,2.667c-.791.709-1.569,1.431-2.325,2.178-.753.041-1.5.092-2.243.16q1.194-1,2.442-1.931Q2987.508,586.076,2988.579,585.891Zm-3.37,3.246a70.323,70.323,0,0,0-13.608,20.4c-5.873,13.173-8.851,28.687-8.851,46.11,0,17.809,3.613,33.425,10.738,46.414a80.072,80.072,0,0,0,5.137,8.163c-.822-.222-1.63-.464-2.432-.716a73.066,73.066,0,0,1-7.8-11.516c-6.642-12.109-10.009-26.681-10.009-43.313,0-16.3,2.78-30.8,8.264-43.1a64.221,64.221,0,0,1,16.031-22.2Q2983.934,589.229,2985.209,589.137ZM2973.9,709.8q.844.3,1.7.571.827.992,1.687,1.951c-.518-.239-1.028-.489-1.536-.741Q2974.814,710.708,2973.9,709.8Zm3.471,1.106q1.071.306,2.164.58c.665.89,1.353,1.759,2.053,2.616q-1.017-.378-2.011-.788Q2978.45,712.136,2977.374,710.906Zm3.945,4.161c.509.188,1.018.376,1.535.553q.764.885,1.553,1.744c-.445-.213-.892-.424-1.33-.647Q2982.183,715.907,2981.319,715.067Zm2.112-.312c-.807-.943-1.586-1.916-2.349-2.9q1.221.273,2.468.5c.717,1.063,1.45,2.112,2.21,3.133Q2984.583,715.141,2983.431,714.755Zm-3.306-4.152a78.72,78.72,0,0,1-5.76-9.022c-7.044-12.84-10.615-28.294-10.615-45.933,0-17.283,2.949-32.659,8.765-45.7a69.041,69.041,0,0,1,14.169-20.9c.907-.043,1.819-.071,2.742-.073a75.366,75.366,0,0,0-11.961,18.926c-6.2,13.917-9.35,30.307-9.35,48.714,0,18.815,3.817,35.312,11.344,49.033,1.044,1.908,2.156,3.753,3.321,5.546C2981.884,711.016,2981,710.816,2980.125,710.6Zm9.451-122.628c-.606,0-1.207.01-1.807.028.859-.82,1.732-1.624,2.636-2.394.809-.113,1.624-.214,2.447-.295-.873.866-1.718,1.763-2.547,2.678C2990.06,587.99,2989.823,587.975,2989.576,587.975Zm2.279-3.555c.765-.615,1.541-1.218,2.337-1.8q1.007-.228,2.027-.423-1.134.984-2.22,2.017Q2992.919,584.3,2991.855,584.42Zm4.4-3.244c.593-.4,1.2-.785,1.806-1.166.435-.133.874-.257,1.312-.382q-.814.627-1.609,1.278C2997.254,580.988,2996.752,581.082,2996.251,581.176Zm5.123-3.113c.172-.095.345-.188.518-.281-.113.078-.227.156-.339.236C3001.493,578.032,3001.434,578.049,3001.374,578.063Zm-7.022,3.22c-.193.137-.392.267-.583.406-.123.029-.248.053-.371.082.259-.145.521-.283.781-.424Zm-7.58,3.529c-.251.181-.5.37-.745.555-.207.044-.414.088-.62.134.326-.187.656-.368.985-.549Zm-7.53,3.51c-.324.238-.642.482-.96.727-.282.055-.561.119-.841.178.386-.227.773-.452,1.164-.669C2978.817,588.479,2979.029,588.4,2979.242,588.322Zm-8.288,120.35c.254.1.511.206.767.308q.4.426.808.845c-.243-.14-.479-.289-.72-.433C2971.52,709.157,2971.239,708.912,2970.954,708.672Zm7.481,5.249.57.24c.212.22.419.445.634.662-.111-.065-.223-.127-.333-.192C2979.013,714.4,2978.724,714.16,2978.435,713.921Zm7.45,5.223c.124.054.246.11.371.164.165.167.334.331.5.5l-.124-.072C2986.384,719.536,2986.131,719.344,2985.885,719.144Zm11.7,7.736q-.745-.659-1.473-1.335c.423.169.843.341,1.271.5.444.487.9.964,1.352,1.44C2998.351,727.291,2997.971,727.083,2997.588,726.88Zm-3.48-3.266q-1.035-1.035-2.035-2.106c.642.21,1.289.414,1.942.607q.927,1.152,1.89,2.268C2995.3,724.135,2994.7,723.877,2994.108,723.614Zm-3.408-3.633c-.792-.9-1.569-1.809-2.322-2.746q1.181.294,2.385.55,1.059,1.5,2.178,2.952Q2991.809,720.377,2990.7,719.981Zm-3.322-4.029c-.843-1.1-1.669-2.208-2.46-3.353.888.147,1.789.275,2.7.39q1.119,1.83,2.309,3.589Q2988.637,716.285,2987.378,715.952Zm-3.228-4.5c-1.348-2.02-2.625-4.109-3.814-6.28-7.445-13.573-11.221-29.908-11.221-48.553,0-18.265,3.116-34.518,9.264-48.306A74.074,74.074,0,0,1,2990.744,589c.974.016,1.937.046,2.882.1a80.6,80.6,0,0,0-10.3,17.164c-6.535,14.661-9.85,31.926-9.85,51.317,0,19.819,4.021,37.2,11.95,51.652q.738,1.349,1.515,2.66C2986,711.768,2985.071,711.615,2984.15,711.45Zm7.468-123.425c.909-.979,1.853-1.921,2.815-2.842.878-.063,1.759-.115,2.65-.143q-1.386,1.517-2.691,3.121Q2993.025,588.065,2991.618,588.025Zm8.1-7.405q1.109-.861,2.257-1.677c.625-.149,1.255-.286,1.886-.417q-1.08.91-2.125,1.863Q3000.72,580.49,2999.716,580.62Zm4.472-3.189c.529-.347,1.058-.693,1.6-1.027.4-.126.8-.245,1.206-.365-.507.381-1.013.763-1.509,1.156C3005.051,577.272,3004.617,577.345,3004.188,577.431Zm36.842,179.591q.289.282.58.563c-.1-.055-.2-.113-.294-.169-.225-.187-.447-.376-.67-.565C3040.773,756.91,3040.9,756.964,3041.03,757.022Zm136.679,14.212a122.441,122.441,0,0,1-28.207,9.415,150.115,150.115,0,0,0,13.508-12.733c.862-.387,1.722-.777,2.574-1.185a106.939,106.939,0,0,0,40.612-33.424,104.8,104.8,0,0,0,13.089-23.993A153.393,153.393,0,0,1,3194.6,761.33,115.394,115.394,0,0,1,3177.709,771.234Zm-129.377-9.057c.137.133.272.268.411.4l-.159-.092c-.171-.141-.338-.285-.508-.428C3048.161,762.1,3048.246,762.138,3048.332,762.177Zm72.1,15.069c-3.224.22-6.489.34-9.8.34a150.855,150.855,0,0,1-21.357-1.471q3.085-1.7,6.045-3.524c1.676.054,3.363.091,5.071.091a129.386,129.386,0,0,0,30.495-3.521Q3125.885,773.415,3120.434,777.246Zm12.64-8.643a112.059,112.059,0,0,0,19.952-7.277,103.794,103.794,0,0,0,28.82-20.263,143.42,143.42,0,0,1-8.746,13.258,147.085,147.085,0,0,1-10.683,12.766,122.392,122.392,0,0,1-40.03,10.016Q3127.972,773.081,3133.074,768.6Zm-45.423,7.261a117.4,117.4,0,0,1-27.661-7.7c-.679-.7-1.359-1.4-2.022-2.115a125.357,125.357,0,0,0,35.543,6.466Q3090.635,774.245,3087.651,775.864Zm-32.065-8.577c.1.092.19.187.287.279l-.026-.015c-.13-.107-.256-.217-.385-.324C3055.5,767.246,3055.544,767.267,3055.586,767.287Zm4.039,2.36c-.4-.351-.787-.711-1.18-1.068.321.14.636.288.959.425.36.369.72.739,1.084,1.1C3060.2,769.957,3059.913,769.8,3059.625,769.647Zm2.15.317a118.732,118.732,0,0,0,24.386,6.68q-1.9.995-3.838,1.944a113.468,113.468,0,0,1-18.909-7.03C3062.861,771.034,3062.318,770.5,3061.775,769.964Zm-4.185-2.858c-.475-.214-.95-.426-1.42-.647-.588-.564-1.177-1.13-1.753-1.707.515.2,1.037.389,1.558.581C3056.509,765.928,3057.044,766.523,3057.59,767.106Zm-4.28-2.038c-.317-.162-.626-.336-.941-.5q-.654-.583-1.3-1.177c.352.15.707.3,1.062.443C3052.525,764.244,3052.91,764.663,3053.31,765.068Zm19.751,14.168c-.9-.5-1.786-1.021-2.67-1.542l-.156-.129q3.58,1.743,7.327,3.251c-.278.124-.553.25-.831.373Q3074.874,780.244,3073.061,779.236Zm-6.179-4.507c-.36-.315-.707-.642-1.062-.961a115.3,115.3,0,0,0,15.157,5.474q-1.068.508-2.148,1.005A111.755,111.755,0,0,1,3066.882,774.729Zm15.533,4.926a139.374,139.374,0,0,0,27.346,4.458c-1.83,1.069-3.7,2.1-5.6,3.1a128.393,128.393,0,0,1-24.037-6.455C3080.9,780.4,3081.654,780.025,3082.415,779.655Zm1.384-.672q2.038-1.015,4.025-2.081a150.679,150.679,0,0,0,22.81,1.684c2.771,0,5.51-.084,8.222-.237q-3.7,2.529-7.6,4.862A139.937,139.937,0,0,1,3083.8,778.983Zm36.979-.756a124.562,124.562,0,0,0,39.894-9.3,149.483,149.483,0,0,1-13.294,12.15,142.6,142.6,0,0,1-26.5,2.415c-2.65,0-5.259-.071-7.838-.191Q3117.011,780.866,3120.778,778.227Zm101.611-77.962a127.944,127.944,0,0,0,3.861-17.5l14.125,1.675c-2.992,20-9.958,37.588-20.718,52.272a108.972,108.972,0,0,1-22.479,22.738A155.623,155.623,0,0,0,3222.389,700.265Zm2.2-13.625q.245-2.028.443-4.075l.229.028C3225.055,683.954,3224.828,685.3,3224.586,686.64Zm-3.147,13.3a104.653,104.653,0,0,1-56.287,65.89c-.12.058-.244.111-.365.168q4.815-5.316,9.115-11.08a144.247,144.247,0,0,0,10.774-16.812,102.281,102.281,0,0,0,7.253-8.795c9.967-13.6,16.427-29.883,19.206-48.392l12.906,1.53A174.86,174.86,0,0,1,3221.439,699.939Zm-30.317,28.779q-2.154,2.935-4.5,5.683a151.991,151.991,0,0,0,15.631-54.591l7.892.936C3207.392,699.1,3201,715.243,3191.122,728.718Zm-7.253,8.787a102.309,102.309,0,0,1-31.274,22.919,110.815,110.815,0,0,1-17.855,6.7,138.393,138.393,0,0,0,15.6-16.6,96.924,96.924,0,0,0,27.321-25.208c9.526-13,15.7-28.555,18.359-46.242l5.244.622A150.155,150.155,0,0,1,3183.869,737.505Zm-51.27,30.188a127.513,127.513,0,0,1-32.206,3.989c-1.183,0-2.353-.02-3.52-.046q4.315-2.728,8.35-5.729a111.092,111.092,0,0,0,35.247-9.986c2.515-1.2,4.953-2.5,7.325-3.875A137.8,137.8,0,0,1,3132.6,767.693Zm-37.539,3.887a124.05,124.05,0,0,1-38.506-7.1c-.745-.834-1.484-1.675-2.208-2.531a127,127,0,0,0,35.806,4.828q6.675,0,13.094-.648Q3099.284,768.981,3095.06,771.58Zm-40.515-7.854q-.927-.362-1.84-.739c-.693-.724-1.382-1.452-2.057-2.2q.98.327,1.971.638C3053.254,762.2,3053.892,762.972,3054.545,763.726Zm-4.173-1.739c-.491-.216-.986-.428-1.471-.652-.617-.6-1.234-1.2-1.837-1.81.545.2,1.1.4,1.647.6C3049.262,760.746,3049.809,761.375,3050.372,761.987ZM3046.135,760c-.341-.171-.683-.341-1.022-.515-.482-.434-.967-.863-1.441-1.3.388.162.783.314,1.174.472C3045.274,759.1,3045.7,759.556,3046.135,760Zm34.592,24.535c-1.076-.6-2.134-1.215-3.185-1.841a122.527,122.527,0,0,0,20.151,7.778q-1.067.507-2.143,1A120.348,120.348,0,0,1,3080.727,784.536Zm13.555,7.508c-.3.133-.593.269-.892.4-1.688-.839-3.36-1.7-5-2.61-1.049-.582-2.079-1.187-3.1-1.794Q3089.669,790.207,3094.282,792.044Zm-16.38-10.285c.317-.142.633-.283.948-.426a128.3,128.3,0,0,0,23.88,6.633q-1.827.946-3.691,1.853A121.914,121.914,0,0,1,3077.9,781.759Zm26.435,6.494a161.921,161.921,0,0,0,26.777,2.143c1.188,0,2.369-.019,3.547-.045-2.317,1.52-4.672,3-7.094,4.42a148.836,148.836,0,0,1-27.084-4.541Q3102.432,789.264,3104.337,788.253Zm26.777,1.143a161.831,161.831,0,0,1-25.286-1.924c1.928-1.045,3.814-2.131,5.676-3.242q4.609.257,9.37.261a144.494,144.494,0,0,0,24.879-2.111q-4.582,3.61-9.481,6.922C3134.563,789.358,3132.846,789.4,3131.114,789.4Zm16.7-7.387a123.886,123.886,0,0,0,30.328-9.872,117.219,117.219,0,0,0,14.573-8.291,157.22,157.22,0,0,1-16.556,18.5,138.444,138.444,0,0,1-38.029,6.89Q3143.143,785.785,3147.813,782.009Zm46.929-19.158c.2-.264.378-.534.572-.8a110.036,110.036,0,0,0,25.15-24.749c10.852-14.812,17.884-32.536,20.9-52.692l5.447.646a171.906,171.906,0,0,1-17.355,61.155,115.4,115.4,0,0,1-39.191,30.227,124.2,124.2,0,0,1-11.9,4.929A158.184,158.184,0,0,0,3194.742,762.851Zm53.058-77.476,7.69.912c-3.113,20.825-10.363,39.135-21.564,54.422-.543.739-1.1,1.464-1.658,2.189A173.88,173.88,0,0,0,3247.8,685.375Zm-95.539,61.013q-1.273,1.711-2.6,3.377a103.249,103.249,0,0,1-9.622,5.254,109.6,109.6,0,0,1-33.219,9.693,131.424,131.424,0,0,0,12.054-10.414q4.626-1.681,9.04-3.782a93.456,93.456,0,0,0,35.48-29.2,90.733,90.733,0,0,0,9.866-17.173A133.347,133.347,0,0,1,3152.261,746.388Zm-47.423,18.557a129.2,129.2,0,0,1-14.686.831,125.018,125.018,0,0,1-36.948-5.207q-1.188-1.447-2.333-2.937a124.9,124.9,0,0,0,29.041,3.239,114.385,114.385,0,0,0,36.7-5.774A131.111,131.111,0,0,1,3104.838,764.945Zm-53.408-4.951q-1.077-.353-2.139-.726-1.137-1.3-2.235-2.629c.744.208,1.494.405,2.248.6C3050,758.164,3050.707,759.089,3051.43,759.994Zm-4.078-1.428c-.65-.245-1.29-.5-1.932-.76q-1.061-1.127-2.09-2.286c.67.215,1.342.427,2.021.629Q3046.338,757.373,3047.352,758.566Zm-4.135-1.669c-.543-.233-1.08-.474-1.616-.716q-.95-.936-1.876-1.9c.574.209,1.143.424,1.723.623C3042.029,755.581,3042.622,756.24,3043.217,756.9Zm-4.254-1.961c-.374-.183-.754-.359-1.124-.547-.521-.473-1.043-.946-1.554-1.43.424.173.849.345,1.277.512C3038.022,753.966,3038.494,754.45,3038.963,754.936Zm-34.107-22.97c-.442-.386-.872-.784-1.306-1.179q.543.223,1.091.439c.4.43.809.852,1.218,1.274C3005.523,732.325,3005.189,732.146,3004.856,731.966Zm-3.444-3.2q-.99-.969-1.948-1.971c.6.206,1.2.4,1.813.591q.9,1.078,1.822,2.127Q3002.247,729.155,3001.412,728.771Zm-3.446-3.577q-1.149-1.267-2.246-2.589,1.121.3,2.263.572,1.037,1.413,2.118,2.782Q2999.023,725.593,2997.966,725.194Zm-3.376-3.954c-.821-1.03-1.613-2.09-2.39-3.164q1.28.245,2.585.448c.741,1.155,1.512,2.282,2.3,3.394Q2995.823,721.6,2994.59,721.24Zm-3.238-4.349q-1.277-1.83-2.465-3.743c.936.1,1.885.183,2.841.254q1.137,2.042,2.361,4Q2992.7,717.172,2991.352,716.891Zm-3.137-4.834c-.654-1.083-1.3-2.178-1.908-3.3-7.848-14.307-11.827-31.523-11.827-51.172,0-19.249,3.286-36.378,9.764-50.91a79.364,79.364,0,0,1,10.59-17.48q1.527.12,3,.311a85.972,85.972,0,0,0-8.639,15.126c-6.867,15.4-10.349,33.546-10.349,53.922,0,20.615,4.145,38.711,12.31,53.8C2990.163,712.279,2989.186,712.174,2988.215,712.057Zm7.4-123.8c.922-1.108,1.868-2.189,2.849-3.235.23,0,.457-.01.687-.01.72,0,1.416.032,2.121.051-.953,1.147-1.884,2.317-2.778,3.527C2997.549,588.454,2996.591,588.341,2995.614,588.253Zm3.818-4.238c.889-.911,1.792-1.806,2.727-2.666.854-.082,1.716-.142,2.583-.191-.908.952-1.8,1.92-2.66,2.921C3001.207,584.046,3000.328,584.018,2999.432,584.015Zm8.139-7.161q1.063-.8,2.158-1.563.891-.223,1.792-.426-1.033.849-2.036,1.732Q3008.522,576.713,3007.571,576.854Zm4.509-3.133c.364-.234.723-.475,1.093-.7.128-.079.26-.152.388-.23.351-.114.7-.231,1.054-.34-.458.338-.91.682-1.36,1.029C3012.861,573.555,3012.471,573.638,3012.08,573.721Zm47.477-56.639c-20.746-8.781-44.549-13.232-70.746-13.232-31.541,0-59.534,6-83.2,17.834-23.688,11.844-42.156,29.086-54.89,51.246-12.732,22.144-19.187,48.344-19.187,77.874s6.843,55.738,20.34,77.884,32.865,39.4,57.568,51.24c24.678,11.831,53.828,17.83,86.636,17.83,29.533,0,56.245-5.028,79.412-14.933a126.659,126.659,0,0,0,12.419,7.884c1.411.785,2.845,1.538,4.294,2.27l-.193.086c-25,10.789-53.878,16.259-85.843,16.259-35.252,0-66.558-6.439-93.048-19.14-26.472-12.69-47.228-31.161-61.688-54.9s-21.8-51.832-21.8-83.512,6.92-59.785,20.567-83.522,33.421-42.2,58.8-54.893c25.4-12.7,55.449-19.136,89.325-19.136,28.133,0,53.684,4.777,75.943,14.2a152.686,152.686,0,0,1,34.93,20.393,115.686,115.686,0,0,0-18.039,6.515A142.964,142.964,0,0,0,3059.557,517.082Zm15.1-9.584c-22.384-9.474-48.066-14.277-76.333-14.277-34.032,0-64.236,6.474-89.772,19.242-25.559,12.779-45.484,31.381-59.221,55.289-13.735,23.891-20.7,52.159-20.7,84.02s7.383,60.138,21.944,84.032,35.459,42.507,62.111,55.282c26.626,12.766,58.077,19.238,93.479,19.238,32.1,0,61.117-5.5,86.239-16.341.327-.141.643-.292.969-.434a131.57,131.57,0,0,0,21.036,8.155c-1.973.937-3.966,1.855-6,2.732-26.836,11.583-57.843,17.456-92.157,17.456-37.844,0-71.452-6.913-99.891-20.549s-50.708-33.456-66.231-58.943-23.4-55.648-23.4-89.659,7.429-64.183,22.082-89.67,35.883-45.31,63.131-58.934c27.265-13.633,59.53-20.545,95.9-20.545,30.2,0,57.632,5.128,81.529,15.242a161.222,161.222,0,0,1,42.629,26.1,125.144,125.144,0,0,0-21.579,3.565A153.315,153.315,0,0,0,3074.657,507.5Zm19.9,285.517c.337-.151.675-.3,1.01-.454a137.507,137.507,0,0,0,23.753,6.713c-1.177.605-2.369,1.194-3.569,1.776A131.4,131.4,0,0,1,3094.561,793.015Zm2.3-1.033c.765-.357,1.514-.73,2.27-1.1a148.04,148.04,0,0,0,26.888,4.758q-2.592,1.479-5.262,2.88A137.754,137.754,0,0,1,3096.861,791.982Zm44.494,3.319c-4.1,0-8.111-.149-12.052-.414q3.721-2.22,7.283-4.6a140.78,140.78,0,0,0,37.819-6.33q-5.64,5.214-11.821,9.928A157.626,157.626,0,0,1,3141.355,795.3Zm35.33-12.078a125.317,125.317,0,0,0,14.013-5.681,116.762,116.762,0,0,0,36.764-27.311,162.617,162.617,0,0,1-12.684,19.957q-3.771,5.074-7.915,9.828c-1.331.7-2.674,1.376-4.04,2.029a134.341,134.341,0,0,1-38.2,11.55Q3170.937,788.675,3176.685,783.223Zm38.9-12.439a163.514,163.514,0,0,0,14.7-23.8q2.3-2.761,4.446-5.682c11.294-15.414,18.611-33.863,21.749-54.841l13.108,1.554c-.52,5.346-1.26,10.594-2.183,15.759a120.835,120.835,0,0,1-19.213,40.933,118.684,118.684,0,0,1-38.921,34.025C3211.448,776.145,3213.56,773.5,3215.581,770.784Zm54.995-82.653.03,0c-.029.2-.064.39-.094.586C3270.532,688.524,3270.557,688.329,3270.576,688.131Zm-121.451,29.186c8.643-11.8,14.247-25.9,16.661-41.941l12.707,1.507a150.916,150.916,0,0,1-3,18.692,91.079,91.079,0,0,1-48.012,54.038c-2.237,1.07-4.523,2.048-6.846,2.951a127.951,127.951,0,0,0,11.59-13.514q3.708-4.99,6.869-10.286A88.1,88.1,0,0,0,3149.125,717.317Zm-8.1,8.1a130.289,130.289,0,0,0,15.679-51.175l8.092.959c-2.388,15.885-7.928,29.855-16.477,41.522A87.4,87.4,0,0,1,3141.024,725.42Zm-9.6,13.034a126.925,126.925,0,0,1-13.094,14.976,112.549,112.549,0,0,1-38.416,6.441,122.963,122.963,0,0,1-30.027-3.519q-1.229-1.64-2.406-3.328a122.87,122.87,0,0,0,22.193,1.943c16.638,0,32.008-3.316,45.683-9.856a90.959,90.959,0,0,0,21.018-13.833Q3134.031,734.941,3131.422,738.454Zm-83.068,17.512c-.817-.219-1.624-.455-2.428-.692q-1.2-1.5-2.353-3.043c.827.185,1.657.364,2.5.53C3046.814,753.845,3047.579,754.91,3048.354,755.966Zm-4.088-1.194c-.754-.237-1.506-.476-2.25-.728-.772-.9-1.526-1.814-2.271-2.738.773.2,1.549.4,2.333.589C3042.792,752.868,3043.525,753.824,3044.266,754.772Zm-4.1-1.39c-.68-.247-1.359-.5-2.029-.758-.72-.779-1.424-1.575-2.122-2.375.692.212,1.4.408,2.1.606C3038.783,751.71,3039.471,752.549,3040.165,753.382Zm-4.125-1.6c-.586-.244-1.164-.5-1.742-.758-.648-.648-1.282-1.312-1.913-1.978.6.21,1.2.412,1.8.611C3034.794,750.375,3035.415,751.081,3036.04,751.782Zm-4.252-1.912c-.422-.2-.844-.406-1.262-.614q-.808-.746-1.6-1.509c.461.184.918.372,1.384.549C3030.8,748.828,3031.292,749.349,3031.788,749.87Zm-4.468-2.291c-.085-.047-.173-.09-.258-.138s-.179-.1-.27-.156c-.346-.291-.7-.577-1.038-.873.23.1.459.205.691.3C3026.732,747.009,3027.029,747.291,3027.32,747.579Zm-15.138-10.495c-.407-.349-.807-.7-1.207-1.062.314.133.634.256.951.385.35.368.7.74,1.053,1.1C3012.714,737.367,3012.446,737.229,3012.182,737.084Zm-3.489-3.177q-.959-.921-1.89-1.868c.568.205,1.137.406,1.713.6.569.668,1.152,1.322,1.739,1.972C3009.732,734.378,3009.208,734.148,3008.693,733.907Zm-3.478-3.529q-1.124-1.211-2.2-2.464,1.092.316,2.2.606,1.014,1.336,2.072,2.63Q3006.241,730.776,3005.215,730.378Zm-3.352-3.849q-1.222-1.482-2.387-3.022,1.248.268,2.519.5,1.1,1.637,2.252,3.22Q3003.043,726.9,3001.863,726.529Zm-3.287-4.243q-1.266-1.742-2.455-3.557c.909.127,1.829.234,2.756.331q1.134,1.93,2.347,3.788Q2999.887,722.587,2998.576,722.286Zm-3.19-4.68c-.853-1.344-1.669-2.723-2.462-4.124q1.471.086,2.972.124.717,1.419,1.475,2.809c.291.532.6,1.05.9,1.574C2997.3,717.879,2996.337,717.749,2995.386,717.606Zm-3.055-5.166-.054-.094c-8.249-15.037-12.431-33.135-12.431-53.791,0-20.235,3.453-38.24,10.263-53.515a84.809,84.809,0,0,1,8.847-15.386q1.563.234,3.064.551A91.632,91.632,0,0,0,2995.06,603c-7.2,16.148-10.849,35.165-10.849,56.527,0,20.114,3.768,37.937,11.189,53.067C2994.365,712.561,2993.344,712.508,2992.331,712.44Zm7.307-123.7q1.406-1.874,2.906-3.646c1,.046,1.969.121,2.935.207q-1.484,1.952-2.868,4C3001.639,589.088,3000.65,588.9,2999.638,588.736Zm3.736-4.6q1.373-1.565,2.825-3.045c.837-.03,1.678-.049,2.526-.049.069,0,.136.005.2.005q-1.4,1.609-2.726,3.3Q3004.809,584.214,3003.374,584.135Zm5.351-4.094c-.505,0-1.005.013-1.506.023q1.314-1.289,2.693-2.509,1.233-.141,2.484-.24-1.329,1.341-2.591,2.752C3009.442,580.063,3009.091,580.041,3008.725,580.041Zm2.495-3.636q1.2-1.019,2.448-1.985c.721-.137,1.447-.266,2.177-.382q-1.192,1.069-2.343,2.186Q3012.355,576.3,3011.22,576.405Zm4.207-3.316c.677-.5,1.365-.977,2.06-1.451.561-.147,1.122-.294,1.689-.428-.663.531-1.321,1.066-1.965,1.617C3016.615,572.909,3016.019,572.993,3015.427,573.089Zm4.547-3.079c.184-.116.362-.238.547-.352.273-.167.551-.323.825-.487.286-.1.57-.192.857-.283-.4.292-.79.6-1.185.9C3020.668,569.856,3020.322,569.933,3019.974,570.01Zm7.9-3.713c.415-.255.837-.494,1.255-.742.238-.08.476-.158.715-.236q-.545.39-1.082.787c-.3.064-.595.124-.89.193Zm7.93-3.705c.367-.222.737-.438,1.107-.654.189-.065.381-.125.571-.188-.323.227-.652.446-.971.676Zm7.905-3.69c.327-.2.654-.391.984-.582.141-.049.285-.092.427-.141-.274.191-.549.38-.821.573C3044.1,558.8,3043.9,558.853,3043.705,558.9Zm7.905-3.69c.276-.163.55-.33.827-.489l.315-.112c-.235.161-.468.326-.7.489Zm4.711-1.755c.36-.109.723-.211,1.085-.315-.472.346-.933.7-1.4,1.058-.426.086-.848.183-1.272.275C3055.26,554.13,3055.79,553.793,3056.321,553.457Zm3.192-1.935c.216-.125.428-.256.644-.38.062-.022.124-.047.187-.069-.181.123-.358.251-.538.375Zm8.362-3.959.046-.018c-.121.082-.239.169-.36.252l-.144.036C3067.571,547.745,3067.721,547.65,3067.875,547.563Zm3.942-1.341c.311-.1.623-.193.936-.288-.425.3-.849.6-1.269.912-.321.072-.645.135-.965.21C3070.953,546.779,3071.378,546.493,3071.817,546.222Zm11.628-5.869c2.9-1.068,5.845-2.027,8.85-2.849.3.239.6.473.9.714q-5.078.9-9.973,2.256Zm7.48-3.492.381-.141.028.022Zm1.479-.547a113.968,113.968,0,0,1,19.736-5.129c.644.535,1.286,1.073,1.918,1.619a116.243,116.243,0,0,0-21.533,3.606Zm6.709-3.207a115.757,115.757,0,0,1,11.071-3.514c.316.254.64.5.954.757A116.528,116.528,0,0,0,3099.113,533.107Zm12.29-3.823a124.688,124.688,0,0,1,21.652-3.428q1.491,1.308,2.944,2.649c-.932-.016-1.864-.034-2.809-.034a128.635,128.635,0,0,0-20.764,1.647Q3111.917,529.7,3111.4,529.284Zm23.041-3.526q4.114-.247,8.321-.254a148.044,148.044,0,0,1,17.16.973q2.717,2.8,5.274,5.728a126.117,126.117,0,0,0-27.721-3.671Q3135.984,527.127,3134.444,525.758Zm8.321-1.254c-3.16,0-6.279.113-9.36.321a161.846,161.846,0,0,0-43.647-26.911c-24.023-10.167-51.584-15.322-81.92-15.322-36.524,0-68.938,6.948-96.343,20.65-27.427,13.714-48.808,33.675-63.552,59.331-14.74,25.64-22.214,55.977-22.214,90.168s7.922,64.538,23.549,90.179,38.051,45.614,66.654,59.325c28.574,13.7,62.327,20.647,100.322,20.647,34.452,0,65.592-5.9,92.554-17.538,2.391-1.033,4.728-2.122,7.039-3.237a156.9,156.9,0,0,0,26.526,5,189.6,189.6,0,0,1-17.56,8.687c-28.673,12.376-61.8,18.651-98.469,18.651-40.435,0-76.346-7.387-106.736-21.956-30.372-14.559-54.183-35.75-70.773-62.985s-25.008-59.466-25.008-95.806,7.939-68.583,23.6-95.817,38.347-48.421,67.462-62.978c29.133-14.567,63.607-21.953,102.467-21.953,32.271,0,61.581,5.48,87.116,16.287,21.3,9.017,39.516,21.136,54.34,36.09A150.444,150.444,0,0,0,3142.765,524.5Zm-25.572,276.959q1.879-.927,3.721-1.893a172.543,172.543,0,0,0,29.743,2.623q-3.313,2.1-6.761,4.068A157.585,157.585,0,0,1,3117.193,801.463Zm35.295.731a157.606,157.606,0,0,0,36.284-4.276q-5.157,4.39-10.69,8.427-7.972.752-16.246.765-8.3,0-16.2-.683C3147.97,805.065,3150.245,803.645,3152.488,802.194Zm1.566-1.02q4.592-3.041,8.925-6.331a135.82,135.82,0,0,0,40.276-11.9c.608-.291,1.2-.6,1.805-.9a168.511,168.511,0,0,1-14.584,14.4A155.076,155.076,0,0,1,3154.054,801.174Zm53.437-20.359a118.364,118.364,0,0,0,57.741-66.576,173.793,173.793,0,0,1-25.468,58.029,128.028,128.028,0,0,1-24.383,15.182,135.559,135.559,0,0,1-22.748,8.443A169.236,169.236,0,0,0,3207.491,780.815Zm60.9-76.839a146.8,146.8,0,0,0,3.211-15.669l14.123,1.674c-3.352,22.471-11.173,42.228-23.259,58.722a122.348,122.348,0,0,1-20.079,21.432A176.609,176.609,0,0,0,3268.387,703.976Zm-112.671-29.848a128.627,128.627,0,0,1-17.4,54,89.361,89.361,0,0,1-23.39,16.082c-13.539,6.475-28.765,9.758-45.252,9.758a121.154,121.154,0,0,1-23-2.111q-1.254-1.839-2.451-3.734a121.155,121.155,0,0,0,15.215.94c15.8,0,30.385-3.148,43.367-9.356a84.411,84.411,0,0,0,32.057-26.386c8.2-11.19,13.52-24.576,15.814-39.791Zm-110.429,77.454c-.876-.181-1.749-.368-2.611-.57q-1.247-1.706-2.437-3.464c.9.148,1.8.289,2.706.415Q3044.089,749.8,3045.287,751.582Zm-4.11-.946q-1.247-.312-2.475-.652-1.216-1.554-2.383-3.155c.847.173,1.7.331,2.564.485Q3040.007,749,3041.177,750.636Zm-4.095-1.117c-.777-.231-1.546-.475-2.311-.724q-1.179-1.4-2.316-2.847,1.194.3,2.406.562Q3035.95,748.035,3037.082,749.519Zm-4.1-1.322q-1.051-.366-2.088-.755-1.123-1.238-2.213-2.511c.733.213,1.467.425,2.211.622Q3031.916,746.892,3032.978,748.2Zm-4.149-1.567c-.6-.244-1.2-.49-1.8-.746q-1.017-1.033-2-2.095c.635.215,1.275.42,1.919.622C3027.566,745.159,3028.191,745.9,3028.829,746.63Zm-4.214-1.826c-.473-.221-.937-.454-1.405-.683-.556-.519-1.1-1.052-1.641-1.585.489.189.985.368,1.48.549C3023.566,743.663,3024.086,744.239,3024.615,744.8Zm-4.829-4.062q-1.063-1.1-2.093-2.231c.659.214,1.321.423,1.991.622q.957,1.19,1.945,2.349C3021.011,741.241,3020.4,741,3019.786,740.742Zm-2.373-1.04c-.5-.226-.985-.459-1.475-.694q-.894-.848-1.765-1.719.8.3,1.613.584C3016.323,738.488,3016.861,739.1,3017.413,739.7Zm-4.913-4.142q-1.081-1.141-2.125-2.321c.685.211,1.379.407,2.075.6q.992,1.266,2.022,2.494C3013.808,736.085,3013.152,735.824,3012.5,735.56Zm-3.4-3.785q-1.188-1.4-2.321-2.86,1.2.285,2.42.535,1.085,1.554,2.222,3.054Q3010.251,732.158,3009.1,731.775Zm-3.306-4.14q-1.252-1.662-2.441-3.387,1.34.221,2.7.4,1.129,1.83,2.32,3.6Q3007.075,727.961,3005.795,727.635Zm-6.306-9.521c-.419-.722-.838-1.443-1.241-2.179-.418-.762-.817-1.538-1.215-2.315.319,0,.634.013.955.013.717,0,1.421-.035,2.13-.054.743,1.624,1.537,3.209,2.358,4.775Q3000.967,718.26,2999.489,718.114Zm-1.5-5.481c-.493,0-.98-.011-1.468-.019-7.5-15.09-11.309-32.926-11.309-53.09,0-21.22,3.621-40.1,10.763-56.119a90.378,90.378,0,0,1,7.089-12.967c1.056.246,2.083.527,3.089.836a97.487,97.487,0,0,0-5.227,10.088c-7.53,16.892-11.349,36.785-11.349,59.131,0,19.546,3.405,37.023,10.11,52.1C2999.12,712.6,2998.56,712.633,2997.988,712.633Zm5.653-123.08c.966-1.426,1.978-2.8,3.019-4.154q1.535.164,3.018.4-1.559,2.239-3,4.6Q3005.2,589.93,3003.641,589.553Zm3.721-5.07c.929-1.169,1.9-2.3,2.882-3.4.966.018,1.931.039,2.873.091-.964,1.207-1.892,2.451-2.8,3.718C3009.352,584.727,3008.362,584.6,3007.362,584.483Zm3.756-4.384q1.368-1.485,2.806-2.894c.885-.051,1.776-.084,2.672-.1q-1.384,1.524-2.7,3.125C3012.983,580.167,3012.055,580.127,3011.118,580.1Zm7.939-7.5q1.173-.965,2.387-1.886c.682-.139,1.369-.265,2.059-.385q-1.156,1.008-2.277,2.059Q3020.135,572.479,3019.057,572.6Zm4.227-3.248c.648-.463,1.3-.923,1.96-1.368.512-.139,1.031-.263,1.547-.392-.615.483-1.215.983-1.815,1.482Q3024.127,569.205,3023.284,569.353Zm5.9-2.316c.652-.141,1.307-.277,1.965-.4-.74.63-1.464,1.277-2.182,1.932-.7.07-1.389.146-2.077.233Q3028.019,567.9,3029.183,567.037Zm1.977-1.42c.611-.427,1.225-.851,1.849-1.262.485-.137.973-.267,1.462-.394q-.875.673-1.73,1.369C3032.211,565.418,3031.686,565.518,3031.16,565.617Zm5.761-2.257c.641-.146,1.283-.287,1.929-.418q-1.082.9-2.132,1.832-1.01.119-2.009.26C3035.438,564.467,3036.173,563.905,3036.921,563.36Zm2.114-1.478c.576-.394,1.159-.779,1.745-1.16.457-.132.912-.27,1.372-.395-.567.429-1.137.855-1.693,1.3C3039.984,561.709,3039.507,561.788,3039.035,561.882Zm5.68-2.2c.595-.141,1.2-.267,1.8-.4-.69.562-1.378,1.128-2.053,1.71-.634.083-1.264.18-1.894.277C3043.274,560.73,3043.988,560.2,3044.715,559.678Zm2.143-1.495c.557-.374,1.127-.731,1.694-1.094.41-.122.82-.243,1.233-.359q-.783.582-1.556,1.177C3047.771,557.995,3047.314,558.088,3046.858,558.183Zm5.613-2.158c.566-.139,1.132-.275,1.7-.4q-1,.8-1.981,1.623c-.6.087-1.193.17-1.784.269C3051.087,557.007,3051.777,556.513,3052.471,556.025Zm3.963-.894c.66-.132,1.327-.246,1.993-.363-.754.646-1.5,1.308-2.229,1.976q-1.059.106-2.107.237Q3055.248,556.039,3056.434,555.131Zm1.77-1.34c.664-.484,1.345-.949,2.022-1.417.538-.137,1.073-.281,1.614-.409-.634.5-1.251,1.013-1.873,1.525C3059.377,553.583,3058.791,553.687,3058.2,553.791Zm4.424-3.025c.486-.316.971-.633,1.464-.941.319-.1.643-.185.964-.281-.443.32-.874.653-1.31.979C3063.373,550.6,3063,550.682,3062.628,550.766Zm5.354-2.045c.511-.134,1.025-.263,1.539-.389q-.912.7-1.806,1.428c-.552.094-1.1.2-1.649.3Q3067.016,549.38,3067.982,548.721Zm26.912-4.382a108.775,108.775,0,0,0-20.953,1.984c.6-.419,1.19-.845,1.8-1.254a107.013,107.013,0,0,1,21.435-3.472q1.59,1.406,3.122,2.86C3098.518,544.384,3096.722,544.339,3094.894,544.339Zm-16.521-.969c.315-.2.62-.407.938-.6.085-.053.172-.1.258-.153a106.278,106.278,0,0,1,14.634-3.563c.645.535,1.287,1.073,1.919,1.619A108.665,108.665,0,0,0,3078.373,543.37Zm35.669-6.965a119.279,119.279,0,0,0-19.554,1.579c-.323-.266-.651-.529-.977-.792a115.879,115.879,0,0,1,21.6-3.469q1.536,1.353,3.023,2.745C3116.782,536.43,3115.421,536.405,3114.042,536.405Zm2.477-2.761c2.343-.129,4.706-.206,7.1-.206a135.115,135.115,0,0,1,18.639,1.245q2.952,3.105,5.7,6.377a112,112,0,0,0-28.316-4.536Q3118.1,535.062,3116.519,533.644Zm7.1-1.206q-4.125,0-8.157.255c-.661-.58-1.338-1.146-2.013-1.714a128.011,128.011,0,0,1,19.744-1.508q1.953,0,3.87.049,2.07,1.961,4.051,3.995A137.625,137.625,0,0,0,3123.616,532.438Zm43.312.237c-1.753-2.048-3.553-4.058-5.42-6.013a106.05,106.05,0,0,1,30.431,8.353,140.288,140.288,0,0,1,10.091,15.913,98.629,98.629,0,0,0-15.9-10.685A91.31,91.31,0,0,0,3166.928,532.675Zm-6.537-7.15c-15.071-15.456-33.694-27.95-55.533-37.2-25.659-10.859-55.1-16.366-87.506-16.366-39.017,0-73.642,7.422-102.914,22.058-29.295,14.647-52.133,35.969-67.882,63.375-15.745,27.387-23.729,59.792-23.729,96.315s8.463,68.935,25.154,96.325,40.646,48.724,71.2,63.368c30.525,14.634,66.582,22.054,107.167,22.054,36.8,0,70.065-6.3,98.866-18.733a189.972,189.972,0,0,0,18.9-9.439c5.749.538,11.652.824,17.723.824q7.427,0,14.613-.614a193.273,193.273,0,0,1-35.232,19.681c-30.514,13.171-65.769,19.848-104.784,19.848-43.028,0-81.241-7.861-113.579-23.365-32.32-15.492-57.66-38.044-75.316-67.027s-26.612-63.28-26.612-101.953,8.448-72.983,25.109-101.965,40.807-51.527,71.792-67.02c31-15.5,67.688-23.361,109.038-23.361,34.34,0,65.53,5.832,92.7,17.332,27.15,11.494,49.619,27.71,66.78,48.2,1.51,1.8,2.954,3.653,4.367,5.523A109.025,109.025,0,0,0,3160.391,525.525Zm26.724,1.7c-17.265-20.61-39.859-36.92-67.156-48.476s-58.619-17.411-93.094-17.411c-41.507,0-78.343,7.895-109.485,23.467-31.164,15.582-55.46,38.264-72.212,67.416-16.749,29.135-25.242,63.608-25.242,102.463s9,73.336,26.759,102.472c17.757,29.153,43.24,51.832,75.738,67.411,32.473,15.568,70.832,23.462,114.01,23.462,39.152,0,74.541-6.706,105.18-19.93a193.714,193.714,0,0,0,36.841-20.78,150.7,150.7,0,0,0,39.862-9.244c-16.816,16.731-37.131,30.306-60.7,40.477-32.352,13.964-69.73,21.044-111.1,21.044-45.621,0-86.136-8.335-120.421-24.774s-61.14-40.339-79.858-71.069-28.219-67.1-28.219-108.1,8.958-77.381,26.625-108.111,43.267-54.635,76.123-71.062,71.766-24.769,115.609-24.769c36.408,0,69.478,6.182,98.29,18.376,28.787,12.188,52.609,29.381,70.806,51.105a150.2,150.2,0,0,1,25.723,44.471,103.344,103.344,0,0,0-33.584-28.958c-1.633-.878-3.313-1.7-5.026-2.484C3190.837,531.836,3189.021,529.5,3187.115,527.221ZM3180,806.16q5.682-4.2,10.953-8.795a137.023,137.023,0,0,0,24.861-9.012,129.786,129.786,0,0,0,22.032-13.339c-.738,1.039-1.466,2.084-2.228,3.109a177.266,177.266,0,0,1-15.531,18.186A148.592,148.592,0,0,1,3180,806.16Zm56.421-27.441c1.409-1.9,2.764-3.823,4.09-5.766a123.313,123.313,0,0,0,22.759-23.658c12.179-16.622,20.065-36.517,23.444-59.142l5.648.67a193.8,193.8,0,0,1-17.227,63.984,128.585,128.585,0,0,1-47.2,38.048c-1.831.876-3.69,1.7-5.563,2.493A178.286,178.286,0,0,0,3236.42,778.719Zm56.928-87.779,7.49.888c-3.355,22.5-11.042,42.356-22.846,59.088A195.946,195.946,0,0,0,3293.348,690.94Zm-143.669-17.583c-2.268,15.062-7.523,28.308-15.629,39.372a83.422,83.422,0,0,1-31.683,26.075c-12.846,6.142-27.291,9.258-42.935,9.258a119.366,119.366,0,0,1-15.887-1.032q-1.265-2.045-2.462-4.154c2.651.18,5.35.281,8.107.281a94.35,94.35,0,0,0,41.051-8.856,79.926,79.926,0,0,0,30.348-24.978c7.757-10.587,12.791-23.248,14.966-37.64Zm-107.42,73.492c-.932-.137-1.859-.282-2.777-.441q-1.261-1.91-2.462-3.877,1.422.148,2.866.265Q3041.041,744.852,3042.259,746.849Zm-4.146-.7q-1.343-.252-2.663-.538-1.25-1.764-2.442-3.583,1.363.2,2.75.356Q3036.905,744.3,3038.113,746.153Zm-4.12-.856c-.849-.2-1.688-.41-2.524-.629q-1.234-1.62-2.416-3.293,1.3.24,2.617.449Q3032.8,743.587,3033.993,745.3Zm-4.121-1.064c-.785-.22-1.567-.445-2.34-.685q-1.2-1.461-2.354-2.972c.814.187,1.63.368,2.456.534Q3028.73,742.694,3029.872,744.233Zm-4.109-1.257c-.718-.239-1.428-.49-2.135-.745q-1.14-1.284-2.24-2.608c.74.2,1.489.394,2.241.58Q3024.676,741.61,3025.763,742.976Zm-5.506-4.719q-1.215-1.52-2.375-3.093,1.267.267,2.558.5,1.113,1.666,2.279,3.281Q3021.477,738.616,3020.257,738.257Zm-1.653-.5c-.752-.238-1.5-.48-2.239-.736q-1.174-1.352-2.3-2.748,1.172.3,2.361.575Q3017.49,736.322,3018.6,737.755Zm-5.562-4.785q-1.237-1.593-2.415-3.245,1.289.243,2.6.449c.75,1.167,1.525,2.31,2.315,3.439Q3014.28,733.308,3013.042,732.97Zm-3.254-4.418c-.846-1.223-1.661-2.476-2.458-3.746q1.407.165,2.838.288,1.144,2.015,2.359,3.96Q3011.144,728.823,3009.788,728.552Zm-6.147-10.13c-.848-1.594-1.662-3.215-2.428-4.87,1.074-.044,2.136-.118,3.193-.206.728,1.757,1.511,3.476,2.323,5.173C3005.691,718.5,3004.66,718.473,3003.641,718.422Zm-2.876-5.859c-6.76-15.031-10.189-32.5-10.189-52.07,0-22.2,3.789-41.961,11.263-58.722a96,96,0,0,1,5.289-10.178c1.061.353,2.095.738,3.1,1.163q-1.824,3.381-3.436,6.972c-7.861,17.635-11.848,38.406-11.848,61.734,0,18.92,3.057,35.981,9.08,50.911C3002.944,712.458,3001.86,712.524,3000.765,712.563Zm6.892-121.849q1.489-2.429,3.108-4.724,1.562.276,3.065.627-1.631,2.556-3.117,5.258C3009.724,591.452,3008.7,591.068,3007.657,590.714Zm3.742-5.621q1.422-1.967,2.94-3.831c1,.072,1.993.155,2.965.267-1,1.363-1.961,2.772-2.9,4.2Q3012.934,585.375,3011.4,585.093Zm3.72-4.774c.923-1.1,1.863-2.19,2.838-3.239.114,0,.227-.006.342-.006.837,0,1.649.037,2.469.06q-1.419,1.7-2.764,3.478Q3016.582,580.436,3015.119,580.319Zm3.794-4.23q1.343-1.4,2.748-2.731,1.29-.1,2.6-.16c-.911.965-1.807,1.946-2.676,2.956C3020.7,576.121,3019.813,576.095,3018.913,576.089Zm3.915-3.825q1.259-1.147,2.567-2.239,1.167-.174,2.348-.315-1.26,1.194-2.473,2.439Q3024.041,572.188,3022.828,572.264Zm6.564-2.739q1.269-.123,2.552-.205-1.347,1.38-2.638,2.822c-.481-.007-.947-.035-1.433-.035-.4,0-.794.013-1.191.019Q3028.009,570.8,3029.392,569.525Zm1.246-1.105q1.245-1.1,2.533-2.15c.738-.12,1.482-.225,2.227-.326q-1.234,1.137-2.425,2.321Q3031.8,568.327,3030.638,568.42Zm7.806-3.84c.8-.688,1.62-1.358,2.447-2.018q1.095-.194,2.2-.36-1.2,1.077-2.361,2.195C3039.966,564.45,3039.2,564.507,3038.444,564.58Zm6.451-2.639c.8-.1,1.6-.189,2.4-.27q-1.29,1.243-2.533,2.537c-.835.02-1.666.055-2.493.1Q3043.561,563.1,3044.9,561.941Zm1.364-1.16c.784-.655,1.576-1.3,2.383-1.932.713-.135,1.425-.271,2.146-.389-.788.69-1.569,1.388-2.333,2.1Q3047.351,560.658,3046.259,560.781Zm6.352-2.588q1.172-.167,2.355-.3c-.842.792-1.674,1.594-2.489,2.415-.806.035-1.61.075-2.408.13C3050.9,559.674,3051.75,558.924,3052.611,558.193Zm4.014-.491c.83-.081,1.667-.146,2.506-.206q-1.322,1.334-2.6,2.711c-.864,0-1.722.017-2.578.04Q3055.266,558.951,3056.625,557.7Zm1.25-1.109q1.239-1.1,2.512-2.153c.75-.117,1.5-.232,2.257-.331-.822.755-1.624,1.529-2.422,2.31C3059.436,556.466,3058.655,556.528,3057.875,556.593Zm4.013-3.384c.75-.6,1.516-1.178,2.284-1.755q.97-.2,1.95-.389c-.735.617-1.456,1.25-2.173,1.887C3063.26,553.032,3062.572,553.115,3061.888,553.209Zm6.259-2.511a104.317,104.317,0,0,1,17.172-1.392,109.119,109.119,0,0,1,21.727,2.064c.948,1.053,1.881,2.118,2.789,3.2,1.446,1.727,2.824,3.5,4.152,5.306-10.758-5.043-23.6-7.606-38.242-7.606q-5.126,0-10.07.486C3066.487,552.057,3067.313,551.374,3068.147,550.7Zm42.455,3.232c-.629-.751-1.275-1.487-1.922-2.222a75.945,75.945,0,0,1,19.569,7.131,79.859,79.859,0,0,1,14.8,10.294,125.522,125.522,0,0,1,11.963,36.286,103.384,103.384,0,0,0-9.434-17.886,78.88,78.88,0,0,0-28.339-26.032c-.445-.24-.9-.466-1.355-.7Q3113.385,557.274,3110.6,553.93Zm18.122,4.028a77.71,77.71,0,0,0-21.16-7.5q-2.251-2.487-4.64-4.861a95.01,95.01,0,0,1,29.1,6.134,114.974,114.974,0,0,1,9.76,15.011A80.888,80.888,0,0,0,3128.724,557.958Zm-26.912-13.434q-1.578-1.523-3.217-2.994c1.942-.1,3.9-.158,5.873-.158a122.276,122.276,0,0,1,20.125,1.592c1.5,1.612,2.961,3.249,4.37,4.932.634.757,1.246,1.53,1.86,2.3A98.059,98.059,0,0,0,3101.812,544.524Zm27.917,2.729c-1.139-1.361-2.318-2.69-3.514-4.005a84.766,84.766,0,0,1,25,8.505,87.408,87.408,0,0,1,7.8,4.759,127.258,127.258,0,0,1,12.011,26.15,86.105,86.105,0,0,0-30.821-28.247,74.023,74.023,0,0,0-7.556-3.516C3131.7,549.668,3130.731,548.449,3129.729,547.253Zm21.959,3.619a86.537,86.537,0,0,0-26.589-8.834q-2.13-2.283-4.372-4.474a108.939,108.939,0,0,1,28.364,4.892,123.485,123.485,0,0,1,8.667,12.019C3155.788,553.2,3153.768,551.993,3151.688,550.872Zm-.824-7.813a80.758,80.758,0,0,1,11.831,5.151,90.813,90.813,0,0,1,24.958,19.813,148.15,148.15,0,0,1,9.91,35.143l-1.8.419a119.629,119.629,0,0,0-11.831-23.092,90.754,90.754,0,0,0-24.169-24.68A124.358,124.358,0,0,0,3150.864,543.059Zm12.3,4.27a82.505,82.505,0,0,0-13.49-5.737c-.276-.337-.541-.682-.821-1.016-1.62-1.935-3.3-3.817-5.032-5.665a93.612,93.612,0,0,1,30.352,9.756c.39.21.771.432,1.158.648a132.818,132.818,0,0,1,11.087,19.882A91.654,91.654,0,0,0,3163.169,547.329Zm14.086-.92a96.29,96.29,0,0,1,31.415,29.945,120.736,120.736,0,0,1,7.97,13.95q1.158,5.223,2,10.621l-9.263,2.157a125.073,125.073,0,0,0-12.663-24.936,99.309,99.309,0,0,0-8.2-10.659A134.431,134.431,0,0,0,3177.255,546.409ZM3209.5,575.8a97.106,97.106,0,0,0-33.48-31.247q-3.7-5.439-7.931-10.524a89.474,89.474,0,0,1,17.568,7.1,97.527,97.527,0,0,1,17.645,12.182,149.354,149.354,0,0,1,12.356,32.867A119.124,119.124,0,0,0,3209.5,575.8Zm-4.162-20.68a103.326,103.326,0,0,1,16.114,18.888,133.243,133.243,0,0,1,13.225,25.853l-11.7,2.724q-2.464-6.6-5.405-12.633A152.255,152.255,0,0,0,3205.34,555.119Zm16.946,18.333a103.691,103.691,0,0,0-18.172-20.764,141.579,141.579,0,0,0-10.308-16.8c1.128.545,2.244,1.1,3.336,1.692a102.781,102.781,0,0,1,35.23,31.368,171.214,171.214,0,0,1,7.353,29.736l-4.06.945A134.256,134.256,0,0,0,3222.286,573.452Zm18.116,26.1.452-.106-.071-.457a173.878,173.878,0,0,0-6.311-26.969,138.839,138.839,0,0,1,13.826,27.335l-11.714,2.728c-.185-.505-.369-1.011-.559-1.512ZM3235.07,571.1q-.882-1.321-1.8-2.608a151.563,151.563,0,0,0-27.032-47.953c-18.3-21.845-42.249-39.133-71.182-51.383s-62.138-18.455-98.681-18.455c-44,0-83.047,8.369-116.057,24.874-33.035,16.517-58.787,40.559-76.542,71.459-17.755,30.882-26.758,67.424-26.758,108.609s9.543,77.736,28.366,108.621,45.83,54.939,80.279,71.452c34.421,16.5,75.082,24.871,120.853,24.871,41.5,0,79.016-7.108,111.5-21.126,24.444-10.551,45.427-24.735,62.641-42.307q3.914-1.587,7.712-3.4a129.872,129.872,0,0,0,44.814-34.877,182.12,182.12,0,0,1-16.727,27.176c-20.534,27.63-48.268,49.115-82.434,63.861-34.19,14.758-73.693,22.24-117.411,22.24-48.212,0-91.03-8.808-127.266-26.18-36.22-17.363-64.616-42.634-84.4-75.113s-29.823-70.914-29.823-114.248,9.467-81.782,28.139-114.258,45.728-57.744,80.452-75.105c34.74-17.37,75.848-26.177,122.181-26.177,38.477,0,73.427,6.534,103.877,19.421,30.424,12.881,55.6,31.053,74.833,54.011,19.12,22.835,31.3,50.4,36.2,81.934l-11.529,2.686A139.79,139.79,0,0,0,3235.07,571.1Zm26.413,26.208.452-.106-.071-.457c-4.884-31.909-17.162-59.795-36.494-82.882s-44.637-41.347-75.209-54.291-65.655-19.5-104.267-19.5c-46.491,0-87.748,8.842-122.628,26.282-34.9,17.452-62.113,42.854-80.872,75.5-18.76,32.629-28.272,71.239-28.272,114.756s10.083,82.134,29.97,114.768,48.424,58.047,84.821,75.495c36.372,17.436,79.336,26.278,127.7,26.278,43.855,0,83.492-7.511,117.808-22.322s62.2-36.41,82.84-64.184a182.812,182.812,0,0,0,18.729-31.317c.519-.678,1.042-1.353,1.548-2.043,12.621-17.224,20.793-37.842,24.293-61.291l13.31,1.578c-3.667,37.765-16.392,71.543-37.844,100.411-21.639,29.116-50.866,51.759-86.87,67.3-36.03,15.552-77.657,23.437-123.725,23.437-50.8,0-95.924-9.283-134.109-27.589s-68.1-44.93-88.943-79.156-31.427-74.729-31.427-120.4,9.976-86.183,29.652-120.4,48.19-60.852,84.782-79.148c36.609-18.3,79.927-27.585,128.752-27.585,40.547,0,77.376,6.885,109.464,20.466,32.063,13.574,58.595,32.724,78.86,56.918,20.155,24.071,32.991,53.129,38.156,86.371l-31.7,7.384c-.183-.507-.372-1.009-.559-1.513Zm-126.919,74.2c-2.149,14.239-7.117,26.762-14.782,37.221A78.92,78.92,0,0,1,3089.81,733.4a93.367,93.367,0,0,1-40.62,8.759c-2.964,0-5.862-.113-8.7-.323-.146-.262-.3-.517-.445-.781q-1.033-1.883-2-3.813c.3,0,.6.012.908.012a89.05,89.05,0,0,0,38.735-8.356,75.417,75.417,0,0,0,28.636-23.57c7.315-9.982,12.064-21.921,14.117-35.491Zm-95.4,70.023c.039.071.08.139.119.209q-1.476-.125-2.928-.287-1.172-1.968-2.285-3.99c-.06-.109-.114-.222-.174-.332q1.5.066,3.021.093Q3038.008,739.406,3039.167,741.533Zm-5.971-3.588c.621,1.134,1.261,2.248,1.91,3.354q-1.434-.179-2.844-.4c-.84-1.316-1.651-2.66-2.446-4.019q1.452.118,2.928.2C3032.9,737.369,3033.041,737.662,3033.2,737.945Zm-2.231,2.758q-1.383-.231-2.741-.5c-.84-1.224-1.653-2.474-2.451-3.739q1.4.171,2.826.3Q3029.751,738.765,3030.965,740.7Zm-4.133-.789q-1.317-.279-2.613-.594c-.829-1.12-1.633-2.263-2.422-3.422q1.341.222,2.7.407Q3025.638,738.138,3026.832,739.914Zm-7.163-5.413q-1.34-.256-2.655-.55-1.257-1.754-2.449-3.569,1.364.193,2.75.349C3018.076,732.01,3018.865,733.263,3019.669,734.5Zm-8.892-10.358c-.194-.346-.4-.683-.588-1.032-.644-1.174-1.262-2.368-1.863-3.575,1.053,0,2.092-.04,3.13-.079q1.111,2.475,2.331,4.871C3012.775,724.28,3011.77,724.221,3010.777,724.143Zm-2.548-5.6c-.129,0-.255,0-.384-.005-.836-1.726-1.639-3.478-2.387-5.268,1.1-.108,2.191-.249,3.274-.405.714,1.905,1.487,3.768,2.292,5.608C3010.095,718.5,3009.169,718.538,3008.229,718.538Zm-3.165-6.245c-6.053-14.879-9.123-31.917-9.123-50.831,0-23.188,3.957-43.821,11.762-61.327q1.608-3.606,3.447-6.985c.776.353,1.54.721,2.279,1.119.27.145.528.309.8.46q-.809,1.659-1.57,3.364c-8.193,18.378-12.347,40.024-12.347,64.338,0,18.217,2.72,34.78,8.082,49.466C3007.29,712.052,3006.184,712.188,3005.064,712.293Zm8.839-118.905c-.735-.4-1.5-.761-2.268-1.114q1.536-2.772,3.219-5.395,1.579.406,3.087.9-1.718,2.941-3.264,6.054C3014.417,593.69,3014.167,593.53,3013.9,593.388Zm1.528-7.394q1.457-2.211,3.017-4.316c1.028.136,2.039.291,3.032.472-1.045,1.542-2.042,3.133-3.01,4.753Q3016.984,586.407,3015.431,585.994Zm3.718-5.232c.938-1.226,1.9-2.429,2.892-3.6.99.043,1.957.118,2.921.2q-1.469,1.9-2.853,3.892Q3020.652,580.976,3019.149,580.762Zm3.733-4.562q1.374-1.567,2.82-3.059c.721-.019,1.443-.034,2.171-.034.189,0,.37.013.558.014-.936,1.075-1.854,2.169-2.744,3.292C3024.76,576.331,3023.832,576.251,3022.882,576.2Zm6.862-3.047c.965.019,1.934.032,2.878.082q-1.448,1.791-2.821,3.657c-.959-.139-1.919-.277-2.905-.38C3027.819,575.364,3028.772,574.248,3029.744,573.153Zm.874-.979c.911-1,1.836-1.976,2.788-2.928q1.343-.063,2.7-.085-1.384,1.531-2.707,3.13C3032.486,572.235,3031.554,572.2,3030.618,572.174Zm6.851-3.033c.949,0,1.885.018,2.816.044q-1.421,1.691-2.77,3.453c-.949-.1-1.919-.181-2.891-.254C3035.551,571.281,3036.5,570.2,3037.469,569.141Zm.936-.989q1.351-1.423,2.762-2.787,1.295-.084,2.6-.129-1.365,1.461-2.678,2.979Q3039.762,568.165,3038.405,568.152Zm6.792-2.951c.607-.012,1.213-.028,1.824-.028.31,0,.613.008.92.011q-1.4,1.605-2.738,3.271c-.928-.076-1.863-.142-2.812-.19Q3043.763,566.7,3045.2,565.2Zm1.824-1.028c-.283,0-.562.01-.844.013q1.33-1.354,2.712-2.655,1.281-.106,2.575-.178-1.344,1.393-2.639,2.842C3048.226,564.185,3047.628,564.173,3047.021,564.173Zm5.9-2.888q1.343-.052,2.7-.064-1.38,1.533-2.706,3.125-1.374-.079-2.775-.122Q3051.5,562.725,3052.921,561.285Zm7.723-3.885c1.824-.1,3.664-.161,5.526-.161,15.24,0,28.4,2.922,39.115,8.686a73.3,73.3,0,0,1,22.164,18.4,120.636,120.636,0,0,1,6.868,25.567L3129.562,611a95.815,95.815,0,0,0-9.548-18.768,71.628,71.628,0,0,0-25.737-23.641c-10.032-5.4-22.271-8.2-36.386-8.365Q3059.242,558.784,3060.644,557.4Zm45.116,7.644c-10.864-5.843-24.183-8.8-39.59-8.8-1.489,0-2.962.044-4.428.108q1.3-1.24,2.633-2.436a101.737,101.737,0,0,1,11.37-.639c15.254,0,28.516,2.8,39.464,8.309a107.346,107.346,0,0,1,11.005,19.741A74.064,74.064,0,0,0,3105.76,565.044Zm11.366-2.462a77.9,77.9,0,0,1,27.623,25.506,103.774,103.774,0,0,1,10.13,19.68l-11.707,2.727a101.186,101.186,0,0,0-10.375-20.614q-2.115-3.169-4.467-6.063A108.914,108.914,0,0,0,3117.126,562.582Zm39.108,45.9.294-.069-.07-.457a128.208,128.208,0,0,0-11.332-36.934,84.707,84.707,0,0,1,12.407,14.721,109.211,109.211,0,0,1,10.967,21.525l-11.706,2.727C3156.608,609.487,3156.424,608.98,3156.234,608.48Zm2.131-23.293a85.141,85.141,0,0,0-14.5-16.672,116.13,116.13,0,0,0-10.027-16.036c2.029.864,4,1.8,5.9,2.817a85.114,85.114,0,0,1,30.586,28.1c.626.939,1.235,1.9,1.837,2.872a144.257,144.257,0,0,1,4.325,19.14l-6.993,1.629A110.3,110.3,0,0,0,3158.365,585.187Zm18.793,21.089.451-.1-.07-.457a146.866,146.866,0,0,0-3.393-16.082,119.914,119.914,0,0,1,7.961,17.134l-11.711,2.728c-.183-.508-.373-1.009-.56-1.512Zm-4.089-20.427a129.335,129.335,0,0,0-12.047-27.927,90.078,90.078,0,0,1,22.08,23.126,118.513,118.513,0,0,1,11.677,22.766l-11.692,2.724A118.255,118.255,0,0,0,3173.069,585.849Zm22.08,18.906c.19.5.372,1.008.558,1.512L3183.984,609q-.27-.762-.546-1.515Zm.98-.228,2.111-.492.451-.1-.07-.457a150.516,150.516,0,0,0-8.853-32.981,99.253,99.253,0,0,1,6.118,8.209,123.917,123.917,0,0,1,12.512,24.61l-11.709,2.728C3196.5,605.534,3196.319,605.027,3196.129,604.527Zm12.621-.271q.282.753.556,1.514l-11.738,2.734c-.176-.507-.349-1.017-.529-1.52Zm.981-.228,9.59-2.234.451-.106-.07-.457c-.363-2.374-.79-4.714-1.245-7.038q1.881,4.18,3.546,8.62l-11.713,2.728C3210.107,605.033,3209.918,604.531,3209.731,604.028Zm12.62-.269c.185.5.375,1,.555,1.512l-11.754,2.738c-.174-.508-.348-1.016-.525-1.52Zm.982-.229,11.713-2.729c.19.5.371,1.009.557,1.513l-11.72,2.73C3223.7,604.535,3223.517,604.033,3223.333,603.53Zm12.617-.27q.273.756.539,1.518l-11.753,2.737c-.172-.51-.349-1.014-.525-1.521Zm.984-.229,11.712-2.728q.281.753.556,1.513l-11.735,2.734C3237.29,604.043,3237.115,603.534,3236.934,603.031Zm12.616-.269c.178.5.347,1.015.522,1.521l-11.758,2.739c-.169-.511-.345-1.015-.519-1.522Zm.976-.227,32.038-7.463.452-.105-.071-.457c-5.145-33.617-18.081-63-38.447-87.32s-47.027-43.561-79.236-57.2-69.173-20.545-109.855-20.545c-48.981,0-92.45,9.316-129.2,27.691-36.77,18.384-65.437,45.147-85.2,79.544-19.764,34.376-29.785,75.053-29.785,120.9s10.623,86.534,31.574,120.915,51.016,61.154,89.364,79.538c38.32,18.371,83.587,27.687,134.541,27.687,46.205,0,87.965-7.913,124.121-23.519s65.532-38.361,87.277-67.621c21.557-29.009,34.34-62.952,38.027-100.89l21.8,2.585c-3.839,39.732-17.219,75.272-39.787,105.643-22.742,30.6-53.463,54.4-91.307,70.736-37.868,16.345-81.619,24.632-130.038,24.632-53.4,0-100.82-9.756-140.953-29-40.118-19.231-71.57-47.222-93.484-83.2s-33.034-78.546-33.034-126.543S2819.8,567.974,2840.485,532s50.652-63.961,89.114-83.19,84-28.994,135.322-28.994c42.617,0,81.326,7.238,115.051,21.511,33.7,14.266,61.586,34.394,82.888,59.825,21.189,25.306,34.681,55.856,40.109,90.807l-51.919,12.093C3250.876,603.548,3250.7,603.038,3250.526,602.535Zm53.12-9.7.452-.1-.071-.458c-5.408-35.326-19-66.2-40.4-91.755s-49.42-45.776-83.265-60.1-72.689-21.59-115.441-21.59c-51.475,0-97.154,9.79-135.77,29.1-38.64,19.319-68.763,47.442-89.533,83.587-20.768,36.124-31.3,78.87-31.3,127.05s11.163,90.933,33.18,127.062c22.016,36.145,53.61,64.265,93.906,83.58,40.268,19.306,87.837,29.095,141.385,29.095,48.556,0,92.44-8.314,130.435-24.714s68.864-40.312,91.713-71.058c22.674-30.513,36.118-66.213,39.978-106.121l21.792,2.584c-4.012,41.7-18.049,79-41.733,110.874-23.849,32.09-56.062,57.046-95.744,74.173-39.709,17.139-85.584,25.828-136.352,25.828-55.991,0-105.717-10.229-147.8-30.4s-75.047-49.515-98.026-87.24-34.638-82.36-34.638-132.689,11-94.979,32.681-132.7,53.111-67.068,93.443-87.234,88.085-30.4,141.894-30.4c44.686,0,85.275,7.589,120.637,22.556,35.335,14.959,64.577,36.065,86.916,62.732,22.224,26.542,36.373,58.585,42.062,95.243l-72.167,16.809c-.166-.509-.334-1.019-.505-1.524Zm-184.2,76.831c-2.028,13.418-6.711,25.217-13.933,35.072a74.426,74.426,0,0,1-28.262,23.259,88.03,88.03,0,0,1-38.3,8.259c-.469,0-.931-.013-1.4-.018q-1.239-2.514-2.369-5.109a81.663,81.663,0,0,0,29.943-7.635,70.909,70.909,0,0,0,26.926-22.161c6.874-9.38,11.337-20.595,13.27-33.342Zm-83.011,66.557q-1.549-.033-3.074-.108-1.256-2.358-2.411-4.791,1.6-.038,3.171-.127Q3035.232,733.742,3036.437,736.219Zm-4.238-.174q-1.507-.09-2.988-.222c-.37-.649-.748-1.289-1.108-1.947-.462-.841-.9-1.7-1.341-2.554.647.012,1.294.026,1.948.026.382,0,.76-.01,1.14-.015Q3030.977,733.725,3032.2,736.045Zm-4.973-1.689c.249.457.514.9.769,1.351q-1.46-.147-2.893-.335-1.269-2.064-2.466-4.2,1.482.084,2.986.128C3026.146,732.328,3026.674,733.351,3027.226,734.356Zm-5.176-4.224c-.842-1.54-1.637-3.113-2.41-4.7,1.058-.014,2.111-.041,3.155-.091.737,1.671,1.5,3.323,2.307,4.944Q3023.561,730.228,3022.05,730.132Zm-1.17-.078q-1.492-.113-2.96-.266c-.6-1.017-1.188-2.045-1.759-3.089-.235-.429-.454-.87-.684-1.3.989.028,1.985.046,2.992.046h.068C3019.287,727,3020.064,728.542,3020.88,730.054Zm-5.94-5.681c-.837-1.621-1.644-3.265-2.405-4.944,1.081-.055,2.147-.15,3.211-.246q1.095,2.67,2.309,5.254Q3016.483,724.431,3014.94,724.373Zm-2.836-5.932c-.828-1.874-1.619-3.775-2.353-5.717,1.128-.179,2.24-.392,3.344-.624.7,2.074,1.466,4.105,2.266,6.11C3014.282,718.3,3013.2,718.39,3012.1,718.441Zm-2.7-6.677c-5.373-14.627-8.1-31.147-8.1-49.333,0-24.173,4.125-45.683,12.261-63.931q.739-1.656,1.524-3.267c1.058.631,2.1,1.29,3.094,2-8.3,18.953-12.514,41.2-12.514,66.163,0,17.429,2.393,33.4,7.114,47.742C3011.669,711.374,3010.544,711.586,3009.4,711.764Zm6.14-117.425q1.6-3.208,3.374-6.239c1.058.374,2.092.776,3.093,1.218q-1.809,3.391-3.418,6.981C3017.607,595.6,3016.585,594.957,3015.543,594.339Zm3.9-7.118c1-1.661,2.029-3.289,3.109-4.867q1.566.313,3.072.706c-1.09,1.745-2.127,3.543-3.128,5.377Q3021.014,587.78,3019.446,587.221Zm3.742-5.763q1.438-2.051,2.965-4.008c1.016.1,2.008.228,2.995.365q-1.522,2.13-2.951,4.359C3025.211,581.913,3024.211,581.67,3023.188,581.458Zm7.082-3.5c1.035.161,2.043.357,3.045.561q-1.582,2.39-3.056,4.888c-.993-.35-2-.679-3.038-.975Q3028.694,580.146,3030.27,577.961Zm.66-.911c.942-1.272,1.918-2.508,2.914-3.723,1,.067,2,.127,2.969.228-.995,1.327-1.969,2.676-2.908,4.062C3032.926,577.411,3031.94,577.214,3030.93,577.05Zm7.029-3.345c1.02.121,2.041.239,3.032.4-1.029,1.475-2.037,2.972-3,4.512q-1.485-.422-3.025-.773C3035.929,576.429,3036.934,575.056,3037.959,573.705Zm.7-.917c.939-1.209,1.9-2.4,2.885-3.556.983.041,1.959.093,2.92.164q-1.46,1.864-2.839,3.81C3040.655,573.043,3039.659,572.914,3038.66,572.788Zm6.986-3.29q1.514.133,2.989.315c-1,1.371-1.968,2.778-2.914,4.206-.986-.227-2-.42-3.015-.607C3043.662,572.083,3044.637,570.772,3045.646,569.5Zm.766-.935q1.395-1.717,2.857-3.363c.962.021,1.916.052,2.859.1q-1.434,1.761-2.8,3.59C3048.366,568.763,3047.393,568.657,3046.412,568.563Zm6.951-3.187c11.086.7,20.808,3.251,28.958,7.635a67,67,0,0,1,24.076,22.118,90.843,90.843,0,0,1,9.506,19.049l-11.727,2.732a88.188,88.188,0,0,0-9.731-19.989,64.368,64.368,0,0,0-23.132-21.248,63.081,63.081,0,0,0-20.855-6.619Q3051.874,567.176,3053.363,565.376Zm53.866,29.2A68,68,0,0,0,3082.8,572.13c-8.1-4.356-17.714-6.936-28.646-7.707q1.383-1.637,2.823-3.212c14.336.048,26.728,2.822,36.83,8.257a70.658,70.658,0,0,1,25.379,23.314,94.746,94.746,0,0,1,9.4,18.443l-11.69,2.723A91.935,91.935,0,0,0,3107.229,594.574Zm21.709,17.6c.19.505.39,1,.574,1.508l-11.76,2.74c-.172-.506-.331-1.025-.509-1.524Zm.985-.23,5.073-1.181.451-.106-.07-.457a123.038,123.038,0,0,0-5.835-23.186q1.247,1.673,2.423,3.427a100.172,100.172,0,0,1,10.223,20.289l-11.687,2.722C3130.317,612.934,3130.113,612.446,3129.923,611.939Zm12.624-.271c.185.5.377,1,.557,1.513l-11.775,2.743c-.17-.508-.335-1.022-.51-1.524Zm.987-.23,11.716-2.729c.191.5.376,1.007.562,1.512l-11.735,2.734Q3143.81,612.191,3143.534,611.438Zm12.626-.27c.18.5.355,1.01.53,1.518l-11.786,2.745q-.25-.765-.508-1.523Zm.984-.23,11.712-2.728q.281.753.556,1.513l-11.743,2.735C3157.5,611.951,3157.323,611.44,3157.144,610.938Zm12.607-.267c.177.5.35,1.012.522,1.521l-11.779,2.743c-.164-.51-.327-1.022-.5-1.526Zm.977-.228,11.727-2.731c.185.5.372,1,.552,1.514l-11.754,2.737C3171.081,611.453,3170.905,610.948,3170.728,610.443Zm12.6-.266c.175.506.352,1.01.522,1.521l-11.791,2.747q-.243-.768-.492-1.529Zm.979-.228,11.743-2.735c.181.5.358,1.01.535,1.518l-11.756,2.738C3184.664,610.959,3184.487,610.455,3184.312,609.949Zm12.6-.266c.172.506.345,1.012.512,1.523l-11.794,2.747c-.161-.513-.327-1.019-.492-1.527Zm.98-.228,11.754-2.738c.178.5.348,1.013.521,1.521l-11.767,2.741Q3198.154,610.213,3197.9,609.455Zm12.6-.266c.169.5.333,1.016.5,1.527l-11.8,2.748c-.159-.514-.324-1.021-.487-1.53Zm.982-.229,11.753-2.738q.264.758.522,1.522l-11.782,2.744C3211.809,609.979,3211.648,609.465,3211.48,608.96Zm12.6-.264c.167.505.326,1.019.488,1.528l-11.809,2.751q-.234-.77-.475-1.532Zm.975-.227,11.764-2.74c.174.507.351,1.009.521,1.52L3225.543,610C3225.381,609.486,3225.218,608.975,3225.052,608.469Zm12.594-.265c.165.507.327,1.018.488,1.529l-11.819,2.753c-.154-.512-.306-1.027-.464-1.534Zm.976-.227,11.776-2.743c.171.507.343,1.013.511,1.524l-11.8,2.747C3238.952,608.993,3238.787,608.485,3238.622,607.977Zm12.592-.264c.163.509.328,1.017.488,1.53L3239.874,612c-.153-.512-.3-1.028-.459-1.536Zm.976-.227,72.538-16.9.451-.106-.071-.457c-5.669-37.033-19.918-69.4-42.352-96.191s-51.812-47.99-87.293-63.011-76.207-22.635-121.028-22.635c-53.966,0-101.856,10.264-142.341,30.507-40.511,20.255-72.091,49.738-93.864,87.63-21.773,37.873-32.813,82.688-32.813,133.2s11.7,95.332,34.784,133.208c23.081,37.893,56.2,67.373,98.448,87.623,42.216,20.241,92.087,30.5,148.229,30.5,50.9,0,96.913-8.717,136.749-25.91s72.194-42.261,96.149-74.495c23.79-32.014,37.888-69.476,41.922-111.353l21.792,2.584c-4.187,43.675-18.879,82.735-43.677,116.107-24.955,33.577-58.66,59.689-100.18,77.61-41.549,17.932-89.549,27.025-142.666,27.025-58.583,0-110.612-10.7-154.64-31.814S2863.8,838.8,2839.758,799.329s-36.242-86.175-36.242-138.836,11.5-99.379,34.194-138.847,55.574-70.176,97.773-91.275c42.214-21.107,92.165-31.809,148.465-31.809,46.756,0,89.224,7.94,126.225,23.6,36.972,15.651,67.569,37.735,90.943,65.639,23.258,27.778,38.066,61.314,44.015,99.679l-92.449,21.534C3252.522,608.5,3252.354,608,3252.19,607.486Zm93.619-19.136.451-.106-.071-.457c-5.929-38.741-20.836-72.6-44.3-100.628s-54.2-50.2-91.321-65.918-79.725-23.679-126.615-23.679c-56.457,0-106.558,10.737-148.912,31.914-42.379,21.19-75.416,52.032-98.193,91.672-22.778,39.622-34.327,86.5-34.327,139.345s12.243,99.734,36.388,139.356c24.145,39.639,58.8,70.48,102.992,91.666,44.164,21.174,96.337,31.911,155.071,31.911,53.254,0,101.387-9.12,143.062-27.107s75.526-44.212,100.586-77.932c24.9-33.513,39.657-72.735,43.865-116.585l21.793,2.584c-4.362,45.643-19.708,86.466-45.622,121.339-26.058,35.064-61.256,62.332-104.615,81.046-43.388,18.726-93.512,28.221-148.979,28.221-61.174,0-115.5-11.177-161.485-33.221s-82-54.107-107.111-95.326-37.847-89.992-37.847-144.983,12.014-103.779,35.708-144.994,58.036-73.284,102.1-95.318c44.084-22.042,96.245-33.217,155.036-33.217,48.825,0,93.173,8.291,131.811,24.644,38.611,16.346,70.564,39.408,94.971,68.547,24.293,29.013,39.757,64.04,45.968,104.115l-112.781,26.27c-.151-.513-.3-1.026-.458-1.535Zm-241.476,79.466c-1.907,12.593-6.307,23.669-13.087,32.921a69.9,69.9,0,0,1-26.551,21.851,80.79,80.79,0,0,1-29.936,7.562c-.819-1.911-1.607-3.845-2.343-5.816a74.307,74.307,0,0,0,20.154-6.249,66.409,66.409,0,0,0,25.215-20.753,69.847,69.847,0,0,0,12.422-31.191Zm-70.636,62.4c-1.066.055-2.141.088-3.221.108q-1.236-2.661-2.355-5.408,1.659-.182,3.29-.428Q3032.491,727.4,3033.7,730.218Zm-4.324.121c-.221,0-.441.009-.663.009-.832,0-1.656-.014-2.477-.033-.831-1.65-1.615-3.335-2.374-5.038q1.628-.1,3.229-.252C3027.816,726.821,3028.572,728.6,3029.373,730.339Zm-5.939-6.037c-.824-1.9-1.619-3.814-2.354-5.775,1.128-.182,2.243-.394,3.35-.625.707,2.087,1.475,4.132,2.275,6.154Q3025.082,724.209,3023.434,724.3Zm-1.069.051q-1.59.069-3.2.081c-.83-1.751-1.628-3.524-2.375-5.334,1.106-.115,2.195-.268,3.282-.429C3020.789,720.6,3021.561,722.487,3022.365,724.353Zm-5.96-6.223c-.825-2.049-1.607-4.128-2.327-6.252q1.724-.388,3.409-.862c.689,2.271,1.441,4.5,2.24,6.692C3018.627,717.868,3017.524,718.017,3016.405,718.13Zm-2.639-7.205c-4.709-14.263-7.094-30.165-7.094-47.526,0-24.723,4.155-46.761,12.335-65.539,1.057.793,2.083,1.626,3.068,2.513-7.319,18.63-11.038,40.118-11.038,64a161.166,161.166,0,0,0,6.167,45.688Q3015.507,710.537,3013.766,710.925Zm5.646-114.013.021-.048q1.633-3.663,3.484-7.117c.673.316,1.348.631,1.994.979.371.2.725.422,1.089.631q-.829,1.711-1.616,3.464c-.669,1.5-1.3,3.026-1.923,4.565Q3020.99,598.081,3019.412,596.912Zm5.973-7.067c-.643-.346-1.314-.658-1.983-.974,1.036-1.9,2.11-3.752,3.242-5.552q1.582.443,3.093.972-1.727,3-3.289,6.17C3026.092,590.258,3025.746,590.04,3025.385,589.845Zm5.832-6.086q1.521-2.577,3.16-5.034c1.048.232,2.065.5,3.074.783q-1.655,2.7-3.181,5.519Q3032.782,584.346,3031.217,583.759Zm7.229-3.965c1.054.315,2.092.648,3.1,1.018q-1.74,3.062-3.328,6.273c-.451-.26-.892-.535-1.352-.783-.551-.3-1.13-.559-1.7-.834Q3036.738,582.561,3038.446,579.794Zm.538-.876c.992-1.575,2.028-3.1,3.087-4.609,1.036.183,2.069.369,3.072.595-1.067,1.643-2.11,3.311-3.1,5.028C3041.044,579.564,3040.021,579.233,3038.984,578.918Zm7.184-3.753a55.119,55.119,0,0,1,13.188,4.932,59.752,59.752,0,0,1,21.473,19.725,83.411,83.411,0,0,1,9.62,20.285l-11.79,2.746a80.676,80.676,0,0,0-9.782-21.239,57.14,57.14,0,0,0-20.527-18.855,49.213,49.213,0,0,0-5.371-2.447C3044,578.554,3045.07,576.845,3046.168,575.165Zm35.493,24.1a60.741,60.741,0,0,0-21.83-20.052,55.959,55.959,0,0,0-13.086-4.935c.979-1.467,1.98-2.912,3.017-4.318a62.383,62.383,0,0,1,21.077,6.591,63.366,63.366,0,0,1,22.774,20.922,87.05,87.05,0,0,1,9.589,19.66l-11.773,2.743A84.424,84.424,0,0,0,3081.661,599.268Zm21.857,18.822q.256.757.5,1.525l-11.809,2.751c-.154-.513-.3-1.029-.465-1.534Zm.977-.227,11.767-2.741c.178.5.342,1.016.514,1.522L3105,619.386C3104.839,618.873,3104.666,618.369,3104.5,617.863Zm12.6-.265c.168.508.342,1.01.5,1.525l-11.831,2.756c-.151-.511-.288-1.035-.445-1.539Zm.979-.228,11.775-2.743c.175.5.335,1.018.505,1.525l-11.771,2.742C3118.417,618.378,3118.239,617.879,3118.071,617.37Zm12.595-.264c.166.511.344,1.008.5,1.524l-11.852,2.761c-.149-.512-.29-1.033-.444-1.538Zm.981-.229,11.773-2.742c.172.5.337,1.015.5,1.525l-11.773,2.742C3131.99,617.885,3131.813,617.388,3131.647,616.877Zm12.593-.264c.163.511.337,1.011.5,1.527l-11.862,2.763c-.148-.513-.291-1.031-.445-1.538Zm.983-.229,11.793-2.747q.255.759.5,1.526l-11.813,2.752C3145.547,617.4,3145.385,616.893,3145.223,616.384Zm12.6-.265q.24.762.472,1.533l-11.868,2.764q-.219-.773-.444-1.539Zm.98-.228,11.795-2.748c.167.505.326,1.019.488,1.529l-11.816,2.753C3159.115,616.912,3158.961,616.4,3158.8,615.891Zm12.589-.262c.157.507.308,1.022.461,1.535L3160,619.925q-.218-.774-.441-1.54Zm.977-.228,11.8-2.748q.248.76.488,1.529l-11.826,2.754C3172.675,616.424,3172.525,615.908,3172.368,615.4Zm12.586-.262c.155.508.3,1.023.455,1.537l-11.861,2.762c-.144-.514-.285-1.032-.433-1.542Zm.973-.227,11.807-2.75c.163.509.329,1.015.488,1.529l-11.836,2.757Q3186.16,615.677,3185.927,614.912Zm12.584-.261q.231.763.455,1.536l-11.868,2.764c-.142-.514-.282-1.032-.428-1.542Zm.974-.227,11.817-2.752c.161.509.323,1.016.48,1.53l-11.838,2.757C3199.794,615.444,3199.639,614.935,3199.485,614.424Zm12.582-.262c.153.512.307,1.021.456,1.537l-11.876,2.766c-.141-.516-.282-1.032-.427-1.543Zm.976-.227,11.828-2.755q.238.764.47,1.533l-11.839,2.758C3213.354,614.954,3213.2,614.447,3213.043,613.935Zm12.582-.261c.152.512.308,1.02.456,1.536l-11.884,2.769q-.21-.776-.427-1.544Zm.977-.228,11.837-2.757c.157.508.306,1.024.459,1.536l-11.845,2.759C3226.906,614.468,3226.753,613.958,3226.6,613.446Zm12.581-.26c.15.512.3,1.022.448,1.538l-11.883,2.768c-.14-.518-.285-1.03-.428-1.543Zm.977-.228L3252,610.2c.155.509.3,1.024.455,1.537L3240.6,614.5Q3240.384,613.724,3240.16,612.958Zm12.58-.261q.222.768.44,1.541l-11.883,2.767c-.138-.518-.284-1.028-.427-1.543Zm.978-.227,113.172-26.362.451-.1-.07-.457c-6.192-40.45-21.756-75.8-46.26-105.065s-56.59-52.417-95.347-68.825-83.242-24.723-132.2-24.723c-58.947,0-111.26,11.211-155.483,33.322-44.248,22.124-78.741,54.327-102.524,95.715-23.782,41.368-35.841,90.318-35.841,145.492s12.782,104.132,37.993,145.5c25.21,41.388,61.389,73.589,107.534,95.709,46.115,22.108,100.591,33.318,161.916,33.318,55.605,0,105.862-9.522,149.376-28.3s78.856-46.161,105.021-81.369c26.02-35.014,41.427-76,45.809-121.817l21.792,2.584c-4.534,47.617-20.534,90.2-47.565,126.572-27.165,36.552-63.855,64.977-109.052,84.484-45.225,19.518-97.473,29.416-155.292,29.416-63.767,0-120.4-11.651-168.329-34.629s-85.482-56.4-111.652-99.368-39.453-93.809-39.453-151.131,12.523-108.179,37.224-151.141,60.495-76.392,106.433-99.361S3041.693,377.3,3102.977,377.3c50.893,0,97.121,8.643,137.4,25.689,40.247,17.04,73.555,41.08,99,71.454C3364.7,504.7,3380.821,541.218,3387.293,583l-133.14,31.012C3254.008,613.5,3253.866,612.98,3253.718,612.47Zm134.253-28.6.451-.1-.07-.457c-6.453-42.158-22.673-79-48.212-109.5s-58.981-54.631-99.374-71.733S3154,376.3,3102.977,376.3c-61.441,0-115.963,11.685-162.055,34.731-46.117,23.058-82.068,56.621-106.854,99.757-24.788,43.115-37.356,94.134-37.356,151.639s13.323,108.53,39.6,151.65c26.272,43.135,63.979,76.7,112.074,99.751,48.062,23.043,104.842,34.727,168.76,34.727,57.957,0,110.337-9.925,155.689-29.5s82.186-48.111,109.458-84.806c27.136-36.517,43.2-79.261,47.752-127.05l21.793,2.584c-4.709,49.587-21.363,93.928-49.509,131.8-28.27,38.039-66.453,67.62-113.487,87.92-47.066,20.313-101.438,30.613-161.608,30.613-66.359,0-125.3-12.125-175.171-36.038s-88.959-58.7-116.2-103.41-41.057-97.624-41.057-157.279,13.033-112.578,38.737-157.287c25.689-44.71,62.956-79.5,110.764-103.4s104.405-36.033,168.178-36.033c52.962,0,101.07,8.994,142.986,26.734,41.883,17.732,76.546,42.751,103.024,74.361,26.363,31.485,43.142,69.5,49.874,112.988l-153.527,35.761c-.138-.519-.285-1.028-.427-1.543Zm-298.761,82.1a68.883,68.883,0,0,1-12.231,30.772,65.427,65.427,0,0,1-24.84,20.443,73.346,73.346,0,0,1-20.063,6.2q-1.224-3.357-2.291-6.823a67.489,67.489,0,0,0,10.228-3.875,61.908,61.908,0,0,0,23.5-19.345,65.125,65.125,0,0,0,11.575-29.041Zm-58.141,57.561c-1.1.163-2.209.308-3.328.427-.82-2.058-1.6-4.142-2.325-6.269,1.148-.257,2.289-.528,3.413-.838Q3029.87,720.243,3031.069,723.529Zm-5.968-6.794q-1.223-3.688-2.253-7.511,1.784-.681,3.514-1.466.984,4.137,2.169,8.135C3027.4,716.2,3026.255,716.478,3025.1,716.735Zm-.983.208c-1.117.232-2.239.45-3.378.631q-1.232-3.367-2.3-6.852,1.755-.527,3.463-1.147Q3022.92,713.323,3024.118,716.943Zm-5.958-7.179a160.185,160.185,0,0,1-6.123-45.395c0-23.6,3.648-44.836,10.826-63.263q1.577,1.489,3.022,3.142c-6.291,18.069-9.483,38.554-9.483,61.09a170.358,170.358,0,0,0,5.244,43.267Q3019.927,709.233,3018.16,709.764Zm5.1-109.669c.655-1.642,1.327-3.269,2.039-4.866q.762-1.707,1.572-3.368c1.054.634,2.09,1.293,3.088,2q-1.994,4.54-3.691,9.316C3025.3,602.1,3024.306,601.068,3023.259,600.095Zm7.928-6.555q1.652-3.694,3.5-7.193c.57.276,1.15.539,1.7.836.471.254.922.535,1.384.8-.568,1.176-1.126,2.361-1.664,3.566q-.975,2.188-1.88,4.433Q3032.756,594.7,3031.187,593.54Zm5.84-1.581c.524-1.173,1.067-2.326,1.619-3.47a52.721,52.721,0,0,1,16.615,16.028,75.992,75.992,0,0,1,9.591,21.552l-11.892,2.77a73.314,73.314,0,0,0-9.651-22.53,51.6,51.6,0,0,0-8.273-9.632C3035.677,595.086,3036.336,593.509,3037.027,591.959Zm19.066,12a53.72,53.72,0,0,0-17.007-16.374q1.617-3.281,3.4-6.4a48.326,48.326,0,0,1,5.394,2.451,56.132,56.132,0,0,1,20.17,18.529,79.588,79.588,0,0,1,9.646,20.91l-11.861,2.763A77.011,77.011,0,0,0,3056.093,603.962Zm21.872,20.08c.151.509.3,1.024.44,1.54l-11.9,2.773c-.131-.517-.255-1.041-.393-1.551Zm.973-.227,11.827-2.754c.161.508.322,1.016.477,1.531l-11.858,2.762C3079.24,624.836,3079.089,624.326,3078.938,623.815Zm12.579-.26c.149.511.3,1.022.44,1.54l-11.912,2.775c-.13-.516-.248-1.044-.384-1.553Zm.974-.227,11.847-2.76c.158.506.3,1.025.455,1.537l-11.856,2.762C3092.794,624.348,3092.64,623.841,3092.491,623.328Zm12.577-.26c.147.513.3,1.021.44,1.54l-11.922,2.777c-.129-.516-.248-1.043-.383-1.553Zm.976-.227,11.862-2.763c.154.505.29,1.029.439,1.54l-11.856,2.761C3106.348,623.859,3106.191,623.355,3106.044,622.841Zm12.576-.26c.146.514.3,1.02.439,1.54l-11.931,2.779c-.129-.517-.25-1.042-.384-1.553Zm.977-.228,11.861-2.762c.153.506.292,1.027.439,1.54l-11.855,2.761C3119.9,623.371,3119.743,622.869,3119.6,622.353Zm12.575-.259c.144.516.3,1.019.439,1.54l-11.942,2.782c-.127-.518-.25-1.042-.383-1.554Zm.979-.228,11.859-2.762c.151.508.293,1.026.439,1.54l-11.859,2.762C3133.451,622.885,3133.295,622.382,3133.151,621.866Zm12.573-.259c.143.517.3,1.018.44,1.54l-11.952,2.784c-.128-.518-.25-1.041-.383-1.553Zm.98-.228,11.875-2.766c.15.511.3,1.022.445,1.538l-11.892,2.77C3147,622.4,3146.846,621.894,3146.7,621.379Zm12.586-.262c.14.514.283,1.026.419,1.545l-11.955,2.785c-.127-.519-.251-1.041-.382-1.554Zm.975-.227,11.872-2.766q.222.766.437,1.541l-11.893,2.771C3160.545,621.917,3160.406,621.4,3160.265,620.89Zm12.574-.259c.139.513.279,1.027.414,1.545l-11.933,2.78c-.127-.521-.259-1.036-.391-1.551Zm.976-.228,11.879-2.767c.146.51.286,1.028.429,1.543l-11.9,2.771C3174.09,621.432,3173.955,620.916,3173.815,620.4Zm12.572-.259q.208.77.409,1.547l-11.935,2.78c-.126-.52-.257-1.036-.388-1.552Zm.978-.228,11.883-2.768c.145.511.283,1.029.424,1.544l-11.9,2.773C3187.635,620.947,3187.5,620.429,3187.365,619.916Zm12.572-.259c.137.514.27,1.031.4,1.549l-11.937,2.781c-.126-.521-.256-1.037-.385-1.553Zm.978-.227,11.881-2.768c.145.512.284,1.028.424,1.544l-11.907,2.773C3201.181,620.463,3201.052,619.942,3200.915,619.43Zm12.57-.259c.136.513.266,1.033.4,1.55l-11.939,2.781q-.189-.78-.382-1.553Zm.976-.227,11.886-2.768q.215.768.423,1.543l-11.912,2.775C3214.726,619.977,3214.6,619.457,3214.461,618.944Zm12.574-.259c.135.512.262,1.034.393,1.551l-11.943,2.782q-.187-.78-.379-1.554Zm.971-.226,11.89-2.77c.142.514.285,1.027.423,1.544l-11.916,2.776C3228.271,619.492,3228.141,618.972,3228.006,618.459Zm12.573-.259c.135.513.262,1.034.393,1.551l-11.944,2.782c-.125-.519-.249-1.039-.377-1.555Zm.972-.226,11.894-2.771c.141.514.285,1.026.423,1.544l-11.921,2.777C3241.816,619.006,3241.685,618.488,3241.551,617.974Zm12.572-.259c.134.513.262,1.033.392,1.55l-11.946,2.783c-.124-.519-.247-1.04-.374-1.555Zm.971-.227,153.958-35.861.451-.106-.07-.457c-6.714-43.865-23.592-82.2-50.165-113.937s-61.371-56.844-103.4-74.639-90.279-26.813-143.376-26.813c-63.93,0-120.665,12.159-168.626,36.139-47.987,23.994-85.394,58.916-111.183,103.8-25.792,44.862-38.87,97.949-38.87,157.785s13.863,112.932,41.2,157.8c27.338,44.884,66.573,79.8,116.617,103.793,50.011,23.978,109.092,36.136,175.6,36.136,60.307,0,114.813-10.327,162-30.695s85.517-50.06,113.894-88.243c28.251-38.016,44.966-82.52,49.7-132.282l21.793,2.585c-4.882,51.556-22.191,97.658-51.452,137.035-29.376,39.526-69.051,70.263-117.925,91.358-48.9,21.106-105.4,31.808-167.92,31.808-68.95,0-130.189-12.6-182.015-37.445s-92.435-60.989-120.738-107.453-42.662-101.441-42.662-163.425,13.542-116.977,40.251-163.435,65.419-82.609,115.094-107.446,108.482-37.442,174.75-37.442c55.032,0,105.019,9.346,148.572,27.779,43.523,18.426,79.54,44.423,107.053,77.267,27.4,32.721,44.832,72.225,51.827,117.425l-173.965,40.521C3255.36,618.52,3255.229,618,3255.094,617.488Zm175.04-38.1.451-.106-.07-.457c-6.977-45.573-24.512-85.4-52.119-118.373s-63.76-59.057-107.429-77.546-93.8-27.858-148.963-27.858c-66.424,0-125.368,12.633-175.2,37.547-49.855,24.927-88.719,61.21-115.514,107.843-26.8,46.611-40.384,101.766-40.384,163.933s14.4,117.329,42.809,163.944c28.4,46.633,69.168,82.915,121.159,107.836,51.962,24.912,113.346,37.543,182.447,37.543,62.657,0,119.287-10.729,168.317-31.89s88.849-52.01,118.331-91.68c29.366-39.519,46.735-85.783,51.639-137.514l21.792,2.584c-5.056,53.528-23.019,101.389-53.4,142.268-30.481,41.013-71.649,72.906-122.361,94.794-50.743,21.9-109.364,33.006-174.234,33.006-71.542,0-135.083-13.072-188.858-38.854s-95.914-63.285-125.281-111.5-44.267-105.257-44.267-169.572,14.052-121.377,41.765-169.582,67.881-85.717,119.425-111.489,112.563-38.85,181.321-38.85c57.1,0,108.967,9.7,154.159,28.824,45.159,19.119,82.532,46.093,111.08,80.175,28.431,33.958,46.524,74.955,53.78,121.86L3256.11,621.564c-.124-.519-.244-1.041-.371-1.556ZM3027.456,707.274a57.384,57.384,0,0,0,21.793-17.936,60.364,60.364,0,0,0,10.727-26.892l14.119,1.675a64.142,64.142,0,0,1-11.385,28.622,60.89,60.89,0,0,1-23.129,19.034,66.329,66.329,0,0,1-10.093,3.823q-1.211-4.048-2.2-8.253C3027.345,707.322,3027.4,707.3,3027.456,707.274Zm-1.335-.5q-1.739.8-3.532,1.482a169.4,169.4,0,0,1-5.187-42.916c0-22.193,3.1-42.384,9.231-60.211a48.678,48.678,0,0,1,2.98,3.97c-5.207,17.2-7.845,36.355-7.845,57.21A179.86,179.86,0,0,0,3026.121,706.772Zm13.924-74.924a69.812,69.812,0,0,0-9.343-22.911q1.772-5.792,3.946-11.269a50.708,50.708,0,0,1,7.829,9.195,72.27,72.27,0,0,1,9.513,22.2Zm13.541-.485c-.12-.526-.258-1.034-.385-1.552l11.926-2.778q.209.766.4,1.548Zm13.541-.484c-.12-.527-.258-1.034-.385-1.553l11.938-2.781c.137.511.263,1.033.393,1.551Zm13.542-.485c-.12-.527-.258-1.033-.384-1.553l11.946-2.782c.135.509.254,1.036.383,1.552Zm13.541-.485c-.12-.526-.258-1.033-.384-1.553l11.952-2.784c.134.51.249,1.039.377,1.555Zm13.541-.484c-.119-.527-.258-1.033-.383-1.553l11.951-2.784c.133.51.25,1.038.377,1.554Zm13.541-.485c-.119-.526-.258-1.032-.383-1.553l11.951-2.784c.132.512.25,1.038.378,1.555Zm13.542-.484c-.119-.527-.259-1.032-.383-1.553l11.951-2.784c.131.512.251,1.037.378,1.555Zm13.542-.485c-.119-.527-.259-1.032-.383-1.553l11.962-2.786c.131.516.265,1.029.392,1.55Zm13.541-.485c-.118-.523-.245-1.038-.367-1.557l11.948-2.783c.131.517.266,1.03.393,1.551Zm13.541-.484c-.118-.523-.245-1.038-.367-1.557l11.951-2.784c.13.517.263,1.031.39,1.552Zm13.541-.484c-.118-.524-.245-1.038-.367-1.558l11.953-2.784c.13.517.262,1.031.388,1.553Zm13.541-.485c-.118-.523-.245-1.038-.367-1.557l11.956-2.785c.129.517.259,1.032.384,1.553Zm13.541-.484c-.118-.524-.245-1.038-.367-1.557l11.96-2.786c.128.517.257,1.033.382,1.554Zm13.542-.486c-.118-.523-.245-1.037-.366-1.556l11.961-2.786q.19.774.379,1.553Zm13.541-.484c-.118-.523-.245-1.037-.366-1.557l11.963-2.787q.19.776.377,1.555Zm221.683,240.815c-31.586,42.5-74.246,75.549-126.8,98.231-52.581,22.694-113.326,34.2-180.548,34.2-74.136,0-139.98-13.546-195.7-40.262s-99.391-65.579-129.822-115.538S2786.1,732.953,2786.1,666.307s14.562-125.777,43.28-175.729,70.341-88.825,123.755-115.532,116.641-40.257,187.891-40.257c59.171,0,112.917,10.049,159.746,29.868,46.8,19.811,85.524,47.764,115.108,83.081,29.467,35.193,48.216,77.682,55.733,126.3l-214.913,50.06c-.118-.524-.245-1.038-.366-1.558l194.876-45.391.451-.106-.07-.457c-7.237-47.28-25.429-88.6-54.073-122.809s-66.149-61.273-111.456-80.454-97.314-28.9-154.549-28.9c-68.915,0-130.071,13.107-181.768,38.956-51.723,25.861-92.045,63.5-119.845,111.885-27.8,48.358-41.9,105.582-41.9,170.08s14.943,121.728,44.414,170.092c29.468,48.38,71.76,86.021,125.7,111.879,53.91,25.845,117.6,38.951,189.29,38.951,65.008,0,123.762-11.133,174.631-33.088s92.18-53.96,122.767-95.116c30.481-41.02,48.5-89.045,53.581-142.747l21.794,2.585C3514.955,773.39,3496.337,823.016,3464.847,865.394Z" transform="translate(-2785.105 -333.789)" fill="#a5fcff"/>
</svg>
