<svg id="D" xmlns="http://www.w3.org/2000/svg" width="680.643" height="625.161" viewBox="0 0 680.643 625.161">
  <path id="Path_19170" data-name="Path 19170" d="M3824.279,2004.025a256.363,256.363,0,0,0-69.048-98.478c-30.544-26.938-68.159-47.425-111.8-60.892s-94.5-20.288-151.2-20.288H3166.648v625.161h325.584c76,0,141.112-12.265,193.527-36.455,52.441-24.209,92.911-60,120.285-106.394s41.247-103.5,41.247-169.732C3847.291,2087.133,3839.549,2042.411,3824.279,2004.025Zm-19.1,302.146c-27.269,46.211-67.59,81.872-119.844,105.994-52.282,24.129-117.253,36.363-193.107,36.363H3167.648V1825.367h324.584c56.606,0,107.377,6.811,150.906,20.243,43.5,13.426,80.994,33.843,111.431,60.687a255.413,255.413,0,0,1,68.782,98.1c15.221,38.268,22.94,82.865,22.94,132.552C3846.291,2203,3832.46,2259.937,3805.183,2306.171Z" transform="translate(-3166.648 -1824.367)" fill="#a5fcff"/>
  <path id="Path_19171" data-name="Path 19171" d="M3821.734,2006.79a247.437,247.437,0,0,0-66.64-95.046c-29.48-26-65.783-45.77-107.9-58.767-42.1-12.993-91.2-19.581-145.923-19.581H3187.041v603.359H3501.27c73.347,0,136.187-11.838,186.773-35.184,50.613-23.365,89.672-57.913,116.092-102.684s39.808-99.888,39.808-163.812C3843.943,2087,3836.471,2043.837,3821.734,2006.79Zm-18.461,291.589c-26.314,44.593-65.224,79.006-115.65,102.284-50.452,23.285-113.151,35.092-186.353,35.092H3188.041V1834.4H3501.27c54.626,0,103.623,6.573,145.628,19.536,41.982,12.955,78.162,32.659,107.534,58.562a246.485,246.485,0,0,1,66.374,94.665c14.689,36.929,22.137,79.966,22.137,127.916C3842.943,2198.817,3829.6,2253.761,3803.273,2298.379Z" transform="translate(-3166.648 -1824.367)" fill="#a5fcff"/>
  <path id="Path_19172" data-name="Path 19172" d="M3819.188,2009.554a238.5,238.5,0,0,0-64.233-91.612c-28.414-25.059-63.405-44.117-104-56.645-40.579-12.523-87.9-18.872-140.647-18.872H3207.434V2423.98h302.873c70.7,0,131.264-11.409,180.021-33.911,48.784-22.521,86.433-55.821,111.9-98.975s38.371-96.278,38.371-157.892C3840.6,2086.863,3833.394,2045.263,3819.188,2009.554Zm-17.825,281.032c-25.359,42.976-62.857,76.141-111.455,98.575-48.624,22.441-109.051,33.819-179.6,33.819H3208.434V1843.425h301.873c52.647,0,99.869,6.335,140.352,18.828,40.459,12.485,75.327,31.475,103.634,56.439a237.529,237.529,0,0,1,63.967,91.232c14.157,35.59,21.336,77.066,21.336,123.278C3839.6,2194.636,3826.732,2247.587,3801.363,2290.586Z" transform="translate(-3166.648 -1824.367)" fill="#a5fcff"/>
  <path id="Path_19173" data-name="Path 19173" d="M3816.644,2012.318a229.562,229.562,0,0,0-61.827-88.178c-27.349-24.12-61.029-42.464-100.1-54.522-39.057-12.053-84.6-18.164-135.371-18.164H3227.827v559.753h291.517c68.043,0,126.339-10.981,173.268-32.64,46.955-21.675,83.192-53.727,107.7-95.265s36.932-92.668,36.932-151.972C3837.247,2086.729,3830.315,2046.688,3816.644,2012.318Zm-17.19,270.476c-24.406,41.359-60.494,73.276-107.262,94.865-46.8,21.6-104.951,32.548-172.848,32.548H3228.827V1852.454h290.517c50.669,0,96.115,6.1,135.076,18.119,38.937,12.017,72.493,30.291,99.735,54.317a228.554,228.554,0,0,1,61.559,87.8c13.625,34.251,20.533,74.168,20.533,118.642C3836.247,2190.453,3823.868,2241.412,3799.454,2282.794Z" transform="translate(-3166.648 -1824.367)" fill="#a5fcff"/>
  <path id="Path_19174" data-name="Path 19174" d="M3814.1,2015.083a220.618,220.618,0,0,0-59.419-84.745c-26.284-23.181-58.652-40.811-96.2-52.4s-81.305-17.457-130.095-17.457H3248.22v537.952h280.161c65.39,0,121.414-10.554,166.516-31.369,45.126-20.832,79.953-51.636,103.509-91.556s35.493-89.059,35.493-146.051C3833.9,2086.595,3827.237,2048.113,3814.1,2015.083ZM3797.545,2275c-23.451,39.741-58.128,70.411-103.067,91.156-44.97,20.754-100.853,31.277-166.1,31.277H3249.22V1861.482h279.161c48.689,0,92.36,5.859,129.8,17.413,37.415,11.546,69.659,29.107,95.836,52.193a219.655,219.655,0,0,1,59.152,84.364c13.092,32.912,19.73,71.27,19.73,114.006C3832.9,2186.27,3821,2235.237,3797.545,2275Z" transform="translate(-3166.648 -1824.367)" fill="#a5fcff"/>
  <path id="Path_19175" data-name="Path 19175" d="M3811.553,2017.847a211.687,211.687,0,0,0-57.012-81.312c-50.428-44.473-123.478-67.023-217.122-67.023H3268.612v516.147h268.807c62.739,0,116.491-10.126,159.763-30.1,43.3-19.989,76.713-49.544,99.314-87.846s34.056-85.449,34.056-140.132C3830.552,2086.46,3824.16,2049.538,3811.553,2017.847Zm-15.918,249.362c-22.5,38.123-55.762,67.545-98.873,87.446-43.139,19.909-96.749,30-159.343,30H3269.612V1870.512h267.807c93.394,0,166.222,22.466,216.46,66.773a210.718,210.718,0,0,1,56.745,80.932c12.56,31.573,18.928,68.37,18.928,109.368C3829.552,2182.087,3818.141,2229.063,3795.635,2267.209Z" transform="translate(-3166.648 -1824.367)" fill="#a5fcff"/>
  <path id="Path_19176" data-name="Path 19176" d="M3809.008,2020.611a202.739,202.739,0,0,0-54.6-77.879c-48.3-42.594-118.26-64.191-207.947-64.191h-257.45v494.345h257.45c60.085,0,111.565-9.7,153.01-28.824,41.471-19.144,73.473-47.453,95.121-84.138s32.616-81.839,32.616-134.211C3827.2,2086.325,3821.081,2050.964,3809.008,2020.611Zm-15.282,238.805c-21.542,36.507-53.4,64.681-94.68,83.737-41.312,19.066-92.65,28.733-152.59,28.733h-256.45V1879.541h256.45c89.436,0,159.177,21.513,207.285,63.941a201.748,201.748,0,0,1,54.337,77.5c12.027,30.235,18.125,65.472,18.125,104.733C3826.2,2177.9,3815.276,2222.889,3793.726,2259.416Z" transform="translate(-3166.648 -1824.367)" fill="#a5fcff"/>
  <path id="Path_19177" data-name="Path 19177" d="M3754.265,1948.931c-46.167-40.717-113.043-61.362-198.772-61.362H3309.4v472.543h246.095c57.433,0,106.641-9.27,146.258-27.552,39.642-18.3,70.233-45.36,90.927-80.428s31.177-78.231,31.177-128.291C3823.855,2048.522,3800.441,1989.674,3754.265,1948.931Zm37.551,302.693c-20.587,34.89-51.031,61.814-90.485,80.027-39.484,18.222-88.551,27.461-145.838,27.461H3310.4V1888.569h245.095c85.478,0,152.132,20.561,198.11,61.112,45.947,40.545,69.252,99.145,69.252,174.16C3822.855,2173.721,3812.412,2216.713,3791.816,2251.624Z" transform="translate(-3166.648 -1824.367)" fill="#a5fcff"/>
  <path id="Path_19178" data-name="Path 19178" d="M3754.127,1955.128c-44.037-38.837-107.826-58.529-189.6-58.529H3329.791v450.739H3564.53c54.783,0,101.719-8.842,139.5-26.28,37.814-17.456,67-43.268,86.734-76.718s29.739-74.619,29.739-122.371C3820.508,2050.127,3798.174,1993.993,3754.127,1955.128Zm35.78,288.7c-19.634,33.272-48.666,58.948-86.292,76.317-37.653,17.378-84.448,26.189-139.085,26.189H3330.791V1897.6H3564.53c81.52,0,145.087,19.608,188.935,58.279,43.817,38.667,66.043,94.553,66.043,166.091C3819.508,2169.539,3809.549,2210.54,3789.907,2243.832Z" transform="translate(-3166.648 -1824.367)" fill="#a5fcff"/>
  <path id="Path_19179" data-name="Path 19179" d="M3753.989,1961.325c-41.906-36.958-102.609-55.7-180.422-55.7H3350.184v428.936h223.383c52.131,0,96.8-8.414,132.752-25.008,35.985-16.613,63.755-41.176,82.539-73.009s28.3-71.01,28.3-116.451C3817.16,2051.729,3795.906,1998.312,3753.989,1961.325ZM3788,2236.039c-18.679,31.654-46.3,56.083-82.1,72.608-35.824,16.535-80.346,24.917-132.332,24.917H3351.184V1906.628h222.383c77.562,0,138.042,18.655,179.76,55.447,41.689,36.788,62.833,89.958,62.833,158.021C3816.16,2165.355,3806.685,2204.365,3788,2236.039Z" transform="translate(-3166.648 -1824.367)" fill="#a5fcff"/>
  <path id="Path_19180" data-name="Path 19180" d="M3753.851,1967.523c-39.777-35.08-97.392-52.867-171.247-52.867H3370.576v407.135H3582.6c49.478,0,91.871-7.986,126-23.737,34.156-15.769,60.515-39.084,78.345-69.3s26.864-67.4,26.864-110.531C3813.813,2053.333,3793.639,2002.63,3753.851,1967.523Zm32.237,260.724c-17.725,30.036-43.936,53.217-77.9,68.9-34,15.69-76.248,23.645-125.581,23.645H3371.576V1915.656H3582.6c73.6,0,131,17.7,170.584,52.617,39.559,34.909,59.625,85.363,59.625,149.951C3812.813,2161.172,3803.821,2198.189,3786.088,2228.247Z" transform="translate(-3166.648 -1824.367)" fill="#a5fcff"/>
  <path id="Path_19181" data-name="Path 19181" d="M3753.713,1973.721c-37.647-33.2-92.175-50.035-162.071-50.035H3390.97v385.332h200.672c46.824,0,86.944-7.559,119.247-22.466,32.327-14.923,57.275-36.99,74.151-65.59s25.424-63.791,25.424-104.61C3810.464,2054.936,3791.37,2006.947,3753.713,1973.721Zm30.466,246.733c-16.771,28.42-41.571,50.354-73.71,65.19-32.17,14.846-72.149,22.374-118.827,22.374H3391.97V1924.686h199.672c69.645,0,123.952,16.75,161.409,49.785,37.428,33.028,56.413,80.767,56.413,141.881C3809.464,2156.99,3800.957,2192.015,3784.179,2220.454Z" transform="translate(-3166.648 -1824.367)" fill="#a5fcff"/>
  <path id="Path_19182" data-name="Path 19182" d="M3753.575,1979.918c-35.514-31.321-86.956-47.2-152.9-47.2H3411.362v66.764h-16.721v274.937h16.721v21.827H3600.68c44.173,0,82.021-7.131,112.493-21.193,30.5-14.08,54.036-34.9,69.957-61.88s23.986-60.182,23.986-98.691C3807.116,2056.538,3789.1,2011.266,3753.575,1979.918Zm-357.934,293.5V2000.479h15.721v1.913h-4.293v265.367h4.293v5.657Zm37.114,1H3482.7a175.611,175.611,0,0,0,37.047-3.72h99.01c38.866,0,72.171-6.275,98.988-18.65,26.841-12.391,47.557-30.714,61.57-54.461s21.108-52.963,21.108-86.851c0-50.99-15.854-90.832-47.121-118.421-31.254-27.564-76.522-41.541-134.545-41.541H3452.148v48.707h-19.393v-56.736h176.962c61.73,0,109.862,14.845,143.057,44.123,33.17,29.269,50,71.577,50,125.74,0,36.018-7.54,67.059-22.41,92.263-14.86,25.185-36.838,44.621-65.321,57.771-28.512,13.158-63.946,19.83-105.321,19.83H3432.755Zm-20.393-271.024h19.393v1.912H3419.5v255.8h12.257v5.656h-19.393Zm-1,263.367h-3.293V2003.392h3.293Zm41.786,1h38.919c21.242,0,40.127-3.312,56.354-9.837h3.774a123,123,0,0,1-32.554,11.774h-66.493Zm97.677-10.837c3.336-1.431,6.567-2.99,9.666-4.7q3.282-1.812,6.377-3.828a105.738,105.738,0,0,1-12.862,8.53Zm-97.677-244.794h19.393v1.912h-15.756v227.092h15.756v5.657h-19.393Zm-1,234.661h-6.793V2012.128h6.793Zm216.339-185.868c10.452,11.14,15.752,27.268,15.752,47.94,0,13.888-2.343,25.755-6.964,35.272h0a50.257,50.257,0,0,1-8.336,12.259c-.263.2-.537.381-.8.573a56.829,56.829,0,0,0,4.669-7.918c5.029-10.359,7.579-23.249,7.579-38.313,0-22.46-5.783-40.011-17.19-52.168a52.562,52.562,0,0,0-11.447-9.169c.119.032.235.069.353.1A48.93,48.93,0,0,1,3668.487,2060.921Zm-9.908-9.211a45.47,45.47,0,0,1,15.933,10.882c9.678,10.314,14.586,25.252,14.586,44.4,0,12.864-2.17,23.855-6.451,32.667a46.084,46.084,0,0,1-9.392,13.037,52.65,52.65,0,0,0,4.919-8.123h0c4.687-9.654,7.064-21.668,7.064-35.709,0-20.934-5.39-37.294-16.023-48.625A49.013,49.013,0,0,0,3658.579,2051.71Zm-164.645,189.422h35.615c21.858,0,40.8-4.094,56.379-12.152-.471.63-.957,1.245-1.441,1.862-1.237.76-2.488,1.5-3.772,2.213a106.693,106.693,0,0,1-31.421,11.093h-55.36Zm162.5-183.552c12,12.789,18.083,31.3,18.083,55.026,0,15.936-2.689,29.556-7.994,40.48a60.048,60.048,0,0,1-4.32,7.482c-.675.346-1.343.7-2.042,1.017.658-1.168,1.293-2.359,1.889-3.585h0c5.712-11.766,8.608-26.408,8.608-43.521,0-25.514-6.567-45.45-19.52-59.253a59.4,59.4,0,0,0-8.7-7.6c.63.074,1.244.17,1.863.259A55.142,55.142,0,0,1,3656.439,2057.58Zm-9.513-9.258c.409.075.824.144,1.228.227a51.957,51.957,0,0,1,14.309,10.7c11.225,11.965,16.918,29.286,16.918,51.483,0,14.912-2.517,27.655-7.48,37.875a55.088,55.088,0,0,1-6.255,10.021c-.527.327-1.055.653-1.6.962a61.907,61.907,0,0,0,3.38-6.069h0c5.37-11.062,8.093-24.828,8.093-40.917,0-11.981-1.541-22.74-4.581-31.977a63.132,63.132,0,0,0-13.773-23.733A55.9,55.9,0,0,0,3646.926,2048.322Zm-6.122,132.961c-.371.252-.741.5-1.119.748q.585-.829,1.149-1.681c.435-.215.864-.436,1.291-.659C3641.694,2180.23,3641.25,2180.759,3640.8,2181.283Zm-6.189,5.629c-.34.234-.678.47-1.024.7.366-.509.734-1.017,1.088-1.537q.578-.3,1.145-.6Q3635.229,2186.2,3634.615,2186.912Zm-161.074-168.96h19.393v1.912h-11.291v207.954h11.291v5.657h-19.393Zm-1,215.523h-2.327V2017.952h2.327Zm96.709-212.328c.229.111.46.219.688.332-.194-.03-.4-.052-.59-.082-.213-.124-.422-.253-.636-.376C3568.893,2021.061,3569.07,2021.106,3569.25,2021.147Zm26.222,8.812c.1.046.2.095.306.142l-.09-.016c-.082-.046-.167-.088-.249-.134Zm7.538,2.656c.159.073.317.148.476.222-.08-.013-.162-.021-.242-.034l-.383-.223C3602.91,2032.593,3602.961,2032.6,3603.01,2032.615Zm7.538,2.657c.225.1.451.207.674.314-.162-.025-.327-.045-.49-.069-.179-.106-.351-.221-.532-.326C3610.316,2035.218,3610.433,2035.244,3610.548,2035.272Zm7.538,2.657c.289.136.585.265.871.405-.245-.035-.49-.07-.736-.1-.239-.145-.473-.295-.714-.438Zm7.538,2.656c.347.167.7.322,1.047.495-.322-.043-.637-.095-.962-.135q-.444-.277-.894-.549C3625.087,2040.456,3625.354,2040.523,3625.624,2040.585Zm7.538,2.657c.377.185.748.377,1.12.569-.337-.041-.68-.076-1.021-.113-.37-.239-.754-.462-1.13-.693C3632.48,2043.077,3632.817,2043.165,3633.162,2043.242Zm-4.744,149.3c-.3.209-.6.412-.9.615q.5-.678.979-1.37c.333-.177.672-.347,1-.529C3629.14,2191.692,3628.786,2192.126,3628.418,2192.546Zm-6.973,6.165c.291-.392.569-.8.854-1.2.1-.056.211-.108.314-.165.2-.113.4-.234.6-.349-.346.408-.693.815-1.047,1.216C3621.932,2198.385,3621.686,2198.545,3621.445,2198.711Zm-5.5,5.143c-.207.148-.416.293-.624.439.269-.358.534-.722.8-1.085.272-.153.54-.312.81-.467C3616.611,2203.116,3616.28,2203.485,3615.95,2203.854Zm-6.2,5.619c-.186.135-.367.277-.555.411.258-.337.522-.668.776-1.009.226-.13.453-.26.677-.391C3610.353,2208.819,3610.047,2209.143,3609.748,2209.473Zm-6.2,5.619c-.147.108-.292.219-.44.326.219-.283.441-.562.657-.848.179-.1.362-.205.539-.311C3604.052,2214.54,3603.8,2214.815,3603.545,2215.092Zm-6.2,5.617-.329.245q.266-.341.528-.683c.143-.085.288-.169.431-.255Q3597.662,2220.364,3597.345,2220.709Zm1.829-2.627c.385-.532.77-1.063,1.145-1.6.4-.207.794-.412,1.184-.625-.418.526-.847,1.041-1.276,1.557C3599.88,2217.638,3599.525,2217.858,3599.174,2218.082Zm-105.24-197.218h54.356c4.451,0,8.744.2,12.911.572q1.047.71,2.073,1.445-2.767-.1-5.614-.106h-63.589v198.386h63.589c13.558,0,25.833-1.8,36.684-5.367q-.877,1.62-1.8,3.2c-12.7,5.192-27.537,7.822-44.256,7.822h-54.356Zm-1,205.954h-10.291V2020.864h10.291ZM3655,2163.574c-.819.272-1.644.538-2.49.776,5.6-12.707,8.436-28.206,8.436-46.126,0-28.566-7.352-50.885-21.852-66.34a66.573,66.573,0,0,0-5.019-4.785c.808.013,1.613.029,2.405.063a61.912,61.912,0,0,1,7.91,7.077c13.546,14.439,20.415,35.336,20.415,62.113,0,17.984-3.036,33.356-9.025,45.687C3655.529,2162.558,3655.264,2163.065,3655,2163.574Zm-12.415,7.807c.585-1.4,1.147-2.83,1.673-4.293q1.377-.2,2.717-.442-.858,2.067-1.8,4.047C3644.325,2170.939,3643.46,2171.167,3642.586,2171.381Zm-3.515,5.251q-1.227.391-2.49.74c.583-1.324,1.132-2.682,1.663-4.058q1.347-.237,2.658-.519-.6,1.356-1.239,2.674C3639.472,2175.862,3639.268,2176.244,3639.071,2176.632Zm-6.1,5.9c-.806.278-1.62.544-2.448.795q.884-1.906,1.7-3.88,1.3-.268,2.563-.578c-.167.357-.327.723-.5,1.075C3633.865,2180.82,3633.424,2181.681,3632.974,2182.533Zm-5.155,8.485q-.927.487-1.876.95.813-1.348,1.584-2.738c.678-.253,1.347-.519,2.01-.791Q3628.7,2189.75,3627.819,2191.018Zm-12.591,11.553c-.483.267-.978.518-1.468.775.511-.807,1.006-1.631,1.495-2.459.622-.258,1.232-.53,1.842-.8q-.812,1.2-1.662,2.368C3615.365,2202.49,3615.3,2202.532,3615.228,2202.571Zm-6.9,6.1c-.229.127-.467.244-.7.369q.758-1.169,1.484-2.366c.589-.255,1.178-.51,1.757-.778q-.78,1.126-1.589,2.225C3608.959,2208.3,3608.647,2208.49,3608.325,2208.668Zm-5.362,3.789c.56-.252,1.113-.515,1.664-.779-.506.715-1.014,1.428-1.537,2.125-.529.309-1.055.621-1.594.919C3601.992,2213.974,3602.485,2213.223,3602.963,2212.457Zm.929-1.535q.822-1.373,1.608-2.78,1.028-.387,2.035-.8c-.566.9-1.151,1.786-1.743,2.663C3605.167,2210.321,3604.529,2210.621,3603.892,2210.922Zm-35.6-184.212q1.138.929,2.251,1.89h-51.609v179.248H3576.4a115.79,115.79,0,0,0,22.786-2.139q-.861,2.032-1.782,4a114.7,114.7,0,0,1-30.374,3.792H3507.5V2026.688h59.53C3567.455,2026.688,3567.865,2026.707,3568.287,2026.71Zm28.6,10.626h-2.774q-1-.972-2.021-1.912h2.594Q3595.8,2036.36,3596.884,2037.336Zm21.93,8.736h-3.046c-.261-.286-.505-.588-.77-.87-.337-.358-.7-.69-1.039-1.042h2.926C3617.544,2044.779,3618.176,2045.429,3618.814,2046.072Zm4.346,143.58q-1.237.382-2.5.726c.583-1.324,1.137-2.677,1.675-4.047q1.34-.246,2.648-.531-.7,1.572-1.436,3.1C3623.419,2189.153,3623.286,2189.4,3623.16,2189.652Zm-12.417,7.729q.87-2.062,1.674-4.192,1.362-.223,2.693-.485-.858,2.034-1.782,4Q3612.05,2197.062,3610.743,2197.381Zm-3.495,5.291q-1.244.375-2.516.713.875-1.986,1.687-4.037,1.332-.253,2.637-.544-.79,1.788-1.633,3.524C3607.366,2202.445,3607.3,2202.556,3607.248,2202.672Zm-11.658-162.424h-3.114c-.519-.581-1.041-1.16-1.575-1.728-.058-.063-.119-.122-.177-.184h2.98Q3594.66,2039.276,3595.59,2040.248Zm5.376,1c.42.43.842.858,1.255,1.3.187.2.359.414.544.615h-3.184q-.834-.968-1.693-1.912Zm7.279,2.968c.565.6,1.095,1.238,1.642,1.856h-3.232q-.8-.968-1.629-1.912h3.165C3608.209,2044.179,3608.228,2044.2,3608.245,2044.216Zm-2.9,1.856H3602q-.767-.966-1.555-1.912h3.209C3604.216,2044.8,3604.792,2045.421,3605.341,2046.072Zm-.535,147.049q.794-2.595,1.508-5.266,1.533-.024,3.038-.089c-.507,1.716-1.049,3.4-1.612,5.059Q3606.288,2192.993,3604.806,2193.121Zm2.573.754q-.812,2.329-1.693,4.588-1.382.255-2.791.472.834-2.354,1.592-4.781Q3605.948,2194.034,3607.379,2193.875Zm-29.255-158.012c.454.484.9.98,1.342,1.473h-23.25v150.541h48.3c.256,0,.506-.008.761-.009q-.726,2.717-1.543,5.347-4.179.316-8.588.318h-50.355V2035.424H3577.7C3577.839,2035.572,3577.984,2035.714,3578.124,2035.863Zm6.755,2.473q.869.945,1.713,1.912H3583.3q-.8-.968-1.618-1.912Zm23.253,141.884q.6-2.79,1.108-5.657h3.359c-.383,1.917-.8,3.8-1.247,5.657Zm2.977,1c-.459,1.872-.942,3.722-1.463,5.535q-1.512.071-3.059.1c.477-1.847.914-3.73,1.332-5.632Zm3.679-13.314h3.423q-.51,2.873-1.112,5.657h-3.292Q3614.341,2170.776,3614.788,2167.906Zm-2,5.657h-3.368q.481-2.793.887-5.657h3.467C3613.474,2169.816,3613.149,2171.706,3612.791,2173.563Zm2.153-6.657a212.49,212.49,0,0,0,2.278-31.831c0-35.423-7.636-64.352-22.72-86.257v-1.746h2.289c16.121,21.329,24.289,50.239,24.289,86.13a200.045,200.045,0,0,1-2.686,33.7Zm1.278-31.831a211.213,211.213,0,0,1-2.29,31.831h-3.493a223.873,223.873,0,0,0,1.924-29.959c0-31.951-6-58.8-17.861-80.191V2050.6C3608.922,2072.192,3616.222,2100.514,3616.222,2135.075Zm-21.72-76.229c11.2,20.976,16.861,47.119,16.861,78.1a222.7,222.7,0,0,1-1.932,29.959H3594.5Zm-1-3.873a110,110,0,0,0-7.129-10.813h3.468q1.9,2.416,3.661,4.964Zm0,2.046v110.887h15.8c-.27,1.912-.573,3.794-.9,5.657h-26.333v-129.4h3.042A108.984,108.984,0,0,1,3593.5,2057.019Zm-12.429-13.859v131.4h27.15q-.515,2.87-1.113,5.657h-37.465V2041.248h13.178c.516.632,1.028,1.267,1.529,1.912Zm32.548,131.4h3.266q-.638,2.865-1.372,5.637c-.543.008-1.083.02-1.632.02h-1.5C3612.821,2178.359,3613.241,2176.48,3613.621,2174.563Zm4.288,0h3.182c-.463,1.861-.951,3.7-1.48,5.493-1.008.057-2.024.1-3.055.129Q3617.282,2177.422,3617.909,2174.563Zm.212-1q.6-2.787,1.107-5.657h3.36c-.382,1.92-.807,3.8-1.254,5.657Zm1.29-6.657a201.276,201.276,0,0,0,2.669-33.7c0-35.777-8.078-64.685-24.032-86.13h3.468c16.213,20.65,24.422,48.945,24.422,84.258a188.687,188.687,0,0,1-3.16,35.576Zm-22.126-120.834q-.738-.966-1.5-1.912h3.334q.805.945,1.586,1.912Zm-1.257,0H3593.5v1.324q-1.173-1.644-2.4-3.236h3.4Q3595.275,2045.107,3596.028,2046.072Zm-5.71-2.912c-.511-.643-1.024-1.283-1.549-1.912h3.266c.557.629,1.1,1.268,1.644,1.912Zm-1.287,0h-3.421q-.741-.966-1.5-1.912h3.341Q3588.252,2042.193,3589.031,2043.16Zm-7.024-2.912h-13.362V2181.22H3606.9c-.422,1.907-.867,3.793-1.348,5.644-.347,0-.689.013-1.037.013h-47.3V2038.336h23.148Q3581.2,2039.283,3582.007,2040.248Zm28.406,147.47c1-.053,1.98-.123,2.955-.2-.529,1.622-1.095,3.208-1.678,4.776q-1.408.222-2.847.4C3609.39,2191.059,3609.919,2189.405,3610.413,2187.718Zm.286-1.02q.766-2.694,1.439-5.478h1.745c.456,0,.9-.011,1.356-.017q-.732,2.682-1.551,5.278Q3612.209,2186.61,3610.7,2186.7Zm5.581-5.508q1.522-.034,3.016-.112-.768,2.532-1.624,4.977-1.437.186-2.907.329Q3615.566,2183.829,3616.28,2181.19Zm4.083-.18q1.479-.094,2.924-.231-.8,2.376-1.689,4.668-1.392.246-2.815.451Q3619.614,2183.493,3620.363,2181.01Zm.314-1.022c.516-1.774.99-3.589,1.443-5.425h1.133c.656,0,1.3-.011,1.951-.023-.491,1.762-1.005,3.5-1.56,5.2C3622.667,2179.841,3621.676,2179.921,3620.677,2179.988Zm2.576-6.425h-.89c.444-1.858.868-3.737,1.248-5.657h3.265c-.428,1.912-.9,3.785-1.4,5.63C3624.743,2173.553,3624,2173.563,3623.253,2173.563Zm.542-6.657a189.912,189.912,0,0,0,3.143-35.576c0-35.2-8.125-63.484-24.164-84.258h3.389c16.342,19.958,24.634,47.627,24.634,82.386a177.345,177.345,0,0,1-3.708,37.448Zm-25.532-123.746h-3.285q-.8-.968-1.624-1.912h3.182Q3597.412,2042.191,3598.263,2043.16Zm-8.09-3.956c.322.343.634.7.951,1.044h-3.214q-.829-.966-1.679-1.912h3.1C3589.612,2038.626,3589.9,2038.91,3590.173,2039.2Zm-4.853-1.868c-.149-.161-.293-.326-.443-.486-.454-.483-.918-.954-1.38-1.426h2.913q.99.941,1.955,1.912Zm-1.363,0h-3.139q-.858-.968-1.742-1.912h3.029Q3583.044,2036.365,3583.957,2037.336Zm-5.835-2.912q-.929-.969-1.879-1.912h2.814q1.025.941,2.021,1.912Zm-1.391,0h-32.944v160.109h51.355q4.242,0,8.273-.3c-.521,1.644-1.062,3.269-1.635,4.863a113.678,113.678,0,0,1-16.009,1.09h-53.414V2032.512h42.453Q3575.782,2033.454,3576.731,2034.424Zm-45.374-2.912V2201.19h54.414a115.212,115.212,0,0,0,15.615-1.021q-.828,2.246-1.728,4.419a114.119,114.119,0,0,1-23.258,2.26h-56.471V2029.6h51.764q1.056.941,2.085,1.912ZM3602.522,2200q1.382-.205,2.738-.446-.854,2.114-1.776,4.155-1.3.33-2.634.627Q3601.717,2202.2,3602.522,2200Zm4.316-1.751q.858-2.219,1.644-4.506,1.415-.172,2.8-.383-.839,2.193-1.748,4.315Q3608.2,2197.982,3606.838,2198.25Zm6-6.151q.843-2.3,1.612-4.683,1.447-.135,2.865-.312c-.549,1.521-1.128,3.01-1.729,4.478Q3614.223,2191.861,3612.834,2192.1Zm5.583-5.136q1.4-.192,2.765-.426c-.566,1.418-1.162,2.8-1.778,4.173q-1.3.33-2.631.622C3617.348,2189.9,3617.891,2188.441,3618.417,2186.963Zm4.33-1.722q.855-2.246,1.635-4.568c.952-.1,1.891-.222,2.822-.354q-.834,2.22-1.749,4.357Q3624.118,2184.98,3622.747,2185.241Zm1.983-5.616c.54-1.672,1.041-3.381,1.519-5.112q1.516-.047,3-.142c-.516,1.653-1.054,3.285-1.632,4.877Q3626.188,2179.458,3624.73,2179.625Zm1.8-6.123q.735-2.751,1.371-5.6h3.175q-.7,2.775-1.512,5.443Q3628.063,2173.449,3626.527,2173.5Zm1.584-6.6a178.588,178.588,0,0,0,3.686-37.448c0-34.628-8.185-62.3-24.332-82.386h3.307c16.5,19.245,24.883,46.295,24.883,80.513a166.051,166.051,0,0,1-4.339,39.321Zm8.544-39.321c0-34.075-8.259-61.127-24.548-80.513h3.211c16.7,18.513,25.2,44.945,25.2,78.641,0,15.22-1.7,28.972-5.058,41.123-.939.03-1.872.07-2.833.07h-.278A167.334,167.334,0,0,0,3636.655,2127.585Zm-25.433-81.513c-.558-.643-1.116-1.286-1.692-1.912h3.018c.575.575,1.164,1.133,1.722,1.727.056.06.107.125.164.185Zm1.741-2.912c-.651-.646-1.3-1.29-1.975-1.912h2.615c.737.616,1.445,1.268,2.159,1.912Zm-1.412,0h-2.936q-.925-.972-1.879-1.912h2.749C3610.182,2041.876,3610.876,2042.507,3611.551,2043.16Zm-4.328,0h-3.089c-.393-.435-.784-.872-1.185-1.3-.2-.207-.4-.407-.592-.612h2.946Q3606.278,2042.187,3607.223,2043.16Zm-5.834-2.912q-.96-.972-1.947-1.912h2.674q1.081.938,2.132,1.912Zm-1.417,0h-2.995c-.018-.019-.034-.039-.052-.058q-.885-.94-1.8-1.854h2.844Q3598.986,2039.275,3599.972,2040.248Zm-7.295-2.912h-2.921q-.944-.971-1.913-1.912h2.767Q3591.659,2036.363,3592.677,2037.336Zm-5.866-2.912q-1.032-.972-2.091-1.912h1.051c.488,0,.959.021,1.442.026q1.142.926,2.251,1.886Zm-1.479,0h-2.821q-.975-.97-1.975-1.912h2.654Q3584.276,2033.451,3585.332,2034.424Zm-5.886-2.912q-1.056-.964-2.14-1.9c.821.006,1.632.025,2.442.045q1.156.909,2.284,1.851Zm-1.479,0h-2.75q-1.01-.972-2.044-1.912h2.584Q3576.876,2030.539,3577.967,2031.512Zm-5.9-2.912q-1.068-.945-2.16-1.86c.77.016,1.553.014,2.313.042q1.169.892,2.309,1.818Zm28.309,176.858q1.3-.278,2.57-.588c-.3.645-.589,1.3-.9,1.935-.3.607-.609,1.2-.914,1.8q-1.221.393-2.465.757Q3599.552,2207.437,3600.377,2205.458Zm2.572,1.784h0c.427-.878.833-1.778,1.24-2.676.821-.212,1.631-.438,2.436-.67q-.887,1.749-1.826,3.447c-.763.284-1.539.553-2.318.818C3602.635,2207.852,3602.8,2207.553,3602.949,2207.242Zm5-3.742c.762-.234,1.521-.473,2.269-.725q-.876,1.577-1.8,3.108-1.065.456-2.154.885Q3607.132,2205.157,3607.949,2203.5Zm.609-1.24q.879-1.836,1.7-3.732c.845-.2,1.684-.408,2.512-.63q-.879,1.809-1.822,3.558Q3609.766,2201.873,3608.558,2202.26Zm5.138-3.971c.119-.244.228-.5.346-.745q1.189-.337,2.355-.709-.885,1.652-1.826,3.249c-.737.3-1.48.6-2.234.878C3612.8,2200.079,3613.257,2199.193,3613.7,2198.289Zm.9-1.936q.884-1.919,1.707-3.9,1.3-.273,2.565-.583c-.233.5-.457,1.011-.7,1.5-.363.746-.744,1.476-1.122,2.207Q3615.833,2195.984,3614.594,2196.353Zm4.475-2.54c.358-.738.7-1.494,1.041-2.246q1.224-.319,2.418-.672-.879,1.7-1.815,3.357-1.137.444-2.3.854C3618.63,2194.674,3618.857,2194.25,3619.069,2193.813Zm4.793-3.334q1.132-.357,2.241-.744c-.584,1.02-1.182,2.027-1.8,3.013q-1.05.477-2.123.925Q3623.048,2192.1,3623.862,2190.479Zm.629-1.246c.587-1.212,1.146-2.451,1.691-3.7q1.262-.3,2.492-.631c-.589,1.2-1.205,2.366-1.839,3.519Q3625.677,2188.842,3624.491,2189.233Zm2.174-4.852q.873-2.079,1.674-4.23,1.365-.211,2.7-.463-.857,2.043-1.787,4.011Q3627.974,2184.06,3626.665,2184.381Zm2.065-5.3c.56-1.562,1.083-3.159,1.583-4.779q1.467-.111,2.9-.27c-.541,1.543-1.1,3.062-1.7,4.545C3630.592,2178.76,3629.668,2178.93,3628.73,2179.082Zm1.9-5.807q.787-2.634,1.471-5.369h.521c.867,0,1.706-.039,2.557-.063q-.75,2.624-1.608,5.14C3632.6,2173.095,3631.625,2173.2,3630.631,2173.275Zm5.593-5.458c1.008-.041,2-.108,2.981-.182-.528,1.634-1.1,3.227-1.693,4.795q-1.4.234-2.837.422Q3635.5,2170.383,3636.224,2167.817Zm.276-1.007a156.194,156.194,0,0,0,5.014-41.1c0-33.549-8.379-59.974-24.861-78.641h3.158c.158.165.326.318.483.485,16.641,17.737,25.078,43.4,25.078,76.284,0,16.012-1.97,30.327-5.851,42.767C3638.524,2166.688,3637.524,2166.765,3636.5,2166.81Zm9.872-42.969c0-33.025-8.472-58.847-25.172-76.769h2.969c.724.709,1.452,1.414,2.148,2.156,15.868,16.911,23.913,41.384,23.913,72.741,0,16.76-2.26,31.576-6.715,44.21-.963.13-1.932.252-2.922.346C3644.426,2154.076,3646.372,2139.791,3646.372,2123.841Zm-23.856-79.681h.737c.6,0,1.182.022,1.772.033q1.152.916,2.265,1.879h-2.707C3623.908,2045.418,3623.215,2044.787,3622.516,2044.16Zm.645,1.912h-2.936c-.626-.647-1.259-1.288-1.906-1.912h2.694C3621.736,2044.789,3622.462,2045.415,3623.161,2046.072Zm-5.9-2.912c-.694-.645-1.4-1.271-2.121-1.889.8.01,1.6.016,2.387.044.789.6,1.578,1.21,2.341,1.845Zm-7.4-2.912c-.7-.623-1.392-1.254-2.112-1.853.792.023,1.573.058,2.351.1.762.564,1.492,1.164,2.23,1.755Zm-1.5,0h-2.652c-.679-.648-1.367-1.288-2.067-1.912h.87c.537,0,1.058.022,1.589.029Q3607.247,2039.287,3608.361,2040.248Zm-3.849-2.912h-2.023q-1.061-.911-2.148-1.788c.747.033,1.485.078,2.221.126q1.137.815,2.241,1.667C3604.705,2037.341,3604.61,2037.336,3604.512,2037.336Zm-3.558,0h-2.591q-1.047-.965-2.126-1.892,1.217.011,2.416.044C3599.43,2036.092,3600.2,2036.7,3600.954,2037.336Zm-5.812-2.912h-.1q-1.035-.859-2.1-1.687c.718.042,1.445.07,2.153.125q1.125.783,2.22,1.6C3596.589,2034.451,3595.876,2034.424,3595.142,2034.424Zm-1.69,0h-2.458q-1.065-.946-2.159-1.856c.779.018,1.56.036,2.328.069Q3592.324,2033.511,3593.452,2034.424Zm-5.875-2.879q-1.026-.825-2.077-1.621c.71.05,1.409.114,2.11.177q1.072.726,2.121,1.483C3589.02,2031.562,3588.3,2031.555,3587.577,2031.545Zm-1.644-.03c-.055,0-.107,0-.162,0h-2.208q-1.078-.927-2.184-1.821c.782.03,1.541.088,2.312.131Q3584.827,2030.651,3585.933,2031.515Zm-5.838-2.848q-.991-.774-2-1.524c.685.056,1.358.129,2.034.2q1.036.686,2.053,1.4C3581.49,2028.7,3580.793,2028.686,3580.095,2028.667Zm-1.687-.031c-.671-.009-1.329-.036-2.008-.036h-.285q-1.047-.873-2.118-1.719c.733.037,1.465.075,2.189.124Q3577.311,2027.8,3578.408,2028.636Zm-5.825-2.836q-.945-.717-1.911-1.412c.648.06,1.3.118,1.94.187q1.017.657,2.012,1.34C3573.943,2025.878,3573.272,2025.827,3572.583,2025.8Zm-1.72-.042q-1.1-.03-2.212-.041-1.036-.839-2.095-1.649c.708.043,1.427.073,2.127.128Q3569.785,2024.961,3570.863,2025.758Zm-3.836-.07H3506.5V2214.5h60.53a116.5,116.5,0,0,0,29.822-3.6c-.06.124-.115.253-.175.377-.53,1.09-1.081,2.161-1.639,3.224-11,3.754-23.505,5.656-37.378,5.656h-62.589V2023.775h62.589c2.422,0,4.784.079,7.118.192Q3565.915,2024.813,3567.027,2025.688Zm30.549,186.031h0c.186-.384.359-.781.542-1.168q1.2-.338,2.382-.7-.882,1.681-1.816,3.315-1.128.441-2.28.857C3596.8,2213.257,3597.2,2212.5,3597.576,2211.719Zm4.261-2.29c.752-.246,1.493-.5,2.23-.768q-.875,1.527-1.8,3.007c-.7.313-1.405.625-2.122.921Q3601.016,2211.029,3601.837,2209.429Zm8.169-4.238q.84-1.438,1.636-2.92,1.048-.375,2.076-.778-.857,1.4-1.757,2.766C3611.314,2204.575,3610.666,2204.89,3610.006,2205.191Zm6.1-5.764q.849-1.493,1.653-3.029,1.088-.366,2.153-.761-.862,1.456-1.772,2.868Q3617.131,2198.981,3616.1,2199.427Zm5.312-4.376q.957-.379,1.9-.78-.827,1.254-1.691,2.472c-.588.319-1.179.636-1.78.94C3620.376,2196.817,3620.9,2195.941,3621.414,2195.051Zm3.579-1.518c.53-.243,1.049-.5,1.568-.753-.493.67-1,1.327-1.512,1.979q-.7.434-1.423.853C3624.089,2194.925,3624.549,2194.237,3624.993,2193.533Zm3.3-5.678q.784-1.476,1.524-3h0c.052-.1.1-.215.15-.321q1.162-.338,2.3-.709-.877,1.594-1.816,3.134Q3629.383,2187.425,3628.291,2187.855Zm4.391-9.525c.574-1.446,1.113-2.927,1.632-4.428.939-.116,1.869-.244,2.785-.39q-.843,2.142-1.773,4.2C3634.457,2177.933,3633.574,2178.137,3632.682,2178.33Zm5.978-6.1q.855-2.292,1.616-4.673c.968-.087,1.921-.194,2.865-.314-.554,1.513-1.145,2.988-1.763,4.436C3640.486,2171.875,3639.577,2172.055,3638.66,2172.225Zm5.963-6.193c4.382-12.638,6.607-27.4,6.607-44.063,0-31.619-8.136-56.323-24.184-73.426-.475-.506-.978-.98-1.466-1.471h2.833c1.351,1.228,2.673,2.489,3.929,3.826,15.094,16.086,22.747,39.368,22.747,69.2,0,17.465-2.573,32.716-7.651,45.443C3646.511,2165.718,3645.577,2165.888,3644.623,2166.032Zm11.466-45.936c0-30.093-7.744-53.6-23.019-69.882-1.019-1.085-2.074-2.128-3.154-3.142h2.607a65.58,65.58,0,0,1,5.843,5.5c14.321,15.263,21.581,37.353,21.581,65.656,0,18.129-2.925,33.738-8.686,46.452-.878.227-1.762.446-2.667.638C3653.565,2152.588,3656.089,2137.419,3656.089,2120.1Zm-23.214-74.019q-1-.825-2.039-1.609c.706.057,1.4.128,2.1.2.713.464,1.4.956,2.094,1.446C3634.314,2046.1,3633.6,2046.079,3632.875,2046.077Zm-1.62-.005h-2.462c-.7-.626-1.394-1.252-2.115-1.849.781.027,1.546.076,2.312.123C3629.761,2044.9,3630.511,2045.484,3631.255,2046.072Zm-5.874-2.873c-.632-.5-1.258-1-1.908-1.481.631.062,1.27.115,1.892.19q1.046.656,2.061,1.348C3626.752,2043.227,3626.066,2043.214,3625.381,2043.2Zm-1.654-.03c-.159,0-.314-.009-.474-.009h-1.859c-.7-.6-1.415-1.182-2.136-1.757.732.038,1.47.069,2.19.123C3622.218,2042.063,3622.982,2042.6,3623.727,2043.169Zm-5.836-2.845c-.614-.466-1.242-.916-1.872-1.364.625.07,1.24.152,1.855.233.673.411,1.354.813,2.01,1.244C3619.22,2040.4,3618.565,2040.35,3617.891,2040.324Zm-1.712-.034c-.741-.016-1.476-.04-2.229-.041-.687-.568-1.394-1.113-2.1-1.658.72.049,1.43.109,2.138.173C3614.726,2039.263,3615.461,2039.766,3616.179,2040.29Zm-5.735-2.78c-.6-.44-1.222-.855-1.836-1.279.6.074,1.185.163,1.776.247.622.371,1.24.747,1.849,1.134C3611.643,2037.57,3611.042,2037.542,3610.444,2037.51Zm-1.894-.1c-.689-.025-1.4-.027-2.094-.038-.658-.526-1.308-1.061-1.984-1.566.7.057,1.377.129,2.061.2C3607.22,2036.456,3607.88,2036.939,3608.55,2037.41Zm-5.648-2.718c-.549-.391-1.1-.781-1.661-1.159.552.075,1.107.147,1.653.231.581.338,1.143.7,1.714,1.05C3604.044,2034.767,3603.473,2034.73,3602.9,2034.692Zm-1.9-.108c-.664-.033-1.325-.068-2-.089q-.951-.734-1.924-1.442c.632.061,1.271.113,1.9.184C3599.658,2033.674,3600.329,2034.128,3601,2034.584Zm-5.555-2.694q-.773-.534-1.559-1.053c.489.072.991.128,1.474.206.566.322,1.112.667,1.668,1C3596.5,2031.994,3595.978,2031.933,3595.443,2031.89Zm-1.973-.124c-.645-.04-1.289-.08-1.942-.11q-.924-.692-1.87-1.357c.619.066,1.238.131,1.849.207Q3592.5,2031.124,3593.47,2031.766Zm-5.508-2.636c-.5-.337-1-.672-1.511-1,.481.075.957.157,1.434.239q.8.445,1.587.906Q3588.72,2029.2,3587.962,2029.13Zm-2.1-.187c-.6-.044-1.215-.068-1.821-.1-.6-.439-1.211-.874-1.827-1.3.618.073,1.214.171,1.824.253C3584.653,2028.169,3585.259,2028.555,3585.862,2028.943Zm-5.383-2.574c-.479-.315-.966-.621-1.452-.928.464.077.914.172,1.374.254.486.267.974.533,1.455.808C3581.4,2026.451,3580.937,2026.416,3580.479,2026.369Zm-2.2-.213q-.868-.072-1.748-.133-.852-.6-1.718-1.185c.572.073,1.136.157,1.7.238Q3577.41,2025.607,3578.284,2026.156Zm-5.335-2.552c-.427-.274-.854-.546-1.285-.814.421.073.836.154,1.254.232.438.236.869.48,1.3.722C3573.8,2023.693,3573.372,2023.651,3572.949,2023.6Zm-2.209-.214c-.571-.054-1.131-.12-1.707-.166q-.8-.55-1.608-1.086c.528.072,1.058.142,1.581.221C3569.587,2022.7,3570.168,2023.039,3570.74,2023.39Zm-3.688-.3c-.635-.041-1.276-.075-1.918-.108q-.93-.687-1.879-1.352c.6.062,1.217.1,1.811.175Q3566.068,2022.442,3567.052,2023.094Zm28.7,192.221c.714-.247,1.428-.495,2.129-.758-.575.973-1.157,1.939-1.758,2.886-.674.312-1.361.609-2.049.9C3594.64,2217.347,3595.2,2216.341,3595.748,2215.315Zm3.638-1.351c.648-.257,1.293-.519,1.93-.789-.549.852-1.1,1.7-1.675,2.53q-.92.478-1.857.938C3598.327,2215.758,3598.866,2214.87,3599.386,2213.964Zm-1,3.5q-.746,1.034-1.515,2.043c-.484.288-.975.567-1.467.846q.711-1.055,1.4-2.128C3597.335,2217.976,3597.862,2217.721,3598.385,2217.463Zm6.9-4.989c.4-.566.807-1.129,1.2-1.705.43-.22.853-.448,1.277-.674-.436.557-.875,1.11-1.323,1.655C3606.062,2212,3605.673,2212.233,3605.289,2212.474Zm6.114-5.609q.633-.9,1.243-1.827c.465-.229.924-.466,1.382-.7-.446.581-.89,1.163-1.349,1.73C3612.256,2206.334,3611.832,2206.6,3611.4,2206.865Zm6.123-5.619c.442-.643.867-1.3,1.294-1.96.492-.235.986-.466,1.469-.71q-.7.926-1.416,1.83C3618.425,2200.688,3617.981,2200.973,3617.526,2201.246Zm12.193-11.264q.726-1.1,1.42-2.23.839-.367,1.662-.756-.773,1.075-1.578,2.118C3630.729,2189.411,3630.223,2189.7,3629.719,2189.982Zm2.331-3.734q.835-1.43,1.626-2.9,1.047-.367,2.069-.764-.857,1.386-1.761,2.729C3633.348,2185.634,3632.7,2185.944,3632.05,2186.248Zm2.29-4.2c.285-.555.574-1.1.848-1.668h0c.29-.6.565-1.212.844-1.82q1.218-.321,2.4-.682-.885,1.677-1.839,3.291Q3635.485,2181.631,3634.34,2182.051Zm5.433-4.591q1.1-.359,2.169-.748-.867,1.457-1.792,2.858-.994.484-2.017.938Q3638.982,2179.011,3639.773,2177.46Zm.645-1.271c.047-.095.1-.187.145-.283.535-1.1,1.044-2.234,1.54-3.378.835-.2,1.658-.407,2.472-.63q-.88,1.755-1.835,3.442Q3641.6,2175.784,3640.418,2176.189Zm5.465-4.658q1.143-.341,2.253-.721-.875,1.533-1.813,3.007c-.7.324-1.4.637-2.114.937C3644.786,2173.7,3645.349,2172.627,3645.883,2171.531Zm.575-1.229c.593-1.27,1.163-2.562,1.7-3.886.863-.174,1.718-.359,2.557-.564-.1.219-.2.446-.308.664-.491,1.011-1.009,2-1.539,2.975Q3647.682,2169.918,3646.458,2170.3Zm4.851-3.349c.227-.469.442-.952.662-1.429.794-.212,1.583-.43,2.354-.671q-.885,1.632-1.848,3.192-1.076.476-2.186.909C3650.637,2168.293,3650.98,2167.63,3651.309,2166.953Zm4.4-2.562c.7-.237,1.394-.474,2.071-.736-.573.914-1.171,1.8-1.785,2.678q-.931.5-1.893.961Q3654.935,2165.87,3655.708,2164.391Zm.645-1.268c.108-.217.222-.428.329-.646,6.053-12.47,9.124-27.989,9.124-46.125,0-27.039-6.96-48.166-20.687-62.8a62.765,62.765,0,0,0-6.9-6.295q1.106.07,2.187.171a58.441,58.441,0,0,1,10.007,8.479c12.773,13.612,19.249,33.318,19.249,58.569,0,16.96-2.862,31.456-8.509,43.084q-1.167,2.4-2.5,4.648C3657.9,2162.526,3657.137,2162.839,3656.353,2163.123Zm-19.5-116.942c-.579-.431-1.18-.836-1.775-1.249.581.079,1.166.152,1.737.243.615.353,1.207.734,1.806,1.106Q3637.746,2046.222,3636.854,2046.181Zm-5.868-2.7c-.547-.045-1.1-.078-1.655-.113-.534-.383-1.072-.761-1.619-1.129.523.078,1.047.154,1.563.241C3629.854,2042.8,3630.42,2043.138,3630.986,2043.477Zm-7.581-2.77c-.535-.051-1.063-.113-1.606-.156-.486-.336-.958-.689-1.453-1.013.477.077.939.173,1.411.258C3622.309,2040.1,3622.865,2040.393,3623.405,2040.707Zm-7.645-2.776c-.468-.051-.941-.094-1.414-.138q-.694-.465-1.4-.917c.435.074.863.158,1.293.239C3614.747,2037.386,3615.261,2037.649,3615.76,2037.931Zm-7.708-2.783c-.385-.045-.783-.073-1.171-.114-.435-.283-.891-.541-1.332-.817.391.072.784.141,1.172.217Q3607.39,2034.785,3608.052,2035.148Zm-7.626-2.739c-.376-.047-.747-.1-1.125-.145-.38-.24-.767-.471-1.151-.705.35.066.706.124,1.053.194C3599.616,2031.966,3600.018,2032.191,3600.426,2032.409Zm-7.613-2.731c-.318-.043-.631-.093-.952-.133-.344-.214-.692-.423-1.039-.632.286.057.583.1.868.162C3592.071,2029.268,3592.436,2029.48,3592.813,2029.678Zm-7.57-2.726q-.432-.062-.865-.12c-.324-.2-.652-.389-.98-.582.289.06.569.131.856.193C3584.587,2026.609,3584.913,2026.783,3585.243,2026.952Zm-7.639-2.735c-.246-.037-.5-.068-.742-.1-.271-.162-.54-.325-.813-.483.238.051.468.112.7.164C3577.037,2023.935,3577.322,2024.075,3577.6,2024.217Zm-10.958-3.2c-.412-.053-.812-.122-1.227-.171-.378-.239-.754-.48-1.136-.714.374.068.748.136,1.119.207C3565.82,2020.563,3566.232,2020.792,3566.646,2021.019Zm-3.509-.4c-.526-.053-1.054-.106-1.585-.153-.512-.346-1.023-.694-1.542-1.031.49.071.991.129,1.478.206C3562.043,2019.96,3562.59,2020.289,3563.137,2020.618Zm-3.672-.344q-5.433-.405-11.175-.41h-54.356v-1.912h44.986a148.664,148.664,0,0,1,18.689,1.147Q3558.543,2019.678,3559.465,2020.274Zm-65.531,207.544h54.356c16.315,0,30.856-2.5,43.4-7.412q-.857,1.411-1.747,2.789c-14.286,6.816-31.415,10.28-51.026,10.28h-44.986Zm99.293-8.016c.633-.261,1.252-.539,1.875-.813q-.814,1.234-1.659,2.441c-.586.313-1.168.63-1.764.931C3592.207,2221.519,3592.72,2220.663,3593.227,2219.8Zm-1.079,3.442c-.486.661-.987,1.307-1.488,1.954-.444.268-.9.523-1.349.784.45-.659.882-1.336,1.32-2.006C3591.137,2223.732,3591.649,2223.5,3592.148,2223.244Zm1.974-1.042c.293-.157.592-.306.882-.466.081-.045.16-.094.241-.139-.4.49-.806.964-1.211,1.445-.324.217-.647.436-.975.648C3593.419,2223.2,3593.771,2222.7,3594.122,2222.2Zm-2.446,3.538c-.178.2-.354.393-.533.588l-.215.158c.141-.178.279-.36.418-.539C3591.458,2225.879,3591.565,2225.808,3591.676,2225.74Zm44.26-41.459-.118.062q.753-1.17,1.468-2.375.891-.374,1.764-.769-.788,1.126-1.611,2.215C3636.941,2183.707,3636.444,2184,3635.936,2184.281Zm6.9-6.1c-.3.164-.606.318-.908.479q.777-1.242,1.51-2.525.942-.372,1.863-.771-.809,1.2-1.66,2.352C3643.374,2177.874,3643.11,2178.034,3642.838,2178.185Zm4.17-3.587c.462-.219.926-.436,1.379-.665q-.683.875-1.393,1.72c-.393.262-.793.517-1.194.77C3646.213,2175.824,3646.612,2175.212,3647.008,2174.6Zm2.732-2.51q-.858.474-1.741.919.805-1.328,1.562-2.7.995-.366,1.963-.763-.835,1.28-1.725,2.511Zm3.43-3.255c.513-.23,1.019-.47,1.521-.714q-.729.963-1.5,1.891c-.437.285-.882.562-1.329.835Q3652.534,2169.854,3653.17,2168.833Zm6.17-5.825c.549-.232,1.1-.454,1.64-.7-.5.677-1,1.344-1.527,1.994-.481.308-.981.6-1.476.889Q3658.678,2164.115,3659.34,2163.008Zm-18.572-116.547c-.409-.273-.825-.535-1.24-.8.388.077.779.151,1.162.233.432.217.845.455,1.268.68C3641.565,2046.533,3641.165,2046.5,3640.768,2046.461Zm-79.139-28.02.617.3c-.139-.023-.283-.039-.422-.061-.191-.11-.387-.214-.58-.322Zm-2.562-.149c-.368-.05-.732-.106-1.1-.154-.389-.24-.783-.473-1.176-.709.342.065.68.134,1.019.2C3558.229,2017.85,3558.651,2018.068,3559.067,2018.292Zm-3.54-.447a152.108,152.108,0,0,0-16.607-.893h-44.986v-1.912h35.615a150.51,150.51,0,0,1,24.394,1.888C3554.475,2017.229,3555,2017.536,3555.527,2017.845Zm-62.593-.893h-19.393v-1.912h19.393Zm-20.393,0h-3.327v217.523h3.327v5.657h-14.756V2015.04h14.756Zm1,217.523h19.393v5.657h-19.393Zm20.393,0h44.986c19.082,0,35.852-3.253,49.968-9.672-.536.795-1.087,1.575-1.642,2.351-15.757,8.608-35.163,12.978-57.7,12.978h-35.615Zm93.991-6.549c.058-.032.119-.061.177-.093.292-.161.573-.334.862-.5-.368.45-.743.893-1.119,1.335-.295.2-.583.406-.881.6C3587.292,2228.831,3587.6,2228.374,3587.925,2227.926Zm-2.544,3.534c-.148.162-.292.327-.442.488l-.1.073c.113-.141.221-.287.332-.429C3585.242,2231.549,3585.312,2231.5,3585.381,2231.46Zm52.453-46.921c.093-.12.187-.239.278-.359l.176-.1c-.147.153-.3.3-.447.454Zm6.045-5.478c.15-.2.305-.386.452-.584.115-.066.23-.131.344-.2-.205.218-.416.429-.624.644C3643.993,2178.968,3643.938,2179.016,3643.879,2179.061Zm6.075-5.517c.181-.242.357-.489.535-.733.178-.1.352-.2.529-.306q-.376.408-.758.808C3650.159,2173.391,3650.055,2173.467,3649.954,2173.544Zm6.056-5.511c.225-.3.443-.617.663-.928.15-.081.3-.157.453-.239.085-.047.163-.1.248-.149-.288.318-.574.638-.87.95C3656.342,2167.791,3656.175,2167.91,3656.01,2168.033Zm6.074-5.552c.273-.378.549-.755.814-1.142.28-.145.571-.276.846-.426-.327.369-.657.735-.993,1.094C3662.535,2162.171,3662.3,2162.32,3662.084,2162.481Zm-17.311-115.536-.117-.017c-.043-.025-.084-.052-.127-.077l.032.009C3644.63,2046.89,3644.7,2046.915,3644.773,2046.945Zm-90.66-31.159c.168.08.334.162.5.243l-.331-.058c-.151-.085-.3-.167-.453-.251Zm-2.732-.263a154.4,154.4,0,0,0-21.832-1.483h-35.615v-1.912h26.245a151.966,151.966,0,0,1,30.106,2.828C3550.651,2015.144,3551.018,2015.331,3551.381,2015.523Zm-58.447-1.483h-19.393v-1.912h19.393Zm-19.393,227.092h19.393v4.016h50.415a158.311,158.311,0,0,1-23.17,1.641h-46.638Zm46.638,6.657a153.757,153.757,0,0,0,29.2-2.641h11.416c-14.5,5.507-31.244,8.3-49.986,8.3h-37.268v-5.656Zm33.864-3.641a105.305,105.305,0,0,0,27.155-10.218c.5-.278.991-.572,1.488-.858-.342.411-.683.823-1.03,1.228-2.516,1.723-5.123,3.349-7.843,4.851a99.783,99.783,0,0,1-10.475,5Zm20.253-4.122c1.637-.9,3.226-1.86,4.79-2.844-.116.126-.229.256-.346.381a97.758,97.758,0,0,1-9.923,6.585h-2.937C3568.779,2242.885,3571.592,2241.52,3574.3,2240.026Zm-.893,2.494c-.712.554-1.44,1.092-2.169,1.628h-.424C3571.687,2243.619,3572.547,2243.072,3573.4,2242.52Zm3.024-1.145q3.228-2.677,6.208-5.609,3.234-2.675,6.211-5.612,3.238-2.669,6.21-5.611,3.242-2.661,6.206-5.608,3.25-2.656,6.211-5.611a80.564,80.564,0,0,0,6.208-5.61,77.369,77.369,0,0,0,6.213-5.613,74.022,74.022,0,0,0,6.205-5.607,70.155,70.155,0,0,0,6.212-5.613,66.75,66.75,0,0,0,6.211-5.611,63.245,63.245,0,0,0,6.2-5.6,59.614,59.614,0,0,0,6.216-5.616,55.927,55.927,0,0,0,6.226-5.628,52.486,52.486,0,0,0,6.259-5.668,48.9,48.9,0,0,0,6.19-5.617,46.377,46.377,0,0,0,13.933-17.043c4.346-8.951,6.55-20.089,6.55-33.1,0-19.408-5-34.575-14.858-45.082a48.128,48.128,0,0,0-22.813-13.356,59.283,59.283,0,0,0-7.549-2.642,63.482,63.482,0,0,0-7.546-2.641,68.142,68.142,0,0,0-7.545-2.641,72.588,72.588,0,0,0-7.544-2.64,76.589,76.589,0,0,0-7.551-2.643q-3.642-1.482-7.546-2.64-3.651-1.473-7.547-2.642-3.659-1.464-7.55-2.642c-2.441-.97-4.951-1.856-7.543-2.639-2.364-.934-4.784-1.8-7.284-2.566q-3.711-1.47-7.637-2.675-3.676-1.443-7.551-2.641-3.679-1.437-7.549-2.64-3.684-1.433-7.548-2.641-3.687-1.425-7.545-2.638-20.18-7.776-45.458-9.194V1969.83h142.894c49.857,0,88.728,11.987,115.532,35.629,26.781,23.632,40.365,57.794,40.365,101.53,0,29.086-6.088,54.153-18.094,74.5-12,20.333-29.742,36.026-52.739,46.642-23.027,10.627-51.646,16.014-85.064,16.014h-63.341Q3574.986,2242.79,3576.427,2241.375Zm-52.583-236.227a172.366,172.366,0,0,0-29.91-2.739v-1.622A161.237,161.237,0,0,1,3523.844,2005.148Zm8.088,2.788a167.822,167.822,0,0,0-30.494-2.632h-7.5v-1.9A163,163,0,0,1,3531.932,2007.936Zm-30.494-1.632a158.384,158.384,0,0,1,38.6,4.424,161.7,161.7,0,0,0-29.229-2.512h-16.875V2006.3Zm9.371,2.912a153.73,153.73,0,0,1,35.819,3.931c.119.056.236.115.355.172a156.574,156.574,0,0,0-26.8-2.191h-26.245v-1.912Zm-17.875,1.912h-19.393v-1.912h19.393Zm-20.393,0h-19.393v-1.912h19.393Zm-20.393,0h-7.793v236.661h7.793v5.656h-19.221V2009.216h19.221Zm1,236.661h19.393v5.656h-19.393Zm19.393,6.656v3.477h56.6a168.849,168.849,0,0,1-27.708,2.181h-48.29v-5.658Zm1,2.477v-2.477h37.268c19.9,0,37.566-3.127,52.718-9.3h3.556c-.059.033-.114.068-.173.1a114.64,114.64,0,0,1-32.44,11.674Zm93.853-10.8c.571-.316,1.127-.65,1.689-.975h.795a103.084,103.084,0,0,1-9.87,6.2,108.248,108.248,0,0,1-11.775,5.577h-9.184A113.338,113.338,0,0,0,3567.394,2246.123Zm4.949-.975h64.485c33.564,0,62.324-5.419,85.484-16.106,23.184-10.7,41.077-26.53,53.18-47.042s18.233-45.744,18.233-75.011c0-44.038-13.7-78.45-40.7-102.28-26.994-23.808-66.086-35.879-116.194-35.879H3492.934v30.91q-5.025-.253-10.237-.261h-9.156V1960.8h154.25c53.814,0,95.772,12.94,124.707,38.461,28.91,25.51,43.574,62.388,43.574,109.6,0,31.4-6.571,58.455-19.532,80.423-12.952,21.951-32.107,38.892-56.933,50.352-24.855,11.47-55.747,17.286-91.816,17.286h-71.784A105.008,105.008,0,0,0,3572.343,2245.148ZM3482.7,2000.479q5.22,0,10.237.262v1.658c-.29,0-.576-.007-.867-.007h-18.526v-1.913Zm9.37,2.913c.291,0,.577.006.867.007v1.9h-19.393v-1.912Zm.867,2.912v1.912h-19.393V2006.3Zm-20.393,1.912h-19.393V2006.3h19.393Zm-20.393,0h-19.393V2006.3h19.393ZM3431.755,2260.1H3420.5V2006.3h11.257Zm1-5.658h19.393v5.658h-19.393Zm19.393,6.658v5.656h-19.393V2261.1Zm1,0h48.29a164.639,164.639,0,0,0,33.135-3.181h11.117c-15.572,5.867-33.534,8.837-53.623,8.837h-38.919Zm100.441-2.787c.231-.128.454-.265.684-.394h73.518c36.215,0,67.248-5.847,92.236-17.378,25.013-11.547,44.317-28.622,57.374-50.752s19.671-49.353,19.671-80.931c0-47.513-14.774-84.64-43.912-110.349-29.124-25.687-71.3-38.711-125.369-38.711h-155.25v39.678h-19.393v-47.707h165.606c57.772,0,102.817,13.893,133.883,41.291,31.043,27.391,46.783,66.981,46.783,117.671,0,33.707-7.056,62.757-20.97,86.343-13.907,23.569-34.473,41.757-61.128,54.061-26.684,12.314-59.847,18.558-98.568,18.558h-94.7A121.265,121.265,0,0,0,3553.589,2258.316Zm-81.048-257.837v1.913h-19.393v-1.913Zm0,2.913v1.912h-19.393v-1.912Zm-20.393,1.912h-19.393v-1.912h19.393Zm-20.393,262.455v5.657h-19.393v-5.657Zm1,0h19.393v2.937h62.442a179.263,179.263,0,0,1-31.893,2.72h-49.942Zm19.393-267.28v1.913h-19.393v-1.913Zm-20.393,1.913h-19.393v-1.913h19.393Zm350.514,210.27c-15.816,26.8-39.2,47.486-69.516,61.48-30.339,14-68.046,21.1-112.073,21.1H3412.362v-20.827h19.393v9.054h177.962c41.52,0,77.1-6.7,105.741-19.922,28.671-13.236,50.8-32.808,65.763-58.171s22.548-56.572,22.548-92.771c0-54.465-16.935-97.023-50.332-126.49-33.385-29.443-81.739-44.373-143.72-44.373H3431.755v57.736h-19.393v-65.764H3600.68c65.688,0,116.907,15.8,152.233,46.953,35.3,31.149,53.2,76.173,53.2,133.811C3806.116,2152.807,3798.093,2185.841,3782.269,2212.662Z" transform="translate(-3166.648 -1824.367)" fill="#a5fcff"/>
</svg>
