<svg id="M" xmlns="http://www.w3.org/2000/svg" width="893.896" height="625.16" viewBox="0 0 893.896 625.16">
  <path id="M-2" data-name="M" d="M4021.742,1012.968l-5.444,13.61h-2.8l-5.444,13.61h-2.8l-5.445,13.612h-2.8l-5.444,13.61h-2.8l-5.444,13.611h-2.8l-5.445,13.61h-2.8l-5.444,13.61h-2.8l-5.444,13.611h-2.8l-5.444,13.611h-2.8l-5.444,13.61h-2.8l-5.444,13.611h-2.8l-5.444,13.61h-2.8l-5.445,13.61h-2.8l-5.444,13.612h-2.8l-5.444,13.61h-2.8l-5.444,13.61h-2.8l-40.188,100.473-127.912-317.928-.126-.313H3424.294v625.16h213.388v-8.192h5.2v-8.192h5.2v-8.192h5.2v-8.193h5.2v-8.191h5.2v-8.192h5.2v-8.193h5.2v-8.191h5.2V1564.4h5.2v-8.192h5.2v-8.192h5.2v-8.192h5.2v-8.192h5.2v-8.193h5.2v-8.191h5.2v-8.192h5.2v-19.814l60.6,150.573.126.314h179.254l32.968-81.921h10.6v8.192h11.152v8.193h11.151v8.191H4037.9v8.193h11.151v8.192H4060.2v8.191h11.152v8.193H4082.5v8.192h11.151v8.192H4104.8v8.192H4318.19v-625.16Zm-7.566,14.61h1.722l-5.044,12.61h-1.722Zm-19.887,519.437v-7.192h5.064l-2.9,7.192Zm1.767,1-1.767,4.391v-4.391Zm8.954-493.215-5.045,12.61h-1.722l5.044-12.61Zm-1.323-1,5.045-12.612h1.722l-5.045,12.612Zm-9.566,28.221-5.044,12.61h-1.722l5.044-12.61Zm-1.322-1,5.044-12.611h1.722l-5.044,12.611Zm-9.661,449.61v-7.193h4.027l-2.9,7.193Zm.729,1-.729,1.813v-1.813Zm-.634-422.39-5.044,12.611h-1.722l5.044-12.611Zm-1.322-1,5.044-12.61h1.722l-5.044,12.61Zm23.529,414.2v-7.191h3.8l-2.894,7.191Zm.507,1-.507,1.258v-1.258Zm-11.658-1v-7.191h5.563l-2.894,7.191Zm2.267,1-2.267,5.633v-5.633Zm-24.212-386.975-5.044,12.61h-1.722l5.044-12.61Zm-1.322-1,5.044-12.611h1.723l-5.045,12.611Zm79.024,278.4V1393.2l7.161-17.8v20.656Zm7.161-15.115v123.695h-7.161v-105.9Zm-95.751-235.059-5.044,12.61h-1.722l5.044-12.61Zm-1.322-1,5.044-12.611h1.722l-5.044,12.611Zm23,343.371v-16.6l10.151-25.224v20.655l-8.52,21.172Zm1.228,1-1.228,3.053v-3.053Zm-24.972,15.383h-8.313l2.894-7.191h5.86v6.1Zm134.954-236.511h-2.208l-8.64,21.468v-17.246h-2.451l-4.272,10.614V1189.9H3952.046l5.044-12.61h137.258ZM4082.5,1309.88l-5.723,14.22v-20.657l4.948-12.294h.775Zm-25.293-7.158-7.161,17.794v-17.7h-2.269l-8.14,20.229V1217.126h-98.48l5.044-12.61h111.006Zm2.99,15.9-1.99,4.945v-20.656l1.336-3.319h.654Zm-2.99,7.43-7.161,17.8V1323.2l7.161-17.8ZM3680.5,1315.8l-.126-.314h-2.088v3.363l-2.927-7.273-.126-.313h-2.148v3.209l-2.865-7.12-.126-.313h-2.209v3.059l-2.8-6.969-.126-.314h-2.269v2.912l-2.746-6.821-.126-.313h-2.33v2.76l-2.684-6.67-.126-.314h-2.391v2.608l-2.623-6.518-.126-.314h-2.451v2.459l-2.562-6.368-.126-.313h-2.512v2.309l-2.5-6.219-.126-.314h-2.572v224.352h-9.474V1231.736h129.938l66.027,164.114.126.313h1.442l.883-2.207.524,1.3.126.313h1.5l.853-2.131.494,1.229.126.313h1.563l.822-2.054.464,1.151.126.314h1.624l.792-1.981.433,1.077.126.314h1.685l.761-1.905.4,1,.126.314h1.745l.731-1.829.372.926.126.313h1.806l.7-1.754.342.851.126.313h1.866l.672-1.678.312.776.126.313h1.926l.642-1.6.281.7.126.313h1.987l.612-1.527.251.624.126.314h2.048l.58-1.451.22.547.126.314h2.109l.55-1.376.191.473.126.314h2.169l.52-1.3.161.4.126.313h2.229l.49-1.225.129.322.126.313h2.29l.46-1.15.1.248.126.313h2.35l.43-1.075.069.172.126.313h2.411l62-154.994h84.753v93.27l-3.474,8.634v-18.15H4014.5l-9.065,22.524v-18.3h-2.026l-9.125,22.674v-18.45h-1.966l-9.185,22.824v-18.6h-1.906l-9.246,22.975v-18.752h-1.843l-9.308,23.128v-18.905h-1.783l-9.368,23.279V1340.83h-1.723l-9.429,23.429v-19.206h-1.662l-9.489,23.579v-19.356h-1.6l-63.093,156.779h-78.1l-62.968-156.465-.126-.314h-1.6v4.566l-3.412-8.476-.126-.313h-1.664v4.414l-3.349-8.323-.126-.314h-1.725v4.263l-3.289-8.173-.126-.314h-1.785v4.115l-3.229-8.025-.126-.313h-1.846v3.965l-3.169-7.874-.126-.314h-1.906v3.811l-3.108-7.721-.126-.313h-1.967v3.66l-3.046-7.571-.126-.313h-2.028v3.514Zm2.987,10.1v5.871l-4.2-10.44v-4.847h.412Zm-5.2-4.375v5.869l-4.2-10.439v-4.694h.473Zm-5.2-4.376v5.869l-4.2-10.437v-4.544h.533Zm-5.2-4.374v5.872l-4.2-10.437v-4.4h.593Zm-5.2-4.371v5.871l-4.2-10.439V1299.6h.655Zm-5.2-4.374v5.869l-4.2-10.439v-4.093H3654Zm-5.2-4.376v5.869l-4.2-10.436v-3.944h.775Zm-5.2-4.374v5.872l-4.2-10.437v-3.794h.836Zm-5.2-4.371v215.14h-4.2V1282.7h.9Zm-5.2,216.14v7.192h-22.094V1218.126h140.3l70.2,174.487-1.02,2.55h-.088l-66.027-164.113-.126-.314H3626.208v276.319Zm189.479-114.442,1.065-2.661.863,2.147-.989,2.474h-.15Zm3.006-.514,1.064-2.66.864,2.147-.959,2.4h-.21Zm3.006-.513,1.064-2.661.863,2.146-.929,2.324h-.271Zm3-.516,1.064-2.66.864,2.147-.9,2.248h-.331Zm3.006-.513,1.064-2.66.864,2.147-.869,2.172h-.391Zm3.006-.513,1.064-2.661.863,2.146-.839,2.1h-.452Zm3.005-.516,1.064-2.66.864,2.147-.809,2.021h-.512Zm3.006-.514,1.064-2.66.864,2.147-.778,1.946h-.574Zm3.006-.514,1.064-2.66.864,2.146-.748,1.871h-.634Zm3.006-.514,1.064-2.66.864,2.147-.718,1.795h-.694Zm3.006-.513,1.064-2.66.863,2.145-.688,1.72h-.755Zm3.005-.515,1.064-2.661.864,2.147-.658,1.645h-.815Zm3.006-.514,1.064-2.66.863,2.147-.627,1.568h-.876Zm3.005-.513,1.064-2.661.864,2.146-.6,1.493h-.936Zm3-.515,1.065-2.661.864,2.147-.567,1.418h-1Zm3.007-.514,61.266-153.166h1.722l-61.6,153.994h-1.058Zm177.8-61.9-9.409,23.381v-20.655l8.816-21.908h.593Zm-354.157,14.134,4.2,10.439v5.869l-4.2-10.439Zm-1,3.384-4.2-10.437v-5.145h.291l3.91,9.713Zm232.492,30.6-57.6,143.13h-84.333l-63.553-157.92v-5.872l62.9,156.286.126.314h79.447l63.02-156.6Zm-142.736,143.817.126.313h85.684l56.926-141.452v20.658l-51.507,127.985H3784.3l-63.41-157.563v-5.87Zm153.887-148.19-10.151,25.224v-20.657l10.151-25.225Zm22.3-8.748-10.151,25.224v-20.656l10.044-24.958h.107Zm11.151-4.376-10.151,25.224V1358.19l9.983-24.807h.168Zm11.152-4.374-10.152,25.225v-20.657l9.922-24.654h.23Zm11.151-4.374-10.151,25.225V1349.44l9.861-24.5h.29Zm11.151-4.373-10.151,25.224v-20.656l9.8-24.354h.35Zm-11.151,27.709-10.151,25.225v-20.657l10.151-25.225Zm-282.8-.851,4.2,10.437v5.869l-4.2-10.437Zm-1,3.384-4.2-10.437v-5.868l4.2,10.436Zm73.866,160.576.126.314h98.162l44.736-111.163v20.656l-39.318,97.7H3784.016l-63.123-156.85V1376.1Zm-62.464-157.894v-5.869l62.608,155.571.126.313h91.923l50.831-126.306v20.657l-45.412,112.842h-96.81Zm216.639,63.325-10.151,25.224v-20.654l10.151-25.224Zm1-23.139,10.117-25.138.005,20.641-10.122,25.151Zm-12.151,50.848-33.225,82.558H3783.871l-62.978-156.491v-5.872l62.321,154.858.126.313h104.4l38.643-96.02Zm1-25.818v-20.656l10.151-25.225v20.656Zm-207.488-59.151-4.2-10.439v-5.871l4.2,10.439Zm0,2.679v5.872l-4.2-10.439v-5.872Zm-5.2-7.052-4.2-10.437v-5.872l4.2,10.437Zm1,5.164,4.2,10.439v5.869l-4.2-10.439Zm5.2,12.924,62.176,154.5.126.314h110.637l32.549-80.879v20.657l-27.13,67.414H3783.728l-62.835-156.135Zm206.488,71.448,10.151-25.224v20.657l-10.151,25.225Zm11.151-27.709,10.123-25.153,0,20.644-10.128,25.166Zm11.152-27.709,10.151-25.224v20.656l-10.151,25.225Zm-1.023,25.877.005,20.644-10.134,25.181v-20.657Zm1.023-2.541,10.151-25.225V1428l-10.151,25.225Zm11.151-27.71,10.151-25.224v20.656l-10.151,25.225Zm10.151-1.888v20.656l-10.151,25.225v-20.657Zm1-2.485,10.152-25.225v20.657l-10.152,25.224Zm10.152-27.9-10.152,25.225V1377.15l10.152-25.225Zm-11.152,4.374-10.151,25.224v-20.656l10.151-25.225Zm-11.151,4.373-10.151,25.225V1385.9l10.151-25.224Zm-11.187,4.464-10.116,25.136v-20.655l10.111-25.123Zm-10.116,1.8v-20.656l10.1-25.108.005,20.643Zm-1,2.485-10.151,25.225v-20.657l10.151-25.224Zm-217.639-27.688-4.2-10.439v-5.871l4.2,10.439Zm0,2.678v5.869l-4.2-10.439v-5.869Zm-5.2-7.055-4.2-10.436v-5.748h.049l4.151,10.316Zm0,2.679v5.871l-4.2-10.437v-5.871Zm-5.2-7.05-4.2-10.437v-5.6h.109l4.091,10.165Zm0,2.678v5.872l-4.2-10.436v-5.872Zm-5.2-7.049-4.2-10.439v-5.45h.17l4.031,10.017Zm0,2.679v5.869l-4.2-10.44v-5.869Zm-5.2-7.055-4.2-10.44v-5.3h.23l3.971,9.867Zm1,5.163,4.2,10.439v5.87l-4.2-10.44Zm5.2,12.924,4.2,10.437v5.869l-4.2-10.437Zm5.2,12.922,4.2,10.437v5.869l-4.2-10.437Zm5.2,12.922,4.2,10.439v5.869l-4.2-10.439Zm5.2,12.924,62.033,154.143.126.313h116.875l26.454-65.734v16.582h1.64l-22.675,56.344H3783.584l-62.691-155.779Zm206.488,104.3v-18.067l10.151-25.225v20.657l-9.109,22.635Zm10.151-19.956v19.956H3929.5Zm1-2.484,10.135-25.183.005,20.642-10.14,25.2Zm11.152-27.71,10.151-25.225v20.656l-10.151,25.225Zm10.151-1.889v20.655l-10.151,25.224V1479.24Zm1-2.485,10.151-25.225v20.655l-10.151,25.225Zm11.151-27.71,10.152-25.224v20.655l-10.152,25.225Zm11.152-27.709,10.151-25.225v20.656l-10.151,25.224Zm11.151-27.709,10.151-25.225v20.656l-10.151,25.224Zm11.151-27.71,9.741-24.2h.411v19.635l-10.152,25.224Zm10.152-1.889v20.656l-10.152,25.225v-20.657Zm1-2.485,3.474-8.634v20.656l-3.474,8.634Zm10.151-4.568-5.677,14.1V1325.2l5.205-12.933h.472Zm11.152,18.96-10.152,25.224v-20.654l10.152-25.225Zm0-23.334-10.152,25.224v-20.656l9.619-23.9h.533Zm-11.152,27.709-5.677,14.106v-20.656l5.677-14.106Zm-6.677-4.065v20.656l-3.474,8.634v-20.657Zm0,23.335v20.655l-3.474,8.634V1382.99Zm1-2.485,5.677-14.106v20.655l-5.677,14.106Zm5.677,9.228v20.656l-5.677,14.106V1395.2Zm1-2.484,10.152-25.225v20.656l-10.152,25.224Zm10.894-71.572h-1.95l-8.944,22.223v-18H4025.6l-4.53,11.254v-91.785h-85.353l5.044-12.61h97.88Zm-354.149,13.67h.352l3.848,9.563v5.872l-4.2-10.436Zm5.2,12.048,4.2,10.437v5.872l-4.2-10.437Zm5.2,12.922,4.2,10.439v5.872l-4.2-10.439Zm5.2,12.924,4.2,10.439v5.872l-4.2-10.439Zm5.2,12.924,4.2,10.437v5.872l-4.2-10.437Zm5.2,12.922,4.2,10.437v5.871l-4.2-10.436Zm5.2,12.922,4.2,10.439v5.872l-4.2-10.44Zm5.2,12.924,61.889,153.787.126.313h123.113l23.078-57.344h8.313l-25.973,64.537h-128l-62.547-155.422Zm227.78,71.453,0,20.641-1.473,3.662h-8.313Zm.006,23.319v.984h-.4Zm1.005-2.5,10.151-25.224v20.657l-3.239,8.048h-6.912Zm11.151-27.709,10.151-25.224V1470.3l-10.151,25.225Zm11.151-27.709,10.152-25.225v20.657l-10.152,25.225Zm11.152-27.709,10.151-25.225v20.657l-10.151,25.224Zm11.151-27.71,10.151-25.224v20.656l-10.151,25.225Zm10.151-1.888v20.656l-10.151,25.225v-20.657Zm1-2.485,10.152-25.225V1382.8l-10.152,25.224Zm10.152-1.889v20.655l-10.152,25.224V1410.7Zm0,23.334v20.655l-10.152,25.225v-20.656Zm1-2.485,3.474-8.634v20.656l-3.474,8.634Zm3.474,14.7v20.657l-3.474,8.634v-20.657Zm1-2.485,5.677-14.106v20.657l-5.677,14.106Zm6.677-16.591,10.152-25.224v20.657l-10.152,25.224Zm11.894-52.888,9.409-23.381v20.656l-9.409,23.381Zm-99.558-131.935h-1.722l5.044-12.61h1.722Zm-.4,1-5.044,12.61h-1.722l5.044-12.61Zm-7.844,12.61h-1.723l5.044-12.61h1.723Zm-.4,1-60.729,151.823-.864-2.148,59.87-149.675ZM3869.3,1380.068l-.863-2.146,58.474-146.186h1.722Zm-.538,1.344-1.064,2.661-.863-2.146,1.064-2.661Zm-2.468-.829-.863-2.146,1.064-2.661.864,2.147Zm-.537,1.344-1.064,2.661-.864-2.147,1.064-2.661Zm-2.468-.83-.864-2.147,1.064-2.66.864,2.147Zm-.538,1.344-1.064,2.66-.864-2.148,1.064-2.659Zm-2.468-.831-.863-2.146,1.064-2.659.863,2.145Zm-.537,1.344-1.065,2.661-.863-2.146,1.064-2.661Zm-2.468-.828-.864-2.147,1.064-2.661.864,2.147Zm-.538,1.343-1.064,2.661-.864-2.147,1.064-2.66Zm-2.468-.829-.864-2.147,1.064-2.661.864,2.147Zm-.538,1.343-1.063,2.66-.864-2.147,1.064-2.66Zm-2.468-.83-.864-2.148,1.064-2.659.864,2.147Zm-.537,1.343-1.064,2.661-.864-2.147,1.064-2.661Zm-2.469-.829-.864-2.147,1.065-2.661.864,2.147Zm-.537,1.343-1.065,2.661-.863-2.147,1.064-2.661Zm-2.469-.829-.863-2.146,1.065-2.66.863,2.145Zm-.537,1.344-1.064,2.66-.863-2.146,1.063-2.66Zm-2.468-.829-.864-2.147,1.064-2.661.864,2.148Zm-.537,1.344-1.065,2.661-.864-2.148,1.065-2.661Zm-2.469-.83-.864-2.147,1.065-2.661.863,2.147Zm-.537,1.343-1.064,2.66-.864-2.147,1.064-2.659Zm-2.469-.83-.863-2.146,1.064-2.659.863,2.145Zm-.537,1.344-1.064,2.66-.864-2.145,1.065-2.661Zm-2.468-.829-.864-2.147,1.064-2.661.864,2.148Zm-.537,1.344-1.065,2.661-.863-2.148,1.064-2.661Zm-2.469-.83-.864-2.147,1.065-2.661.863,2.147Zm-.537,1.344-1.064,2.659-.864-2.146,1.064-2.66Zm-2.468-.831-73.8-183.436-.126-.313H3600.969v319.922h35.713v7.193H3589.35V1190.9h161.006l77.93,193.7Zm-225.254,135.173V1204.516h150.65l74.066,184.093-1.064,2.66-69.936-173.83-.126-.313H3613.588v298.121h23.094v7.191Zm35.713-7.191h4.2v7.191h-4.2Zm0-1v-7.192h4.2v7.192Zm5.2-7.192h4.2v7.192h-4.2Zm0-1V1293.4l4.2,10.436v202.219Zm5.2-199.734,4.2,10.437v189.3h-4.2Zm0-2.679v-5.871l4.2,10.437v5.871Zm5.2,7.051,4.2,10.439V1327l-4.2-10.439Zm0-2.679v-5.87l4.2,10.44v5.869Zm5.2,7.055,4.2,10.439v5.87l-4.2-10.44Zm0-2.679v-5.869l4.2,10.439v5.869Zm5.2,7.055,4.2,10.437v5.869l-4.2-10.437Zm0-2.679V1310.9l4.2,10.437v5.871Zm5.2,7.051,4.2,10.436v5.872l-4.2-10.437Zm0-2.679v-5.872l4.2,10.437v5.872Zm5.2,7.049,4.2,10.44v5.872l-4.2-10.439Zm0-2.678v-5.869l4.2,10.439v5.869Zm5.2,7.055,4.2,10.439v5.869l-4.2-10.439Zm0-2.679v-5.869l4.2,10.439v5.869Zm5.2,7.055,4.2,10.437v5.869l-4.2-10.437Zm0-2.679v-5.871l4.2,10.437v5.871Zm5.2,7.051,4.2,10.437v5.871l-4.2-10.437Zm5.2,12.922,4.2,10.439v5.871l-4.2-10.44Zm5.2,12.924,4.2,10.439v5.871l-4.2-10.439Zm5.2,12.924,4.2,10.437v5.87l-4.2-10.437Zm5.2,12.921,4.2,10.437v5.871l-4.2-10.437Zm5.2,12.922,4.2,10.439v5.871l-4.2-10.439Zm5.2,12.924,61.746,153.429.126.314h129.35l25.417-63.157v5.812h5.973l-25.972,64.536H3783.3l-62.4-155.063Zm217.639,95.4v-7.192h8.27l-2.894,7.192Zm9.348-7.192h.8l0,7.192h-3.695Zm1.8,0h6.51l-2.9,7.192h-3.615Zm7.588,0h2.563v7.192h-5.458Zm.4-1,2.161-5.369v5.369Zm3.161-7.854,10.151-25.224v20.657l-5,12.421h-5.153Zm11.151-27.709,10.152-25.225v20.657l-10.152,25.225Zm11.152-27.71,10.151-25.224v20.657l-10.151,25.224Zm10.151-1.888v20.654l-10.151,25.225v-20.654Zm1-2.485,10.151-25.225v20.655l-10.151,25.225Zm10.151-1.891v20.656l-10.151,25.224v-20.655Zm0,23.335v20.657l-10.151,25.225v-20.657Zm1-2.485,10.152-25.224V1452.8l-10.152,25.224Zm10.152-1.888v20.657l-10.152,25.224V1480.7Zm1-2.485,3.474-8.634v20.657l-3.474,8.634Zm4.474-11.119,5.677-14.106v20.657l-5.677,14.106Zm6.677-16.591,10.152-25.224v20.657l-10.152,25.224Zm11.894-52.889,9.409-23.38v20.656l-9.409,23.38Zm10.409-25.865,7.161-17.8v20.657l-7.161,17.794Zm8.161-20.279,1.99-4.946v20.657l-1.99,4.945Zm2.99-7.431,9.437-23.448h.715v18.88l-10.152,25.225Zm8.761-24.448-8.761,21.769V1298.6h-2.33l-.66,1.64v-96.721H3946.6l5.045-12.612h124.131v112.344l-3.428,8.52v-17.395ZM3950.968,1189.9h-1.722l5.044-12.61h1.722Zm-.4,1-5.045,12.612H3943.8l5.044-12.612Zm-7.845,12.612H3941l5.044-12.612h1.723Zm-.4,1-5.044,12.61h-1.722l5.044-12.61Zm-7.844,12.61h-1.722l5.044-12.61h1.722Zm-.4,1-5.044,12.61h-1.722l5.044-12.61Zm-7.844,12.61h-1.723l5.045-12.61h1.722Zm-.4,1L3867.9,1376.579l-.864-2.147,57.078-142.7Zm-59.341,141.353-.864-2.147,55.682-139.206h1.723Zm-.537,1.343-1.065,2.662-.864-2.148,1.065-2.661Zm-2.469-.829-.863-2.146,1.064-2.661.863,2.146Zm-.538,1.343-1.064,2.661-.863-2.146,1.064-2.66Zm-2.467-.828-.864-2.147,1.064-2.66.864,2.147Zm-.538,1.343-1.064,2.66-.863-2.147,1.064-2.659Zm-2.468-.83-.863-2.147,1.063-2.66.864,2.147Zm-.537,1.344-1.065,2.661-.863-2.147,1.064-2.661Zm-2.469-.829-.864-2.148,1.065-2.661.864,2.148Zm-.537,1.343-1.064,2.66-.864-2.147,1.064-2.66Zm-2.469-.83-.863-2.147,1.064-2.66.864,2.147Zm-.537,1.343-1.064,2.66-.864-2.147,1.064-2.659Zm-2.468-.83-.863-2.146,1.063-2.659.864,2.145Zm-.538,1.344-1.064,2.661-.863-2.146,1.064-2.661Zm-2.468-.828-.864-2.148,1.065-2.661.864,2.148Zm-.537,1.343-1.064,2.661-.864-2.147,1.064-2.661Zm-2.469-.83-.864-2.146,1.065-2.661.864,2.147Zm-.537,1.344-1.064,2.661-.864-2.147,1.064-2.661Zm-2.469-.83-.863-2.145,1.064-2.661.864,2.146Zm-.537,1.344-1.064,2.661-.863-2.146,1.064-2.661Zm-2.468-.828-.864-2.148,1.064-2.66.864,2.147Zm-.537,1.343-1.064,2.66-.864-2.147,1.064-2.66Zm-2.469-.83-.863-2.147,1.064-2.66.863,2.147Zm-.537,1.343-1.064,2.661-.864-2.147,1.064-2.661Zm-2.468-.829L3748.9,1176.607l-.126-.313h-173.04v363.529h60.953v7.192h-72.573V1163.684h181.72L3831.49,1376.6Zm-253.7,159.565V1177.294h171.364l81.795,203.307-1.064,2.661-77.666-193.044-.126-.314H3588.35v341.727h48.332v7.192Zm60.953-7.192h4.2v7.192h-4.2Zm0-1v-7.193h4.2v7.193Zm5.2-7.193h4.2v7.193h-4.2Zm0-1v-7.191h4.2v7.191Zm5.2-7.191h4.2v7.191h-4.2Zm0-1v-7.192h4.2v7.192Zm5.2-7.192h4.2v7.192h-4.2Zm0-1V1319.243l4.2,10.439v176.373Zm5.2-173.888,4.2,10.439v163.449h-4.2Zm0-2.679v-5.871l4.2,10.439v5.871Zm5.2,7.053,4.2,10.437v5.871l-4.2-10.437Zm0-2.679v-5.869l4.2,10.436v5.87Zm5.2,7.052,4.2,10.437v5.87l-4.2-10.437Zm0-2.678v-5.869l4.2,10.436v5.869Zm5.2,7.052,4.2,10.44v5.869l-4.2-10.44Zm0-2.679v-5.871l4.2,10.44v5.871Zm5.2,7.053,4.2,10.44v5.871l-4.2-10.44Zm0-2.678v-5.872l4.2,10.439v5.872Zm5.2,7.052,4.2,10.436v5.873l-4.2-10.437Zm0-2.679v-5.869l4.2,10.437v5.869Zm5.2,7.052,4.2,10.437v5.869l-4.2-10.436Zm0-2.678v-5.869l4.2,10.436v5.869Zm5.2,7.052,4.2,10.439v5.87l-4.2-10.44Zm5.2,12.924,4.2,10.439v5.87l-4.2-10.44Zm5.2,12.924,4.2,10.437v5.869l-4.2-10.437Zm5.2,12.922,4.2,10.437v5.869l-4.2-10.437Zm5.2,12.921,4.2,10.44v5.869l-4.2-10.439Zm5.2,12.924,61.6,153.072.126.313h135.588l26.374-65.536h4.1l0,8.191h.916l-25.972,64.538H3783.153l-62.26-154.708Zm228.791,95.04v-7.191h3.213l-2.894,7.191Zm11.151-7.191h1.453l-1.453,3.611Zm0-1v-7.192h4.75l-2.894,7.192Zm5.829-7.192h4.322v7.192h-7.217Zm.4-1,3.92-9.742v9.742Zm4.92-12.227,10.152-25.224v20.654l-6.76,16.8h-3.392Zm10.152-1.891v14.118h-5.682Zm11.151-4.374v18.492h-7.442Zm11.151-4.374v20.657l-.888,2.209h-8.313Zm1,20.852,10.152-25.225v20.655l-2.65,6.584h-7.5Zm10.152-1.89v3.9h-1.571Zm1-2.485,3.474-8.634v15.023h-3.474Zm0-2.679v-20.656l3.474-8.634v20.656Zm4.474-31.775,5.677-14.106v20.656l-5.677,14.106Zm6.677-16.59L4037.9,1423.4v20.656l-10.152,25.224Zm11.894-52.89,9.409-23.381v20.657l-9.409,23.381Zm10.409-25.866,7.161-17.794v20.657l-7.161,17.794Zm8.161-20.279,1.99-4.945V1365.3l-1.99,4.945Zm2.99-7.43,10.152-25.225v20.657l-10.152,25.225Zm11.152-27.71,3.428-8.52v20.658l-3.428,8.519Zm3.428,14.817v20.656l-3.428,8.52v-20.656Zm1-2.485,5.723-14.22v20.656l-5.723,14.22Zm6.723-16.705,9.315-23.147h.836v18.579L4083.5,1330.73Zm-126.01-133.78,5.044-12.61h150.384v383.331H4105.8V1281.7h-2.573l-7.882,19.588v-125Zm-3.878,0h-1.723l5.045-12.61h1.722Zm-.4,1-5.044,12.61h-1.723l5.044-12.61Zm-7.845,12.61h-1.722l5.044-12.61h1.723Zm-.4,1-5.045,12.612H3938.2l5.044-12.612Zm-7.845,12.612H3935.4l5.044-12.612h1.722Zm-.4,1-5.044,12.61h-1.722l5.043-12.61Zm-7.844,12.61h-1.723l5.044-12.61h1.723Zm-.4,1-5.044,12.61h-1.723l5.044-12.61Zm-7.845,12.61h-1.721l5.044-12.61h1.721Zm-.4,1L3865.09,1369.6l-.863-2.145,54.285-135.717Zm-56.548,134.373-.864-2.146,52.89-132.227h1.723Zm-.538,1.344-1.064,2.661-.864-2.147,1.065-2.661Zm-2.468-.829-.864-2.147,1.065-2.661.863,2.147Zm-.537,1.343-1.064,2.661-.864-2.147,1.064-2.66Zm-2.469-.829-.863-2.148,1.064-2.66.864,2.147Zm-.537,1.343-1.064,2.66-.864-2.147,1.064-2.66Zm-2.468-.831-.864-2.146,1.064-2.66.863,2.147Zm-.538,1.344-1.064,2.661-.864-2.147,1.065-2.661Zm-2.468-.829-.864-2.146,1.065-2.661.863,2.146Zm-.538,1.343-1.064,2.661-.863-2.146,1.064-2.66Zm-2.468-.828-.864-2.148,1.065-2.66.864,2.147Zm-.537,1.343-1.064,2.66-.864-2.147,1.064-2.66Zm-2.468-.83-.864-2.147,1.064-2.66.864,2.147Zm-.538,1.343-1.064,2.661-.864-2.147,1.064-2.661Zm-2.468-.829-.864-2.146,1.065-2.661.863,2.146Zm-.538,1.344-1.064,2.66-.863-2.145,1.064-2.661Zm-2.468-.829-.864-2.147,1.065-2.661.864,2.147Zm-.537,1.344-1.064,2.66-.864-2.147,1.064-2.66Zm-2.469-.83-.863-2.147,1.064-2.661.864,2.147Zm-.537,1.343-1.064,2.661-.864-2.147,1.064-2.661Zm-2.469-.829-89.26-221.863-.126-.314H3550.49v407.134h86.192v7.192h-97.811V1136.463H3741.3l93.39,232.126ZM3551.49,1555.207V1150.073h192.076l89.525,222.521-1.064,2.659L3746.631,1163l-.126-.313h-183.4v385.331h73.573v7.192Zm86.192-7.192h4.2v7.192h-4.2Zm0-1v-7.192h4.2v7.192Zm5.2-7.192h4.2v7.192h-4.2Zm0-1v-7.192h4.2v7.192Zm5.2-7.192h4.2v7.192h-4.2Zm0-1v-7.193h4.2v7.193Zm5.2-7.193h4.2v7.193h-4.2Zm0-1v-7.191h4.2v7.191Zm5.2-7.191h4.2v7.191h-4.2Zm0-1v-7.192h4.2v7.192Zm5.2-7.192h4.2v7.192h-4.2Zm0-1V1345.091l4.2,10.437v150.527Zm5.2-148.042,4.2,10.436v137.606h-4.2Zm0-2.679v-5.871l4.2,10.437v5.871Zm5.2,7.051,4.2,10.439v5.871l-4.2-10.439Zm0-2.679v-5.87l4.2,10.439v5.87Zm5.2,7.054,4.2,10.439v5.87l-4.2-10.439Zm0-2.679v-5.869l4.2,10.44v5.869Zm5.2,7.055,4.2,10.437v5.869l-4.2-10.436Zm0-2.678v-5.871l4.2,10.436v5.871Zm5.2,7.05,4.2,10.437v5.871l-4.2-10.437Zm0-2.679v-5.872l4.2,10.437v5.872Zm5.2,7.05,4.2,10.439v5.872l-4.2-10.439Zm0-2.679v-5.869l4.2,10.439v5.87Zm5.2,7.055,4.2,10.439v5.87l-4.2-10.44Zm5.2,12.924,4.2,10.437v5.869l-4.2-10.436Zm5.2,12.922,4.2,10.437v5.869l-4.2-10.437Zm5.2,12.921,4.2,10.44v5.869l-4.2-10.439Zm5.2,12.925,61.459,152.715.126.314H3924.3l26.374-65.538h8.314l-29.269,72.73H3783.01l-62.117-154.352Zm239.942,85.591,2.531-6.291h7.62v1.72l-2.2,5.471h-7.95Zm11.151-7.291v-7.192h2.99l-2.9,7.192Zm4.068-7.192h6.084v5.538l-.666,1.654h-8.313Zm7.084,5.732,2.307-5.732h7.844v1.165l-2.426,6.027h-7.725Zm10.151-1.888v3.348h-1.347Zm1-2.485.547-1.359h8.313l-2.894,7.192h-5.966Zm9.939-1.359h.212v7.192h-3.107Zm1.212,0h7.1l-2.894,7.192h-4.206Zm8.178,0h1.974v7.192h-4.868Zm2.974,0h4.474v-18.508l5.677-14.106v39.806h-10.151Zm11.151-35.1,10.152-25.225v67.515h-10.152Zm11.894-52.889,9.409-23.38v20.655l-9.409,23.381Zm18.57-46.145,1.99-4.945v20.656l-1.99,4.945Zm2.99-7.43,10.152-25.224v20.656l-10.152,25.224Zm10.152-1.889v167.027H4061.2v-141.8Zm1-2.485,3.428-8.52v178.032h-3.428Zm4.428,170.512V1350.114l5.723-14.22v202.929h-10.151v-7.192Zm6.723-198.222,10.151-25.224v230.638H4083.5Zm10.151,206.414v7.192H4083.5v-7.192Zm1,0h.7V1303.97l8.558-21.267h.9v264.312h-10.152Zm10.152,8.192v7.192h-10.152v-7.192Zm1,0h8.115V1162.684H3962.934l5.044-12.611h163.51v405.134H4105.8Zm26.685,8.192V1149.073h-164.11l5.044-12.61h176.637V1563.4H4105.8v-7.192ZM3964.5,1149.073h-1.722l5.044-12.61h1.722Zm-.4,1-5.044,12.611h-1.723l5.045-12.611Zm-7.844,12.611h-1.723l5.044-12.611h1.723Zm-.4,1-5.044,12.61h-1.723l5.044-12.61Zm-7.845,12.61h-1.722l5.044-12.61h1.723Zm-.4,1-5.045,12.61h-1.722l5.044-12.61Zm-7.845,12.61h-1.722l5.044-12.61h1.723Zm-.4,1-5.044,12.612H3932.6l5.045-12.612Zm-7.844,12.612H3929.8l5.044-12.612h1.722Zm-.4,1-5.044,12.61h-1.723l5.045-12.61Zm-7.844,12.61h-1.723l5.045-12.61h1.722Zm-.4,1-5.044,12.61h-1.723l5.044-12.61Zm-7.844,12.61h-1.723l5.044-12.61h1.723Zm-.4,1-52.353,130.883-.864-2.146,51.494-128.737Zm-53.757,127.393-.864-2.147,50.1-125.246h1.722Zm-.538,1.344-1.064,2.661-.864-2.148,1.064-2.661Zm-2.468-.83-.864-2.147,1.064-2.661.864,2.147Zm-.538,1.344-1.064,2.66-.864-2.147,1.064-2.66Zm-2.468-.83-.864-2.146,1.065-2.66.863,2.146Zm-.538,1.343-1.064,2.66-.863-2.145,1.064-2.66Zm-2.467-.829-.864-2.147,1.064-2.66.864,2.147Zm-.538,1.344-1.064,2.661-.864-2.147,1.064-2.661Zm-2.468-.83-.864-2.147,1.064-2.66.864,2.146Zm-.538,1.344-1.064,2.66-.864-2.147,1.065-2.66Zm-2.468-.83-.863-2.146,1.064-2.66.863,2.146Zm-.537,1.344-1.064,2.66-.864-2.146,1.064-2.66Zm-2.468-.83-.864-2.147,1.064-2.66.864,2.147Zm-.538,1.344-1.064,2.661-.864-2.147,1.064-2.661Zm-2.468-.83-.864-2.147,1.064-2.66.864,2.146Zm-.538,1.344-1.064,2.661-.864-2.147,1.065-2.661Zm-2.468-.829-96.991-241.077-.126-.313H3525.251v450.74h111.431v7.191H3513.631V1109.241h223.144l101.121,251.34Zm-310.581,208.35v-448.74h212.788l97.255,241.733-1.064,2.661-93.126-231.47-.125-.313H3537.871V1564.4h98.811v7.193Zm111.431-7.193h4.2v7.193h-4.2Zm0-1v-7.192h4.2v7.192Zm5.2-7.192h4.2v7.192h-4.2Zm0-1v-7.192h4.2v7.192Zm5.2-7.192h4.2v7.192h-4.2Zm0-1v-7.192h4.2v7.192Zm5.2-7.192h4.2v7.192h-4.2Zm0-1v-7.192h4.2v7.192Zm5.2-7.192h4.2v7.192h-4.2Zm0-1v-7.193h4.2v7.193Zm5.2-7.193h4.2v7.193h-4.2Zm0-1v-7.191h4.2v7.191Zm5.2-7.191h4.2v7.191h-4.2Zm0-1v-7.192h4.2v7.192Zm5.2-7.192h4.2v7.192h-4.2Zm0-1V1370.934l4.2,10.44v124.681Zm5.2-122.2,4.2,10.44v111.757h-4.2Zm0-2.678v-5.871l4.2,10.439v5.871Zm5.2,7.053,4.2,10.437v5.871l-4.2-10.437Zm0-2.679v-5.87l4.2,10.437v5.87Zm5.2,7.052,4.2,10.437v5.87l-4.2-10.437Zm0-2.679v-5.869l4.2,10.437v5.869Zm5.2,7.053,4.2,10.439v5.869l-4.2-10.439Zm0-2.679v-5.871l4.2,10.439v5.871Zm5.2,7.053,4.2,10.439v5.871l-4.2-10.439Zm0-2.679V1392.8l4.2,10.439v5.873Zm5.2,7.052,4.2,10.437v5.872l-4.2-10.437Zm5.2,12.922,4.2,10.437v5.872l-4.2-10.437Zm5.2,12.922,4.2,10.439v5.872l-4.2-10.439Zm5.2,12.924,61.315,152.359.126.314H3930.4l29.437-73.146v7.609h5.25l-29.269,72.728H3782.865l-61.972-153.992Zm239.942,86.136v-7.193h7.547l-2.894,7.193Zm8.625-7.193h1.526v7.193h-4.42Zm.4-1,1.123-2.791v2.791Zm2.123-5.276.771-1.915h8.312l-2.894,7.191h-6.189Zm10.152-1.89v7.166h-2.885Zm1-.025h7.323l-2.894,7.191h-4.429Zm8.4,0h1.75v7.191h-4.644Zm9.391,0h3.51v7.191h-6.4Zm9.391,0h5.271v7.191h-8.165Zm6.271,0h10.151v7.191h-10.151Zm11.151,0H4037.9v7.191h-10.152Zm11.152,0h.742V1442.4l9.409-23.381v103.416H4038.9Zm10.151,8.191v7.193H4038.9v-7.193Zm1,0h8.161V1396.259l1.99-4.946v139.318h-10.151Zm10.151,8.193v7.192h-10.151v-7.192Zm1,0h10.152v7.192H4061.2Zm10.152,8.192v7.192H4061.2v-7.192Zm1,0H4082.5v7.192h-10.151Zm10.151,8.192v7.192h-10.151v-7.192Zm1,0h10.151v7.192H4083.5Zm10.151,8.192v7.192H4083.5v-7.192Zm1,0H4104.8v7.192h-10.152Zm10.152,8.192v7.193h-10.152V1564.4Zm1,0h45.256V1135.463H3973.822l5.045-12.611h189.762v448.74H4105.8Zm63.826,8.193v-450.74H3979.267l5.044-12.611H4187.2v470.542h-81.4v-7.191Zm-194.24-450.74h-1.722l5.043-12.611h1.723Zm-.4,1-5.045,12.611h-1.722l5.044-12.611Zm-7.845,12.611h-1.722l5.044-12.611h1.722Zm-.4,1-5.044,12.61h-1.722l5.043-12.61Zm-7.844,12.61h-1.723l5.044-12.61h1.723Zm-.4,1-5.044,12.611h-1.723l5.044-12.611Zm-7.844,12.611h-1.723l5.044-12.611h1.723Zm-.4,1-5.045,12.61h-1.722l5.044-12.61Zm-7.845,12.61h-1.722l5.044-12.61h1.722Zm-.4,1-5.044,12.61h-1.722l5.044-12.61Zm-7.844,12.61h-1.722l5.044-12.61h1.722Zm-.4,1-5.044,12.612H3927l5.045-12.612Zm-7.844,12.612H3924.2l5.045-12.612h1.722Zm-.4,1-5.044,12.61h-1.723l5.044-12.61Zm-7.844,12.61h-1.723l5.044-12.61h1.723Zm-.4,1-5.045,12.61h-1.722l5.044-12.61Zm-7.845,12.61h-1.723l5.045-12.61h1.722Zm-.4,1-49.561,123.9-.863-2.147,48.7-121.756Zm-50.965,120.413-.863-2.146,47.306-118.267h1.722Zm-.537,1.343-1.065,2.661-.863-2.146,1.064-2.661Zm-2.468-.828-.864-2.147,1.064-2.661.864,2.147Zm-.538,1.344-1.064,2.66-.864-2.147,1.064-2.661Zm-2.468-.831-.864-2.146,1.064-2.661.864,2.147Zm-.537,1.344-1.064,2.66-.864-2.147,1.064-2.66Zm-2.469-.83-.863-2.146,1.064-2.66.863,2.146Zm-.537,1.343-1.065,2.661-.863-2.146,1.064-2.661Zm-2.468-.828-.864-2.147,1.064-2.661.864,2.147Zm-.538,1.344-1.064,2.66-.864-2.147,1.065-2.661Zm-2.468-.831-.864-2.146,1.064-2.661.864,2.147Zm-.538,1.344-1.064,2.66-.863-2.147,1.064-2.66Zm-2.468-.83-104.722-260.289-.125-.313H3500.012v494.345h136.67v7.192H3488.393V1082.021h243.856l108.85,270.552Zm-339.023,232.743V1095.631h233.5L3839.5,1356.576l-1.064,2.661-100.857-250.682-.126-.314h-224.82v472.542h124.051v7.193Zm136.67-7.193h4.2v7.193h-4.2Zm0-1v-7.191h4.2v7.191Zm5.2-7.191h4.2v7.191h-4.2Zm0-1V1564.4h4.2v7.193Zm5.2-7.193h4.2v7.193h-4.2Zm0-1v-7.192h4.2v7.192Zm5.2-7.192h4.2v7.192h-4.2Zm0-1v-7.192h4.2v7.192Zm5.2-7.192h4.2v7.192h-4.2Zm0-1v-7.192h4.2v7.192Zm5.2-7.192h4.2v7.192h-4.2Zm0-1v-7.192h4.2v7.192Zm5.2-7.192h4.2v7.192h-4.2Zm0-1v-7.193h4.2v7.193Zm5.2-7.193h4.2v7.193h-4.2Zm0-1v-7.191h4.2v7.191Zm5.2-7.191h4.2v7.191h-4.2Zm0-1v-7.192h4.2v7.192Zm5.2-7.192h4.2v7.192h-4.2Zm0-1V1396.782l4.2,10.437v98.836Zm5.2-96.351,4.2,10.437v85.914h-4.2Zm0-2.679v-5.87l4.2,10.436v5.871Zm5.2,7.051,4.2,10.439v5.871l-4.2-10.439Zm0-2.679v-5.869l4.2,10.439v5.87Zm5.2,7.055,4.2,10.439v5.87l-4.2-10.439Zm0-2.679V1409.9l4.2,10.439v5.869Zm5.2,7.055,4.2,10.437v5.869l-4.2-10.437Zm0-2.679v-5.871l4.2,10.437v5.871Zm5.2,7.051,4.2,10.437v5.871l-4.2-10.437Zm5.2,12.922,4.2,10.439v5.871l-4.2-10.44Zm5.2,12.924,61.17,152,.126.313h154.3l29.671-73.728h4.823v8.192h.193l-29.269,72.729H3782.722l-61.829-153.636Zm251.093,78.585h2.49l-2.49,6.186Zm0-1v-7.193h5.787l-2.9,7.193Zm6.865-7.193h3.287v7.193h-6.181Zm9.392,0h5.046v7.193h-7.941Zm9.391,0h6.806v3.743l-1.388,3.45h-8.312Zm6.806,6.422v.771h-.31Zm1-2.485,1.585-3.937h8.567v7.193H4005.44Zm11.152-3.937h10.151v7.193h-10.151Zm11.151,0H4037.9v7.193h-10.152Zm10.152,8.193v7.192h-10.152v-7.192Zm1,0h10.151v7.192H4038.9Zm10.151,8.192v7.192H4038.9v-7.192Zm1,0H4060.2v7.192h-10.151Zm10.151,8.192v7.192h-10.151v-7.192Zm1,0h10.152v7.192H4061.2Zm10.152,8.192v7.192H4061.2v-7.192Zm1,0H4082.5v7.192h-10.151Zm10.151,8.192v7.193h-10.151V1564.4Zm1,0h10.151v7.193H4083.5Zm10.151,8.193v7.191H4083.5v-7.191Zm1,0H4104.8v7.191h-10.152Zm10.152,8.191v7.193h-10.152v-7.193Zm1,0h82.4V1108.241H3984.711l5.044-12.61h216.014v492.345H4105.8Zm100.966,8.193V1094.631H3990.155l5.044-12.61h229.14v514.147H4105.8v-7.192Zm-220.492-494.345h-1.722l5.044-12.61h1.722Zm-.4,1-5.044,12.61h-1.722l5.044-12.61Zm-7.844,12.61h-1.723l5.044-12.61h1.723Zm-.4,1-5.044,12.611h-1.723l5.044-12.611Zm-7.845,12.611h-1.722l5.044-12.611h1.723Zm-.4,1-5.044,12.611h-1.722l5.044-12.611Zm-7.844,12.611h-1.723l5.045-12.611h1.722Zm-.4,1-5.044,12.61h-1.723l5.044-12.61Zm-7.844,12.61h-1.723l5.045-12.61h1.722Zm-.4,1-5.044,12.611h-1.722l5.044-12.611Zm-7.843,12.611h-1.723l5.044-12.611h1.723Zm-.4,1-5.045,12.61h-1.722l5.044-12.61Zm-7.845,12.61h-1.722l5.044-12.61h1.722Zm-.4,1-5.044,12.61h-1.722l5.044-12.61Zm-7.844,12.61h-1.723l5.044-12.61h1.723Zm-.4,1-5.044,12.612H3921.4l5.044-12.612Zm-7.845,12.612H3918.6l5.044-12.612h1.723Zm-.4,1-5.044,12.61h-1.722l5.044-12.61Zm-7.844,12.61h-1.722l5.044-12.61h1.722Zm-.4,1-5.044,12.61h-1.722l5.044-12.61Zm-7.844,12.61h-1.722l5.044-12.61h1.722Zm-.4,1-46.768,116.924-.864-2.148,45.909-114.776Zm-48.173,113.433-.864-2.147,44.514-111.286h1.723Zm-.537,1.344-1.065,2.66-.863-2.146,1.064-2.661Zm-2.469-.83-.863-2.146,1.064-2.661.864,2.147Zm-.537,1.344-1.064,2.66-.864-2.146,1.064-2.66Zm-2.468-.829-.864-2.147,1.064-2.661.864,2.148Zm-.538,1.344-1.064,2.66-.863-2.148,1.064-2.66Zm-2.468-.831-.864-2.147,1.064-2.66.864,2.147Zm-.537,1.344-1.065,2.66-.863-2.146,1.064-2.661Zm-2.469-.83-112.451-279.5-.126-.314H3474.772v537.949h161.91v7.193h-173.53V1054.8h264.57l116.58,289.765Zm-367.466,257.134V1068.41h254.213L3842.7,1348.569l-1.064,2.66-108.586-269.9-.126-.313H3487.393v516.147h149.289v7.191Zm161.91-7.191h4.2v7.191h-4.2Zm0-1v-7.192h4.2v7.192Zm5.2-7.192h4.2v7.192h-4.2Zm0-1v-7.193h4.2v7.193Zm5.2-7.193h4.2v7.193h-4.2Zm0-1v-7.191h4.2v7.191Zm5.2-7.191h4.2v7.191h-4.2Zm0-1V1564.4h4.2v7.193Zm5.2-7.193h4.2v7.193h-4.2Zm0-1v-7.192h4.2v7.192Zm5.2-7.192h4.2v7.192h-4.2Zm0-1v-7.192h4.2v7.192Zm5.2-7.192h4.2v7.192h-4.2Zm0-1v-7.192h4.2v7.192Zm5.2-7.192h4.2v7.192h-4.2Zm0-1v-7.192h4.2v7.192Zm5.2-7.192h4.2v7.192h-4.2Zm0-1v-7.193h4.2v7.193Zm5.2-7.193h4.2v7.193h-4.2Zm0-1v-7.191h4.2v7.191Zm5.2-7.191h4.2v7.191h-4.2Zm0-1v-7.192h4.2v7.192Zm5.2-7.192h4.2v7.192h-4.2Zm0-1v-83.429l4.2,10.439v72.99Zm5.2-70.505,4.2,10.439v60.066h-4.2Zm0-2.679V1427l4.2,10.44v5.87Zm5.2,7.053,4.2,10.437v5.871l-4.2-10.437Zm0-2.678v-5.87l4.2,10.437v5.869Zm5.2,7.052,4.2,10.437v5.869l-4.2-10.437Zm0-2.679v-5.869l4.2,10.436v5.87Zm5.2,7.052,4.2,10.439v5.87l-4.2-10.439Zm5.2,12.924,61.027,151.643.126.314h160.54l29.671-73.729h8.314L3948,1620.744H3782.578l-61.685-153.279Zm251.767,77.228,2.894-7.192h6.584v4.3l-1.165,2.894Zm9.478-.215v.215h-.087Zm1-2.484,1.808-4.493h8.313l-2.9,7.192h-7.226Zm10.151-1.889v4.588h-1.847Zm1-2.485.048-.119h8.313l-2.9,7.192h-5.466Zm9.439-.119h.712v7.192h-3.607Zm1.712,0h10.152v7.192H4005.44Zm11.152,0h10.151v7.192h-10.151Zm10.151,8.192v7.192h-10.151v-7.192Zm1,0H4037.9v7.192h-10.152Zm10.152,8.192v7.192h-10.152v-7.192Zm1,0h10.151v7.192H4038.9Zm10.151,8.192v7.192H4038.9v-7.192Zm1,0H4060.2v7.192h-10.151Zm10.151,8.192v7.193h-10.151V1564.4Zm1,0h10.152v7.193H4061.2Zm10.152,8.193v7.191H4061.2v-7.191Zm1,0H4082.5v7.191h-10.151Zm10.151,8.191v7.193h-10.151v-7.193Zm1,0h10.151v7.193H4083.5Zm10.151,8.193v7.192H4083.5v-7.192Zm1,0H4104.8v7.192h-10.152Zm10.152,8.192v7.191h-10.152v-7.191Zm1,0h119.536V1081.021H3995.6l5.044-12.611h242.266v535.949H4105.8Zm138.106,8.191V1067.41H4001.043l5.044-12.61h255.392v557.752H4105.8v-7.193ZM3997.165,1067.41h-1.722l5.044-12.61h1.722Zm-.4,1-5.044,12.611H3990l5.044-12.611Zm-7.844,12.611H3987.2l5.044-12.611h1.723Zm-.4,1-5.044,12.61h-1.723l5.044-12.61Zm-7.844,12.61h-1.723l5.044-12.61h1.723Zm-.4,1-5.044,12.61h-1.722l5.044-12.61Zm-7.844,12.61h-1.722l5.044-12.61h1.723Zm-.4,1-5.044,12.611h-1.722l5.044-12.611Zm-7.844,12.611h-1.722l5.044-12.611h1.722Zm-.4,1-5.044,12.611h-1.723l5.045-12.611Zm-7.844,12.611h-1.723l5.045-12.611h1.722Zm-.4,1-5.044,12.61h-1.723l5.044-12.61Zm-7.844,12.61h-1.723l5.044-12.61h1.723Zm-.4,1-5.045,12.611h-1.722l5.044-12.611Zm-7.845,12.611h-1.723l5.045-12.611h1.723Zm-.4,1-5.044,12.61h-1.723l5.045-12.61Zm-7.844,12.61h-1.723l5.044-12.61h1.723Zm-.4,1-5.044,12.61h-1.723l5.044-12.61Zm-7.844,12.61h-1.723l5.044-12.61h1.723Zm-.4,1-5.044,12.612H3915.8l5.044-12.612Zm-7.844,12.612H3913l5.044-12.612h1.723Zm-.4,1-5.044,12.61h-1.722l5.044-12.61Zm-7.844,12.61h-1.722l5.044-12.61h1.722Zm-.4,1-5.044,12.61h-1.722l5.043-12.61Zm-7.844,12.61h-1.723l5.044-12.61h1.723Zm-.4,1-43.977,109.943-.863-2.146,43.117-107.8Zm-45.381,106.454-.864-2.148,41.722-104.306h1.722Zm-.537,1.343-1.065,2.661-.863-2.147,1.064-2.661Zm-2.469-.829-.864-2.147,1.065-2.661.863,2.147Zm-.537,1.343-1.065,2.661-.863-2.147,1.064-2.661Zm-2.469-.83L3726.261,1040.5l-.126-.314h-276.6v581.556h187.149v7.192H3437.914V1027.578H3723.2l124.31,308.979Zm-395.908,281.527V1041.188h274.926L3845.9,1340.561l-1.064,2.66-116.317-289.108-.126-.313H3462.152v559.752h174.53v7.192Zm187.149-7.192h4.2v7.192h-4.2Zm0-1v-7.193h4.2v7.193Zm5.2-7.193h4.2v7.193h-4.2Zm0-1v-7.191h4.2v7.191Zm5.2-7.191h4.2v7.191h-4.2Zm0-1v-7.192h4.2v7.192Zm5.2-7.192h4.2v7.192h-4.2Zm0-1v-7.193h4.2v7.193Zm5.2-7.193h4.2v7.193h-4.2Zm0-1v-7.191h4.2v7.191Zm5.2-7.191h4.2v7.191h-4.2Zm0-1V1564.4h4.2v7.193Zm5.2-7.193h4.2v7.193h-4.2Zm0-1v-7.192h4.2v7.192Zm5.2-7.192h4.2v7.192h-4.2Zm0-1v-7.192h4.2v7.192Zm5.2-7.192h4.2v7.192h-4.2Zm0-1v-7.192h4.2v7.192Zm5.2-7.192h4.2v7.192h-4.2Zm0-1v-7.192h4.2v7.192Zm5.2-7.192h4.2v7.192h-4.2Zm0-1v-7.193h4.2v7.193Zm5.2-7.193h4.2v7.193h-4.2Zm0-1v-7.191h4.2v7.191Zm5.2-7.191h4.2v7.191h-4.2Zm0-1v-7.192h4.2v7.192Zm5.2-7.192h4.2v7.192h-4.2Zm0-1v-57.581l4.2,10.437v47.144Zm5.2-44.659,4.2,10.437v34.222h-4.2Zm0-2.679v-5.871l4.2,10.437v5.871Zm5.2,7.051,4.2,10.439v5.871l-4.2-10.439Zm0-2.679v-5.87l4.2,10.44v5.869Zm5.2,7.055,60.883,151.287.126.313h166.779l32.968-81.921h.489v8.192h4.527l-32.565,80.921H3782.435l-61.542-152.923Zm262.245,76.871v-7.192h6.824l-2.894,7.192Zm7.9-7.192h2.249v7.192h-5.143Zm9.391,0h4.009v7.192h-6.9Zm5.009,0h10.152v7.192H4005.44Zm10.152,8.192v7.192H4005.44v-7.192Zm1,0h10.151v7.192h-10.151Zm10.151,8.192v7.192h-10.151v-7.192Zm1,0H4037.9v7.192h-10.152Zm10.152,8.192v7.193h-10.152V1564.4Zm1,0h10.151v7.193H4038.9Zm10.151,8.193v7.191H4038.9v-7.191Zm1,0H4060.2v7.191h-10.151Zm10.151,8.191v7.193h-10.151v-7.193Zm1,0h10.152v7.193H4061.2Zm10.152,8.193v7.192H4061.2v-7.192Zm1,0H4082.5v7.192h-10.151Zm10.151,8.192v7.191h-10.151v-7.191Zm1,0h10.151v7.191H4083.5Zm10.151,8.191v7.193H4083.5v-7.193Zm1,0H4104.8v7.193h-10.152Zm10.152,8.193v7.192h-10.152v-7.192Zm1,0h156.676V1053.8H4006.487l5.045-12.612H4280.05v579.556H4105.8Zm175.247,8.192V1040.188H4011.932l5.044-12.61H4298.62v601.358H4105.8v-7.192Zm-275.118-580.556h1.722l-5.045,12.612h-1.722Zm-8.245,13.612h1.722l-5.044,12.61h-1.722Zm-8.245,13.61h1.723l-5.044,12.611H3984.4Zm-8.244,13.611h1.722l-5.044,12.61h-1.722Zm-8.244,13.61h1.722l-5.044,12.61h-1.722Zm-8.244,13.61h1.722l-5.044,12.611h-1.722Zm-8.244,13.611h1.722l-5.044,12.611h-1.723Zm-8.245,13.611h1.723l-5.045,12.61h-1.722Zm-8.244,13.61h1.722l-5.044,12.611h-1.723Zm-8.245,13.611h1.723l-5.044,12.61h-1.723Zm-8.244,13.61h1.723l-5.044,12.61h-1.723Zm-8.244,13.61h1.722l-5.044,12.612H3910.2ZM3907,1204.516h1.723l-5.044,12.61h-1.723Zm-8.244,13.61h1.722l-5.044,12.61h-1.722Zm-8.244,13.61h1.722L3851.049,1334.7l-.864-2.147Zm-253.829,405.392H3425.294v-623.16h295.638l128.175,318.585-1.064,2.661L3724,1026.892l-.126-.314H3436.914v603.358h199.768Zm5.2-8.192h-4.2v-7.192h4.2Zm5.2-8.192h-4.2v-7.192h4.2Zm5.2-8.192h-4.2v-7.193h4.2Zm5.2-8.193h-4.2v-7.191h4.2Zm5.2-8.191h-4.2v-7.192h4.2Zm5.2-8.192h-4.2v-7.193h4.2Zm5.2-8.193h-4.2v-7.191h4.2Zm5.2-8.191h-4.2V1564.4h4.2Zm5.2-8.193h-4.2v-7.192h4.2Zm5.2-8.192h-4.2v-7.192h4.2Zm5.2-8.192h-4.2v-7.192h4.2Zm5.2-8.192h-4.2v-7.192h4.2Zm5.2-8.192h-4.2v-7.193h4.2Zm5.2-8.193h-4.2v-7.191h4.2Zm5.2-8.191h-4.2v-7.192h4.2Zm5.2-8.192h-4.2v-31.738l4.2,10.44Zm240.3,131.073h-177.9l-61.4-152.565v-5.871l60.74,150.93.126.314h173.016l32.969-81.921h5.545v6.875Zm34.1-81.921v-.122l2.845-7.07h7.306v7.192Zm11.151,8.192v-7.192h10.152v7.192Zm11.152,8.193V1564.4h10.151v7.193Zm11.151,8.191v-7.191H4037.9v7.191Zm11.152,8.193v-7.193h10.151v7.193Zm11.151,8.192v-7.192H4060.2v7.192Zm11.151,8.191v-7.191h10.152v7.191Zm11.152,8.193v-7.193H4082.5v7.193Zm11.151,8.192v-7.192h10.151v7.192Zm11.151,8.192v-7.192H4104.8v7.192Zm222.539,8.192H4105.8v-7.192H4299.62V1026.578H4017.376l5.044-12.61h294.77Z" transform="translate(-3424.294 -1012.968)" fill="#f7f79d"/>
</svg>
