<svg xmlns="http://www.w3.org/2000/svg" width="236" height="48.957" viewBox="0 0 236 48.957"><path d="M6092.647,823.784a9.372,9.372,0,0,0-1.227-2.83,6.359,6.359,0,0,0-2.2-2.067,10.337,10.337,0,0,0-2.873-1.1,17.564,17.564,0,0,0-3.491-.368c-1.991-.01-3.982,0-5.973,0-.226,0-.453-.015-.678-.008s-.338.111-.342.331.017.452.017.678q0,8.788-.011,17.576c0,.155.025.309.041.5a3.468,3.468,0,0,0,.472.067c2.4,0,4.8,0,7.194-.011a13.383,13.383,0,0,0,1.687-.093,10.5,10.5,0,0,0,3.35-.985,7.132,7.132,0,0,0,1.861-1.333,7.47,7.47,0,0,0,1.337-1.859,9.866,9.866,0,0,0,.479-1.031,11.838,11.838,0,0,0,.723-3.77A12.145,12.145,0,0,0,6092.647,823.784Zm-4.391,4.258a6.627,6.627,0,0,1-.548,2.214,3.748,3.748,0,0,1-1.5,1.692,4.993,4.993,0,0,1-2.3.711c-.944.065-1.895.065-2.842.081a1.38,1.38,0,0,1-.38-.108,2.461,2.461,0,0,1-.036-.29q0-5.252,0-10.5c0-.068-.006-.136,0-.2a.285.285,0,0,1,.247-.278.291.291,0,0,1,.067-.006,33.127,33.127,0,0,1,3.451.094,4.215,4.215,0,0,1,2.462,1.156,4.366,4.366,0,0,1,1.1,1.827A9.438,9.438,0,0,1,6088.256,828.043ZM6075.879,793.3c0-.384-.017-.768-.018-1.153a2.985,2.985,0,0,1,.042-.36,3.057,3.057,0,0,1,.467-.075c1.266-.006,2.533,0,3.8,0,.045,0,.09,0,.136,0,.275.02.37.112.37.374s-.016.5-.016.746q0,5.665,0,11.329a4.985,4.985,0,0,0,.207,1.6,2.172,2.172,0,0,0,1.352,1.333,5.209,5.209,0,0,0,2.594.3,3.029,3.029,0,0,0,1.167-.283,2.492,2.492,0,0,0,1.2-1.217,3.854,3.854,0,0,0,.294-1.581q0-6.105-.018-12.21a2.528,2.528,0,0,1,.038-.3,2.489,2.489,0,0,1,.45-.085q1.934-.01,3.868,0a2.229,2.229,0,0,1,.451.1c0,.4,0,.762,0,1.121,0,3.188.014,6.377-.012,9.565a16.484,16.484,0,0,1-.169,2.427,8.564,8.564,0,0,1-.3,1.451,6.324,6.324,0,0,1-2.024,3.037,8.9,8.9,0,0,1-2.224,1.231,9.523,9.523,0,0,1-4.308.639,9.345,9.345,0,0,1-4.22-1.3,5.74,5.74,0,0,1-2.25-2.378,7.027,7.027,0,0,1-.68-2.039,17.953,17.953,0,0,1-.188-2.7Q6075.882,798.086,6075.879,793.3Zm-199.873,1.4q0,8.041,0,16.081c0,.11-.013.219-.022.36a6.72,6.72,0,0,1-1.617.057,9.559,9.559,0,0,1-1.548-.024c-.041-.076-.1-.134-.1-.192q.007-3.29.027-6.581a14.378,14.378,0,0,1,.086-2.3,12.441,12.441,0,0,0,.076-1.622.24.24,0,0,0-.163-.265.323.323,0,0,0-.4.157c-.09.207-.166.42-.249.63-.469,1.2-.943,2.389-1.407,3.587-.324.838-.627,1.685-.955,2.522-.3.753-.614,1.5-.916,2.248-.168.418-.322.841-.488,1.26-.074.186-.164.366-.236.525a29.119,29.119,0,0,1-3.843,0c-.412-1.226-.826-2.463-1.243-3.7q-.3-.9-.612-1.79c-.25-.724-.5-1.446-.752-2.171-.276-.81-.545-1.622-.821-2.432-.028-.082-.065-.2-.127-.224a.605.605,0,0,0-.379-.033.327.327,0,0,0-.139.268c.174,3.209.032,6.422.089,9.631,0,.132-.012.265-.02.422a1.258,1.258,0,0,1-.323.1c-.882.008-1.764.007-2.646.005a.563.563,0,0,1-.152-.056,1.217,1.217,0,0,1-.062-.237c-.058-.823-.009-16.115.053-16.581a.844.844,0,0,1,.231-.065c1.086,0,2.171,0,3.257.008.045,0,.091,0,.136,0,.3.016.408.088.5.361.407,1.17.8,2.345,1.222,3.511.326.908.7,1.8,1.025,2.709.7,1.952,1.389,3.909,2.079,5.865.172.487.33.98.505,1.466a.31.31,0,0,0,.175.172c.125.036.21-.055.256-.166.156-.375.305-.752.458-1.128q.521-1.284,1.042-2.568c.43-1.064.853-2.132,1.287-3.195.511-1.251,1.037-2.5,1.546-3.749.347-.855.673-1.719,1.016-2.576.092-.227.215-.442.333-.68h3.761A2.724,2.724,0,0,1,5876.006,794.708Zm176.937,15.836c0-.9.028-1.809.009-2.713a1.1,1.1,0,0,1,.329-.841c1.025-1.112,2.026-2.246,3.035-3.372l3.206-3.58q1.152-1.287,2.3-2.574c.407-.453.82-.9,1.228-1.355a1.241,1.241,0,0,0,.191-.275c.121-.251-.012-.45-.294-.449q-4.24.014-8.48.028c-.219,0-.458.071-.651-.154V791.87c.193-.2.4-.154.6-.154l5.021,0h8.956a3.924,3.924,0,0,1,.474.013.39.39,0,0,1,.4.448c.006.316-.008.633-.008.95,0,.633,0,1.266.012,1.9a.905.905,0,0,1-.255.671q-1.477,1.632-2.936,3.282c-1.185,1.331-2.362,2.669-3.551,4-.693.774-1.4,1.535-2.1,2.3-.412.449-.828.893-1.234,1.347a.774.774,0,0,0-.15.293.251.251,0,0,0,.236.332c.249,0,.5-.016.745-.017q4.309-.005,8.618-.008c.044,0,.09-.006.135,0,.283.012.4.121.436.41a1.564,1.564,0,0,1,.011.2c0,.9,0,1.809,0,2.713a1.533,1.533,0,0,1-.06.286,1.55,1.55,0,0,1-.32.069c-1.7,0-3.392-.015-5.088-.015q-5.156,0-10.313.008a3.774,3.774,0,0,1-.463-.056A2.223,2.223,0,0,1,6052.942,810.544Zm17.184,6.867a2.912,2.912,0,0,1,.371.047c-.008.091,0,.145-.018.174-.669.908-1.349,1.808-2.01,2.721-.569.785-1.111,1.59-1.674,2.379-.354.5-.731.975-1.088,1.469-.568.786-1.127,1.578-1.689,2.368a2.5,2.5,0,0,1-.276.384,1.238,1.238,0,0,0-.347.987q.016,3.969.013,7.938a.891.891,0,0,1-.1.626,2.187,2.187,0,0,1-.357.055q-1.9.009-3.8.008c-.307,0-.4-.086-.406-.4-.007-.271.007-.542.007-.814,0-2.375-.006-4.749.009-7.124a1.824,1.824,0,0,0-.363-1.133c-.529-.731-1.038-1.476-1.558-2.213-.833-1.178-1.672-2.352-2.5-3.533-.6-.848-1.175-1.708-1.772-2.555-.246-.349-.523-.677-.78-1.019a.222.222,0,0,1,.186-.376c.271-.005.543.015.813.015,1.2,0,2.4.02,3.6-.012a.909.909,0,0,1,.892.476c.364.6.74,1.183,1.109,1.774q.519.83,1.034,1.662c.437.708.869,1.419,1.307,2.127a1.155,1.155,0,0,0,.247.318.82.82,0,0,0,.313.074,12.009,12.009,0,0,1,1.119-1.948c.721-1.088,1.405-2.2,2.1-3.306.2-.323.4-.651.6-.975a.446.446,0,0,1,.407-.2c.249,0,.5.012.746.011C6067.549,817.413,6068.837,817.409,6070.126,817.411Zm-68.01,13.239q-.469-1.373-.951-2.742c-.328-.937-.664-1.87-.988-2.807s-.612-1.883-.961-2.809-.6-1.878-1.013-2.811h-1.377c-.476,0-.951-.013-1.425,0a5.628,5.628,0,0,0-1.358.052c-.219.574-.431,1.143-.653,1.709-.215.544-.443,1.082-.66,1.624-.226.565-.446,1.133-.667,1.7s-.438,1.136-.663,1.7c-.217.544-.444,1.083-.661,1.627-.224.564-.441,1.131-.662,1.7s-.434,1.135-.658,1.7-.46,1.126-.688,1.689c-.22.543-.439,1.086-.653,1.632s-.428,1.117-.644,1.682c.1.052.161.107.218.107.881,0,1.763-.005,2.645-.008a.5.5,0,0,0,.495-.383q.883-2.408,1.773-4.813a.541.541,0,0,1,.508-.381c.09-.005.182,0,.271,0h4.953c.091,0,.181-.007.271,0a.489.489,0,0,1,.458.344c.077.212.128.433.2.646.244.727.493,1.452.737,2.179.23.684.45,1.37.686,2.052.113.323.173.356.489.357.882,0,1.764.006,2.645,0a1.579,1.579,0,0,0,.308-.075c-.359-1-.7-1.93-1.025-2.864S6002.437,831.586,6002.117,830.65Zm-4.182-2.142c-1.375,0-2.751,0-4.175,0-.015-.1-.078-.239-.043-.345q.684-2.085,1.4-4.161a14.523,14.523,0,0,0,.578-1.726.515.515,0,0,1,.141-.224.271.271,0,0,1,.446.086c.074.236.131.477.2.714.285.972.574,1.942.855,2.915.249.864.489,1.73.741,2.623C5998,828.455,5997.968,828.508,5997.935,828.508Zm-35.448-27.777a6.62,6.62,0,0,0-2.686.842.472.472,0,0,0-.313.467c0,.158,0,.317,0,.475q.005,4.14.009,8.279a3.2,3.2,0,0,1-.04.355,6.3,6.3,0,0,1-1.486.06c-.494.018-.989,0-1.517,0a2.4,2.4,0,0,1-.073-.4q0-8.618,0-17.237c0-.109.019-.217.035-.388h2.938c.191.172.143.36.141.538-.012,1.877-.026,3.754-.031,5.631,0,.094.077.187.134.316.155-.089.275-.146.382-.222a8.146,8.146,0,0,1,3.478-1.413,4.292,4.292,0,0,1,1.48.035,5.422,5.422,0,0,1,1.558.438,2.915,2.915,0,0,1,1.451,1.781,7.849,7.849,0,0,1,.3,2.477c.01,2.647.007,5.293.008,7.94,0,.045.007.091,0,.136-.009.289-.086.379-.356.38q-1.255.007-2.511,0a.832.832,0,0,1-.217-.073,2.366,2.366,0,0,1-.039-.316c0-2.669.015-5.338.014-8.007a4.046,4.046,0,0,0-.1-.873,1.594,1.594,0,0,0-.841-1.094.637.637,0,0,0-.25-.095A3.609,3.609,0,0,0,5962.487,800.731Zm-71.816,10.451c.024-.175.055-.328.063-.482.021-.383.012-.768.049-1.149.063-.656.074-.656-.558-.8-.022-.005-.045-.006-.067-.012a.709.709,0,0,1-.588-.782c0-.113,0-.226,0-.339,0-1.944-.012-3.888.009-5.832a4.537,4.537,0,0,0-.381-1.775,2.707,2.707,0,0,0-1.593-1.485,9.3,9.3,0,0,0-3.587-.54,7.467,7.467,0,0,0-.809.077,11.751,11.751,0,0,0-3.029.675c-.182.075-.374.129-.6.206.167.651.319,1.259.483,1.865a.322.322,0,0,0,.357.252,5.608,5.608,0,0,0,.6-.107c.309-.065.614-.15.925-.2s.635-.034.941-.1a5.47,5.47,0,0,1,2.483.113,1.508,1.508,0,0,1,1.148,1.415c.009.362.013.724.009,1.085a2.067,2.067,0,0,1-.067.343c-.186.011-.338.027-.492.027-.7,0-1.4-.019-2.1,0a8.873,8.873,0,0,0-3.044.562,3.233,3.233,0,0,0-1.88,1.755,4.1,4.1,0,0,0-.129,2.977,3.352,3.352,0,0,0,1.142,1.716,4.3,4.3,0,0,0,2.737.831,5.933,5.933,0,0,0,3.635-1.284c.318-.259.433-.262.673.044a2.288,2.288,0,0,0,1.245.76A6.353,6.353,0,0,0,5890.67,811.182Zm-4.161-2.935c-.264.118-.5.239-.75.332a6.355,6.355,0,0,1-1.757.48,4.619,4.619,0,0,1-1.01-.033,1.49,1.49,0,0,1-1.288-1.061,1.63,1.63,0,0,1,.438-1.745,2.3,2.3,0,0,1,1.472-.6c.54-.043,1.083-.044,1.625-.067.382-.016.763-.037,1.169-.058.051.082.088.118.094.158a2.27,2.27,0,0,1,.023.336C5886.521,806.728,5886.515,807.472,5886.509,808.247Zm17.327.51c-.522-.11-.687-.309-.689-.831,0-.068,0-.135,0-.2,0-1.989-.008-3.979.008-5.968a4.467,4.467,0,0,0-.394-1.771,2.856,2.856,0,0,0-1.543-1.45,10.049,10.049,0,0,0-3.587-.54,14.1,14.1,0,0,0-3.331.554,5.175,5.175,0,0,0-1.11.429,1.488,1.488,0,0,0,.02.231q.194.754.4,1.506c.075.279.21.381.492.343.2-.026.395-.093.593-.135.287-.061.573-.126.863-.168.335-.048.681-.038,1.008-.115a5.345,5.345,0,0,1,2.414.133,1.5,1.5,0,0,1,1.109,1.238c.025.473.006.948,0,1.421,0,.057-.063.112-.118.2-.211,0-.435,0-.658,0a22.879,22.879,0,0,0-2.911.081,7.731,7.731,0,0,0-2.031.492,3.34,3.34,0,0,0-1.666,1.423,4.025,4.025,0,0,0-.342,3.2,3.277,3.277,0,0,0,1.142,1.8,4.3,4.3,0,0,0,2.8.851,5.923,5.923,0,0,0,3.627-1.307c.293-.243.407-.234.668.092a1.969,1.969,0,0,0,.932.647,6.422,6.422,0,0,0,2.727.276c.022-.164.044-.273.051-.384.025-.45.033-.9.072-1.351C5904.425,808.906,5904.413,808.879,5903.836,808.757Zm-3.8-.489c-.219.1-.457.22-.705.313a6.38,6.38,0,0,1-1.757.479,4.569,4.569,0,0,1-1.01-.034,1.491,1.491,0,0,1-1.287-1.062,1.631,1.631,0,0,1,.439-1.745,2.3,2.3,0,0,1,1.472-.6c.54-.042,1.083-.044,1.625-.067.381-.016.763-.037,1.182-.058A11.542,11.542,0,0,1,5900.04,808.268ZM5972,825.738a4.853,4.853,0,0,0-3.007-2.26,7.612,7.612,0,0,0-4.851.167,5.444,5.444,0,0,0-3,2.58,8.8,8.8,0,0,0-.212,7.259,5.149,5.149,0,0,0,1.33,1.773,6.584,6.584,0,0,0,4.357,1.394,7.421,7.421,0,0,0,2.576-.492,5.393,5.393,0,0,0,2.981-2.605,7.918,7.918,0,0,0,.841-3.386,10.243,10.243,0,0,0-.257-2.485A6.352,6.352,0,0,0,5972,825.738Zm-2.136,4.586a6.959,6.959,0,0,1-.417,2.18,2.531,2.531,0,0,1-1.939,1.613,4.2,4.2,0,0,1-1.815-.024,2.734,2.734,0,0,1-2-1.921,5.959,5.959,0,0,1-.279-2.269,5.586,5.586,0,0,1,.273-2.137,2.81,2.81,0,0,1,1.922-2.011,3.541,3.541,0,0,1,2.451.144,2.479,2.479,0,0,1,1.3,1.315,4.675,4.675,0,0,1,.365,1.227A8.97,8.97,0,0,1,5969.86,830.324Zm-17.21-4.121a4.274,4.274,0,0,0-1.714-2.2,5.856,5.856,0,0,0-2.96-.841,7.007,7.007,0,0,0-3.043.536,4.7,4.7,0,0,0-1.671,1.122,6.158,6.158,0,0,0-1.552,3.4,15.073,15.073,0,0,0-.121,2.367,7.771,7.771,0,0,0,.644,3.094,4.463,4.463,0,0,0,2.395,2.371,8.7,8.7,0,0,0,3.175.618,16.526,16.526,0,0,0,4.622-.586c.3-.076.366-.183.309-.488q-.157-.831-.326-1.66a2.861,2.861,0,0,0-.1-.308.805.805,0,0,0-.234,0,9.019,9.019,0,0,1-2.652.491,7.619,7.619,0,0,1-2.557-.165,2.762,2.762,0,0,1-2.139-2.631,4.56,4.56,0,0,1,.04-.59c1.412,0,2.785,0,4.158,0h4.295c0-.409,0-.742,0-1.076A10.438,10.438,0,0,0,5952.65,826.2Zm-3.108,2.523c-.745,0-1.49,0-2.236,0v0c-.7,0-1.4,0-2.1,0-.339,0-.494-.148-.425-.448a4.736,4.736,0,0,1,.488-1.538,2.61,2.61,0,0,1,1.538-1.244,2.26,2.26,0,0,1,2.6.793,3.429,3.429,0,0,1,.439.978,5,5,0,0,1,.139,1C5950,828.576,5949.857,828.724,5949.542,828.726Zm-20.647-5.114c0,4.225,0,8.45,0,12.7a.814.814,0,0,1-.25.094c-.859,0-1.717,0-2.576,0a.776.776,0,0,1-.19-.049c-.187-.2-.074-.437-.083-.654-.008-.2.083-.405-.072-.6-.228-.1-.374.086-.539.179-.353.2-.684.435-1.042.623a6.669,6.669,0,0,1-3.326.765,4.711,4.711,0,0,1-1.957-.48,2.634,2.634,0,0,1-1.229-1.3,4.1,4.1,0,0,1-.357-1.087,12.664,12.664,0,0,1-.216-2.153c.009-2.623,0-5.246-.009-7.868a3.149,3.149,0,0,1,.042-.33h3a2.9,2.9,0,0,1,.076.462q0,3.832-.008,7.665a4.547,4.547,0,0,0,.215,1.33,1.316,1.316,0,0,0,1.184.972,6.47,6.47,0,0,0,4.033-.865.44.44,0,0,0,.18-.268,2.167,2.167,0,0,0,.022-.472q-.007-4.206-.017-8.411c0-.068-.023-.151.007-.2a1.3,1.3,0,0,1,.218-.229c.013-.012.044-.008.066-.008.881,0,1.762,0,2.644.01.038,0,.076.039.115.06a.36.36,0,0,1,.045.051A.135.135,0,0,1,5928.895,823.612Zm-53.417,4.116q.011,4.173.008,8.345a.28.28,0,0,1-.4.323c-.813.01-1.627.01-2.44.008a1.061,1.061,0,0,1-.229-.061,1.81,1.81,0,0,1-.049-.308c0-2.691.015-5.383.006-8.074a3.2,3.2,0,0,0-.176-1.061,1.462,1.462,0,0,0-1.312-1.006,6.558,6.558,0,0,0-3.906.843.453.453,0,0,0-.276.427c0,.113,0,.226,0,.339q.009,4.24.018,8.481a.959.959,0,0,1-.009.2.243.243,0,0,1-.235.207c-.225.006-.452-.01-.677-.011-.7,0-1.4,0-2.178,0V823.5a.966.966,0,0,1,.254-.077c.814-.005,1.628,0,2.442,0,.33,0,.409.078.4.392,0,.248-.029.5-.029.745a.209.209,0,0,0,.338.173c.308-.186.61-.383.915-.575a6.462,6.462,0,0,1,3.47-.984,4.254,4.254,0,0,1,2.694.741,3.047,3.047,0,0,1,1.045,1.539A7.243,7.243,0,0,1,5875.477,827.728Zm107.66-9.258c-.1.458-.179.944-.314,1.414-.072.251.016.581-.253.742-.235.14-.478-.068-.723-.067-.362,0-.726-.033-1.084,0a1.417,1.417,0,0,0-1.253.9,4.25,4.25,0,0,0-.234,1.733c0,.165.125.259.333.259.656,0,1.312-.009,1.967-.01.153,0,.306.018.433.026.047.074.09.111.091.149.01.586.021,1.173.017,1.759a.306.306,0,0,1-.348.329c-.61,0-1.221-.009-1.832-.01-.177,0-.355.013-.57.021a2.694,2.694,0,0,0-.086.47q0,6.986.013,13.973a4.274,4.274,0,0,1-.042.445,17.538,17.538,0,0,1-3.011.016.521.521,0,0,1-.068-.174q.007-4.306.02-8.613.007-2.815.006-5.63c0-.045.005-.091,0-.136-.009-.307-.1-.393-.415-.389-.385.006-.769.029-1.153.024-.272,0-.37-.115-.37-.374,0-.585,0-1.171,0-1.83.658-.145,1.273.037,1.907-.109.008-.219.031-.417.019-.612a5.4,5.4,0,0,1,.341-2.131,3.446,3.446,0,0,1,2.605-2.322,7.859,7.859,0,0,1,2.078-.261,7.392,7.392,0,0,1,1.8.3C5983.05,818.366,5983.077,818.413,5983.137,818.47Zm51.633,13.116a3.494,3.494,0,0,1-.133,2.576,3.156,3.156,0,0,1-.8,1.085,4.594,4.594,0,0,1-2.148,1.093,9.2,9.2,0,0,1-2.617.327c-.473-.026-.946-.064-1.417-.113-.449-.047-.9-.109-1.344-.177a2.778,2.778,0,0,1-1.1-.342c.09-.663.17-1.308.27-1.951a.335.335,0,0,1,.434-.314c.581.082,1.159.176,1.739.259a9.764,9.764,0,0,0,2.5.069,3.108,3.108,0,0,0,1.273-.425.952.952,0,0,0,.1-1.6,3.355,3.355,0,0,0-.745-.46c-.539-.225-1.1-.41-1.646-.607a9.775,9.775,0,0,1-1.973-.879,3.947,3.947,0,0,1-1.367-1.286,3.441,3.441,0,0,1-.368-2.62,3.307,3.307,0,0,1,1.664-2.208,6.714,6.714,0,0,1,4.118-.786c.56.069,1.124.121,1.679.219a10.694,10.694,0,0,1,1.175.312.26.26,0,0,1,.17.328c-.052.266-.109.531-.178.793-.1.388-.218.773-.329,1.162-.868-.136-1.643-.276-2.423-.373a10.108,10.108,0,0,0-1.219-.033,2.535,2.535,0,0,0-1.162.342.966.966,0,0,0-.293,1.457,2.712,2.712,0,0,0,1.228.807c.735.289,1.474.568,2.208.856a6.218,6.218,0,0,1,1.584.9A3.363,3.363,0,0,1,6034.77,831.586Zm-119.614-23.065a3.751,3.751,0,0,1-2.513,2.442,9.435,9.435,0,0,1-3.327.526c-.45-.008-.9-.071-1.348-.119-.427-.046-.853-.1-1.277-.162a2.421,2.421,0,0,1-1.119-.362c.081-.612.148-1.193.235-1.772.068-.456.187-.518.643-.449a19.456,19.456,0,0,0,3.433.336,3.929,3.929,0,0,0,1.4-.226,2.535,2.535,0,0,0,.7-.4.917.917,0,0,0,.037-1.33,2.832,2.832,0,0,0-.906-.581c-.544-.216-1.1-.4-1.647-.61a10.263,10.263,0,0,1-1.912-.85,3.968,3.968,0,0,1-1.373-1.278,3.442,3.442,0,0,1-.369-2.681,3.359,3.359,0,0,1,1.687-2.19,7.22,7.22,0,0,1,2.372-.758,6.84,6.84,0,0,1,2.09.013,14.246,14.246,0,0,1,2.385.487c.192.062.294.171.255.339-.154.654-.321,1.306-.5,2.009-.422-.083-.757-.126-1.08-.216a9.193,9.193,0,0,0-2.693-.216,2.315,2.315,0,0,0-1.027.323.966.966,0,0,0-.281,1.5,3.266,3.266,0,0,0,1.247.782,24.512,24.512,0,0,1,2.753,1.121,8.809,8.809,0,0,1,1.083.692A3.518,3.518,0,0,1,5915.156,808.521Zm-27.737,25.232a3.782,3.782,0,0,1-2.486,2.382,9.044,9.044,0,0,1-3.392.526c-.7-.026-1.389-.153-2.084-.227a5.711,5.711,0,0,1-1.328-.25,2.06,2.06,0,0,1-.279-.15c.084-.636.156-1.237.247-1.836.061-.4.2-.467.613-.406a20.818,20.818,0,0,0,3.359.352,4.31,4.31,0,0,0,1.529-.247,2.168,2.168,0,0,0,.685-.413.88.88,0,0,0,.031-1.274,2.322,2.322,0,0,0-.894-.6c-.539-.226-1.095-.407-1.644-.608a9.893,9.893,0,0,1-1.972-.878,4.012,4.012,0,0,1-1.326-1.232,3.421,3.421,0,0,1-.386-2.738,3.329,3.329,0,0,1,1.7-2.173,6.738,6.738,0,0,1,4.054-.757c.582.069,1.167.128,1.744.228a9.131,9.131,0,0,1,1.107.3.265.265,0,0,1,.178.325c-.054.288-.114.575-.188.858-.1.366-.208.729-.326,1.133-.392-.08-.764-.144-1.131-.232a9.766,9.766,0,0,0-2.559-.206,2.5,2.5,0,0,0-1.094.332.971.971,0,0,0-.282,1.5,3.315,3.315,0,0,0,1.246.783,24.687,24.687,0,0,1,2.752,1.124,8.946,8.946,0,0,1,1.132.736A3.533,3.533,0,0,1,5887.419,833.753Zm136.5.644c.062.515.122,1.03.188,1.6a1.224,1.224,0,0,1-.289.176,7.647,7.647,0,0,1-.852.215c-.467.088-.936.158-1.4.233a6.442,6.442,0,0,1-3.078-.3,2.913,2.913,0,0,1-1.881-1.906,5.852,5.852,0,0,1-.3-1.93c0-1.99,0-3.98,0-5.969,0-.023,0-.045,0-.068,0-.574-.037-.611-.612-.609-.4,0-.805,0-1.2,0a6.505,6.505,0,0,1-.075-2.33,1.9,1.9,0,0,1,.361-.076c.47-.009.941,0,1.442,0a2.3,2.3,0,0,0,.084-.412c0-.61-.015-1.221-.015-1.831,0-.315.1-.412.4-.413q1.186,0,2.374,0c.233,0,.337.093.339.325,0,.588-.005,1.176-.006,1.763,0,.155.013.311.022.508a3.191,3.191,0,0,0,.46.068c1,0,1.99,0,2.985,0,.154,0,.308.018.473.029a1.083,1.083,0,0,1,.083.275q-.005.948-.029,1.9c0,.06-.061.117-.1.19a1.729,1.729,0,0,1-.26.037q-1.594-.013-3.187-.033c-.068,0-.15-.025-.2,0a.544.544,0,0,0-.229.212.889.889,0,0,0-.02.334c0,2.013.026,4.025-.008,6.037a1.373,1.373,0,0,0,1.516,1.57,8.57,8.57,0,0,0,2.354-.224,2.414,2.414,0,0,1,.328-.075.219.219,0,0,1,.252.175C6023.878,834.037,6023.895,834.217,6023.917,834.4Zm-125.876-.053c.063.537.125,1.075.192,1.658-.144.213-.438.243-.688.291a12.124,12.124,0,0,1-3.02.375,5.854,5.854,0,0,1-2.356-.552,2.975,2.975,0,0,1-1.441-1.719,5.315,5.315,0,0,1-.3-1.863q-.006-2.953,0-5.9c0-.09.006-.181.005-.272,0-.445-.076-.524-.5-.523-.339,0-.679.018-1.018.023-.107,0-.215-.016-.379-.029-.019-.211-.041-.345-.042-.478,0-.607,0-1.214,0-1.852a3.123,3.123,0,0,1,.419-.068,11.376,11.376,0,0,0,1.446-.026,2.188,2.188,0,0,0,.074-.394c0-.611-.016-1.221-.015-1.832,0-.314.1-.4.407-.4q1.187,0,2.375,0c.23,0,.332.094.333.331,0,.588-.006,1.176-.007,1.764,0,.155.015.31.024.5a3.388,3.388,0,0,0,.464.065c1.041,0,2.082-.008,3.122-.01.327,0,.412.08.414.387,0,.52.006,1.04-.006,1.56a2.855,2.855,0,0,1-.1.479c-.166,0-.3,0-.43,0-1.041-.01-2.081-.022-3.122-.03-.274,0-.37.087-.374.362,0,.385.007.769.007,1.154q0,2.511,0,5.022c0,.113,0,.227,0,.339a1.181,1.181,0,0,0,1.049,1.213,3.527,3.527,0,0,0,.67.069,7.889,7.889,0,0,0,2.28-.264c.064-.019.146-.051.2-.028.092.042.209.105.241.188A1.982,1.982,0,0,1,5898.04,834.344Zm16.973-.007c.062.537.122,1.075.188,1.665a1.189,1.189,0,0,1-.293.172,9.406,9.406,0,0,1-.987.236,9.959,9.959,0,0,1-2.421.26,6.152,6.152,0,0,1-2.356-.551,2.928,2.928,0,0,1-1.421-1.653,5.393,5.393,0,0,1-.323-1.995q0-2.952,0-5.9c0-.113.011-.226.005-.339-.015-.294-.115-.393-.428-.394-.362,0-.723.018-1.085.023-.107,0-.215-.015-.378-.027-.023-.186-.048-.3-.049-.407,0-.63,0-1.26,0-1.921a2.8,2.8,0,0,1,.414-.072c.471-.008.942,0,1.443,0a2.225,2.225,0,0,0,.083-.411c0-.611-.015-1.221-.014-1.832,0-.314.1-.411.4-.412q1.186,0,2.374,0c.233,0,.335.092.337.327,0,.588-.006,1.176-.007,1.764,0,.155.013.311.022.507a3.315,3.315,0,0,0,.462.067c1,0,1.991,0,2.986-.005.09,0,.181-.007.271,0a.252.252,0,0,1,.275.242c0,.655-.009,1.31-.024,1.964,0,.059-.061.117-.1.18a.861.861,0,0,1-.2.044q-1.594-.01-3.189-.028a.7.7,0,0,0-.268,0,.47.47,0,0,0-.228.212.9.9,0,0,0-.02.334q0,2.986,0,5.972c0,.091,0,.181,0,.272a1.2,1.2,0,0,0,1.107,1.3,3.422,3.422,0,0,0,.6.059,8.048,8.048,0,0,0,2.281-.263.778.778,0,0,1,.2-.036.23.23,0,0,1,.249.184A4.434,4.434,0,0,1,5915.013,834.337Zm3.089-33.685c-.384,0-.769.019-1.153.028-.11,0-.22,0-.363,0a10.271,10.271,0,0,1-.03-2.389,1.713,1.713,0,0,1,.3-.048c.407.005.814.027,1.221.031.273,0,.371-.1.369-.365,0-.565-.015-1.131-.022-1.7a2.058,2.058,0,0,1,0-.338.291.291,0,0,1,.261-.268,1.563,1.563,0,0,1,.2-.005q1.154,0,2.307,0a1.856,1.856,0,0,1,.247.039,2.206,2.206,0,0,1,.085.429c.006.565-.008,1.131-.009,1.7,0,.133.017.266.029.44a3.285,3.285,0,0,0,.46.063c1.041,0,2.081-.014,3.122-.022.327,0,.419.076.422.378q.005.78,0,1.56c0,.446-.072.5-.512.495-1.085-.013-2.171-.019-3.256-.026a.719.719,0,0,0-.168.052,1.347,1.347,0,0,0-.1.352c0,2.126-.005,4.252.006,6.378a1.2,1.2,0,0,0,1.163,1.326,5.955,5.955,0,0,0,1.284.028,6.566,6.566,0,0,0,1.6-.252,1.056,1.056,0,0,1,.323,0,4.089,4.089,0,0,1,.186,1.165c.052.377.106.754.161,1.143a2.878,2.878,0,0,1-1.094.369c-.4.07-.8.132-1.2.2a6.181,6.181,0,0,1-2.36-.029,4.969,4.969,0,0,1-1.419-.427,3.125,3.125,0,0,1-1.44-1.721,5.642,5.642,0,0,1-.3-2c0-2.013,0-4.026.009-6.039,0-.068.006-.136,0-.2C5918.425,800.77,5918.317,800.651,5918.1,800.652Zm57.869,10.841a6.05,6.05,0,0,1-2.292-.527,3,3,0,0,1-1.493-1.754,5.339,5.339,0,0,1-.292-1.863q0-2.984,0-5.968c0-.045,0-.091,0-.136,0-.546-.045-.594-.565-.587-.339,0-.678.025-1.016.032a2.734,2.734,0,0,1-.334-.042V798.32a1.913,1.913,0,0,1,.367-.072c.362,0,.724.02,1.085.021a3.194,3.194,0,0,0,.418-.056c.018-.176.044-.328.044-.479,0-.565-.013-1.13-.012-1.7,0-.355.089-.437.44-.438q1.153,0,2.306,0a.3.3,0,0,1,.368.434c0,.588-.01,1.175-.01,1.763a3.92,3.92,0,0,0,.044.416,3.048,3.048,0,0,0,.41.055c1.04,0,2.08-.013,3.12-.022.38,0,.452.059.452.41,0,.52,0,1.04,0,1.559,0,.4-.087.47-.476.465q-1.594-.02-3.187-.032a1.654,1.654,0,0,0-.288.052,1.466,1.466,0,0,0-.075.323c0,2.148,0,4.3,0,6.443a1.2,1.2,0,0,0,.736,1.191,2.1,2.1,0,0,0,.793.147,8.5,8.5,0,0,0,2.417-.245,1.326,1.326,0,0,1,.265-.043.569.569,0,0,1,.161.048,3.045,3.045,0,0,1,.176,1.1c.058.378.114.755.173,1.148a1.231,1.231,0,0,1-.788.334A12.465,12.465,0,0,1,5975.971,811.493Zm-35.876,22.2c.1.81.193,1.545.288,2.3a1.116,1.116,0,0,1-.719.31,12.447,12.447,0,0,1-2.951.368,5.956,5.956,0,0,1-2.359-.534,3,3,0,0,1-1.486-1.759,5.469,5.469,0,0,1-.286-1.93q0-3.018.008-6.036c0-.068.006-.136,0-.2-.019-.258-.122-.369-.383-.372-.361,0-.723.014-1.084.021-.111,0-.222,0-.333,0-.049-.066-.108-.113-.122-.171a1.507,1.507,0,0,1-.034-.335c0-.606,0-1.212,0-1.847.63-.162,1.243.013,1.867-.1a1.632,1.632,0,0,0,.089-.375c0-.61-.021-1.22-.026-1.83,0-.342.1-.426.451-.425.835,0,1.67,0,2.468,0a.4.4,0,0,1,.2.432c-.008.588-.02,1.175-.023,1.763,0,.13.022.26.037.42a14.5,14.5,0,0,0,1.978.047c.63.012,1.262,0,1.9,0a.876.876,0,0,1,.109.266c.008.587.011,1.175,0,1.763,0,.313-.1.4-.418.394-1.018-.006-2.036.006-3.052-.034-.486-.019-.576.107-.562.583.023.768.011,1.537.011,2.306q0,1.8,0,3.595a4.26,4.26,0,0,0,.015.542,1.166,1.166,0,0,0,.989,1.053,3.889,3.889,0,0,0,.737.076,7.861,7.861,0,0,0,2.279-.265A2.14,2.14,0,0,1,5940.1,833.69Zm6.924-31.054a5.45,5.45,0,0,0-.309,1.933c.012.384-.017.77.006,1.153a3.363,3.363,0,0,0,.9,2.277,3.024,3.024,0,0,0,1.416.752,6.635,6.635,0,0,0,2.016.209,12.256,12.256,0,0,0,1.678-.188c.808-.149.877-.353,1.044.694.063.4.161.794.246,1.19a.285.285,0,0,1-.2.369,2.521,2.521,0,0,1-.454.139,13.732,13.732,0,0,1-3.43.325,13.9,13.9,0,0,1-2.276-.326,5.2,5.2,0,0,1-2.856-1.708,5.044,5.044,0,0,1-.893-1.726,10.253,10.253,0,0,1-.276-3.958,6.979,6.979,0,0,1,1.082-3.166,5.231,5.231,0,0,1,2.538-2.046,10.472,10.472,0,0,1,2.236-.5,9.333,9.333,0,0,1,3.289.26,5.365,5.365,0,0,1,1.022.357c.277.109.346.272.231.534a9.354,9.354,0,0,0-.548,1.525.34.34,0,0,1-.514.267,5.761,5.761,0,0,0-1.169-.332,5.041,5.041,0,0,0-2.939.107A2.873,2.873,0,0,0,5947.019,802.636Zm-86.762,17.081a.671.671,0,0,1,.008.267l-.008,15.472c0,.269,0,.538,0,.789-.056.048-.089.1-.124.1q-1.421.034-2.841.054a.484.484,0,0,1-.173-.069c-.084-.572-.138-14.8-.062-16.49a2.293,2.293,0,0,1,.058-.321.972.972,0,0,1,.216-.055q1.256,0,2.511,0a.39.39,0,0,1,.2.021A.629.629,0,0,1,5860.257,819.717Zm153.412,3.648c.081.022.144.1.235.168-.157.774-.207,1.56-.414,2.272-.226.155-.4.061-.572.026a4.505,4.505,0,0,0-3.793,1.006,1.066,1.066,0,0,0-.438.929c.02,2.715.016,5.43.018,8.144,0,.131-.021.263-.03.372-.067.044-.1.09-.142.091q-1.387.012-2.774.012c-.037,0-.074-.046-.144-.092V823.452h2.938c.208.165.149.356.148.531s-.019.361-.021.542c0,.116.026.244.155.267a.5.5,0,0,0,.318-.047,1.4,1.4,0,0,0,.29-.283,4.292,4.292,0,0,1,2.42-1.265A3.833,3.833,0,0,1,6013.669,823.365ZM5928.1,804.939c0-2.123-.017-4.247-.025-6.371,0-.239.09-.332.325-.331q1.219,0,2.439.005c.278,0,.375.089.37.358s-.035.541-.036.812a.254.254,0,0,0,.4.2,1.967,1.967,0,0,0,.353-.312,4.348,4.348,0,0,1,2.478-1.287,4.056,4.056,0,0,1,1.739.162,1.01,1.01,0,0,1,.274.176c-.124.716-.237,1.4-.363,2.088-.047.26-.159.311-.442.264a5.3,5.3,0,0,0-1-.14,4.725,4.725,0,0,0-3.087,1.18.929.929,0,0,0-.334.771c.013.926.006,1.853.008,2.779q.007,2.745.01,5.49a2.548,2.548,0,0,1-.068.408h-2.962a1,1,0,0,1-.09-.292C5928.087,808.915,5928.1,806.927,5928.1,804.939Zm13.068-6.4q0,6.1,0,12.205a1.881,1.881,0,0,1,0,.2.277.277,0,0,1-.258.267,2.06,2.06,0,0,1-.271.008c-.769,0-1.537.007-2.305.006a2.635,2.635,0,0,1-.33-.048V798.348a.835.835,0,0,1,.28-.106c.813-.006,1.627,0,2.44.008a2.292,2.292,0,0,1,.379.066A.943.943,0,0,1,5941.171,798.536Zm-37.908,25.35q0,6.2,0,12.4a1.335,1.335,0,0,1-.284.1,26.348,26.348,0,0,1-2.883-.072v-12.8a4.8,4.8,0,0,1,1.536-.07,6.977,6.977,0,0,1,1.518.033c.038.047.054.063.066.082a.145.145,0,0,1,.03.059C5903.255,823.707,5903.263,823.8,5903.263,823.886Zm38.313-29.627c-.242.237-.5.46-.731.706-.357.377-.7.768-1.048,1.15a1.49,1.49,0,0,1-.229.152c-.409-.414-.789-.8-1.166-1.181q-.426-.435-.846-.876c-.141-.147-.157-.289-.029-.416.657-.65,1.318-1.3,2-1.968a2.9,2.9,0,0,1,.313.238c.546.54,1.087,1.086,1.629,1.631a1.847,1.847,0,0,1,.14.146A.276.276,0,0,1,5941.576,794.259Zm-37.806,24.882c.023.025.009.086.009.091-.357.379-.7.739-1.036,1.1s-.669.719-1,1.079c-.089-.036-.168-.044-.208-.088-.669-.722-1.384-1.4-2.05-2.181l2.14-2.151a3.062,3.062,0,0,1,.322.251Q5902.861,818.186,5903.77,819.141Z" transform="translate(-5857.021 -791.71)" fill="#fff"/></svg>