<svg xmlns="http://www.w3.org/2000/svg" width="17.623" height="17.622" viewBox="0 0 17.623 17.622">
  <g id="pen" transform="translate(0.5 0.5)">
    <path id="Path_543" data-name="Path 543" d="M654.737,355.236l10.243,10.243a.5.5,0,0,0,.19.119l4.259,1.473a.834.834,0,0,0,1.061-1.06l-1.474-4.26a.5.5,0,0,0-.118-.189l-10.244-10.243a2.769,2.769,0,0,0-3.917,0h0A2.769,2.769,0,0,0,654.737,355.236Z" transform="translate(-653.926 -350.508)" fill="#fff" stroke="#000" stroke-width="1"/>
    <line id="Line_8" data-name="Line 8" x1="3.917" y2="3.917" transform="translate(1.802 1.802)" fill="none" stroke="#000" stroke-width="1"/>
    <line id="Line_9" data-name="Line 9" x1="9.023" y1="9.023" transform="translate(3.761 3.76)" fill="none" stroke="#000" stroke-width="1"/>
    <line id="Line_10" data-name="Line 10" x1="3.917" y2="3.917" transform="translate(11.136 11.135)" fill="none" stroke="#000" stroke-width="1"/>
  </g>
</svg>
